<svg xmlns="http://www.w3.org/2000/svg" width="177" height="130.414" viewBox="0 0 177 130.414"><defs><style>.a{fill:#6459b0;}.b{fill:#ff495d;}</style></defs><g transform="translate(-93.738 -162.593)"><g transform="translate(93.738 162.749)"><path class="a" d="M172.251,264.561a39.109,39.109,0,1,1,21.877-19.882l-3.553-3.553a13.268,13.268,0,0,0-18.226-.695,13.027,13.027,0,0,0-.456,18.856l12.626,12.626a.385.385,0,0,1-.494.588l-11.243-7.872a.58.58,0,0,0-.533-.07m35.231-7.439,6.54,4.579a.386.386,0,0,0,.553-.116A65.13,65.13,0,1,0,93.738,227.8c-.02,34.848,29.44,64.719,64.284,65.163a64.789,64.789,0,0,0,36.743-10.8l6.735,6.734a13.267,13.267,0,0,0,18.225.7,13.026,13.026,0,0,0,.456-18.856l-13.116-13.116a.325.325,0,0,1,.416-.5" transform="translate(-93.738 -162.712)"/></g><g transform="translate(224.812 162.593)"><path class="b" d="M235.567,162.594a3.759,3.759,0,0,1,2.8,1.158,3.83,3.83,0,0,1,1.13,2.773v66.72a3.847,3.847,0,0,1-1.158,2.828,3.787,3.787,0,0,1-2.773,1.157H220.22a3.952,3.952,0,0,1-3.986-3.985v-46.1q0-2.424-2.207-1.4L203.8,190.166a3.835,3.835,0,0,1-2.988.08,3.7,3.7,0,0,1-2.182-1.965l-4.631-10.07a3.787,3.787,0,0,1,2.047-5.277l20.3-8.4a19.788,19.788,0,0,1,8.4-1.938Z" transform="translate(-193.572 -162.593)"/></g></g></svg>