<?xml version="1.0" encoding="UTF-8" standalone="no"?>
<svg
   xmlns:dc="http://purl.org/dc/elements/1.1/"
   xmlns:cc="http://creativecommons.org/ns#"
   xmlns:rdf="http://www.w3.org/1999/02/22-rdf-syntax-ns#"
   xmlns:svg="http://www.w3.org/2000/svg"
   xmlns="http://www.w3.org/2000/svg"
   xmlns:sodipodi="http://sodipodi.sourceforge.net/DTD/sodipodi-0.dtd"
   xmlns:inkscape="http://www.inkscape.org/namespaces/inkscape"
   width="268.73114"
   height="189.10371"
   viewBox="0 0 268.73115 189.10371"
   version="1.1"
   id="svg36"
   sodipodi:docname="Q2-02.svg"
   inkscape:version="0.92.3 (2405546, 2018-03-11)">
  <metadata
     id="metadata40">
    <rdf:RDF>
      <cc:Work
         rdf:about="">
        <dc:format>image/svg+xml</dc:format>
        <dc:type
           rdf:resource="http://purl.org/dc/dcmitype/StillImage" />
        <dc:title></dc:title>
      </cc:Work>
    </rdf:RDF>
  </metadata>
  <sodipodi:namedview
     pagecolor="#ffffff"
     bordercolor="#666666"
     borderopacity="1"
     objecttolerance="10"
     gridtolerance="10"
     guidetolerance="10"
     inkscape:pageopacity="0"
     inkscape:pageshadow="2"
     inkscape:window-width="1869"
     inkscape:window-height="1025"
     id="namedview38"
     showgrid="false"
     fit-margin-top="0"
     fit-margin-left="0"
     fit-margin-right="0"
     fit-margin-bottom="0"
     inkscape:zoom="1.0237634"
     inkscape:cx="153.50351"
     inkscape:cy="21.311379"
     inkscape:window-x="51"
     inkscape:window-y="27"
     inkscape:window-maximized="1"
     inkscape:current-layer="svg36" />
  <defs
     id="defs24">
    <style
       id="style22">.a{fill:#fff;}.b{fill:#ff495d;font-size:149px;font-family:PraktikaRounded-BlackExt, Praktika Rounded;font-weight:800;letter-spacing:-0.13em;}</style>
  </defs>
  <g
     transform="translate(-333.95099,-174.85506)"
     id="g34">
    <g
       transform="translate(333.951,185.957)"
       id="g28">
      <path
         class="a"
         d="m 441.245,301.895 a 53.446,53.446 0 1 1 29.895,-27.169 l -4.855,-4.855 c -6.777,-6.777 -17.818,-7.4 -24.907,-0.949 a 17.8,17.8 0 0 0 -0.623,25.768 l 17.255,17.255 a 0.527,0.527 0 0 1 -0.675,0.8 L 441.972,301.99 a 0.789,0.789 0 0 0 -0.727,-0.1 m 48.143,-10.166 8.937,6.258 a 0.53,0.53 0 0 0 0.757,-0.158 88.632,88.632 0 0 0 12.833,-48.924 c -1.441,-46.651 -39.422,-84.668 -86.073,-86.144 a 89.006,89.006 0 0 0 -91.891,88.9 c -0.027,47.621 40.231,88.443 87.849,89.049 a 88.544,88.544 0 0 0 50.214,-14.764 l 9.2,9.2 c 6.777,6.778 17.816,7.4 24.905,0.951 a 17.8,17.8 0 0 0 0.623,-25.768 L 488.82,292.4 a 0.444,0.444 0 0 1 0.567,-0.678"
         transform="translate(-333.951,-162.712)"
         id="path26"
         inkscape:connector-curvature="0"
         style="fill:#ffffff" />
    </g>
    <text
       class="b"
       transform="translate(511.958,285.441)"
       id="text32"
       style="font-weight:800;font-size:149px;font-family:PraktikaRounded-BlackExt, 'Praktika Rounded';letter-spacing:-0.13em;fill:#ff495d">
      <tspan
         x="0"
         y="0"
         id="tspan30">2</tspan>
    </text>
  </g>
</svg>
