<svg xmlns="http://www.w3.org/2000/svg" width="239.069" height="176.146" viewBox="0 0 239.069 176.146"><defs><style>.a{fill:#fff;}.b{fill:#ff495d;}</style></defs><g transform="translate(-93.738 -136.593)"><g transform="translate(93.738 136.803)"><path class="a" d="M199.783,300.276a52.824,52.824,0,1,1,29.549-26.853l-4.8-4.8c-6.7-6.7-17.611-7.315-24.617-.938a17.6,17.6,0,0,0-.615,25.469l17.054,17.054a.521.521,0,0,1-.667.794L200.5,300.37a.784.784,0,0,0-.72-.094m47.585-10.048,8.833,6.185a.522.522,0,0,0,.747-.156A87.588,87.588,0,0,0,269.632,247.9c-1.424-46.108-38.963-83.683-85.072-85.143a87.971,87.971,0,0,0-90.823,87.87c-.027,47.068,39.763,87.414,86.827,88.014a87.509,87.509,0,0,0,49.628-14.593l9.1,9.1c6.7,6.7,17.609,7.315,24.616.94a17.594,17.594,0,0,0,.615-25.468L246.806,290.9a.439.439,0,0,1,.562-.67" transform="translate(-93.738 -162.712)"/></g><g transform="translate(270.777 136.593)"><path class="b" d="M250.293,162.595a5.077,5.077,0,0,1,3.783,1.564A5.173,5.173,0,0,1,255.6,167.9v90.117a5.2,5.2,0,0,1-1.564,3.82,5.114,5.114,0,0,1-3.745,1.562H229.565a5.338,5.338,0,0,1-5.384-5.382v-62.26q0-3.274-2.981-1.892l-13.819,5.965a5.18,5.18,0,0,1-4.036.108,4.993,4.993,0,0,1-2.947-2.655l-6.255-13.6a5.116,5.116,0,0,1,2.765-7.127l27.421-11.348a26.728,26.728,0,0,1,11.346-2.617Z" transform="translate(-193.572 -162.593)"/></g></g></svg>