<?xml version="1.0" encoding="UTF-8" standalone="no"?>
<svg
   xmlns:dc="http://purl.org/dc/elements/1.1/"
   xmlns:cc="http://creativecommons.org/ns#"
   xmlns:rdf="http://www.w3.org/1999/02/22-rdf-syntax-ns#"
   xmlns:svg="http://www.w3.org/2000/svg"
   xmlns="http://www.w3.org/2000/svg"
   id="svg16"
   version="1.1"
   viewBox="0 0 122 121.839"
   height="121.839"
   width="122">
  <metadata
     id="metadata20">
    <rdf:RDF>
      <cc:Work
         rdf:about="">
        <dc:format>image/svg+xml</dc:format>
        <dc:type
           rdf:resource="http://purl.org/dc/dcmitype/StillImage" />
        <dc:title></dc:title>
      </cc:Work>
    </rdf:RDF>
  </metadata>
  <defs
     id="defs4">
    <style
       id="style2">.a{fill:#6459b0;}</style>
  </defs>
  <g
     style="fill:#ff495d;fill-opacity:1"
     id="g14"
     transform="translate(-686.982 -992.055)">
    <g
       style="fill:#ff495d;fill-opacity:1"
       id="g12"
       transform="translate(686.982 992.055)">
      <path
         style="fill:#ff495d;fill-opacity:1"
         id="path6"
         transform="translate(-686.982 -992.054)"
         d="M760.42,1087.32a36.585,36.585,0,1,1,20.462-18.6l-3.322-3.323a12.411,12.411,0,0,0-17.048-.649,12.183,12.183,0,0,0-.426,17.637l11.809,11.809a.361.361,0,0,1-.461.551l-10.517-7.363a.54.54,0,0,0-.5-.065m32.954-6.958,6.115,4.283a.362.362,0,0,0,.518-.108,60.92,60.92,0,1,0-113.025-31.6c-.02,32.595,27.537,60.535,60.128,60.951a60.605,60.605,0,0,0,34.37-10.105l6.3,6.3a12.411,12.411,0,0,0,17.048.651,12.185,12.185,0,0,0,.426-17.637l-12.268-12.269a.3.3,0,0,1,.389-.464"
         class="a" />
      <path
         style="fill:#ff495d;fill-opacity:1"
         id="path8"
         transform="translate(-665.878 -991.509)"
         d="M780.722,995.612h1.6a.945.945,0,0,1,.7.258.922.922,0,0,1,.251.658c-.006.632-.324.926-1,.926h-1.556Zm2.406,2.881a1.953,1.953,0,0,0,.822-.491,2.028,2.028,0,0,0,.565-1.465,2.085,2.085,0,0,0-2.188-2.092h-2.414a.387.387,0,0,0-.387.388v5.485a.387.387,0,0,0,.387.387h.424a.388.388,0,0,0,.387-.387v-1.69h.938l1.781,1.95a.388.388,0,0,0,.286.127h.558a.388.388,0,0,0,.283-.65Z"
         class="a" />
      <path
         style="fill:#ff495d;fill-opacity:1"
         id="path10"
         transform="translate(-666.579 -992.054)"
         d="M782.513,1003.024a4.9,4.9,0,1,1,4.9-4.905,4.911,4.911,0,0,1-4.9,4.905m0-10.969a6.065,6.065,0,1,0,6.065,6.064,6.072,6.072,0,0,0-6.065-6.064"
         class="a" />
    </g>
  </g>
</svg>
