<svg xmlns="http://www.w3.org/2000/svg" xmlns:xlink="http://www.w3.org/1999/xlink" width="26.609" height="26.124" viewBox="0 0 26.609 26.124"><defs><style>.a{fill:#615d59;}.b{clip-path:url(#a);}</style><clipPath id="a"><path class="a" d="M0,14.5H26.609V-11.623H0Z" transform="translate(0 11.623)"/></clipPath></defs><g transform="translate(0 11.623)"><g class="b" transform="translate(0 -11.623)"><g transform="translate(1.491 19.509)"><path class="a" d="M1.22,0a5.562,5.562,0,0,1,.432,2.98,3.372,3.372,0,0,1-.465,1.279l-2.164.892Z" transform="translate(0.978)"/></g><g transform="translate(4.235 14.59)"><path class="a" d="M.865,0C2.481,3.007,2.6,5,2.391,6.172a3.278,3.278,0,0,1-.924,1.881L.1,8.615A6.561,6.561,0,0,0-.693,3.646Z" transform="translate(0.693)"/></g><g transform="translate(14.971 16.909)"><path class="a" d="M1.361.662-1.091,1.672a6.9,6.9,0,0,0,.634-2.2c.312.234.618.452.908.643.33.218.634.4.91.551" transform="translate(1.091 0.531)"/></g><g transform="translate(10.712 13.277)"><path class="a" d="M2.17,1.586A5.025,5.025,0,0,1,.729,5.3L-1.739,6.315A12.723,12.723,0,0,0-.8,3.418,10.884,10.884,0,0,0-.9-1.271c.247.254.5.51.76.764C.632.257,1.417.965,2.17,1.586" transform="translate(1.739 1.271)"/></g><g transform="translate(8.761 7.775)"><path class="a" d="M3.955,3.955a.515.515,0,0,0,.45.254.526.526,0,0,0,.258-.065c.146-.085.288-.164.434-.238.227.281.436.555.625.816A6.064,6.064,0,0,1,6.76,6.578,5.994,5.994,0,0,1,4.865,5.56,30.34,30.34,0,0,1,1.112,2.375,30.174,30.174,0,0,1-2.134-1.311,5.892,5.892,0,0,1-3.17-3.17,6.108,6.108,0,0,1-1.28-2.152c.16.115.328.234.5.362-.036.034-.074.074-.11.108a.5.5,0,0,0,0,.721A.515.515,0,0,0-.525-.81.517.517,0,0,0-.156-.961c.063-.063.128-.126.193-.193C.824-.513,1.66.233,2.478,1.038c.7.688,1.36,1.389,1.946,2.063l-.281.157a.505.505,0,0,0-.189.7" transform="translate(3.17 3.17)"/></g><g transform="translate(6.305 9.022)"><path class="a" d="M1.718,3.164a.523.523,0,0,0-.686-.256A.509.509,0,0,0,.76,3.56a.522.522,0,0,0,.488.328.493.493,0,0,0,.169-.029.505.505,0,0,0,.319-.65.234.234,0,0,0-.018-.045m-.69-.643a.505.505,0,0,0,.27-.67A9.558,9.558,0,0,0-.37-.524L.489-2.536c.153.27.337.566.562.892.153.223.324.456.5.695a9.46,9.46,0,0,1,1.391,7.17A10.306,10.306,0,0,1,1.493,9.94L.372,10.4a5.316,5.316,0,0,0,.27-.908C1.059,7.407.378,4.832-1.377,1.831L-.813.514A8.787,8.787,0,0,1,.345,2.251a.523.523,0,0,0,.479.31.511.511,0,0,0,.2-.04" transform="translate(1.377 2.536)"/></g><g transform="translate(25.535 5.177)"><path class="a" d="M.009.215A.521.521,0,0,1,.638-.158c.016,0,.029.007.047.013a.507.507,0,0,1,.364.625.521.521,0,0,1-.5.378A.694.694,0,0,1,.413.84L.386.834A.511.511,0,0,1,.009.215" transform="translate(0.007 0.173)"/></g><g transform="translate(23.864 18.321)"><path class="a" d="M.288,0A.515.515,0,0,1,.807.51a.513.513,0,0,1-.519.508A.514.514,0,0,1-.231.51.516.516,0,0,1,.288,0" transform="translate(0.231)"/></g><g transform="translate(21.959 8.86)"><path class="a" d="M.865,0a1.546,1.546,0,0,1,1.56,1.531A1.546,1.546,0,0,1,.865,3.061,1.545,1.545,0,0,1-.693,1.531,1.545,1.545,0,0,1,.865,0m.519,1.531a.519.519,0,1,0-.519.51.515.515,0,0,0,.519-.51" transform="translate(0.693)"/></g><g transform="translate(20.608 20.29)"><path class="a" d="M1.442.565a.51.51,0,1,1,0,1.02H.923V2.1a.515.515,0,0,1-.521.51A.513.513,0,0,1-.118,2.1v-.51H-.639a.513.513,0,0,1-.517-.51A.514.514,0,0,1-.639.565h.521V.055A.511.511,0,0,1,.4-.453.513.513,0,0,1,.923.055v.51Z" transform="translate(1.156 0.453)"/></g><g transform="translate(22.306 14.493)"><path class="a" d="M.288,0A.518.518,0,0,1,.807.51a.515.515,0,0,1-.519.51A.513.513,0,0,1-.231.51.516.516,0,0,1,.288,0" transform="translate(0.231)"/></g><g transform="translate(18.709 0.003)"><path class="a" d="M.865,0a1.546,1.546,0,0,1,1.56,1.528A1.546,1.546,0,0,1,.865,3.061,1.546,1.546,0,0,1-.693,1.528,1.545,1.545,0,0,1,.865,0m.519,1.528a.519.519,0,1,0-.519.51.516.516,0,0,0,.519-.51" transform="translate(0.693)"/></g><g transform="translate(0 0)"><path class="a" d="M11.843,7.1a.508.508,0,0,1-.4.6,14.041,14.041,0,0,0-2.96.987c.274.346.524.686.744,1,1.038,1.51,1.281,2.412.787,2.913,0,0-.007.009-.009.013l-.011.009a.27.27,0,0,0-.025.022.863.863,0,0,1-.445.209L-8.77,20.392h0a.5.5,0,0,1-.2.04.522.522,0,0,1-.369-.151.5.5,0,0,1-.11-.557L-1.782,1.769A.847.847,0,0,1-1.539,1.3h0v0a.049.049,0,0,1,.013-.011C-1.011.8-.1,1.036,1.448,2.059c.285.187.587.4.9.634A12.166,12.166,0,0,0,4.826-5.181a.516.516,0,0,1,.519-.51.517.517,0,0,1,.521.51A14.922,14.922,0,0,1,4.855.436a11.414,11.414,0,0,1-1.7,2.893c.809.656,1.654,1.414,2.495,2.241.789.773,1.522,1.555,2.162,2.306a15.172,15.172,0,0,1,3.414-1.169.519.519,0,0,1,.616.393M9.2,11.831A5.974,5.974,0,0,0,8.161,9.975c-.189-.261-.4-.535-.627-.816-.144.074-.285.153-.432.238a.538.538,0,0,1-.258.065.513.513,0,0,1-.45-.254.5.5,0,0,1,.189-.7l.281-.157C6.278,7.68,5.617,6.979,4.916,6.291,4.1,5.486,3.264,4.74,2.477,4.1c-.065.067-.13.13-.2.193a.508.508,0,0,1-.366.151.52.52,0,0,1-.369-.151.509.509,0,0,1,0-.721c.038-.034.076-.074.112-.108-.171-.128-.339-.247-.5-.362A6.106,6.106,0,0,0-.733,2.083,5.925,5.925,0,0,0,.306,3.942,30.174,30.174,0,0,0,3.551,7.628,30.34,30.34,0,0,0,7.3,10.813,6,6,0,0,0,9.2,11.831M5.478,13.42l2.454-1.009c-.279-.146-.58-.333-.913-.551-.29-.191-.6-.409-.908-.643a6.841,6.841,0,0,1-.634,2.2m-1.789.739a5.042,5.042,0,0,0,1.441-3.718c-.753-.62-1.537-1.328-2.313-2.093-.261-.254-.512-.51-.762-.764a10.888,10.888,0,0,1,.1,4.689,12.74,12.74,0,0,1-.937,2.9ZM1.133,12.088A9.448,9.448,0,0,0-.256,4.918c-.18-.238-.351-.472-.5-.695-.227-.326-.409-.623-.562-.892L-2.18,5.342A9.635,9.635,0,0,1-.512,7.718a.5.5,0,0,1-.272.67.55.55,0,0,1-.2.04.526.526,0,0,1-.481-.31A8.768,8.768,0,0,0-2.623,6.381L-3.187,7.7c1.755,3,2.434,5.576,2.018,7.662a5.316,5.316,0,0,1-.27.908l1.122-.461a10.274,10.274,0,0,0,1.45-3.72M-2.173,15.07c.209-1.173.09-3.165-1.526-6.172l-1.558,3.646a6.561,6.561,0,0,1,.791,4.969l1.369-.562a3.278,3.278,0,0,0,.924-1.881m-3.2,1.728a5.562,5.562,0,0,0-.432-2.98L-8,18.97l2.164-.892A3.372,3.372,0,0,0-5.372,16.8" transform="translate(9.492 5.691)"/></g><g transform="translate(19.256 5.104)"><path class="a" d="M.084,1.549a.5.5,0,0,1,0-.721A8.547,8.547,0,0,1,5.153-1.24a.521.521,0,0,1,.56.468.512.512,0,0,1-.476.548A7.475,7.475,0,0,0,.819,1.549.529.529,0,0,1,.453,1.7a.53.53,0,0,1-.369-.151" transform="translate(0.067 1.242)"/></g><g transform="translate(15.462 7.176)"><path class="a" d="M1.442.566a.51.51,0,1,1,0,1.02H.923V2.1A.515.515,0,0,1,.4,2.6.514.514,0,0,1-.115,2.1v-.51H-.637a.515.515,0,0,1-.519-.51A.516.516,0,0,1-.637.566h.521V.056A.514.514,0,0,1,.4-.454a.515.515,0,0,1,.521.51v.51Z" transform="translate(1.156 0.454)"/></g><g transform="translate(16.901 3.831)"><path class="a" d="M.288,0A.515.515,0,0,1,.807.51a.513.513,0,0,1-.519.51A.513.513,0,0,1-.231.51.515.515,0,0,1,.288,0" transform="translate(0.231)"/></g><g transform="translate(8.758 1.819)"><path class="a" d="M.865,0a1.546,1.546,0,0,1,1.56,1.531A1.547,1.547,0,0,1,.865,3.061,1.547,1.547,0,0,1-.693,1.531,1.545,1.545,0,0,1,.865,0m.519,1.531a.519.519,0,1,0-.519.51.515.515,0,0,0,.519-.51" transform="translate(0.693)"/></g><g transform="translate(8.407 14.422)"><path class="a" d="M.561.192A.5.5,0,0,1,.242.839.5.5,0,0,1,.071.871.524.524,0,0,1-.415.542.509.509,0,0,1-.143-.109.523.523,0,0,1,.543.147.188.188,0,0,1,.561.192" transform="translate(0.45 0.154)"/></g><g transform="translate(6.715 0.513)"><path class="a" d="M.288,0A.514.514,0,0,1,.807.508a.513.513,0,0,1-.519.51A.513.513,0,0,1-.231.508.514.514,0,0,1,.288,0" transform="translate(0.231)"/></g><g transform="translate(3.301 2.229)"><path class="a" d="M1.442.566a.509.509,0,1,1,0,1.018H.923v.51A.515.515,0,0,1,.4,2.6a.511.511,0,0,1-.517-.51v-.51H-.635a.515.515,0,0,1-.521-.51A.515.515,0,0,1-.635.566h.519V.056A.511.511,0,0,1,.4-.454a.515.515,0,0,1,.521.51v.51Z" transform="translate(1.156 0.454)"/></g></g></g></svg>