<svg xmlns="http://www.w3.org/2000/svg" xmlns:xlink="http://www.w3.org/1999/xlink" width="20.461" height="19.792" viewBox="0 0 20.461 19.792"><defs><style>.a{fill:#615d59;}.b{clip-path:url(#a);}</style><clipPath id="a"><path class="a" d="M0,7.32H20.461V-12.472H0Z" transform="translate(0 12.472)"/></clipPath></defs><g transform="translate(0 12.472)"><g class="b" transform="translate(0 -12.472)"><g transform="translate(5.816 0)"><path class="a" d="M.318,3.069a.844.844,0,0,0,.86-.825V-.971A2.669,2.669,0,0,1,3.9-3.58,2.669,2.669,0,0,1,6.618-.971V2.244a.861.861,0,0,0,1.72,0V-.971A4.356,4.356,0,0,0,3.9-5.229,4.357,4.357,0,0,0-.542-.971V2.244a.844.844,0,0,0,.86.825" transform="translate(0.542 5.229)"/></g><g transform="translate(0 6.445)"><path class="a" d="M7.442,0H2.876V1.028a1.687,1.687,0,0,1-1.72,1.649A1.687,1.687,0,0,1-.564,1.028V0h-3.72V1.028A1.687,1.687,0,0,1-6,2.677a1.687,1.687,0,0,1-1.72-1.649V0h-4.616a.311.311,0,0,0-.327.4l3.009,11.751a1.751,1.751,0,0,0,1.619,1.2H3.141a1.757,1.757,0,0,0,1.62-1.2L7.77.4A.312.312,0,0,0,7.442,0" transform="translate(12.68 0)"/></g></g></g></svg>