<svg xmlns="http://www.w3.org/2000/svg" width="56.296" height="56.305" viewBox="0 0 56.296 56.305"><defs><style>.a{fill:#fff;}</style></defs><g transform="translate(184.744 -1119.822)"><path class="a" d="M-150.8,1164.24a16.867,16.867,0,0,1-6.669,1.015,16.933,16.933,0,0,1-16-15.956,16.871,16.871,0,0,1,18.285-17.7,16.9,16.9,0,0,1,15.363,15.327,16.821,16.821,0,0,1-1.561,8.7l-1.538-1.528a5.727,5.727,0,0,0-7.868-.275,5.622,5.622,0,0,0-.171,8.139l5.467,5.432a.166.166,0,0,1-.212.255l-4.864-3.382a.248.248,0,0,0-.23-.029m15.2-3.259,2.829,1.968a.168.168,0,0,0,.239-.051,27.994,27.994,0,0,0,4-15.467,28.214,28.214,0,0,0-27.273-27.123,28.113,28.113,0,0,0-28.935,28.173c.039,15.041,12.8,27.895,27.837,28.038a27.964,27.964,0,0,0,15.845-4.714l2.916,2.9a5.727,5.727,0,0,0,7.867.275,5.622,5.622,0,0,0,.171-8.14l-5.679-5.643a.14.14,0,0,1,.179-.214" transform="translate(0 -0.395)"/><path class="a" d="M124.925,1128.357l.74,0a.435.435,0,0,1,.324.118.426.426,0,0,1,.117.3c0,.291-.148.428-.46.429l-.718,0Zm1.115,1.326a.9.9,0,0,0,.378-.228.936.936,0,0,0,.258-.677.962.962,0,0,0-1.013-.962l-1.114,0a.179.179,0,0,0-.178.179l.008,2.531a.179.179,0,0,0,.179.178h.2a.179.179,0,0,0,.178-.179l0-.78h.433l.825.9a.179.179,0,0,0,.132.058h.257a.179.179,0,0,0,.13-.3Z" transform="translate(-256.755 -6.641)"/><path class="a" d="M116.91,1124.884a2.263,2.263,0,1,1,2.256-2.271,2.266,2.266,0,0,1-2.256,2.271m-.016-5.062a2.8,2.8,0,1,0,2.808,2.79,2.8,2.8,0,0,0-2.808-2.79" transform="translate(-248.227)"/></g></svg>