<svg xmlns="http://www.w3.org/2000/svg" width="28.59" height="25.503" viewBox="0 0 28.59 25.503"><defs><style>.a{fill:none;stroke:#615d59;stroke-miterlimit:10;stroke-width:2px;}</style></defs><path class="a" d="M354.407,555.331c-.288-.026-.556-.041-.821-.075a5.287,5.287,0,0,1-4.406-4.152,5.883,5.883,0,0,1,.718-4.461,5.655,5.655,0,0,1,5.167-2.765A5.249,5.249,0,0,1,359.906,548a6.793,6.793,0,0,1,.1,2.248c-.011.109-.017.218-.024.309.75-.076,1.493-.2,2.237-.212s1.483.107,2.25.171c0-.067,0-.188,0-.309a8.081,8.081,0,0,1,.221-2.394,5.351,5.351,0,0,1,4.433-3.78,5.847,5.847,0,0,1,4.273,10.314,4.78,4.78,0,0,1-2.678,1.043c-.13.01-.26.027-.4.041.112.436.23.856.326,1.281a9.526,9.526,0,0,1,.1,4.094,7.478,7.478,0,0,1-2.112,3.827,8.637,8.637,0,0,1-12.08.562,8.223,8.223,0,0,1-2.785-5.187,8.732,8.732,0,0,1,.531-4.376Z" transform="translate(-348.036 -542.874)"/></svg>