<svg xmlns="http://www.w3.org/2000/svg" width="40.004" height="35.514" viewBox="0 0 40.004 35.514"><defs><style>.a{fill:#fff;}</style></defs><path class="a" d="M513.1,302.474c-.435-.039-.84-.063-1.241-.114a7.99,7.99,0,0,1-6.659-6.275,8.889,8.889,0,0,1,1.086-6.742,8.546,8.546,0,0,1,7.808-4.178,7.932,7.932,0,0,1,7.317,6.228,10.263,10.263,0,0,1,.157,3.4c-.017.164-.026.329-.036.468,1.133-.115,2.256-.31,3.38-.321s2.241.162,3.4.258c0-.1,0-.284,0-.467a12.209,12.209,0,0,1,.333-3.618,8.087,8.087,0,0,1,6.7-5.713,8.836,8.836,0,0,1,6.458,15.586,7.225,7.225,0,0,1-4.047,1.576c-.2.016-.394.04-.609.062.169.66.348,1.294.492,1.936a14.389,14.389,0,0,1,.144,6.186,11.3,11.3,0,0,1-3.192,5.783,13.051,13.051,0,0,1-18.255.849,12.424,12.424,0,0,1-4.208-7.838,13.2,13.2,0,0,1,.8-6.614Z" transform="translate(-504.978 -285.161)"/></svg>