<svg xmlns="http://www.w3.org/2000/svg" width="227.521" height="202.4" viewBox="0 0 227.521 202.4"><defs><style>.a{fill:none;stroke:#ffe44e;stroke-miterlimit:10;stroke-width:4px;}</style></defs><path class="a" d="M205.717,497.018c-2.428-.219-4.69-.35-6.933-.635-18.04-2.3-33.817-17.112-37.2-35.054-2.5-13.259-1.435-26.177,6.066-37.659,10.177-15.581,24.692-23.965,43.619-23.338,19.511.646,36.337,15.191,40.876,34.79a57.315,57.315,0,0,1,.879,18.979c-.094.918-.142,1.839-.2,2.612,6.331-.643,12.6-1.728,18.884-1.789,6.254-.062,12.52.906,18.992,1.441,0-.569.008-1.587,0-2.607-.067-6.8-.088-13.576,1.862-20.214a45.177,45.177,0,0,1,37.424-31.911c24.721-3.29,43.363,13.948,49.964,30.031,8.44,20.564,2.907,43.556-13.89,57.038a40.345,40.345,0,0,1-22.6,8.8c-1.1.086-2.2.225-3.4.348.941,3.686,1.943,7.228,2.747,10.816,2.564,11.458,3.247,22.986.8,34.558a63.114,63.114,0,0,1-17.832,32.3c-11.387,11.279-24.431,19.692-40.622,22.145-23.061,3.5-43.725-2.037-61.355-17.4-13.259-11.558-21.026-26.368-23.509-43.788a73.73,73.73,0,0,1,4.479-36.943C205.061,498.753,205.359,497.962,205.717,497.018Z" transform="translate(-158.383 -398.298)"/></svg>