<?xml version="1.0" encoding="UTF-8" standalone="no"?>
<svg
   xmlns:dc="http://purl.org/dc/elements/1.1/"
   xmlns:cc="http://creativecommons.org/ns#"
   xmlns:rdf="http://www.w3.org/1999/02/22-rdf-syntax-ns#"
   xmlns:svg="http://www.w3.org/2000/svg"
   xmlns="http://www.w3.org/2000/svg"
   xmlns:sodipodi="http://sodipodi.sourceforge.net/DTD/sodipodi-0.dtd"
   xmlns:inkscape="http://www.inkscape.org/namespaces/inkscape"
   id="svg8"
   version="1.1"
   viewBox="0 0 28.59 25.503"
   height="25.503"
   width="28.59"
   sodipodi:docname="mickey-icon-white.svg"
   inkscape:version="0.92.3 (2405546, 2018-03-11)">
  <sodipodi:namedview
     pagecolor="#ffffff"
     bordercolor="#666666"
     borderopacity="1"
     objecttolerance="10"
     gridtolerance="10"
     guidetolerance="10"
     inkscape:pageopacity="0"
     inkscape:pageshadow="2"
     inkscape:window-width="1869"
     inkscape:window-height="1025"
     id="namedview7"
     showgrid="false"
     inkscape:zoom="9.2538132"
     inkscape:cx="14.295"
     inkscape:cy="12.7515"
     inkscape:window-x="51"
     inkscape:window-y="27"
     inkscape:window-maximized="1"
     inkscape:current-layer="svg8" />
  <metadata
     id="metadata12">
    <rdf:RDF>
      <cc:Work
         rdf:about="">
        <dc:format>image/svg+xml</dc:format>
        <dc:type
           rdf:resource="http://purl.org/dc/dcmitype/StillImage" />
        <dc:title />
      </cc:Work>
    </rdf:RDF>
  </metadata>
  <defs
     id="defs4">
    <style
       id="style2">.a{fill:none;stroke:#615d59;stroke-miterlimit:10;stroke-width:2px;}</style>
  </defs>
  <path
     style="fill:none;stroke:#ffffff;stroke-opacity:1"
     id="path6"
     transform="translate(-348.036 -542.874)"
     d="M354.407,555.331c-.288-.026-.556-.041-.821-.075a5.287,5.287,0,0,1-4.406-4.152,5.883,5.883,0,0,1,.718-4.461,5.655,5.655,0,0,1,5.167-2.765A5.249,5.249,0,0,1,359.906,548a6.793,6.793,0,0,1,.1,2.248c-.011.109-.017.218-.024.309.75-.076,1.493-.2,2.237-.212s1.483.107,2.25.171c0-.067,0-.188,0-.309a8.081,8.081,0,0,1,.221-2.394,5.351,5.351,0,0,1,4.433-3.78,5.847,5.847,0,0,1,4.273,10.314,4.78,4.78,0,0,1-2.678,1.043c-.13.01-.26.027-.4.041.112.436.23.856.326,1.281a9.526,9.526,0,0,1,.1,4.094,7.478,7.478,0,0,1-2.112,3.827,8.637,8.637,0,0,1-12.08.562,8.223,8.223,0,0,1-2.785-5.187,8.732,8.732,0,0,1,.531-4.376Z"
     class="a" />
</svg>
