<svg xmlns="http://www.w3.org/2000/svg" width="19.672" height="19.646" viewBox="0 0 19.672 19.646"><defs><style>.a{fill:#615d59;}</style></defs><path class="a" d="M1523.307,147.391c-.05-.009-.062.069-.081.122-.064.213-.464,1.792-.518,2.031-.02.091,0,.124.085.132a3.3,3.3,0,0,0,.505.022c.122,0,.244.009.366,0,.212-.014.216-.019.171-.23-.022-.095-.041-.185-.067-.272-.032-.112-.361-1.38-.411-1.675-.008-.05-.008-.121-.05-.131m-10.548-1.155c-.086,0-.1.108-.121.18a13.24,13.24,0,0,0-.28,1.472c-.1.668-.109.668.5.654h.372c.206.005.266-.086.2-.32-.171-.613-.348-1.223-.57-1.81-.026-.067-.031-.172-.1-.176m-2.2,2.311a1.775,1.775,0,0,0,.487-.041c.118-.031.122-.031.069-.308-.073-.383-.155-.756-.231-1.137a5.751,5.751,0,0,0-.148-.606c-.113-.315-.322-.292-.4.06-.135.587-.244,1.178-.334,1.773-.018.145-.009.2.055.216a2.393,2.393,0,0,0,.505.041m-3.422,3.466a1.621,1.621,0,0,0,.451-.055c.068-.026.109-.066.077-.234a17.193,17.193,0,0,0-.434-1.805c-.1-.316-.31-.281-.393.063-.125.537-.216,1.1-.306,1.67-.024.162-.009.252.09.292a1.483,1.483,0,0,0,.515.069m10.349-9.244a.774.774,0,0,0-.446.234.483.483,0,0,0-.131.308.635.635,0,0,0,.055.234,3.1,3.1,0,0,0,.2.388h-.064c-.127,0-.167.036-.181.154v1.051c0,.162-.031.117-.031.4,0,.145-1.093.118-1.246.113s-.2-.064-.208-.148a7.1,7.1,0,0,0-.329-.767c-.055-.121-.136-.248-.276-.239s-.2.145-.229.258a5.266,5.266,0,0,1-.443,1,.515.515,0,0,1-.081.181c-.086.145-.055.229.113.258.026.005.059,0,.085.005a.129.129,0,0,0-.026.107,11.78,11.78,0,0,1-.2,1.264,1.7,1.7,0,0,1-.471.975H1512.3c-.113,0,.014.442-.109.563-.071.078-.153.19-.27.118s-.108-.208-.069-.33a.911.911,0,0,1,.05-.1c.115-.213.095-.249-.139-.253h-2.251c-.091,0-.118,0-.086.1a2.672,2.672,0,0,1,.122.772,11.574,11.574,0,0,1-.117,1.345h0c-.009.148-.014.3-.022.5-.009.136-.167.744-.578.749h-2.013a.25.25,0,0,0-.227.108c-.185.26-.387.514-.578.777-.112.162-.1.175.1.2.586.072.166.072.406.072-.125,0-.145.6-.145.741a5.071,5.071,0,0,1-.125.816c-.024.15-.113.586-.19.93-.037.222-.087.582-.136.8-.026.126-.008.18.144.18h7.385v-2.31a2.311,2.311,0,1,1,4.622,0v2.31h7.353c.158,0,.177-.053.145-.18-.045-.218-.095-.578-.131-.8a6.972,6.972,0,0,0-.19-.93,6.334,6.334,0,0,1-.131-.816.077.077,0,0,0-.045-.087c-.008-.351-.1-.654-.068-.654,0,0,0-.014,0-.014.122,0,.24-.009.375-.021.208-.024.243-.078.144-.258a4.924,4.924,0,0,0-.406-.587.63.63,0,0,0-.407-.249c-.1-.274-.218-.549-.339-.821-.09-.207-.059-.379-.13-.6a.631.631,0,0,0-.172-.253.213.213,0,0,0-.334-.009c-.072.067-.116.136-.194.2-.062.055-.139.069-.179-.018a.483.483,0,0,0-.474-.266h-.51c-.506,0-.812-.633-.879-.758-.109-.213.215-.443.143-.668a.383.383,0,0,0-.357-.308.2.2,0,0,0,.222-.186,1.034,1.034,0,0,0-.009-.511c-.033-.121-.1-.365-.1-.365v0c-.013-.05-.378-1.156-.437-1.246-.019.055-.551,1.5-.559,1.529a.418.418,0,0,0-.005.227c.077.509.112.555.569.555h-.583c-.578,0-.818-.836-.818-.836a1.818,1.818,0,0,0-.085-.537,5.2,5.2,0,0,1-.253-.938c-.01-.393.054-1.95,0-2.153-.032-.118-.081-.153-.2-.149a1.047,1.047,0,0,0,.2-.6.529.529,0,0,0-.1-.379.55.55,0,0,0-.423-.19Zm.592-4.623c-.451.957-.938,2.474-1.444,3.417a2.049,2.049,0,0,0,.452.049h2.03c.461,0,.483-.026.293-.414-.393-.786-.807-2.145-1.21-2.926-.022-.046-.036-.1-.122-.127m-.176-1.155a1.224,1.224,0,0,0-.153.1c-.28.14-.552.315-.827.479v.136c.274.139.551.289.832.415.107.05.225.062.284-.217a1.814,1.814,0,0,0,0-.736c-.035-.157-.085-.19-.139-.176" transform="translate(-1505.919 -136.988)"/></svg>