<?xml version="1.0" standalone="no"?>
<!DOCTYPE svg PUBLIC "-//W3C//DTD SVG 1.1//EN" "http://www.w3.org/Graphics/SVG/1.1/DTD/svg11.dtd" >
<svg xmlns="http://www.w3.org/2000/svg" xmlns:xlink="http://www.w3.org/1999/xlink" version="1.1">
<metadata>
Created by FontForge 20161003 at Mon Feb 25 19:57:00 2019
 By www-data
Copyright (c) 2017 by Emil Bertell. All rights reserved.
</metadata>
<defs>
<font id="PraktikaRounded-ExtBdExtIta" horiz-adv-x="0" >
  <font-face 
    font-family="Praktika Rounded ExtBold Ext It"
    font-weight="800"
    font-style="italic"
    font-stretch="expanded"
    units-per-em="2048"
    panose-1="0 0 9 5 0 0 0 0 0 0"
    ascent="1638"
    descent="-410"
    x-height="958"
    cap-height="1382"
    bbox="-1984.38 -599.161 3424.64 2428.2"
    underline-thickness="0"
    underline-position="0"
    unicode-range="U+0020-25CA"
  />
<missing-glyph horiz-adv-x="966" 
d="M793 1536v-1933h-613v1933h613zM643 1407h-317v-64h125v-71h-127v-64h319v64h-127v71h127v64zM516 1157h-192v-201h319v66h-127v135zM451 1092v-70h-64v70h64zM643 903h-319v-63h127v-72h-127v-63h192v135h127v63zM643 788h-63v-129h-256v-65h319v194zM643 553h-192v-109
h65v43h64v-90h-193v156h-63v-219h319v219zM643 217h-319v-217h319v217zM580 154v-91h-193v91h193zM643 -45h-319v-64h135l-135 -92v-63h319v63h-197l136 92h61v64z" />
    <glyph glyph-name=".notdef" horiz-adv-x="966" 
d="M793 1536v-1933h-613v1933h613zM643 1407h-317v-64h125v-71h-127v-64h319v64h-127v71h127v64zM516 1157h-192v-201h319v66h-127v135zM451 1092v-70h-64v70h64zM643 903h-319v-63h127v-72h-127v-63h192v135h127v63zM643 788h-63v-129h-256v-65h319v194zM643 553h-192v-109
h65v43h64v-90h-193v156h-63v-219h319v219zM643 217h-319v-217h319v217zM580 154v-91h-193v91h193zM643 -45h-319v-64h135l-135 -92v-63h319v63h-197l136 92h61v64z" />
    <glyph glyph-name="glyph1" 
 />
    <glyph glyph-name="glyph2" horiz-adv-x="681" 
 />
    <glyph glyph-name="space" unicode=" " horiz-adv-x="581" 
 />
    <glyph glyph-name="exclam" unicode="!" horiz-adv-x="862" 
d="M309 399q-31 0 -49 22.5t-14 53.5l135 858q10 49 59 49h230q31 0 50 -22.5t13 -52.5l-135 -856q-2 -23 -18.5 -37.5t-38.5 -14.5h-232zM362 -37q-123 0 -174 53.5t-34 149.5q10 76 64 110.5t167 34.5q123 0 178 -49t41 -139q-25 -160 -242 -160z" />
    <glyph glyph-name="quotedbl" unicode="&#x22;" horiz-adv-x="1216" 
d="M322 1393q2 23 19 39t40 16h215q33 0 53.5 -24.5t12.5 -55.5l-105 -496q-2 -20 -18.5 -32.5t-36.5 -12.5h-172q-29 0 -45.5 20.5t-14.5 49.5zM815 1393q2 23 19.5 39t39.5 16h218q33 0 52 -24.5t11 -55.5l-102 -496q-10 -45 -58 -45h-172q-29 0 -45 20.5t-14 49.5z" />
    <glyph glyph-name="numbersign" unicode="#" horiz-adv-x="2048" 
d="M219 0q-39 0 -62.5 25.5t-11.5 56.5l48 102q4 14 -3.5 25.5t-21.5 11.5h-68q-39 0 -59.5 30t-5.5 66l61 156q14 35 51 35h168q14 0 21 14l123 285q6 14 -2 26.5t-23 12.5h-98q-39 0 -59.5 28.5t-6.5 65.5l62 158q14 35 51 35h201q12 0 18 12l88 205q16 33 51 32h187
q41 0 61.5 -28.5t5.5 -65.5l-51 -119q-6 -14 2 -25t23 -11h559q12 0 18 12l90 205q12 33 50 32h186q41 0 61.5 -28.5t5.5 -65.5l-51 -119q-6 -14 1 -25t24 -11h100q39 0 58.5 -30t5.5 -67l-60 -157q-12 -33 -51 -33h-203q-12 0 -18 -15l-125 -284q-4 -16 3 -27.5t22 -11.5
h131q39 0 59 -28.5t6 -65.5l-59 -158q-16 -35 -53 -35h-234q-12 0 -18 -12l-76 -176q-12 -33 -49 -33h-189q-41 0 -63.5 25.5t-9.5 56.5l47 102q4 14 -3.5 25.5t-21.5 11.5h-561q-12 0 -19 -12l-75 -176q-12 -33 -49 -33h-189zM700 508h560q14 0 20 14l123 285q6 14 -2 26.5
t-23 12.5h-559q-12 0 -18 -15l-125 -284q-4 -16 3 -27.5t21 -11.5z" />
    <glyph glyph-name="dollar" unicode="$" horiz-adv-x="1761" 
d="M723 -106q-29 0 -48.5 21.5t-15.5 49.5l9 70q0 23 -21 26q-340 20 -532 140q-27 12 -33 38.5t10 49.5l107 166q31 47 82 18q203 -121 604 -121q420 0 434 107q6 41 -34 58.5t-157 23.5l-466 28q-281 16 -394.5 124t-93.5 268q23 170 174.5 258t470.5 106q20 4 23 18l6 58
q2 20 19.5 35.5t39.5 15.5h232q31 0 49 -21.5t14 -50.5l-6 -34q-4 -23 23 -27q248 -18 458 -107q66 -29 33 -92l-94 -164q-25 -43 -76 -26q-229 106 -655 106q-344 0 -357 -104q-4 -39 48.5 -57.5t207.5 -26.5l322 -19q315 -18 453.5 -103t111.5 -292q-45 -332 -624 -371
q-16 -4 -21 -18l-12 -100q-8 -51 -60 -51h-231z" />
    <glyph glyph-name="percent" unicode="%" horiz-adv-x="2451" 
d="M647 717q-227 0 -354 74.5t-100 244.5l10 64q47 315 555 315q514 0 469 -315l-8 -64q-46 -319 -572 -319zM319 0q-82 0 -91 65.5t53 108.5l1656 1180q41 29 117 28h92q80 0 102.5 -64.5t-38.5 -109.5l-1592 -1147q-86 -61 -190 -61h-109zM682 944q256 0 270 105l4 38
q16 102 -235 103q-240 0 -252 -103l-6 -38q-6 -59 51 -82t168 -23zM1743 -37q-227 0 -354 75t-101 245l10 61q51 317 555 318q236 0 367 -74t104 -244l-10 -61q-51 -320 -571 -320zM1778 190q252 0 270 105l6 39q10 55 -53.5 77.5t-183.5 22.5q-233 0 -252 -100l-6 -39
q-8 -59 50 -82t169 -23z" />
    <glyph glyph-name="ampersand" unicode="&#x26;" horiz-adv-x="1822" 
d="M807 -37q-399 0 -572.5 106.5t-140.5 346.5q31 236 256 299q39 14 2 35q-168 90 -141 299q27 197 210 283.5t517 86.5q250 0 419 -29.5t322 -111.5q25 -10 32 -34.5t-5 -49.5l-92 -174q-27 -51 -76 -27q-219 104 -598 105q-373 0 -381 -156q-4 -55 51.5 -83t204.5 -28
h985q29 0 48.5 -21.5t15.5 -49.5l-19 -139q-8 -51 -59 -52h-96q-18 0 -21 -18l-8 -59q-39 -295 -250 -412t-604 -117zM799 291q258 2 388 48t144 161l6 43q4 27 -24 26h-518q-172 0 -253 -29.5t-89 -99.5q-10 -76 65.5 -113.5t280.5 -35.5z" />
    <glyph glyph-name="quotesingle" unicode="'" horiz-adv-x="722" 
d="M334 1393q2 23 19.5 39t39.5 16h215q33 0 53.5 -24.5t12.5 -55.5l-105 -496q-2 -20 -18 -32.5t-37 -12.5h-172q-27 0 -45 20.5t-14 49.5z" />
    <glyph glyph-name="parenleft" unicode="(" horiz-adv-x="1095" 
d="M952 -281q-8 -55 -61 -55q-481 14 -668.5 268t-109.5 736l10 71q74 459 324.5 691.5t728.5 248.5q31 2 50 -18.5t17 -50.5l-22 -199q-4 -53 -58 -53q-588 -20 -686 -641l-12 -76q-53 -340 65.5 -490.5t380.5 -162.5q31 -2 47.5 -20.5t14.5 -49.5z" />
    <glyph glyph-name="parenright" unicode=")" horiz-adv-x="1095" 
d="M238 1626q8 55 61 55q481 -14 668.5 -268t109.5 -735l-10 -72q-74 -459 -324.5 -691t-728.5 -249q-31 -2 -50 18.5t-17 51.5l22 198q4 53 58 54q588 20 686 641l12 76q53 340 -65.5 490.5t-380.5 162.5q-31 2 -47.5 20.5t-14.5 48.5z" />
    <glyph glyph-name="asterisk" unicode="*" horiz-adv-x="1204" 
d="M393 553l-114 90q-27 20 -27 51t27 54l170 153q20 14 13 35.5t-34 24.5l-168 18q-39 2 -57.5 31.5t-3.5 64.5l65 158q12 27 38 36t50 -5l215 -111q16 -8 30.5 1t12.5 28l-2 235q-4 29 14.5 48.5t47.5 19.5h157q39 0 58.5 -30t7.5 -64l-59 -179q-20 -47 -10 -55t57 14
l196 82q33 16 63.5 0t35.5 -55l16 -149q2 -29 -15.5 -47.5t-46.5 -20.5l-245 -20q-80 0 -23 -56l135 -153q23 -23 19 -52.5t-31 -46.5l-141 -94q-31 -23 -63.5 -10.5t-41.5 49.5l-59 170q-14 55 -25.5 57t-36.5 -47l-129 -207q-14 -29 -42.5 -33.5t-53.5 15.5z" />
    <glyph glyph-name="plus" unicode="+" horiz-adv-x="1409" 
d="M586 147q-31 0 -49.5 21.5t-12.5 54.5l43 273q2 25 -20 24h-400q-31 0 -50 21.5t-13 52.5l18 125q10 51 58 51h430q20 0 22 21l47 301q10 49 60 49h155q31 0 50.5 -21.5t13.5 -52.5l-43 -272q-2 -25 20 -25h400q31 0 49 -21.5t14 -54.5l-20 -123q-6 -51 -55 -51h-431
q-23 0 -24 -20l-47 -301q-2 -23 -18.5 -37.5t-39.5 -14.5h-157z" />
    <glyph glyph-name="comma" unicode="," horiz-adv-x="610" 
d="M-94 -395q-33 2 -48.5 24.5t-9.5 51.5l17 90q10 45 63 45q172 -6 301 110q53 55 23 70q-10 6 -23 0q-37 -18 -86 -19q-61 0 -100 47.5t-37 125.5q0 207 230 206q127 0 198.5 -70.5t69.5 -215.5q-2 -240 -163 -360.5t-435 -104.5z" />
    <glyph glyph-name="hyphen" unicode="-" horiz-adv-x="1263" 
d="M1157 508q-10 -49 -57 -49h-916q-31 0 -49 20.5t-14 52.5l24 158q10 49 58 49h915q31 0 49.5 -21.5t14.5 -53.5z" />
    <glyph glyph-name="period" unicode="." horiz-adv-x="616" 
d="M240 -37q-113 0 -167.5 61.5t-37.5 170.5q27 174 233 174q117 0 175.5 -57.5t41.5 -159.5q-14 -90 -78.5 -139.5t-166.5 -49.5z" />
    <glyph glyph-name="slash" unicode="/" horiz-adv-x="851" 
d="M336 -264q-10 -41 -53 -41h-222q-35 0 -55 26.5t-10 61.5l534 1784q12 41 56 41h221q37 0 56.5 -26t8.5 -60z" />
    <glyph glyph-name="zero" unicode="0" horiz-adv-x="1847" 
d="M856 -37q-416 0 -599 181.5t-128 523.5l10 71q109 680 912 680q420 0 604 -181t131 -523l-12 -70q-109 -682 -918 -682zM872 291q217 0 368 90t181 285l11 75q31 193 -79 272t-317 79q-215 0 -363.5 -90.5t-178.5 -282.5l-13 -78q-31 -190 77.5 -270t313.5 -80z" />
    <glyph glyph-name="one" unicode="1" horiz-adv-x="1009" 
d="M440 0q-31 0 -49 20.5t-14 53.5l145 923q4 27 -8 33t-29 -4l-213 -88q-27 -10 -50 0t-34 39l-47 143q-18 53 37 74l418 168q55 20 131 20h123q37 0 58.5 -22.5t15.5 -54.5l-197 -1256q-10 -49 -59 -49h-228z" />
    <glyph glyph-name="two" unicode="2" horiz-adv-x="1728" 
d="M178 0q-33 0 -51 20.5t-14 53.5l32 209q4 31 31 43l696 319q205 96 292 164t87 149q0 80 -63.5 111t-181.5 31q-365 0 -613 -203q-51 -35 -88 14l-104 158q-31 43 10 78q305 272 788 272q317 0 468 -93t151 -318q0 -184 -112.5 -313.5t-331.5 -237.5l-224 -113
q-57 -25 4 -25h605q33 0 51 -20t12 -53l-31 -197q-6 -49 -55 -49h-1358z" />
    <glyph glyph-name="three" unicode="3" horiz-adv-x="1675" 
d="M797 -37q-281 0 -447 62.5t-289 191.5q-47 37 -6 86l148 166q16 18 41.5 19t46.5 -15q90 -98 198.5 -140t294.5 -42q410 0 410 178q0 61 -49 80.5t-146 19.5h-368q-31 0 -50.5 21.5t-13.5 52.5l21 139q10 49 57 49h260q176 0 262 36t86 118q0 63 -61.5 88t-202.5 25
q-399 0 -633 -152q-55 -29 -86 25l-82 164q-12 23 -6 45t29 32q170 113 365.5 160t451.5 47q297 0 452.5 -81t155.5 -269q0 -115 -59 -200t-164 -128q-35 -18 2 -34q178 -68 178 -263q0 -233 -227 -357t-569 -124z" />
    <glyph glyph-name="four" unicode="4" horiz-adv-x="1697" 
d="M1067 0q-31 0 -50.5 21.5t-12.5 52.5l16 102q2 12 -6 20.5t-19 8.5h-913q-31 0 -49.5 21.5t-14.5 52.5l29 192q2 14 14 29l842 866q12 16 37 16h252q61 0 82.5 -50t-23.5 -95l-661 -672q-16 -16 -10 -34.5t32 -18.5h441q20 0 22 18l43 285q10 51 60 51h227
q31 0 49.5 -21.5t13.5 -51.5l-41 -254q-4 -27 25 -27h139q31 0 49.5 -21.5t14.5 -54.5l-27 -180q-10 -51 -59 -51h-174q-16 0 -21 -19l-22 -137q-6 -49 -58 -49h-227z" />
    <glyph glyph-name="five" unicode="5" horiz-adv-x="1650" 
d="M741 -37q-428 0 -632 156q-53 27 -25 80l94 184q12 27 38 33t50 -8q150 -123 469 -123q203 0 311.5 42t108.5 144q0 55 -45 74.5t-145 19.5h-684q-31 0 -49.5 20.5t-14.5 53.5l109 694q6 49 57 49h1126q31 0 49.5 -20.5t14.5 -52.5l-31 -195q-10 -51 -57 -51h-791
q-41 0 -47 -39l-20 -127q-8 -47 35 -47l462 2q211 2 316.5 -78t105.5 -254q0 -557 -805 -557z" />
    <glyph glyph-name="six" unicode="6" horiz-adv-x="1783" 
d="M858 -37q-440 0 -610 177t-113 536l10 61q104 682 930 682q377 0 615 -162q27 -12 33 -38.5t-11 -51.5l-121 -182q-29 -45 -80 -16q-145 123 -450 123q-408 0 -512 -277q-18 -47 -25 -76q-4 -20 2 -20t29 20q143 117 530 117q295 0 439.5 -81t144.5 -263
q0 -156 -59.5 -265.5t-173 -170t-254 -87t-324.5 -26.5zM846 291q453 0 452 188q0 70 -69.5 96.5t-247.5 26.5q-473 0 -473 -172q0 -139 338 -139z" />
    <glyph glyph-name="seven" unicode="7" horiz-adv-x="1521" 
d="M1526 1382q31 0 49 -21.5t14 -51.5l-16 -107q-18 -111 -94 -190l-805 -992q-18 -20 -43 -20h-283q-57 0 -78.5 47t17.5 90l747 879q43 47 -20 47h-828q-31 0 -49 20.5t-14 53.5l31 196q10 49 57 49h1315z" />
    <glyph glyph-name="eight" unicode="8" horiz-adv-x="1923" 
d="M897 -37q-410 0 -599 84t-189 301q0 135 88 228.5t241 130.5q33 6 2 20q-88 27 -138 96.5t-50 159.5q0 109 47 188.5t123 127t193.5 75t236.5 36.5t274 9q358 0 536.5 -75.5t178.5 -278.5q0 -264 -248 -344q-10 -2 -14 -8t0 -12.5t14 -10.5q188 -63 189 -246
q0 -139 -68.5 -236t-195.5 -149.5t-276.5 -74t-344.5 -21.5zM961 829q256 0 372.5 31t116.5 123q0 119 -344 119q-240 0 -359.5 -36t-119.5 -126q0 -111 334 -111zM856 281q279 0 416 36.5t137 137.5q0 125 -365 125q-291 0 -423 -36t-132 -128q0 -135 367 -135z" />
    <glyph glyph-name="nine" unicode="9" horiz-adv-x="1761" 
d="M778 -37q-457 0 -690 178q-45 25 -20 76l94 195q14 31 41.5 36t54.5 -14q166 -143 516 -143q297 0 406 178q18 14 34.5 49t16.5 55q0 45 -101 2q-104 -72 -380 -71q-584 0 -584 375q0 541 809 540q426 0 602 -179t119 -540l-8 -55q-55 -342 -276.5 -512t-633.5 -170z
M862 772q451 0 451 184q0 135 -357 136q-430 0 -430 -189q0 -70 81 -100.5t255 -30.5z" />
    <glyph glyph-name="colon" unicode=":" horiz-adv-x="616" 
d="M338 565q-113 0 -167 61.5t-38 170.5q27 174 234 174q117 0 175 -57.5t42 -159.5q-14 -90 -79 -139.5t-167 -49.5zM240 -8q-113 0 -167.5 61.5t-37.5 169.5q27 174 233 174q117 0 175.5 -57t41.5 -160q-14 -90 -78.5 -139t-166.5 -49z" />
    <glyph glyph-name="semicolon" unicode=";" horiz-adv-x="612" 
d="M328 582q-113 0 -167.5 61.5t-37.5 169.5q27 174 233 174q117 0 175.5 -57.5t41.5 -159.5q-14 -90 -78.5 -139t-166.5 -49zM-98 -418q-33 2 -48.5 24.5t-9.5 51.5l17 90q10 45 63 45q172 -6 301 111q53 55 23 69q-10 6 -23 0q-37 -18 -86 -18q-61 0 -100 47t-37 125
q0 207 229 207q127 0 199 -70.5t70 -216.5q-2 -240 -163 -360.5t-435 -104.5z" />
    <glyph glyph-name="less" unicode="&#x3c;" horiz-adv-x="1290" 
d="M92 463q-47 20 -39 65l39 244q6 39 39 47l1045 332q33 8 57 -8.5t29 -48.5l10 -195q4 -53 -47 -63l-711 -189q-10 -2 -14 -7t0 -11t14 -8l623 -189q31 -8 42 -32.5t1 -53.5l-72 -186q-8 -23 -29.5 -33t-44.5 -2z" />
    <glyph glyph-name="equal" unicode="=" horiz-adv-x="1433" 
d="M190 721q-31 0 -49 21.5t-14 54.5l20 123q2 23 18.5 37t39.5 14h1155q31 0 50.5 -22.5t12.5 -53.5l-20 -125q-6 -49 -57 -49h-1156zM125 303q-31 0 -50.5 21.5t-13.5 52.5l19 125q10 51 57 51h1155q31 0 50.5 -21.5t13.5 -52.5l-19 -125q-10 -51 -57 -51h-1155z" />
    <glyph glyph-name="greater" unicode="&#x3e;" horiz-adv-x="1290" 
d="M1227 819q47 -20 39 -65l-39 -244q-6 -39 -39 -47l-1045 -332q-33 -8 -57.5 8.5t-28.5 48.5l-10 195q-4 53 47 63l711 189q10 2 14 7t0 11t-14 9l-623 188q-31 8 -42 32.5t-1 53.5l72 186q8 23 29.5 33t44.5 2z" />
    <glyph glyph-name="question" unicode="?" horiz-adv-x="1712" 
d="M596 406q-33 0 -52.5 24.5t-11.5 54.5q39 162 136.5 231.5t275.5 98.5q301 45 301 176q0 61 -62.5 88t-209.5 27q-350 0 -586 -203q-55 -39 -90 12l-109 154q-14 20 -11 44t22 38q307 268 796 268q305 0 460 -88t155 -291q0 -209 -124 -319.5t-362 -151.5
q-127 -25 -182 -51t-74 -82q-16 -31 -47 -30h-225zM631 -37q-123 0 -174 53.5t-37 149.5q12 76 65.5 110.5t165.5 34.5q125 0 180.5 -49t38.5 -139q-22 -160 -239 -160z" />
    <glyph glyph-name="at" unicode="@" horiz-adv-x="2340" 
d="M1157 -352q-258 0 -454.5 48t-336 149.5t-198.5 270.5t-29 396l11 72q29 219 128 381.5t256.5 259t351 142.5t427.5 46q231 0 411.5 -45t309.5 -138t185 -246t30 -355l-8 -60q-59 -455 -502 -454q-170 0 -256 88q-12 12 -35 2q-143 -96 -348 -96q-215 0 -342 91t-101 289
l7 46q18 133 95 216t173 111.5t217 28.5q193 0 293 -76q16 -8 33 10l6 21q16 16 39 16h141q31 0 49.5 -21.5t13.5 -52.5l-36 -278q-10 -78 3 -117t64 -39q66 0 113 56.5t61 158.5l10 80q33 233 -134 357t-500 124q-365 0 -588 -148t-260 -419l-8 -69q-37 -281 142 -422.5
t572 -141.5q307 0 584 62q35 8 60.5 -11.5t23.5 -54.5l-4 -162q0 -47 -37 -53q-277 -63 -633 -63zM1130 360q137 0 230 64q33 18 37 53l10 90q6 31 -18 39q-51 31 -181 35q-106 2 -176.5 -34t-79.5 -105l-2 -17q-10 -72 38 -98.5t142 -26.5z" />
    <glyph glyph-name="A" unicode="A" horiz-adv-x="1722" 
d="M78 0q-47 0 -67.5 37t3.5 78l750 1241q16 27 47 26h367q45 0 55 -41l369 -1255q10 -35 -9.5 -60.5t-54.5 -25.5h-225q-43 0 -63.5 17.5t-30.5 66.5l-33 104q-4 16 -21 17h-688q-8 0 -18 -10l-80 -138q-18 -35 -46 -46t-83 -11h-172zM668 489h415q12 0 20.5 10.5t4.5 20.5
l-131 461q-6 27 -12.5 40t-9.5 19.5t-11 -4t-12 -16.5t-17 -31l-272 -459q-8 -14 0.5 -27.5t24.5 -13.5z" />
    <glyph glyph-name="B" unicode="B" horiz-adv-x="1798" 
d="M207 0q-31 0 -50.5 22.5t-13.5 55.5l197 1255q10 49 59 49h922q190 0 280.5 -76.5t90.5 -230.5q0 -125 -59.5 -208t-157.5 -117q-20 -10 2 -19q102 -25 157.5 -94.5t55.5 -173.5q0 -231 -158 -347t-432 -116h-893zM637 827h491q92 0 144.5 37t52.5 105q0 57 -34 78.5
t-103 21.5h-524q-16 0 -21 -18l-31 -195q-4 -29 25 -29zM557 313h553q115 0 176.5 44t61.5 122q0 102 -136 103h-624q-18 0 -21 -19l-35 -221q-4 -29 25 -29z" />
    <glyph glyph-name="C" unicode="C" horiz-adv-x="1800" 
d="M1683 360q18 -16 20.5 -41.5t-15.5 -44.5q-301 -311 -805 -311q-414 0 -593 181.5t-126 523.5l12 71q106 680 903 680q514 0 703 -293q14 -20 9 -42.5t-26 -36.5l-200 -146q-43 -31 -80 10q-76 96 -175.5 138.5t-246.5 42.5q-215 0 -359.5 -89.5t-175.5 -283.5l-10 -78
q-31 -190 73.5 -270t309.5 -80q328 0 531 211q47 43 86 6z" />
    <glyph glyph-name="D" unicode="D" horiz-adv-x="1906" 
d="M1165 1382q373 0 528.5 -171t114.5 -504l-8 -50q-78 -657 -864 -657h-729q-33 0 -51.5 21.5t-14.5 54.5l199 1257q10 49 59 49h766zM1456 733q25 186 -55 254t-285 68h-446q-18 0 -23 -19l-104 -680q-2 -12 6 -20t18 -8h402q209 0 331.5 82t147.5 268z" />
    <glyph glyph-name="E" unicode="E" horiz-adv-x="1716" 
d="M1622 1382q31 0 50.5 -21.5t13.5 -51.5l-31 -195q-2 -23 -18.5 -37t-39.5 -14h-925q-18 0 -23 -19l-28 -178q-2 -12 6 -20t18 -8h674q31 0 49 -21.5t14 -54.5l-24 -154q-4 -23 -20.5 -36t-39.5 -13h-704q-16 0 -21 -18l-30 -193q-4 -27 24 -26h899q31 0 50.5 -21.5
t13.5 -52.5l-31 -199q-10 -49 -57 -49h-1235q-33 0 -51.5 21.5t-14.5 54.5l199 1257q10 49 59 49h1223z" />
    <glyph glyph-name="F" unicode="F" horiz-adv-x="1552" 
d="M1540 1382q31 0 50.5 -22.5t13.5 -52.5l-31 -201q-2 -23 -19.5 -37t-40.5 -14h-845q-18 0 -23 -19l-35 -231q-4 -27 25 -27h592q31 0 50 -22.5t13 -53.5l-26 -170q-6 -49 -58 -49h-626q-18 0 -23 -18l-63 -416q-10 -49 -58 -49h-229q-33 0 -51.5 21.5t-14.5 54.5
l199 1257q10 49 59 49h1141z" />
    <glyph glyph-name="G" unicode="G" horiz-adv-x="1841" 
d="M887 -37q-418 0 -598 181.5t-125 523.5l12 71q106 680 903 680q229 0 390 -53t290 -174q47 -41 2 -90l-164 -170q-43 -43 -90 0q-152 160 -444 160q-215 0 -359.5 -89.5t-175.5 -283.5l-10 -78q-33 -195 80 -272.5t352 -77.5q211 0 383 55q18 6 21 27l14 98q4 27 -22 27
h-492q-31 0 -50.5 21.5t-12.5 51.5l24 156q6 49 57 49h828q31 0 49 -21.5t14 -54.5l-77 -518q-4 -31 -60 -57q-111 -72 -304 -117t-435 -45z" />
    <glyph glyph-name="H" unicode="H" horiz-adv-x="1898" 
d="M1759 1382q31 0 49.5 -21.5t14.5 -53.5l-199 -1256q-6 -51 -59 -51h-230q-33 0 -51 21.5t-12 54.5l69 446q4 27 -24 27h-723q-23 0 -23 -19l-75 -479q-10 -51 -60 -51h-231q-31 0 -49.5 22.5t-14.5 55.5l199 1253q10 51 59 51h230q33 0 51 -22.5t12 -54.5l-63 -408
q-4 -29 24 -29h723q18 0 23 21l69 442q10 51 60 51h231z" />
    <glyph glyph-name="I" unicode="I" horiz-adv-x="768" 
d="M205 0q-31 0 -49.5 22.5t-14.5 55.5l199 1253q10 51 59 51h232q31 0 49 -21.5t12 -53.5l-196 -1256q-10 -51 -60 -51h-231z" />
    <glyph glyph-name="J" unicode="J" horiz-adv-x="1443" 
d="M16 166q-37 37 -2 78l138 159q45 51 98 -2q119 -123 338 -122q182 0 275 82.5t124 283.5l107 686q10 51 59 51h231q31 0 49.5 -22.5t14.5 -54.5l-115 -730q-49 -315 -234.5 -463.5t-512.5 -148.5q-380 0 -570 203z" />
    <glyph glyph-name="K" unicode="K" horiz-adv-x="1804" 
d="M1626 1380q72 0 92.5 -61.5t-37.5 -104.5l-495 -370q-12 -10 -6 -29l405 -702q23 -41 3.5 -77t-66.5 -36h-281q-37 0 -49 29l-309 551q-10 27 -35 6l-297 -219q-8 -4 -8 -13l-47 -303q-10 -51 -60 -51h-231q-31 0 -49.5 22.5t-14.5 53.5l199 1257q10 49 59 49h230
q31 0 50 -22.5t13 -52.5l-65 -428q-4 -25 14 -36.5t37 5.5l668 500q39 33 100 32h180z" />
    <glyph glyph-name="L" unicode="L" horiz-adv-x="1492" 
d="M1323 328q33 0 51.5 -21.5t14.5 -54.5l-31 -203q-10 -49 -62 -49h-1089q-33 0 -51.5 22.5t-14.5 55.5l199 1253q10 51 59 51h230q31 0 50 -21.5t13 -53.5l-147 -951q-2 -12 6 -20t18 -8h754z" />
    <glyph glyph-name="M" unicode="M" horiz-adv-x="2287" 
d="M2148 1382q31 0 50.5 -22.5t13.5 -54.5l-197 -1254q-10 -51 -59 -51h-223q-33 0 -50.5 22.5t-13.5 55.5l90 559q8 55 -20.5 58t-50.5 -27l-453 -562q-18 -20 -43 -20h-211q-37 0 -49 33l-277 567q-10 23 -23.5 34t-26.5 2t-19 -46l-99 -625q-10 -51 -59 -51h-221
q-33 0 -51.5 21.5t-14.5 54.5l199 1255q10 51 59 51h289q35 0 51 -32l385 -791q8 -14 22.5 -16t22.5 10l658 809q14 20 41 20h280z" />
    <glyph glyph-name="N" unicode="N" horiz-adv-x="1873" 
d="M1735 1382q31 0 49 -22.5t14 -54.5l-194 -1233q-10 -72 -82 -72l-222 -2q-63 0 -100 55l-534 760q-10 14 -22.5 20.5t-24 -2t-15.5 -32.5l-117 -748q-10 -51 -59 -51h-223q-31 0 -49.5 22.5t-14.5 53.5l199 1255q10 51 59 51h275q29 0 45 -22l557 -791q49 -63 61 15
l115 747q10 51 59 51h224z" />
    <glyph glyph-name="O" unicode="O" horiz-adv-x="1957" 
d="M911 -37q-426 0 -614 181.5t-133 523.5l12 71q106 680 932 680q428 0 617.5 -181t136.5 -523l-13 -70q-104 -682 -938 -682zM930 291q143 0 259 34.5t201 120.5t107 220l10 75q31 193 -83.5 272t-331.5 79q-223 0 -378 -90.5t-186 -282.5l-10 -78q-31 -193 83 -271.5
t329 -78.5z" />
    <glyph glyph-name="P" unicode="P" horiz-adv-x="1662" 
d="M207 0q-33 0 -51.5 22.5t-14.5 55.5l199 1255q10 49 59 49h815q225 0 343 -90t118 -301q0 -272 -168 -420.5t-481 -148.5h-465q-23 0 -22 -19l-56 -352q-6 -51 -57 -51h-219zM618 733h441q125 0 193.5 53.5t68.5 149.5q0 78 -45 102.5t-137 24.5h-480q-18 0 -22 -19
l-43 -282q-2 -12 6 -20.5t18 -8.5z" />
    <glyph glyph-name="Q" unicode="Q" horiz-adv-x="1957" 
d="M1108 1419q428 0 617.5 -181t136.5 -523l-13 -70q-66 -426 -417 -586l139 -79q27 -14 32 -42t-12 -53l-108 -143q-33 -43 -80 -14l-379 239q-70 -4 -113 -4q-426 0 -614 181.5t-133 523.5l12 71q107 680 932 680zM1507 741q31 193 -83.5 272t-331.5 79q-223 0 -378 -90.5
t-186 -282.5l-10 -78q-31 -193 83 -271.5t329 -78.5q143 0 259 34.5t201 120.5t107 220z" />
    <glyph glyph-name="R" unicode="R" horiz-adv-x="1720" 
d="M207 0q-33 0 -51.5 22.5t-14.5 55.5l199 1253q10 51 59 51h826q238 0 358.5 -89t120.5 -302q0 -408 -358 -514q-33 -10 -15 -37l201 -319q27 -43 6.5 -82t-70.5 -39h-239q-33 0 -47 27l-240 391q-6 12 -18 12h-101h-262q-18 0 -22 -20l-56 -359q-6 -51 -57 -51h-219z
M616 733h453q133 0 207 54.5t74 152.5q0 76 -46.5 99.5t-142.5 23.5h-502q-18 0 -22 -19l-45 -282q-2 -12 6 -20.5t18 -8.5z" />
    <glyph glyph-name="S" unicode="S" horiz-adv-x="1691" 
d="M784 -37q-469 0 -712 176q-47 33 -13 82l117 193q37 55 94 16q188 -147 533 -147q397 0 397 139q0 47 -53 68.5t-180 29.5l-277 21q-475 35 -475 383q0 496 766 495q399 0 676 -135q27 -14 35 -40.5t-9 -53.5l-120 -195q-31 -43 -80 -20q-231 129 -586 129
q-315 0 -315 -129q0 -90 190 -105l318 -24q92 -6 158.5 -16.5t134 -35t109.5 -62.5t68.5 -99.5t26.5 -145.5q0 -524 -803 -524z" />
    <glyph glyph-name="T" unicode="T" horiz-adv-x="1564" 
d="M1583 1382q31 0 50.5 -21.5t13.5 -51.5l-31 -195q-2 -23 -18.5 -37t-38.5 -14h-488q-23 0 -22 -19l-156 -995q-10 -49 -59 -49h-230q-31 0 -50 21.5t-13 52.5l151 960q2 12 -6 20.5t-18 8.5h-451q-31 0 -50.5 21.5t-12.5 52.5l30 196q6 49 58 49h1341z" />
    <glyph glyph-name="U" unicode="U" horiz-adv-x="1843" 
d="M850 -37q-375 0 -534.5 187.5t-102.5 554.5l100 626q6 51 58 51h231q31 0 49.5 -22.5t14.5 -54.5l-101 -627q-35 -217 47 -302t256 -85q117 0 209 35.5t166 131t98 244.5l99 629q10 51 59 51h230q33 0 51 -22.5t14 -54.5l-100 -623q-57 -365 -264 -542t-580 -177z" />
    <glyph glyph-name="V" unicode="V" horiz-adv-x="1898" 
d="M1833 1382q49 0 69.5 -38.5t-8.5 -79.5l-811 -1237q-14 -27 -47 -27h-303q-43 0 -53 39l-430 1251q-12 37 7 64.5t56 27.5h260q41 0 56 -41l282 -895q4 -20 24.5 -23t33.5 17l575 916q18 27 47 26h242z" />
    <glyph glyph-name="W" unicode="W" horiz-adv-x="2760" 
d="M2695 1382q45 0 64.5 -34.5t-0.5 -75.5l-688 -1245q-14 -27 -48 -27h-297q-20 0 -36.5 12.5t-18.5 32.5l-194 819q-20 88 -64 10l-467 -847q-16 -27 -49 -27h-297q-45 0 -55 45l-291 1255q-8 33 10.5 57.5t52.5 24.5h267q51 0 57 -47l150 -786q8 -49 26.5 -52t40.5 40
l426 817q12 29 49 28h353q47 0 55 -47l170 -792q8 -45 26.5 -48t40.5 40l416 815q16 33 51 32h250z" />
    <glyph glyph-name="X" unicode="X" horiz-adv-x="1898" 
d="M1757 1382q63 0 84 -50t-24 -97l-586 -557q-10 -14 0 -29l426 -518q35 -45 14.5 -88t-76.5 -43h-235q-57 0 -88 45l-324 422q-14 25 -37 2l-422 -420q-47 -49 -98 -49h-182q-63 0 -84 51t25 96l571 541q12 12 2 31l-422 536q-33 45 -12.5 86t73.5 41h252q29 0 45.5 -9
t36.5 -38l308 -428q14 -27 38 -2l443 436q25 27 43 34t57 7h172z" />
    <glyph glyph-name="Y" unicode="Y" horiz-adv-x="1865" 
d="M1757 1382q59 0 80 -46t-20 -93l-664 -721q-29 -31 -35 -47t-14 -72l-55 -352q-10 -51 -58 -51h-231q-31 0 -49.5 21.5t-14.5 54.5l52 338q8 55 4 76.5t-33 68.5l-436 709q-25 39 -4.5 76.5t67.5 37.5h234q35 0 47 -26l331 -563q18 -29 43 -5l517 576q12 18 38 18h201z
" />
    <glyph glyph-name="Z" unicode="Z" horiz-adv-x="1564" 
d="M1563 1382q31 0 49 -21.5t14 -51.5l-20 -146q-6 -43 -17.5 -60.5t-46.5 -45.5l-815 -674q-80 -63 6 -64h686q31 0 50.5 -21.5t13.5 -51.5l-31 -197q-10 -49 -57 -49h-1317q-33 0 -51.5 26.5t-10.5 75.5l19 115q6 51 61 96l834 686q47 41 47 52q-2 12 -41 12h-719
q-31 0 -50.5 21.5t-12.5 52.5l30 196q6 49 58 49h1321z" />
    <glyph glyph-name="bracketleft" unicode="[" horiz-adv-x="1138" 
d="M1229 1622q31 0 50 -21.5t13 -52.5l-26 -166q-6 -51 -56 -51h-422q-76 0 -99 -24.5t-38 -116.5l-178 -1151q-6 -51 6.5 -71.5t65.5 -20.5h418q31 0 50 -21.5t13 -52.5l-25 -166q-10 -49 -57 -49h-813q-31 0 -50.5 22.5t-12.5 53.5l288 1837q10 51 62 51h811z" />
    <glyph glyph-name="backslash" unicode="\" horiz-adv-x="954" 
d="M487 -309q-23 0 -39 15t-20 38l-201 1800q-4 29 14.5 49.5t49.5 20.5h231q53 0 60 -53l200 -1799q2 -29 -16 -50t-47 -21h-232z" />
    <glyph glyph-name="bracketright" unicode="]" horiz-adv-x="1138" 
d="M29 -344q-31 0 -50.5 21.5t-13.5 52.5l27 166q6 51 55 51h422q76 0 99.5 24.5t37.5 116.5l178 1151q6 51 -6 71.5t-65 20.5h-418q-31 0 -50.5 21.5t-13.5 52.5l25 166q10 49 57 49h813q31 0 50.5 -22.5t13.5 -53.5l-289 -1837q-10 -51 -61 -51h-811z" />
    <glyph glyph-name="underscore" unicode="_" horiz-adv-x="1390" 
d="M1186 -266q-10 -51 -58 -51h-1091q-31 0 -49.5 20.5t-14.5 52.5l25 158q10 51 57 51h1092q31 0 49 -21.5t14 -54.5z" />
    <glyph glyph-name="a" unicode="a" horiz-adv-x="1445" 
d="M418 -37q-178 0 -259 67.5t-81 209.5q0 303 467 303h332q49 0 49 22l2 15q12 121 -232 120q-219 0 -356 -69q-59 -18 -78 35l-59 157q-10 23 -2 45.5t32 30.5q205 96 543 96q283 0 423 -104.5t99 -370.5l-75 -471q-6 -49 -58 -49h-194q-31 0 -50.5 21.5t-13.5 52.5l8 43
q4 20 -8 20q-10 0 -26 -16q-170 -158 -463 -158zM567 219q96 0 211 40t119 91l4 25q0 14 -20 14h-316q-129 0 -129 -88q0 -82 131 -82z" />
    <glyph glyph-name="b" unicode="b" horiz-adv-x="1658" 
d="M870 -37q-233 0 -368 123q-14 14 -23.5 21.5t-21 12.5t-17.5 -1t-10 -23l-10 -47q-12 -49 -58 -49h-182q-31 0 -50 21.5t-15 52.5l223 1411q10 51 59 51h228q31 0 49 -21.5t12 -54.5l-82 -526q-10 -35 -2 -43t14.5 -5t20.5 13q145 96 426 96q250 0 390 -118.5t99 -378.5
l-8 -52q-23 -139 -81 -235t-149 -149.5t-199 -76t-245 -22.5zM825 260q340 0 371 209l6 39q16 111 -54.5 151.5t-199.5 40.5q-303 0 -387 -133q-16 -25 -22 -59l-11 -72q-6 -31 13 -59q42 -117 284 -117z" />
    <glyph glyph-name="c" unicode="c" horiz-adv-x="1372" 
d="M1249 188q14 -20 9 -43.5t-25 -38.5q-217 -143 -612 -143q-283 0 -418 121t-99 381l11 59q76 471 700 471q334 0 510 -131q27 -18 28 -48t-22 -50l-141 -133q-33 -29 -74 -4q-102 72 -305 71q-156 0 -244 -43t-106 -155l-6 -33q-16 -115 56.5 -162t203.5 -47
q215 0 358 94q53 25 84 -20z" />
    <glyph glyph-name="d" unicode="d" horiz-adv-x="1677" 
d="M602 -37q-281 0 -406.5 130t-89.5 384l9 47q74 471 655 471q266 0 393 -106q14 -14 30.5 -10t18.5 26l86 580q2 23 19.5 37t40.5 14h225q31 0 49.5 -21.5t14.5 -52.5l-217 -1411q-6 -51 -56 -51h-176q-25 0 -44 15.5t-19 37.5l4 39q2 23 -17.5 24t-40.5 -14
q-192 -139 -479 -139zM705 260q248 0 391 113q41 25 49 67l12 97q2 29 -22 59q-66 104 -326 104q-315 0 -346 -198l-4 -33q-18 -113 51.5 -161t194.5 -48z" />
    <glyph glyph-name="e" unicode="e" horiz-adv-x="1402" 
d="M655 -37q-303 0 -448.5 120t-100.5 384l11 72q72 457 665 456q614 0 547 -481l-6 -45q-2 -25 -20.5 -40t-40.5 -15h-775q-25 0 -24 -19v-4q-6 -74 58.5 -102.5t172.5 -28.5q231 0 357 64q47 23 77 -25l76 -131q33 -51 -39 -92q-170 -113 -510 -113zM522 547h424
q25 0 25 20l2 15q6 61 -48.5 89.5t-150.5 28.5q-252 0 -266 -129l-2 -12q0 -12 16 -12z" />
    <glyph glyph-name="f" unicode="f" horiz-adv-x="1157" 
d="M1356 1489q23 -10 28 -34.5t-8 -47.5l-86 -154q-23 -45 -80 -24q-109 51 -260 51q-119 0 -181 -53t-81 -170l-10 -70q-4 -29 24 -29h353q31 0 49 -21.5t14 -53.5l-24 -156q-10 -49 -58 -49h-387q-18 0 -22 -19l-97 -610q-6 -49 -57 -49h-229q-31 0 -49.5 20.5t-14.5 53.5
l92 575q4 29 -24 29h-41q-31 0 -49.5 20.5t-14.5 53.5l25 157q10 49 57 49h76q18 0 23 21l14 94q25 156 79 258.5t138 153.5t172 69.5t211 18.5q246 0 418 -84z" />
    <glyph glyph-name="g" unicode="g" horiz-adv-x="1488" 
d="M569 -434q-346 0 -499 119q-39 27 -13 71l78 150q12 25 38 31t52 -9q125 -86 324 -86q158 0 254 49.5t104 141.5l4 30q0 8 -5 12.5t-19.5 2.5t-25.5 -4t-34 -8q-131 -53 -299 -54q-221 0 -346 109.5t-86 365.5l10 60q72 449 553 448q246 0 377 -104q35 -29 54 2l12 39
q18 27 49 26h199q33 0 51 -20t12 -53l-123 -793q-23 -133 -71 -230.5t-110 -153.5t-153.5 -89t-179.5 -43t-207 -10zM655 293q211 0 306 94q27 25 30 62l19 114q6 45 -17 66q-74 74 -231 73q-139 0 -216 -39.5t-93 -142.5l-7 -37q-16 -98 42 -144t167 -46z" />
    <glyph glyph-name="h" unicode="h" horiz-adv-x="1574" 
d="M1010 995q94 0 168.5 -20.5t138 -68.5t89.5 -138t5 -217l-80 -500q-6 -51 -57 -51h-227q-31 0 -49.5 21.5t-14.5 54.5l64 407q18 119 -30 160t-149 41q-143 0 -266 -76q-57 -33 -63 -78l-76 -479q-6 -51 -57 -51h-226q-33 0 -51 20.5t-14 53.5l223 1413q10 49 59 49h199
q31 0 49.5 -21.5t13.5 -54.5l-84 -524q-4 -20 8.5 -33.5t30.5 -1.5q165 94 396 94z" />
    <glyph glyph-name="i" unicode="i" horiz-adv-x="745" 
d="M451 1116q-203 0 -164 187q31 154 250 153q94 0 136 -39t27 -131q-26 -170 -249 -170zM197 0q-31 0 -49.5 21.5t-14.5 54.5l131 831q10 51 60 51h227q31 0 49 -21.5t12 -51.5l-129 -834q-10 -51 -59 -51h-227z" />
    <glyph glyph-name="j" unicode="j" horiz-adv-x="782" 
d="M477 1116q-203 0 -164 187q31 154 250 153q94 0 135 -39t27 -131q-23 -170 -248 -170zM-129 -449q-27 -2 -44 15.5t-17 46.5l-3 172q0 25 16.5 41t41.5 20q260 16 301 275l125 788q6 49 57 49h230q31 0 49 -20t14 -53l-123 -785q-25 -158 -82 -266t-145 -167.5
t-187.5 -85.5t-232.5 -30z" />
    <glyph glyph-name="k" unicode="k" horiz-adv-x="1456" 
d="M178 0q-31 0 -49 20.5t-14 53.5l225 1413q6 49 57 49h228q31 0 49 -20.5t14 -53.5l-119 -745q-2 -25 15.5 -35t38.5 6l327 230q35 25 60.5 32.5t83.5 7.5h114q72 0 92.5 -59t-34.5 -104l-242 -179q-18 -12 -8 -28l258 -479q20 -39 0.5 -74t-64.5 -35h-274q-33 0 -49 33
l-158 317q-16 27 -37 6l-176 -125q-29 -20 -33 -53l-18 -127q-10 -51 -59 -51h-228z" />
    <glyph glyph-name="l" unicode="l" horiz-adv-x="710" 
d="M178 0q-31 0 -49 21.5t-14 54.5l223 1409q6 51 59 51h226q33 0 51 -20.5t12 -53.5l-221 -1411q-10 -51 -59 -51h-228z" />
    <glyph glyph-name="m" unicode="m" horiz-adv-x="2449" 
d="M197 0q-31 0 -49.5 20.5t-14.5 53.5l131 835q6 49 60 49h196q41 0 58 -32l2 -27q4 -33 32 -12q162 109 412 108q258 0 354 -145q16 -25 39 2q168 143 467 143q203 0 320.5 -102t79.5 -346l-78 -498q-6 -49 -60 -49h-225q-31 0 -50.5 21.5t-12.5 52.5l61 405
q20 121 -27 163t-149 42q-176 0 -316 -102q-14 -12 -14 -29q4 -66 -10 -131l-57 -373q-10 -49 -60 -49h-227q-31 0 -49.5 20.5t-14.5 53.5l64 405q20 121 -28 163t-148 42q-147 0 -287 -88q-33 -23 -39 -53l-76 -494q-10 -49 -57 -49h-227z" />
    <glyph glyph-name="n" unicode="n" horiz-adv-x="1591" 
d="M197 0q-31 0 -49.5 20.5t-14.5 53.5l131 835q6 49 60 49h196q41 0 58 -32l2 -31q6 -27 34 -10q156 111 414 110q94 0 169 -20.5t137.5 -68.5t88 -138t4.5 -217l-77 -502q-10 -49 -60 -49h-227q-31 0 -49.5 20.5t-14.5 53.5l66 409q18 119 -30 160t-148 41
q-119 0 -258 -72q-37 -16 -52.5 -32.5t-19.5 -44.5l-76 -486q-10 -49 -57 -49h-227z" />
    <glyph glyph-name="o" unicode="o" horiz-adv-x="1515" 
d="M682 -37q-315 0 -468 116t-110 380l11 65q74 471 706 471q150 0 262.5 -25.5t195.5 -82t118 -153.5t12 -232l-8 -66q-76 -473 -719 -473zM705 260q309 0 348 207l6 35q10 59 -6.5 100t-55.5 61.5t-84 28.5t-104 8q-309 0 -348 -206l-6 -35q-16 -115 53.5 -157t196.5 -42z
" />
    <glyph glyph-name="p" unicode="p" horiz-adv-x="1656" 
d="M1061 995q250 0 389 -117.5t102 -375.5l-8 -53q-20 -139 -77.5 -236.5t-146.5 -151t-191.5 -76t-229.5 -22.5q-252 0 -389 111q-39 31 -47 -19l-64 -401q-2 -23 -18 -37t-39 -14h-225q-33 0 -51.5 21.5t-14.5 51.5l195 1233q10 49 59 49h180q45 0 56 -36l2 -35
q0 -12 4 -18.5t13 -4.5t19.5 8.5t30.5 18.5q154 104 451 104zM1202 508q18 109 -53.5 150.5t-200.5 41.5q-223 0 -366 -112q-41 -31 -47 -70l-15 -98q-4 -33 23 -68q61 -92 270 -92q346 0 383 213z" />
    <glyph glyph-name="q" unicode="q" horiz-adv-x="1687" 
d="M1509 958q31 0 49.5 -20t14.5 -53l-195 -1231q-10 -51 -59 -51h-225q-33 0 -51.5 21.5t-14.5 51.5l55 344q2 29 -13 37.5t-34 -4.5q-158 -90 -420 -90q-268 0 -402 122t-99 374l8 65q76 471 645 471q322 0 446 -133q10 -10 20.5 -13t20 2t13.5 21l10 46q10 41 55 40h176z
M713 260q262 0 389 123q47 47 53 96l12 90q6 41 -45 64q-80 68 -303 67q-317 0 -348 -204l-6 -39q-16 -111 53.5 -154t194.5 -43z" />
    <glyph glyph-name="r" unicode="r" horiz-adv-x="1169" 
d="M1165 934q23 -12 28 -37t-11 -47l-105 -162q-29 -41 -78 -18q-66 35 -151 35q-164 0 -266 -140q-20 -20 -29 -63l-72 -453q-6 -49 -57 -49h-227q-31 0 -49.5 20.5t-14.5 53.5l131 835q6 49 60 49h172q31 0 43 -10t24 -41l2 -26q8 -39 39 -9q121 123 324 123
q137 0 237 -61z" />
    <glyph glyph-name="s" unicode="s" horiz-adv-x="1280" 
d="M573 -37q-336 0 -493 82q-49 16 -35 72l39 135q20 66 90 37q137 -78 404 -78q283 0 282 94q0 49 -78 49l-295 11q-381 10 -381 278q0 352 609 352q293 0 459 -65q33 -8 44 -36t-6 -56l-65 -127q-25 -45 -72 -27q-119 59 -397 59q-238 0 -238 -77q0 -55 113 -58l317 -12
q168 -6 249 -64.5t81 -189.5q0 -379 -627 -379z" />
    <glyph glyph-name="t" unicode="t" horiz-adv-x="1257" 
d="M1182 958q31 0 50 -22.5t13 -52.5l-24 -156q-6 -49 -58 -49h-534q-18 0 -23 -19l-22 -149q-25 -147 21 -196.5t149 -49.5q160 0 286 51q63 25 84 -39l54 -165q16 -45 -9 -60q-172 -88 -510 -88q-518 0 -438 498l31 188q4 29 -25 29h-39q-33 0 -51 20.5t-12 53.5l25 157
q6 49 55 49h76q23 0 22 21l29 186q10 49 59 49h227q31 0 50.5 -21.5t13.5 -51.5l-25 -154q-2 -12 6.5 -20.5t18.5 -8.5h500z" />
    <glyph glyph-name="u" unicode="u" horiz-adv-x="1591" 
d="M1407 958q31 0 49.5 -21.5t13.5 -53.5l-131 -834q-10 -51 -59 -51h-199q-49 0 -55 33v32q0 29 -29 11q-172 -113 -419 -113q-92 0 -168 21.5t-138.5 68.5t-88 138.5t-5.5 216.5l80 501q2 23 18.5 37t38.5 14h228q31 0 49 -22.5t14 -52.5l-65 -410q-18 -117 29.5 -158
t148.5 -41q156 0 289 88q33 23 36 56l78 489q10 51 58 51h227z" />
    <glyph glyph-name="v" unicode="v" horiz-adv-x="1472" 
d="M1378 958q51 0 71.5 -38.5t-7.5 -81.5l-565 -815q-16 -23 -43 -23h-330q-39 0 -53 37l-310 829q-14 37 5.5 64.5t58.5 27.5h287q49 0 55 -43l143 -491q6 -25 28.5 -28t35.5 20l315 514q12 29 47 28h262z" />
    <glyph glyph-name="w" unicode="w" horiz-adv-x="2197" 
d="M2114 958q47 0 67.5 -36.5t-4.5 -77.5l-494 -817q-18 -27 -47 -27h-354q-49 0 -59 47l-95 424q-4 27 -28.5 31t-36.5 -19l-252 -452q-16 -31 -49 -31h-334q-45 0 -55 43l-240 829q-10 35 10.5 60.5t55.5 25.5h286q23 0 40.5 -14t19.5 -37l76 -415q4 -39 18 -47.5t27.5 4
t23.5 32.5l240 447q14 31 51 30h369q49 0 59 -49l90 -420q6 -33 26.5 -42t43.5 34l225 447q14 31 49 30h271z" />
    <glyph glyph-name="x" unicode="x" horiz-adv-x="1452" 
d="M1237 958q63 0 82.5 -49t-23.5 -94l-329 -319q-14 -14 -2 -29l245 -346q29 -41 9.5 -81t-70.5 -40h-252q-37 0 -49 29l-154 233q-6 12 -19 13t-22 -9l-243 -248q-18 -18 -41 -18h-215q-61 0 -82 51t24 96l342 328q16 16 4 29l-235 338q-27 41 -6.5 78.5t69.5 37.5h254
q37 0 51 -30l138 -219q6 -14 20.5 -16.5t22.5 9.5l225 238q16 18 41 18h215z" />
    <glyph glyph-name="y" unicode="y" horiz-adv-x="1523" 
d="M1419 958q51 0 72.5 -39.5t-8.5 -82.5l-852 -1211q-16 -23 -43 -22h-209q-51 0 -70.5 40t8.5 83l129 194q43 49 21 100l-320 844q-12 39 7.5 66.5t58.5 27.5h285q41 0 55 -45l154 -497q20 -72 59 -10l344 526q18 27 45 26h264z" />
    <glyph glyph-name="z" unicode="z" horiz-adv-x="1259" 
d="M1182 958q31 0 50 -20t15 -51l-22 -135q-6 -45 -18.5 -63.5t-53.5 -45.5l-401 -291q-104 -72 22 -71h320q31 0 50 -21.5t13 -52.5l-24 -158q-6 -49 -56 -49h-977q-33 0 -51 21.5t-14 52.5l20 129q6 43 17.5 61.5t44.5 38.5l413 307q20 14 31.5 27.5t2.5 27t-54 13.5h-307
q-31 0 -49.5 20.5t-14.5 53.5l25 157q10 49 57 49h961z" />
    <glyph glyph-name="braceleft" unicode="{" horiz-adv-x="1091" 
d="M1163 1573q25 -8 35 -29.5t2 -48.5l-47 -145q-16 -53 -76 -39q-162 39 -346 39t-184 -74q0 -33 53 -75t117.5 -81t118 -109.5t53.5 -154.5q0 -164 -213 -221q-39 -10 0 -25q150 -51 149 -172q0 -86 -75.5 -163.5t-166.5 -124t-167 -97.5t-76 -88q0 -31 31.5 -42t99.5 -11
q182 0 365 43q31 6 55 -9.5t27 -45.5l18 -142q4 -49 -16 -55q-231 -68 -476 -68q-432 0 -432 267q0 84 36 156.5t89 118.5t114.5 88t115 71t89.5 61.5t36 63.5q0 20 -20.5 30.5t-84 17.5t-186.5 7q-33 0 -52.5 19.5t-17.5 48.5l8 106q0 23 18.5 39t45.5 16q197 2 273.5 26
t76.5 71q0 27 -33 56.5t-80 62t-94 74.5t-80 108.5t-33 146.5q0 336 486 336q239 0 444 -53z" />
    <glyph glyph-name="bar" unicode="|" horiz-adv-x="768" 
d="M180 -268q-29 0 -48 21.5t-15 49.5l235 1792q2 23 18.5 37.5t39.5 14.5h231q29 0 48.5 -21.5t15.5 -50.5l-236 -1792q-4 -51 -57 -51h-232z" />
    <glyph glyph-name="braceright" unicode="}" horiz-adv-x="1071" 
d="M-2 -311q-25 8 -35 29.5t-2 48.5l47 145q16 53 76 39q162 -39 346 -39t184 74q0 33 -53 74.5t-117.5 80.5t-118 110t-53.5 155q0 164 213 221q39 10 0 24q-150 51 -149 172q0 86 75.5 164t167 124t167 97.5t75.5 87.5q0 31 -31.5 42.5t-99.5 11.5q-182 0 -364 -43
q-31 -6 -55.5 9t-26.5 46l-19 141q-4 49 17 56q231 68 475 67q432 0 432 -266q0 -84 -36 -157t-89 -119t-114.5 -88t-115 -70.5t-89 -61.5t-35.5 -63q0 -20 20.5 -30.5t84 -18t186.5 -7.5q33 0 52 -19t17 -48l-8 -107q0 -23 -18.5 -39t-45.5 -16q-197 -2 -273.5 -25.5
t-76.5 -70.5q0 -27 33 -56.5t80 -62.5t94 -75t80 -108.5t33 -146.5q0 -336 -486 -336q-239 1 -444 54z" />
    <glyph glyph-name="exclamdown" unicode="&#xa1;" horiz-adv-x="862" 
d="M494 997q123 0 177 -52t40 -148q-12 -76 -68.5 -111t-169.5 -35q-125 0 -177 48.5t-36 140.5q12 82 66.5 119.5t167.5 37.5zM252 512q6 49 57 49h232q31 0 49 -21.5t14 -54.5l-131 -831q-10 -51 -59 -51h-230q-31 0 -50 21.5t-13 51.5z" />
    <glyph glyph-name="cent" unicode="&#xa2;" horiz-adv-x="1466" 
d="M643 0q-31 0 -49.5 21.5t-13.5 52.5l12 96q4 25 -19 25q-221 27 -339.5 146.5t-88.5 340.5l9 66q59 412 557 464q16 2 20 19l12 100q8 51 60 51h231q29 0 47.5 -21.5t14.5 -49.5l-11 -86q-4 -20 21 -25q178 -25 291 -98q27 -14 31 -43t-15 -51l-119 -146q-35 -41 -80 -10
q-100 72 -317 72q-375 0 -395 -205l-4 -35q-12 -113 67.5 -157t225.5 -44q250 0 383 88q59 31 90 -22l84 -156q27 -45 -11 -69q-127 -92 -368 -121q-14 0 -19 -19l-18 -131q-2 -23 -18.5 -38t-41.5 -15h-229z" />
    <glyph glyph-name="sterling" unicode="&#xa3;" horiz-adv-x="1714" 
d="M92 0q-29 0 -47 20.5t-16 49.5l18 182q6 49 62 53q240 10 264 129q8 39 -8 92q-2 23 -27 23h-199q-31 0 -49 21.5t-14 50.5l14 110q2 20 19.5 35.5t40.5 15.5h126q23 0 21 25q-27 86 -21 151q27 201 213.5 331t522.5 130q227 0 383.5 -44t292.5 -144q25 -16 27.5 -45
t-17.5 -49l-150 -160q-39 -41 -88 -2q-139 121 -403 121q-281 0 -361 -156q-16 -45 0 -133q-4 -25 21 -25h575q31 0 49.5 -20.5t14.5 -50.5l-17 -111q-2 -20 -18 -35.5t-39 -15.5h-518q-10 0 -16.5 -4t-4.5 -13q14 -63 9 -96q-8 -55 -70 -92q-14 -25 14 -25h856
q29 0 47.5 -21.5t14.5 -49.5l-25 -197q-2 -23 -18.5 -37t-38.5 -14h-1440z" />
    <glyph glyph-name="currency" unicode="&#xa4;" horiz-adv-x="1228" 
 />
    <glyph glyph-name="yen" unicode="&#xa5;" horiz-adv-x="1832" 
d="M754 0q-31 0 -49.5 21.5t-14.5 52.5l10 76q4 25 -22 24h-348q-31 0 -49.5 20.5t-16.5 51.5l17 125q8 51 59 51h379q23 0 24 20l11 88q4 25 -21 25h-354q-31 0 -49.5 21.5t-14.5 50.5l17 125q2 23 18.5 38t38.5 15h193q14 0 17 8t-5 18l-363 416q-37 45 -16 90t78 45h178
q45 0 76 -36l373 -443q41 -53 92 -12l497 452q37 37 84 37l138 2q66 2 87 -54t-28 -101l-461 -396q-8 -6 -10 -12t3 -10t15 -4h181q31 0 49 -21.5t14 -52.5l-16 -125q-2 -20 -19.5 -35.5t-40.5 -15.5h-385q-20 0 -22 -20l-11 -89q0 -25 21 -24h358q31 0 49.5 -21.5
t14.5 -50.5l-17 -125q-2 -23 -18 -37t-39 -14h-377q-20 0 -22 -22l-13 -99q-4 -23 -20 -38t-39 -15h-231z" />
    <glyph glyph-name="brokenbar" unicode="&#xa6;" horiz-adv-x="768" 
d="M317 772q-29 0 -48 21.5t-15 50.5l98 751q2 23 18.5 37.5t39.5 14.5h233q29 0 48.5 -21.5t15.5 -50.5l-99 -752q-8 -51 -59 -51h-232zM504 608q31 0 49 -21.5t14 -49.5l-98 -754q-4 -51 -57 -51h-232q-29 0 -48 21.5t-15 49.5l98 754q2 23 19.5 37t39.5 14h230z" />
    <glyph glyph-name="section" unicode="&#xa7;" horiz-adv-x="1761" 
d="M872 -373q-270 0 -458.5 35t-354.5 127q-23 12 -29.5 36.5t5.5 49.5l102 180q25 51 82 25q223 -135 596 -135q217 0 309.5 34.5t102.5 100.5q4 41 -45 56.5t-205 21.5l-391 20q-117 6 -202 24.5t-152.5 57.5t-96.5 108.5t-14 168.5q14 113 131 190q20 18 2 37
q-90 92 -68 254q27 205 214.5 303t555.5 98q449 0 742 -155q25 -12 32 -38t-8 -48l-98 -183q-29 -51 -84 -22q-233 131 -596 131q-217 0 -308 -34t-99 -99q-6 -41 44 -58.5t207 -25.5l424 -21q119 -6 203 -24.5t151.5 -56t96.5 -106.5t14 -167q-12 -119 -145 -211
q-20 -10 -6 -35q70 -80 51 -213q-54 -426 -705 -426zM1229 395q27 -4 41 8q66 49 67 99q4 53 -36.5 74.5t-163.5 29.5l-437 29q-57 2 -118 10q-37 2 -52 -8q-61 -35 -69 -96q-6 -49 30.5 -69.5t135.5 -29.5l493 -34q33 -3 109 -13z" />
    <glyph glyph-name="copyright" unicode="&#xa9;" horiz-adv-x="2023" 
d="M956 -37q-436 0 -634.5 180.5t-155.5 522.5l10 71q90 682 942 682q438 0 639 -180t156 -522l-10 -70q-91 -684 -947 -684zM940 57q164 0 302 30t260 95.5t201 183t99 277.5l17 119q16 129 -11.5 228.5t-89 161.5t-155 102t-197.5 55.5t-231 15.5q-162 0 -300.5 -29.5
t-259 -94t-199.5 -181.5t-100 -279l-14 -118q-16 -129 10.5 -229.5t87 -163t153.5 -102.5t197.5 -55.5t229.5 -15.5zM1499 465q12 -23 6 -47.5t-30 -34.5q-193 -109 -488 -109q-111 0 -202 21.5t-164.5 69t-108.5 131.5t-20 198l6 45q51 399 602 400q272 0 432 -101
q29 -14 33 -43.5t-17 -52.5l-92 -108q-33 -37 -78 -11q-86 59 -258 60q-301 0 -323 -172l-4 -27q-12 -88 58.5 -121t197.5 -33q186 -4 307 72q57 29 84 -24z" />
    <glyph glyph-name="guillemotleft" unicode="&#xab;" horiz-adv-x="1732" 
d="M735 51q-10 -25 -33.5 -34t-46.5 1l-604 310q-35 16 -31 59l29 195q2 31 33 43l690 309q31 12 57.5 -4.5t28.5 -50.5l14 -162q0 -49 -38 -62l-394 -157q-76 -27 -2 -49l322 -140q25 -8 36 -32.5t3 -51.5zM1561 51q-10 -25 -34 -34t-46 1l-604 310q-35 16 -31 59l28 195
q2 31 33 43l690 309q31 12 57.5 -4.5t28.5 -50.5l15 -162q0 -49 -39 -62l-393 -157q-76 -27 -2 -49l321 -140q25 -8 36 -32.5t3 -51.5z" />
    <glyph glyph-name="registered" unicode="&#xae;" horiz-adv-x="1765" 
d="M860 279q-369 0 -548 149.5t-144 421.5l6 39q35 276 243 419.5t568 143.5q381 0 564.5 -152.5t146.5 -431.5l-4 -37q-37 -272 -248 -412t-584 -140zM844 373q186 0 338.5 40t270.5 145.5t138 268.5l13 86q12 102 -14.5 181.5t-82 128.5t-138.5 79.5t-172 43t-196 12.5
q-133 0 -248.5 -23.5t-220 -75t-173 -144.5t-85.5 -222l-12 -86q-16 -123 26 -211t130 -135t192.5 -67.5t233.5 -20.5zM590 510q-29 0 -48.5 21.5t-15.5 50.5l76 587q8 51 60 52h428q150 0 219 -57.5t55 -184.5l-2 -16q-23 -166 -164 -213q-31 -12 -12 -39l55 -80
q31 -43 10.5 -82t-71.5 -39h-54q-25 0 -43 22l-104 154q-20 37 -41 37h-176q-23 0 -23 -18l-18 -144q-2 -23 -19.5 -37t-39.5 -14h-72zM788 903h265q41 0 72.5 21.5t33.5 54.5l2 8q2 27 -12 38t-45 11h-305q-18 0 -23 -20l-12 -84q-2 -12 6 -20.5t18 -8.5z" />
    <glyph glyph-name="degree" unicode="&#xb0;" horiz-adv-x="1226" 
d="M647 631q-109 0 -195.5 20.5t-155.5 63.5t-100.5 117.5t-17.5 177.5l6 49q45 360 537 360q147 0 254.5 -33.5t171 -121.5t45.5 -224l-6 -49q-47 -360 -539 -360zM647 866q102 -2 177 38t87 120l2 25q10 78 -43 106.5t-149 28.5q-104 0 -177 -37t-85 -119l-2 -24
q-21 -138 190 -138z" />
    <glyph glyph-name="plusminus" unicode="&#xb1;" horiz-adv-x="1228" 
 />
    <glyph glyph-name="paragraph" unicode="&#xb6;" horiz-adv-x="1667" 
d="M1507 1382q29 0 47.5 -21.5t14.5 -49.5l-197 -1518q-4 -23 -20.5 -38t-38.5 -15h-221q-31 0 -49.5 21.5t-14.5 52.5l84 645q4 27 -25 26h-411q-254 0 -377 119t-92 350q31 240 169 334t402 94h729z" />
    <glyph glyph-name="periodcentered" unicode="&#xb7;" horiz-adv-x="616" 
d="M342 489q-113 0 -167 61.5t-38 170.5q27 174 234 174q117 0 175 -57.5t42 -159.5q-14 -90 -79 -139.5t-167 -49.5z" />
    <glyph glyph-name="guillemotright" unicode="&#xbb;" horiz-adv-x="1732" 
d="M240 907q14 25 38.5 34t45.5 -1l555 -309q33 -16 22 -60l-59 -194q-8 -29 -39 -43l-740 -309q-35 -12 -57 4t-20 51l12 162q4 47 49 61l416 158q80 27 10 49l-299 139q-25 8 -32 33t8 51zM1065 907q14 25 38.5 34t45.5 -1l555 -309q33 -16 22 -60l-59 -194
q-8 -29 -39 -43l-739 -309q-35 -12 -57.5 4t-20.5 51l12 162q4 47 49 61l416 158q80 27 10 49l-299 139q-25 8 -31.5 33t7.5 51z" />
    <glyph glyph-name="questiondown" unicode="&#xbf;" horiz-adv-x="1695" 
d="M1001 995q203 0 203 -159q-4 -188 -252 -189q-102 0 -154.5 41t-49.5 117q0 94 69 142t184 48zM1022 559q33 -2 52.5 -25.5t10.5 -54.5q-39 -162 -136 -231.5t-271 -95.5q-160 -25 -229.5 -65t-75.5 -103q-4 -66 58.5 -94.5t217.5 -28.5q346 0 582 200q55 37 92 -10
l107 -155q14 -18 11 -42t-22 -38q-303 -268 -792 -269q-309 0 -467 90.5t-152 296.5q6 205 129 312.5t361 150.5q125 23 179 49.5t73 81.5q16 31 47 31h225z" />
    <glyph glyph-name="Agrave" unicode="&#xc0;" horiz-adv-x="1722" 
d="M709 1735q-27 16 -32 43.5t15 52.5l107 131q20 23 47.5 24t48.5 -22l291 -309q41 -43 2 -82l-60 -66q-33 -37 -71 -8zM78 0q-47 0 -67.5 37t3.5 78l750 1241q16 27 47 26h367q45 0 55 -41l369 -1255q10 -35 -9.5 -60.5t-54.5 -25.5h-225q-43 0 -63.5 17.5t-30.5 66.5
l-33 104q-4 16 -21 17h-688q-8 0 -18 -10l-80 -138q-18 -35 -46 -46t-83 -11h-172zM668 489h415q12 0 20.5 10.5t4.5 20.5l-131 461q-6 27 -12.5 40t-9.5 19.5t-11 -4t-12 -16.5t-17 -31l-272 -459q-8 -14 0.5 -27.5t24.5 -13.5z" />
    <glyph glyph-name="Aacute" unicode="&#xc1;" horiz-adv-x="1722" 
d="M1446 1829q14 -23 6 -48.5t-31 -39.5l-413 -244q-43 -23 -76 16l-39 56q-16 18 -13 41.5t23 38.5l373 317q23 20 52.5 16t43.5 -30zM78 0q-47 0 -67.5 37t3.5 78l750 1241q16 27 47 26h367q45 0 55 -41l369 -1255q10 -35 -9.5 -60.5t-54.5 -25.5h-225q-43 0 -63.5 17.5
t-30.5 66.5l-33 104q-4 16 -21 17h-688q-8 0 -18 -10l-80 -138q-18 -35 -46 -46t-83 -11h-172zM668 489h415q12 0 20.5 10.5t4.5 20.5l-131 461q-6 27 -12.5 40t-9.5 19.5t-11 -4t-12 -16.5t-17 -31l-272 -459q-8 -14 0.5 -27.5t24.5 -13.5z" />
    <glyph glyph-name="Acircumflex" unicode="&#xc2;" horiz-adv-x="1722" 
d="M948 1972q29 29 47.5 36t53.5 7h75q35 0 52.5 -9t37.5 -38l256 -326q31 -41 -4 -75l-59 -64q-14 -16 -36.5 -19t-41.5 11l-199 176q-49 41 -66 43t-63 -24l-260 -168q-47 -27 -77 14l-41 55q-31 41 6 78zM78 0q-47 0 -67.5 37t3.5 78l750 1241q16 27 47 26h367
q45 0 55 -41l369 -1255q10 -35 -9.5 -60.5t-54.5 -25.5h-225q-43 0 -63.5 17.5t-30.5 66.5l-33 104q-4 16 -21 17h-688q-8 0 -18 -10l-80 -138q-18 -35 -46 -46t-83 -11h-172zM668 489h415q12 0 20.5 10.5t4.5 20.5l-131 461q-6 27 -12.5 40t-9.5 19.5t-11 -4t-12 -16.5
t-17 -31l-272 -459q-8 -14 0.5 -27.5t24.5 -13.5z" />
    <glyph glyph-name="Atilde" unicode="&#xc3;" horiz-adv-x="1722" 
d="M625 1501q-31 0 -49.5 20.5t-14.5 51.5q27 197 111 289t194 92q39 0 72 -9.5t47 -16.5t49 -31.5t47 -32.5q14 -10 39 -27.5t37 -24t27 -6.5q59 0 80 105q16 43 51 43h162q29 0 48 -21.5t15 -52.5q-31 -184 -119 -277.5t-196 -93.5q-16 0 -31.5 2t-27 4.5t-26 8.5t-21.5 8
t-22.5 11t-20.5 13.5t-22.5 15.5t-21.5 15q-10 8 -28.5 21.5t-26.5 19.5t-20.5 13.5t-22.5 10.5t-23 3q-68 0 -88 -109q-14 -45 -55 -45h-143zM78 0q-47 0 -67.5 37t3.5 78l750 1241q16 27 47 26h367q45 0 55 -41l369 -1255q10 -35 -9.5 -60.5t-54.5 -25.5h-225
q-43 0 -63.5 17.5t-30.5 66.5l-33 104q-4 16 -21 17h-688q-8 0 -18 -10l-80 -138q-18 -35 -46 -46t-83 -11h-172zM668 489h415q12 0 20.5 10.5t4.5 20.5l-131 461q-6 27 -12.5 40t-9.5 19.5t-11 -4t-12 -16.5t-17 -31l-272 -459q-8 -14 0.5 -27.5t24.5 -13.5z" />
    <glyph glyph-name="Adieresis" unicode="&#xc4;" horiz-adv-x="1722" 
d="M764 1516q-106 0 -157.5 60t-35.5 165q20 176 215 176q102 0 156.5 -56.5t40.5 -156.5q-12 -90 -70.5 -139t-148.5 -49zM1319 1516q-104 0 -154.5 60t-36.5 165q20 176 213 176q104 0 158.5 -56.5t40.5 -156.5q-12 -92 -70.5 -140t-150.5 -48zM78 0q-47 0 -67.5 37
t3.5 78l750 1241q16 27 47 26h367q45 0 55 -41l369 -1255q10 -35 -9.5 -60.5t-54.5 -25.5h-225q-43 0 -63.5 17.5t-30.5 66.5l-33 104q-4 16 -21 17h-688q-8 0 -18 -10l-80 -138q-18 -35 -46 -46t-83 -11h-172zM668 489h415q12 0 20.5 10.5t4.5 20.5l-131 461
q-6 27 -12.5 40t-9.5 19.5t-11 -4t-12 -16.5t-17 -31l-272 -459q-8 -14 0.5 -27.5t24.5 -13.5z" />
    <glyph glyph-name="Aring" unicode="&#xc5;" horiz-adv-x="1722" 
d="M1032 1464q-250 0 -355.5 82t-86.5 219l2 13q37 281 489 280q471 0 432 -299v-14q-18 -137 -128.5 -209t-352.5 -72zM1030 1679q215 0 230 84l2 13q4 35 -33 51t-146 16q-221 0 -235 -80l-2 -12q-4 -37 37 -54.5t147 -17.5zM78 0q-47 0 -67.5 37t3.5 78l750 1241
q16 27 47 26h367q45 0 55 -41l369 -1255q10 -35 -9.5 -60.5t-54.5 -25.5h-225q-43 0 -63.5 17.5t-30.5 66.5l-33 104q-4 16 -21 17h-688q-8 0 -18 -10l-80 -138q-18 -35 -46 -46t-83 -11h-172zM668 489h415q12 0 20.5 10.5t4.5 20.5l-131 461q-6 27 -12.5 40t-9.5 19.5
t-11 -4t-12 -16.5t-17 -31l-272 -459q-8 -14 0.5 -27.5t24.5 -13.5z" />
    <glyph glyph-name="AE" unicode="&#xc6;" horiz-adv-x="2521" 
d="M125 0q-47 0 -67.5 37t3.5 78l787 1241q16 27 49 26h1530q31 0 49 -20.5t14 -52.5l-30 -195q-10 -51 -58 -51h-780q-18 0 -23 -19l-26 -178q-4 -29 24 -28h527q31 0 49 -20.5t14 -53.5l-24 -156q-10 -49 -60 -49h-557q-23 0 -22 -18l-31 -193q-4 -27 25 -26h753
q31 0 49.5 -20.5t14.5 -53.5l-31 -199q-10 -49 -57 -49h-1090q-31 0 -50.5 22.5t-12.5 53.5l14 100q4 29 -23 29h-553q-12 0 -20 -12l-102 -164q-16 -29 -50 -29h-235zM723 489h416q18 0 22 19l84 526q4 29 -24 29h-174q-10 0 -17 -10l-332 -521q-8 -16 0.5 -29.5
t24.5 -13.5z" />
    <glyph glyph-name="Ccedilla" unicode="&#xc7;" horiz-adv-x="1800" 
d="M1782 1126q14 -20 9 -42.5t-26 -36.5l-200 -146q-43 -31 -80 10q-76 96 -175.5 138.5t-246.5 42.5q-215 0 -359.5 -89.5t-175.5 -283.5l-10 -78q-31 -190 73.5 -270t309.5 -80q328 0 531 211q47 43 86 6l165 -148q18 -16 20.5 -41.5t-15.5 -44.5q-287 -297 -756 -311
l-4 -16q-4 -16 9 -25.5t50 -17.5q92 -12 137 -56.5t37 -113.5q-20 -186 -321 -187q-115 0 -201 21q-53 14 -39 72l12 41q16 57 78 40q45 -10 121 -10q113 0 113 37q2 20 -28 29.5t-99 11.5q-96 6 -78 92l22 88q-338 31 -482 209t-95 490l12 71q106 680 903 680
q515 0 703 -293z" />
    <glyph glyph-name="Egrave" unicode="&#xc8;" horiz-adv-x="1716" 
d="M750 1735q-27 16 -32 43.5t15 52.5l107 131q20 23 47.5 24t48.5 -22l291 -309q41 -43 2 -82l-60 -66q-33 -37 -71 -8zM1622 1382q31 0 50.5 -21.5t13.5 -51.5l-31 -195q-2 -23 -18.5 -37t-39.5 -14h-925q-18 0 -23 -19l-28 -178q-2 -12 6 -20t18 -8h674q31 0 49 -21.5
t14 -54.5l-24 -154q-4 -23 -20.5 -36t-39.5 -13h-704q-16 0 -21 -18l-30 -193q-4 -27 24 -26h899q31 0 50.5 -21.5t13.5 -52.5l-31 -199q-10 -49 -57 -49h-1235q-33 0 -51.5 21.5t-14.5 54.5l199 1257q10 49 59 49h1223z" />
    <glyph glyph-name="Eacute" unicode="&#xc9;" horiz-adv-x="1716" 
d="M1487 1829q14 -23 6 -48.5t-31 -39.5l-413 -244q-43 -23 -76 16l-39 56q-16 18 -13 41.5t23 38.5l373 317q23 20 52.5 16t43.5 -30zM1622 1382q31 0 50.5 -21.5t13.5 -51.5l-31 -195q-2 -23 -18.5 -37t-39.5 -14h-925q-18 0 -23 -19l-28 -178q-2 -12 6 -20t18 -8h674
q31 0 49 -21.5t14 -54.5l-24 -154q-4 -23 -20.5 -36t-39.5 -13h-704q-16 0 -21 -18l-30 -193q-4 -27 24 -26h899q31 0 50.5 -21.5t13.5 -52.5l-31 -199q-10 -49 -57 -49h-1235q-33 0 -51.5 21.5t-14.5 54.5l199 1257q10 49 59 49h1223z" />
    <glyph glyph-name="Ecircumflex" unicode="&#xca;" horiz-adv-x="1716" 
d="M989 1972q29 29 47.5 36t53.5 7h75q35 0 52.5 -9t37.5 -38l256 -326q31 -41 -4 -75l-59 -64q-14 -16 -36.5 -19t-41.5 11l-199 176q-49 41 -66.5 43t-62.5 -24l-260 -168q-47 -27 -77 14l-41 55q-31 41 6 78zM1622 1382q31 0 50.5 -21.5t13.5 -51.5l-31 -195
q-2 -23 -18.5 -37t-39.5 -14h-925q-18 0 -23 -19l-28 -178q-2 -12 6 -20t18 -8h674q31 0 49 -21.5t14 -54.5l-24 -154q-4 -23 -20.5 -36t-39.5 -13h-704q-16 0 -21 -18l-30 -193q-4 -27 24 -26h899q31 0 50.5 -21.5t13.5 -52.5l-31 -199q-10 -49 -57 -49h-1235
q-33 0 -51.5 21.5t-14.5 54.5l199 1257q10 49 59 49h1223z" />
    <glyph glyph-name="Edieresis" unicode="&#xcb;" horiz-adv-x="1716" 
d="M805 1516q-106 0 -157.5 60t-35.5 165q20 176 215 176q102 0 156.5 -56.5t40.5 -156.5q-12 -90 -70.5 -139t-148.5 -49zM1360 1516q-104 0 -154.5 60t-36.5 165q20 176 213 176q104 0 158.5 -56.5t40.5 -156.5q-12 -92 -70.5 -140t-150.5 -48zM1622 1382q31 0 50.5 -21.5
t13.5 -51.5l-31 -195q-2 -23 -18.5 -37t-39.5 -14h-925q-18 0 -23 -19l-28 -178q-2 -12 6 -20t18 -8h674q31 0 49 -21.5t14 -54.5l-24 -154q-4 -23 -20.5 -36t-39.5 -13h-704q-16 0 -21 -18l-30 -193q-4 -27 24 -26h899q31 0 50.5 -21.5t13.5 -52.5l-31 -199
q-10 -49 -57 -49h-1235q-33 0 -51.5 21.5t-14.5 54.5l199 1257q10 49 59 49h1223z" />
    <glyph glyph-name="Igrave" unicode="&#xcc;" horiz-adv-x="768" 
d="M229 1735q-27 16 -31.5 43.5t15.5 52.5l106 131q20 23 48 24t49 -22l291 -309q41 -43 2 -82l-60 -66q-33 -37 -71 -8zM205 0q-31 0 -49.5 22.5t-14.5 55.5l199 1253q10 51 59 51h232q31 0 49 -21.5t12 -53.5l-196 -1256q-10 -51 -60 -51h-231z" />
    <glyph glyph-name="Iacute" unicode="&#xcd;" horiz-adv-x="768" 
d="M967 1829q14 -23 6 -48.5t-31 -39.5l-414 -244q-43 -23 -75 16l-39 56q-16 18 -13.5 41.5t23.5 38.5l373 317q23 20 52.5 16t43.5 -30zM205 0q-31 0 -49.5 22.5t-14.5 55.5l199 1253q10 51 59 51h232q31 0 49 -21.5t12 -53.5l-196 -1256q-10 -51 -60 -51h-231z" />
    <glyph glyph-name="Icircumflex" unicode="&#xce;" horiz-adv-x="768" 
d="M469 1972q29 29 47.5 36t52.5 7h76q35 0 52.5 -9t37.5 -38l256 -326q31 -41 -4 -75l-59 -64q-14 -16 -37 -19t-41 11l-199 176q-49 41 -66.5 43t-62.5 -24l-260 -168q-47 -27 -78 14l-41 55q-31 41 7 78zM205 0q-31 0 -49.5 22.5t-14.5 55.5l199 1253q10 51 59 51h232
q31 0 49 -21.5t12 -53.5l-196 -1256q-10 -51 -60 -51h-231z" />
    <glyph glyph-name="Idieresis" unicode="&#xcf;" horiz-adv-x="768" 
d="M285 1516q-106 0 -157.5 60t-35.5 165q20 176 215 176q102 0 156.5 -56.5t40.5 -156.5q-12 -90 -70.5 -139t-148.5 -49zM840 1516q-104 0 -154.5 60t-36.5 165q20 176 213 176q104 0 158.5 -56.5t40.5 -156.5q-12 -92 -70.5 -140t-150.5 -48zM205 0q-31 0 -49.5 22.5
t-14.5 55.5l199 1253q10 51 59 51h232q31 0 49 -21.5t12 -53.5l-196 -1256q-10 -51 -60 -51h-231z" />
    <glyph glyph-name="Eth" unicode="&#xd0;" horiz-adv-x="1906" 
d="M1165 1382q373 0 528.5 -171t114.5 -504l-8 -50q-78 -657 -864 -657h-729q-33 0 -51.5 21.5t-14.5 54.5l74 463h-12q-29 0 -47.5 20.5t-16.5 50.5l17 129q8 51 59 52h39l86 542q10 49 59 49h766zM1456 733q25 186 -55 254t-285 68h-446q-18 0 -23 -19l-37 -245h551
q29 0 47.5 -21.5t14.5 -50.5l-15 -129q-2 -23 -19.5 -37t-39.5 -14h-578l-28 -183q-2 -12 6 -20t18 -8h402q209 0 331.5 82t147.5 268z" />
    <glyph glyph-name="Ntilde" unicode="&#xd1;" horiz-adv-x="1873" 
d="M698 1501q-31 0 -49 20.5t-14 51.5q27 197 110.5 289t194.5 92q39 0 71.5 -9.5t47 -16.5t49.5 -31.5t47 -32.5q14 -10 39 -27.5t37 -24t26 -6.5q59 0 80 105q16 43 52 43h161q29 0 48.5 -21.5t15.5 -52.5q-31 -184 -119 -277.5t-197 -93.5q-16 0 -31.5 2t-26.5 4.5
t-25.5 8.5t-21.5 8t-22.5 11t-20.5 13.5t-22.5 15.5t-21.5 15q-10 8 -28.5 21.5t-27 19.5t-20.5 13.5t-22.5 10.5t-22.5 3q-68 0 -88 -109q-14 -45 -55 -45h-144zM1735 1382q31 0 49 -22.5t14 -54.5l-194 -1233q-10 -72 -82 -72l-222 -2q-63 0 -100 55l-534 760
q-10 14 -22.5 20.5t-24 -2t-15.5 -32.5l-117 -748q-10 -51 -59 -51h-223q-31 0 -49.5 22.5t-14.5 53.5l199 1255q10 51 59 51h275q29 0 45 -22l557 -791q49 -63 61 15l115 747q10 51 59 51h224z" />
    <glyph glyph-name="Ograve" unicode="&#xd2;" horiz-adv-x="1957" 
d="M823 1735q-27 16 -32 43.5t16 52.5l106 131q20 23 48 24t49 -22l290 -309q41 -43 3 -82l-60 -66q-33 -37 -72 -8zM911 -37q-426 0 -614 181.5t-133 523.5l12 71q106 680 932 680q428 0 617.5 -181t136.5 -523l-13 -70q-104 -682 -938 -682zM930 291q143 0 259 34.5
t201 120.5t107 220l10 75q31 193 -83.5 272t-331.5 79q-223 0 -378 -90.5t-186 -282.5l-10 -78q-31 -193 83 -271.5t329 -78.5z" />
    <glyph glyph-name="Oacute" unicode="&#xd3;" horiz-adv-x="1957" 
d="M1561 1829q14 -23 6 -48.5t-31 -39.5l-414 -244q-43 -23 -75 16l-39 56q-16 18 -13.5 41.5t23.5 38.5l373 317q23 20 52.5 16t43.5 -30zM911 -37q-426 0 -614 181.5t-133 523.5l12 71q106 680 932 680q428 0 617.5 -181t136.5 -523l-13 -70q-104 -682 -938 -682zM930 291
q143 0 259 34.5t201 120.5t107 220l10 75q31 193 -83.5 272t-331.5 79q-223 0 -378 -90.5t-186 -282.5l-10 -78q-31 -193 83 -271.5t329 -78.5z" />
    <glyph glyph-name="Ocircumflex" unicode="&#xd4;" horiz-adv-x="1957" 
d="M1063 1972q29 29 47 36t53 7h76q35 0 52.5 -9t37.5 -38l256 -326q31 -41 -4 -75l-59 -64q-14 -16 -37 -19t-41 11l-199 176q-49 41 -66.5 43t-62.5 -24l-260 -168q-47 -27 -78 14l-41 55q-31 41 6 78zM911 -37q-426 0 -614 181.5t-133 523.5l12 71q106 680 932 680
q428 0 617.5 -181t136.5 -523l-13 -70q-104 -682 -938 -682zM930 291q143 0 259 34.5t201 120.5t107 220l10 75q31 193 -83.5 272t-331.5 79q-223 0 -378 -90.5t-186 -282.5l-10 -78q-31 -193 83 -271.5t329 -78.5z" />
    <glyph glyph-name="Otilde" unicode="&#xd5;" horiz-adv-x="1957" 
d="M739 1501q-31 0 -49 20.5t-14 51.5q27 197 110.5 289t194.5 92q39 0 71.5 -9.5t47 -16.5t49.5 -31.5t47 -32.5q14 -10 39 -27.5t37 -24t26 -6.5q59 0 80 105q16 43 52 43h161q29 0 48.5 -21.5t15.5 -52.5q-31 -184 -119 -277.5t-197 -93.5q-16 0 -31.5 2t-26.5 4.5
t-25.5 8.5t-21.5 8t-22.5 11t-20.5 13.5t-22.5 15.5t-21.5 15q-10 8 -28.5 21.5t-27 19.5t-20.5 13.5t-22.5 10.5t-22.5 3q-68 0 -88 -109q-14 -45 -55 -45h-144zM911 -37q-426 0 -614 181.5t-133 523.5l12 71q106 680 932 680q428 0 617.5 -181t136.5 -523l-13 -70
q-104 -682 -938 -682zM930 291q143 0 259 34.5t201 120.5t107 220l10 75q31 193 -83.5 272t-331.5 79q-223 0 -378 -90.5t-186 -282.5l-10 -78q-31 -193 83 -271.5t329 -78.5z" />
    <glyph glyph-name="Odieresis" unicode="&#xd6;" horiz-adv-x="1957" 
d="M879 1516q-106 0 -157.5 60t-35.5 165q20 176 215 176q102 0 156.5 -56.5t40.5 -156.5q-12 -90 -70.5 -139t-148.5 -49zM1434 1516q-104 0 -154.5 60t-36.5 165q20 176 213 176q104 0 158.5 -56.5t40.5 -156.5q-12 -92 -70.5 -140t-150.5 -48zM911 -37q-426 0 -614 181.5
t-133 523.5l12 71q106 680 932 680q428 0 617.5 -181t136.5 -523l-13 -70q-104 -682 -938 -682zM930 291q143 0 259 34.5t201 120.5t107 220l10 75q31 193 -83.5 272t-331.5 79q-223 0 -378 -90.5t-186 -282.5l-10 -78q-31 -193 83 -271.5t329 -78.5z" />
    <glyph glyph-name="multiply" unicode="&#xd7;" horiz-adv-x="1388" 
d="M244 150q-18 -16 -44 -14.5t-40 22.5l-82 98q-16 20 -13 46t25 42l408 301q20 12 2 31l-289 278q-20 20 -19 46t23 44l127 111q43 37 82 -2l311 -299q14 -14 33 -2l412 305q20 14 43.5 12t40.5 -20l82 -98q18 -20 15 -46t-26 -42l-391 -287q-18 -14 -2 -31l305 -293
q43 -47 -4 -92l-129 -108q-16 -16 -40.5 -15.5t-41.5 17.5l-323 311q-12 16 -31 2z" />
    <glyph glyph-name="Oslash" unicode="&#xd8;" horiz-adv-x="1957" 
d="M2015 1176q29 -51 -20 -82l-140 -86q31 -129 7 -293l-13 -70q-104 -682 -938 -682q-338 0 -530 117l-182 -115q-23 -12 -47.5 -6t-36.5 29l-109 188q-33 49 23 84l145 92q-39 131 -10 316l12 71q106 680 932 680q362 0 555 -131l158 101q23 14 47 7t37 -30zM518 641
q-6 -41 -6 -76l797 502q-84 25 -217 25q-223 0 -378 -90.5t-186 -282.5zM1507 741l6 50l-768 -482q72 -18 185 -18q143 0 259 34.5t201 120.5t107 220z" />
    <glyph glyph-name="Ugrave" unicode="&#xd9;" horiz-adv-x="1843" 
d="M766 1735q-27 16 -32 43.5t16 52.5l106 131q20 23 48 24t48 -22l291 -309q41 -43 2 -82l-59 -66q-33 -37 -72 -8zM850 -37q-375 0 -534.5 187.5t-102.5 554.5l100 626q6 51 58 51h231q31 0 49.5 -22.5t14.5 -54.5l-101 -627q-35 -217 47 -302t256 -85q117 0 209 35.5
t166 131t98 244.5l99 629q10 51 59 51h230q33 0 51 -22.5t14 -54.5l-100 -623q-57 -365 -264 -542t-580 -177z" />
    <glyph glyph-name="Uacute" unicode="&#xda;" horiz-adv-x="1843" 
d="M1503 1829q14 -23 6 -48.5t-30 -39.5l-414 -244q-43 -23 -76 16l-39 56q-16 18 -13 41.5t24 38.5l372 317q23 20 52.5 16t44.5 -30zM850 -37q-375 0 -534.5 187.5t-102.5 554.5l100 626q6 51 58 51h231q31 0 49.5 -22.5t14.5 -54.5l-101 -627q-35 -217 47 -302t256 -85
q117 0 209 35.5t166 131t98 244.5l99 629q10 51 59 51h230q33 0 51 -22.5t14 -54.5l-100 -623q-57 -365 -264 -542t-580 -177z" />
    <glyph glyph-name="Ucircumflex" unicode="&#xdb;" horiz-adv-x="1843" 
d="M1006 1972q29 29 47 36t53 7h76q35 0 52 -9t38 -38l256 -326q31 -41 -4 -75l-60 -64q-14 -16 -36.5 -19t-41.5 11l-198 176q-49 41 -66.5 43t-62.5 -24l-260 -168q-47 -27 -78 14l-41 55q-31 41 6 78zM850 -37q-375 0 -534.5 187.5t-102.5 554.5l100 626q6 51 58 51h231
q31 0 49.5 -22.5t14.5 -54.5l-101 -627q-35 -217 47 -302t256 -85q117 0 209 35.5t166 131t98 244.5l99 629q10 51 59 51h230q33 0 51 -22.5t14 -54.5l-100 -623q-57 -365 -264 -542t-580 -177z" />
    <glyph glyph-name="Udieresis" unicode="&#xdc;" horiz-adv-x="1843" 
d="M821 1516q-106 0 -157.5 60t-34.5 165q20 176 215 176q102 0 156.5 -56.5t39.5 -156.5q-12 -90 -70.5 -139t-148.5 -49zM1376 1516q-104 0 -154.5 60t-35.5 165q20 176 213 176q104 0 158.5 -56.5t39.5 -156.5q-12 -92 -70.5 -140t-150.5 -48zM850 -37
q-375 0 -534.5 187.5t-102.5 554.5l100 626q6 51 58 51h231q31 0 49.5 -22.5t14.5 -54.5l-101 -627q-35 -217 47 -302t256 -85q117 0 209 35.5t166 131t98 244.5l99 629q10 51 59 51h230q33 0 51 -22.5t14 -54.5l-100 -623q-57 -365 -264 -542t-580 -177z" />
    <glyph glyph-name="Yacute" unicode="&#xdd;" horiz-adv-x="1865" 
d="M1513 1829q14 -23 6 -48.5t-30 -39.5l-414 -244q-43 -23 -76 16l-38 56q-16 18 -13.5 41.5t23.5 38.5l372 317q23 20 52.5 16t44.5 -30zM1757 1382q59 0 80 -46t-20 -93l-664 -721q-29 -31 -35 -47t-14 -72l-55 -352q-10 -51 -58 -51h-231q-31 0 -49.5 21.5t-14.5 54.5
l52 338q8 55 4 76.5t-33 68.5l-436 709q-25 39 -4.5 76.5t67.5 37.5h234q35 0 47 -26l331 -563q18 -29 43 -5l517 576q12 18 38 18h201z" />
    <glyph glyph-name="Thorn" unicode="&#xde;" horiz-adv-x="1662" 
d="M207 0q-33 0 -51.5 21.5t-14.5 54.5l199 1257q10 49 59 49h217q31 0 49.5 -20.5t14.5 -52.5l-12 -80q-4 -29 24 -29h477q471 0 471 -395q0 -276 -167.5 -427t-481.5 -151h-461q-18 0 -22 -18l-25 -160q-6 -49 -57 -49h-219zM588 539h411q287 0 287 211q0 74 -47 102.5
t-135 28.5h-471q-23 0 -23 -19l-47 -295q-2 -12 6.5 -20t18.5 -8z" />
    <glyph glyph-name="germandbls" unicode="&#xdf;" horiz-adv-x="1878" 
d="M1092 -37q-301 4 -463 80q-37 18 -29 66l41 172q8 35 36 46t60 -3q125 -59 324 -60q160 0 254 57.5t94 170.5q0 84 -74.5 117.5t-236.5 33.5l-289 -2q-31 0 -49.5 23.5t-14.5 54.5l21 123q12 49 57 49h140q174 0 269 59.5t95 173.5q0 156 -285 156q-199 0 -302 -77
t-136 -292l-135 -862q-10 -49 -57 -49h-230q-31 0 -49 20.5t-14 53.5l137 878q31 193 97.5 318t178 190.5t238.5 89t313 23.5q326 0 467.5 -89t141.5 -290q0 -131 -57.5 -224t-164.5 -132q-31 -14 -40 -22.5t0.5 -13.5t39.5 -11q291 -51 291 -328q0 -223 -167.5 -361.5
t-501.5 -138.5z" />
    <glyph glyph-name="agrave" unicode="&#xe0;" horiz-adv-x="1445" 
d="M500 1311q-27 16 -32 43.5t15 52.5l107 131q20 23 48 24t48 -22l291 -309q41 -43 2 -82l-59 -66q-33 -37 -72 -8zM418 -37q-178 0 -259 67.5t-81 209.5q0 303 467 303h332q49 0 49 22l2 15q12 121 -232 120q-219 0 -356 -69q-59 -18 -78 35l-59 157q-10 23 -2 45.5
t32 30.5q205 96 543 96q283 0 423 -104.5t99 -370.5l-75 -471q-6 -49 -58 -49h-194q-31 0 -50.5 21.5t-13.5 52.5l8 43q4 20 -8 20q-10 0 -26 -16q-170 -158 -463 -158zM567 219q96 0 211 40t119 91l4 25q0 14 -20 14h-316q-129 0 -129 -88q0 -82 131 -82z" />
    <glyph glyph-name="aacute" unicode="&#xe1;" horiz-adv-x="1445" 
d="M1227 1405q14 -23 6 -48.5t-31 -39.5l-414 -244q-43 -23 -75 17l-39 55q-16 18 -13 41.5t23 38.5l373 317q23 20 52.5 16t43.5 -30zM418 -37q-178 0 -259 67.5t-81 209.5q0 303 467 303h332q49 0 49 22l2 15q12 121 -232 120q-219 0 -356 -69q-59 -18 -78 35l-59 157
q-10 23 -2 45.5t32 30.5q205 96 543 96q283 0 423 -104.5t99 -370.5l-75 -471q-6 -49 -58 -49h-194q-31 0 -50.5 21.5t-13.5 52.5l8 43q4 20 -8 20q-10 0 -26 -16q-170 -158 -463 -158zM567 219q96 0 211 40t119 91l4 25q0 14 -20 14h-316q-129 0 -129 -88q0 -82 131 -82z
" />
    <glyph glyph-name="acircumflex" unicode="&#xe2;" horiz-adv-x="1445" 
d="M739 1548q29 29 47.5 36t53.5 7h75q35 0 52.5 -9t38.5 -38l256 -325q31 -41 -5 -76l-59 -64q-14 -16 -36.5 -19t-41.5 11l-198 176q-49 41 -66.5 43t-62.5 -24l-261 -168q-47 -27 -77 14l-41 55q-31 41 6 78zM418 -37q-178 0 -259 67.5t-81 209.5q0 303 467 303h332
q49 0 49 22l2 15q12 121 -232 120q-219 0 -356 -69q-59 -18 -78 35l-59 157q-10 23 -2 45.5t32 30.5q205 96 543 96q283 0 423 -104.5t99 -370.5l-75 -471q-6 -49 -58 -49h-194q-31 0 -50.5 21.5t-13.5 52.5l8 43q4 20 -8 20q-10 0 -26 -16q-170 -158 -463 -158zM567 219
q96 0 211 40t119 91l4 25q0 14 -20 14h-316q-129 0 -129 -88q0 -82 131 -82z" />
    <glyph glyph-name="atilde" unicode="&#xe3;" horiz-adv-x="1445" 
d="M391 1081q-31 0 -49 20.5t-14 51.5q27 188 111.5 275.5t199.5 87.5q47 0 84 -11.5t55.5 -23t57.5 -41.5q14 -8 33.5 -23.5t29.5 -23t24.5 -13.5t28.5 -6q61 0 82 99q18 41 49 40h164q29 0 48.5 -21.5t15.5 -51.5q-31 -186 -124 -276.5t-214 -90.5q-86 0 -178 76
q-12 10 -35 27.5t-31 23.5t-21.5 11.5t-25.5 5.5q-29 0 -49.5 -26t-26.5 -71q-16 -39 -49 -39h-166zM418 -37q-178 0 -259 67.5t-81 209.5q0 303 467 303h332q49 0 49 22l2 15q12 121 -232 120q-219 0 -356 -69q-59 -18 -78 35l-59 157q-10 23 -2 45.5t32 30.5
q205 96 543 96q283 0 423 -104.5t99 -370.5l-75 -471q-6 -49 -58 -49h-194q-31 0 -50.5 21.5t-13.5 52.5l8 43q4 20 -8 20q-10 0 -26 -16q-170 -158 -463 -158zM567 219q96 0 211 40t119 91l4 25q0 14 -20 14h-316q-129 0 -129 -88q0 -82 131 -82z" />
    <glyph glyph-name="adieresis" unicode="&#xe4;" horiz-adv-x="1445" 
d="M555 1092q-106 0 -157.5 60t-35.5 165q20 176 216 176q102 0 156 -56.5t40 -156.5q-12 -90 -70.5 -139t-148.5 -49zM1110 1092q-104 0 -154.5 60t-35.5 165q20 176 213 176q104 0 158.5 -56.5t39.5 -156.5q-12 -92 -70.5 -140t-150.5 -48zM418 -37q-178 0 -259 67.5
t-81 209.5q0 303 467 303h332q49 0 49 22l2 15q12 121 -232 120q-219 0 -356 -69q-59 -18 -78 35l-59 157q-10 23 -2 45.5t32 30.5q205 96 543 96q283 0 423 -104.5t99 -370.5l-75 -471q-6 -49 -58 -49h-194q-31 0 -50.5 21.5t-13.5 52.5l8 43q4 20 -8 20q-10 0 -26 -16
q-170 -158 -463 -158zM567 219q96 0 211 40t119 91l4 25q0 14 -20 14h-316q-129 0 -129 -88q0 -82 131 -82z" />
    <glyph glyph-name="aring" unicode="&#xe5;" horiz-adv-x="1445" 
d="M823 1073q-262 0 -361.5 77t-80.5 222l4 29q37 264 522 264q225 0 323.5 -76t74.5 -225l-2 -14q-44 -277 -480 -277zM809 1286q238 0 242 92v8q2 33 -36 48.5t-130 15.5q-244 0 -248 -80l-2 -10q-2 -37 36 -55.5t138 -18.5zM418 -37q-178 0 -259 67.5t-81 209.5
q0 303 467 303h332q49 0 49 22l2 15q12 121 -232 120q-219 0 -356 -69q-59 -18 -78 35l-59 157q-10 23 -2 45.5t32 30.5q205 96 543 96q283 0 423 -104.5t99 -370.5l-75 -471q-6 -49 -58 -49h-194q-31 0 -50.5 21.5t-13.5 52.5l8 43q4 20 -8 20q-10 0 -26 -16
q-170 -158 -463 -158zM567 219q96 0 211 40t119 91l4 25q0 14 -20 14h-316q-129 0 -129 -88q0 -82 131 -82z" />
    <glyph glyph-name="ae" unicode="&#xe6;" horiz-adv-x="2232" 
d="M418 -37q-180 0 -263 67.5t-79 209.5q10 303 436 303h387q27 0 27 18v14q6 63 -56.5 94t-158.5 31q-225 0 -373 -69q-57 -16 -78 35l-59 153q-10 25 -1 48.5t33 31.5q217 96 549 96q285 0 369 -159q14 -23 31 -7q152 166 485 166q86 0 161 -13t144.5 -47t114.5 -87
t65.5 -138t6.5 -196l-9 -47q-2 -23 -18 -38t-39 -15l-774 2q-25 0 -25 -21v-4q-8 -68 58.5 -99.5t171.5 -31.5q229 0 356 64q49 23 76 -25l78 -149q14 -27 7 -51.5t-34 -35.5q-211 -100 -545 -100q-352 0 -461 160q-12 25 -36 0q-215 -160 -547 -160zM1362 547h410
q29 0 32 22v9q10 123 -215 122q-86 0 -162.5 -32.5t-83.5 -96.5l-2 -4q1 -20 21 -20zM567 219q84 0 194.5 40t121.5 95v17q2 10 -4.5 14t-18.5 4h-297q-129 0 -129 -88q0 -82 133 -82z" />
    <glyph glyph-name="ccedilla" unicode="&#xe7;" horiz-adv-x="1372" 
d="M1325 864q27 -18 28 -48t-22 -50l-141 -133q-33 -29 -74 -4q-102 72 -305 71q-156 0 -244 -43t-106 -155l-6 -33q-16 -115 56.5 -162t203.5 -47q215 0 358 94q53 25 84 -20l92 -146q14 -20 9 -43.5t-25 -38.5q-195 -129 -520 -141l-4 -18q-4 -16 9 -25.5t50 -17.5
q92 -12 137 -56.5t37 -113.5q-20 -186 -321 -187q-115 0 -201 21q-53 14 -39 72l12 41q16 57 78 40q45 -10 121 -10q113 0 113 37q2 20 -28 29.5t-99 11.5q-96 6 -78 92l22 86q-483 39 -418 498l11 59q76 471 700 471q334 0 510 -131z" />
    <glyph glyph-name="egrave" unicode="&#xe8;" horiz-adv-x="1402" 
d="M475 1311q-27 16 -32 43.5t16 52.5l106 131q20 23 48 24t49 -22l290 -309q41 -43 2 -82l-59 -66q-33 -37 -72 -8zM655 -37q-303 0 -448.5 120t-100.5 384l11 72q72 457 665 456q614 0 547 -481l-6 -45q-2 -25 -20.5 -40t-40.5 -15h-775q-25 0 -24 -19v-4
q-6 -74 58.5 -102.5t172.5 -28.5q231 0 357 64q47 23 77 -25l76 -131q33 -51 -39 -92q-170 -113 -510 -113zM522 547h424q25 0 25 20l2 15q6 61 -48.5 89.5t-150.5 28.5q-252 0 -266 -129l-2 -12q0 -12 16 -12z" />
    <glyph glyph-name="eacute" unicode="&#xe9;" horiz-adv-x="1402" 
d="M1202 1405q14 -23 6 -48.5t-30 -39.5l-414 -244q-43 -23 -76 17l-39 55q-16 18 -13 41.5t23 38.5l373 317q23 20 52.5 16t43.5 -30zM655 -37q-303 0 -448.5 120t-100.5 384l11 72q72 457 665 456q614 0 547 -481l-6 -45q-2 -25 -20.5 -40t-40.5 -15h-775q-25 0 -24 -19
v-4q-6 -74 58.5 -102.5t172.5 -28.5q231 0 357 64q47 23 77 -25l76 -131q33 -51 -39 -92q-170 -113 -510 -113zM522 547h424q25 0 25 20l2 15q6 61 -48.5 89.5t-150.5 28.5q-252 0 -266 -129l-2 -12q0 -12 16 -12z" />
    <glyph glyph-name="ecircumflex" unicode="&#xea;" horiz-adv-x="1402" 
d="M715 1548q29 29 47 36t53 7h76q35 0 52.5 -9t37.5 -38l256 -325q31 -41 -4 -76l-59 -64q-14 -16 -37 -19t-41 11l-199 176q-49 41 -66.5 43t-62.5 -24l-260 -168q-47 -27 -78 14l-41 55q-31 41 6 78zM655 -37q-303 0 -448.5 120t-100.5 384l11 72q72 457 665 456
q614 0 547 -481l-6 -45q-2 -25 -20.5 -40t-40.5 -15h-775q-25 0 -24 -19v-4q-6 -74 58.5 -102.5t172.5 -28.5q231 0 357 64q47 23 77 -25l76 -131q33 -51 -39 -92q-170 -113 -510 -113zM522 547h424q25 0 25 20l2 15q6 61 -48.5 89.5t-150.5 28.5q-252 0 -266 -129l-2 -12
q0 -12 16 -12z" />
    <glyph glyph-name="edieresis" unicode="&#xeb;" horiz-adv-x="1402" 
d="M530 1092q-106 0 -157 60t-35 165q20 176 215 176q102 0 156.5 -56.5t40.5 -156.5q-12 -90 -71 -139t-149 -49zM1085 1092q-104 0 -154 60t-36 165q20 176 213 176q104 0 158.5 -56.5t40.5 -156.5q-12 -92 -71 -140t-151 -48zM655 -37q-303 0 -448.5 120t-100.5 384
l11 72q72 457 665 456q614 0 547 -481l-6 -45q-2 -25 -20.5 -40t-40.5 -15h-775q-25 0 -24 -19v-4q-6 -74 58.5 -102.5t172.5 -28.5q231 0 357 64q47 23 77 -25l76 -131q33 -51 -39 -92q-170 -113 -510 -113zM522 547h424q25 0 25 20l2 15q6 61 -48.5 89.5t-150.5 28.5
q-252 0 -266 -129l-2 -12q0 -12 16 -12z" />
    <glyph glyph-name="igrave" unicode="&#xec;" horiz-adv-x="745" 
d="M152 1311q-27 16 -32 43.5t15 52.5l107 131q20 23 47.5 24t48.5 -22l291 -309q41 -43 2 -82l-60 -66q-33 -37 -71 -8zM197 0q-31 0 -49.5 20.5t-14.5 53.5l131 835q6 49 60 49h225q31 0 50 -21.5t13 -51.5l-131 -836q-6 -49 -57 -49h-227z" />
    <glyph glyph-name="iacute" unicode="&#xed;" horiz-adv-x="745" 
d="M879 1405q14 -23 6 -48.5t-31 -39.5l-414 -244q-43 -23 -75 17l-39 55q-16 18 -13.5 41.5t23.5 38.5l373 317q23 20 52.5 16t43.5 -30zM197 0q-31 0 -49.5 20.5t-14.5 53.5l131 835q6 49 60 49h225q31 0 50 -21.5t13 -51.5l-131 -836q-6 -49 -57 -49h-227z" />
    <glyph glyph-name="icircumflex" unicode="&#xee;" horiz-adv-x="745" 
d="M391 1548q29 29 47.5 36t53.5 7h75q35 0 52.5 -9t37.5 -38l256 -325q31 -41 -4 -76l-59 -64q-14 -16 -36.5 -19t-41.5 11l-199 176q-49 41 -66.5 43t-62.5 -24l-260 -168q-47 -27 -78 14l-40 55q-31 41 6 78zM197 0q-31 0 -49.5 20.5t-14.5 53.5l131 835q6 49 60 49h225
q31 0 50 -21.5t13 -51.5l-131 -836q-6 -49 -57 -49h-227z" />
    <glyph glyph-name="idieresis" unicode="&#xef;" horiz-adv-x="745" 
d="M207 1092q-106 0 -157.5 60t-35.5 165q20 176 215 176q102 0 156.5 -56.5t40.5 -156.5q-12 -90 -70.5 -139t-148.5 -49zM762 1092q-104 0 -154.5 60t-36.5 165q20 176 213 176q104 0 158.5 -56.5t40.5 -156.5q-12 -92 -70.5 -140t-150.5 -48zM197 0q-31 0 -49.5 20.5
t-14.5 53.5l131 835q6 49 60 49h225q31 0 50 -21.5t13 -51.5l-131 -836q-6 -49 -57 -49h-227z" />
    <glyph glyph-name="eth" unicode="&#xf0;" horiz-adv-x="1572" 
d="M657 -37q-324 0 -471 99.5t-147 320.5q0 502 721 502q264 0 407 -111q14 -12 30.5 -6t19.5 27l4 43q12 125 -21 219q-8 29 -35 14l-254 -106q-53 -23 -80 26l-34 70q-14 25 -5 49.5t33 34.5l146 59q25 20 -4 33q-53 39 -146 39q-238 0 -401 -64q-27 -10 -50.5 0.5
t-33.5 36.5l-55 162q-18 59 34 76q221 86 555 86q324 0 500 -168q6 -10 21 -4l161 69q51 25 80 -28l37 -74q12 -25 4 -49.5t-33 -34.5l-122 -51q-16 -10 -11 -29q70 -180 47 -405l-8 -109q-16 -201 -86.5 -344t-190.5 -226t-269.5 -120t-342.5 -37zM723 281q211 0 318.5 51
t111.5 137q4 145 -336 145q-416 0 -418 -196q-2 -74 79 -105.5t245 -31.5z" />
    <glyph glyph-name="ntilde" unicode="&#xf1;" horiz-adv-x="1591" 
d="M465 1081q-31 0 -49.5 20.5t-14.5 51.5q27 188 112 275.5t200 87.5q47 0 84 -11.5t55 -23t57 -41.5q14 -8 34 -23.5t30 -23t24.5 -13.5t28.5 -6q61 0 82 99q18 41 49 40h164q29 0 48.5 -21.5t14.5 -51.5q-31 -186 -124 -276.5t-213 -90.5q-86 0 -179 76
q-12 10 -34.5 27.5t-30.5 23.5t-21.5 11.5t-25.5 5.5q-29 0 -49.5 -26t-26.5 -71q-16 -39 -49 -39h-166zM197 0q-31 0 -49.5 20.5t-14.5 53.5l131 835q6 49 60 49h196q41 0 58 -32l2 -31q6 -27 34 -10q156 111 414 110q94 0 169 -20.5t137.5 -68.5t88 -138t4.5 -217
l-77 -502q-10 -49 -60 -49h-227q-31 0 -49.5 20.5t-14.5 53.5l66 409q18 119 -30 160t-148 41q-119 0 -258 -72q-37 -16 -52.5 -32.5t-19.5 -44.5l-76 -486q-10 -49 -57 -49h-227z" />
    <glyph glyph-name="ograve" unicode="&#xf2;" horiz-adv-x="1515" 
d="M535 1311q-27 16 -32 43.5t15 52.5l107 131q20 23 47.5 24t48.5 -22l291 -309q41 -43 2 -82l-60 -66q-33 -37 -71 -8zM682 -37q-315 0 -468 116t-110 380l11 65q74 471 706 471q150 0 262.5 -25.5t195.5 -82t118 -153.5t12 -232l-8 -66q-76 -473 -719 -473zM705 260
q309 0 348 207l6 35q10 59 -6.5 100t-55.5 61.5t-84 28.5t-104 8q-309 0 -348 -206l-6 -35q-16 -115 53.5 -157t196.5 -42z" />
    <glyph glyph-name="oacute" unicode="&#xf3;" horiz-adv-x="1515" 
d="M1262 1405q14 -23 6 -48.5t-31 -39.5l-414 -244q-43 -23 -75 17l-39 55q-16 18 -13.5 41.5t23.5 38.5l373 317q23 20 52.5 16t43.5 -30zM682 -37q-315 0 -468 116t-110 380l11 65q74 471 706 471q150 0 262.5 -25.5t195.5 -82t118 -153.5t12 -232l-8 -66
q-76 -473 -719 -473zM705 260q309 0 348 207l6 35q10 59 -6.5 100t-55.5 61.5t-84 28.5t-104 8q-309 0 -348 -206l-6 -35q-16 -115 53.5 -157t196.5 -42z" />
    <glyph glyph-name="ocircumflex" unicode="&#xf4;" horiz-adv-x="1515" 
d="M774 1548q29 29 47.5 36t52.5 7h76q35 0 52.5 -9t37.5 -38l256 -325q31 -41 -4 -76l-59 -64q-14 -16 -36.5 -19t-41.5 11l-199 176q-49 41 -66.5 43t-62.5 -24l-260 -168q-47 -27 -78 14l-40 55q-31 41 6 78zM682 -37q-315 0 -468 116t-110 380l11 65q74 471 706 471
q150 0 262.5 -25.5t195.5 -82t118 -153.5t12 -232l-8 -66q-76 -473 -719 -473zM705 260q309 0 348 207l6 35q10 59 -6.5 100t-55.5 61.5t-84 28.5t-104 8q-309 0 -348 -206l-6 -35q-16 -115 53.5 -157t196.5 -42z" />
    <glyph glyph-name="otilde" unicode="&#xf5;" horiz-adv-x="1515" 
d="M426 1081q-31 0 -49.5 20.5t-14.5 51.5q27 188 112 275.5t200 87.5q47 0 84 -11.5t55 -23t57 -41.5q14 -8 34 -23.5t30 -23t24.5 -13.5t28.5 -6q61 0 82 99q18 41 49 40h164q29 0 48.5 -21.5t15.5 -51.5q-31 -186 -124.5 -276.5t-213.5 -90.5q-86 0 -179 76
q-12 10 -34.5 27.5t-30.5 23.5t-21.5 11.5t-25.5 5.5q-29 0 -49.5 -26t-26.5 -71q-16 -39 -49 -39h-166zM682 -37q-315 0 -468 116t-110 380l11 65q74 471 706 471q150 0 262.5 -25.5t195.5 -82t118 -153.5t12 -232l-8 -66q-76 -473 -719 -473zM705 260q309 0 348 207l6 35
q10 59 -6.5 100t-55.5 61.5t-84 28.5t-104 8q-309 0 -348 -206l-6 -35q-16 -115 53.5 -157t196.5 -42z" />
    <glyph glyph-name="odieresis" unicode="&#xf6;" horiz-adv-x="1515" 
d="M590 1092q-106 0 -157.5 60t-35.5 165q20 176 215 176q102 0 156.5 -56.5t40.5 -156.5q-12 -90 -70.5 -139t-148.5 -49zM1145 1092q-104 0 -154.5 60t-36.5 165q20 176 213 176q104 0 158.5 -56.5t40.5 -156.5q-12 -92 -70.5 -140t-150.5 -48zM682 -37q-315 0 -468 116
t-110 380l11 65q74 471 706 471q150 0 262.5 -25.5t195.5 -82t118 -153.5t12 -232l-8 -66q-76 -473 -719 -473zM705 260q309 0 348 207l6 35q10 59 -6.5 100t-55.5 61.5t-84 28.5t-104 8q-309 0 -348 -206l-6 -35q-16 -115 53.5 -157t196.5 -42z" />
    <glyph glyph-name="divide" unicode="&#xf7;" horiz-adv-x="1409" 
d="M760 874q-115 0 -163 31t-48 94q0 90 51 134.5t207 44.5q117 0 168 -30t51 -93q0 -88 -57 -134.5t-209 -46.5zM147 520q-31 0 -50 21.5t-13 52.5l18 125q10 51 58 51h1155q31 0 49 -20.5t14 -53.5l-20 -125q-6 -51 -55 -51h-1156zM639 113q-115 0 -162 30.5t-47 94.5
q0 90 51 134t207 44q117 0 167 -30t50 -93q0 -90 -57 -135t-209 -45z" />
    <glyph glyph-name="oslash" unicode="&#xf8;" horiz-adv-x="1527" 
d="M1581 768l-158 -94q12 -80 -2 -172l-8 -66q-76 -473 -719 -473q-197 0 -325 41l-240 -149l-186 264l180 121q-27 92 -6 219l10 65q74 471 707 471q229 0 366 -57l219 131zM1071 502q10 59 -6 100t-55 61.5t-84 28.5t-105 8q-309 0 -348 -206l-6 -35q-16 -115 53.5 -157
t196.5 -42q309 0 348 207z" />
    <glyph glyph-name="ugrave" unicode="&#xf9;" horiz-adv-x="1591" 
d="M573 1311q-27 16 -31.5 43.5t15.5 52.5l107 131q20 23 47.5 24t48.5 -22l291 -309q41 -43 2 -82l-60 -66q-33 -37 -71 -8zM1407 958q31 0 49.5 -21.5t13.5 -53.5l-131 -834q-10 -51 -59 -51h-199q-49 0 -55 33v32q0 29 -29 11q-172 -113 -419 -113q-92 0 -168 21.5
t-138.5 68.5t-88 138.5t-5.5 216.5l80 501q2 23 18.5 37t38.5 14h228q31 0 49 -22.5t14 -52.5l-65 -410q-18 -117 29.5 -158t148.5 -41q156 0 289 88q33 23 36 56l78 489q10 51 58 51h227z" />
    <glyph glyph-name="uacute" unicode="&#xfa;" horiz-adv-x="1591" 
d="M1300 1405q14 -23 6 -48.5t-30 -39.5l-414 -244q-43 -23 -76 17l-38 55q-16 18 -13.5 41.5t23.5 38.5l372 317q23 20 52.5 16t44.5 -30zM1407 958q31 0 49.5 -21.5t13.5 -53.5l-131 -834q-10 -51 -59 -51h-199q-49 0 -55 33v32q0 29 -29 11q-172 -113 -419 -113
q-92 0 -168 21.5t-138.5 68.5t-88 138.5t-5.5 216.5l80 501q2 23 18.5 37t38.5 14h228q31 0 49 -22.5t14 -52.5l-65 -410q-18 -117 29.5 -158t148.5 -41q156 0 289 88q33 23 36 56l78 489q10 51 58 51h227z" />
    <glyph glyph-name="ucircumflex" unicode="&#xfb;" horiz-adv-x="1591" 
d="M813 1548q29 29 47.5 36t52.5 7h76q35 0 52.5 -9t37.5 -38l256 -325q31 -41 -4 -76l-59 -64q-14 -16 -37 -19t-41 11l-199 176q-49 41 -66.5 43t-62.5 -24l-260 -168q-47 -27 -78 14l-41 55q-31 41 7 78zM1407 958q31 0 49.5 -21.5t13.5 -53.5l-131 -834q-10 -51 -59 -51
h-199q-49 0 -55 33v32q0 29 -29 11q-172 -113 -419 -113q-92 0 -168 21.5t-138.5 68.5t-88 138.5t-5.5 216.5l80 501q2 23 18.5 37t38.5 14h228q31 0 49 -22.5t14 -52.5l-65 -410q-18 -117 29.5 -158t148.5 -41q156 0 289 88q33 23 36 56l78 489q10 51 58 51h227z" />
    <glyph glyph-name="udieresis" unicode="&#xfc;" horiz-adv-x="1591" 
d="M629 1092q-106 0 -157.5 60t-35.5 165q20 176 215 176q102 0 156.5 -56.5t40.5 -156.5q-12 -90 -70.5 -139t-148.5 -49zM1184 1092q-104 0 -154.5 60t-36.5 165q20 176 213 176q104 0 158.5 -56.5t40.5 -156.5q-12 -92 -70.5 -140t-150.5 -48zM1407 958q31 0 49.5 -21.5
t13.5 -53.5l-131 -834q-10 -51 -59 -51h-199q-49 0 -55 33v32q0 29 -29 11q-172 -113 -419 -113q-92 0 -168 21.5t-138.5 68.5t-88 138.5t-5.5 216.5l80 501q2 23 18.5 37t38.5 14h228q31 0 49 -22.5t14 -52.5l-65 -410q-18 -117 29.5 -158t148.5 -41q156 0 289 88
q33 23 36 56l78 489q10 51 58 51h227z" />
    <glyph glyph-name="yacute" unicode="&#xfd;" horiz-adv-x="1523" 
d="M1266 1405q14 -23 6 -48.5t-31 -39.5l-414 -244q-43 -23 -75 17l-39 55q-16 18 -13.5 41.5t23.5 38.5l373 317q23 20 52.5 16t43.5 -30zM1419 958q51 0 72.5 -39.5t-8.5 -82.5l-852 -1211q-16 -23 -43 -22h-209q-51 0 -70.5 40t8.5 83l129 194q43 49 21 100l-320 844
q-12 39 7.5 66.5t58.5 27.5h285q41 0 55 -45l154 -497q20 -72 59 -10l344 526q18 27 45 26h264z" />
    <glyph glyph-name="thorn" unicode="&#xfe;" horiz-adv-x="1656" 
d="M1061 995q250 0 389 -117.5t102 -375.5l-8 -53q-20 -139 -77.5 -236.5t-146.5 -151t-191.5 -76t-229.5 -22.5q-264 0 -395 94q-35 27 -43 -18l-62 -385q-2 -23 -18 -37t-39 -14h-225q-33 0 -51.5 21.5t-14.5 53.5l293 1809q10 49 59 49h215q33 0 50.5 -22.5t13.5 -53.5
l-88 -518q-6 -37 10.5 -42t50.5 15q119 80 406 80zM1202 508q18 109 -53.5 150.5t-200.5 41.5q-260 0 -366 -114q-41 -35 -43 -62l-19 -98q-6 -39 19 -64q37 -102 274 -102q346 0 383 213z" />
    <glyph glyph-name="ydieresis" unicode="&#xff;" horiz-adv-x="1523" 
d="M594 1092q-106 0 -157.5 60t-35.5 165q20 176 215 176q102 0 156.5 -56.5t40.5 -156.5q-12 -90 -70.5 -139t-148.5 -49zM1149 1092q-104 0 -154.5 60t-36.5 165q20 176 213 176q104 0 158.5 -56.5t40.5 -156.5q-12 -92 -70.5 -140t-150.5 -48zM1419 958q51 0 72.5 -39.5
t-8.5 -82.5l-852 -1211q-16 -23 -43 -22h-209q-51 0 -70.5 40t8.5 83l129 194q43 49 21 100l-320 844q-12 39 7.5 66.5t58.5 27.5h285q41 0 55 -45l154 -497q20 -72 59 -10l344 526q18 27 45 26h264z" />
    <glyph glyph-name="Amacron" unicode="&#x100;" horiz-adv-x="1722" 
d="M1552 1634q-4 -23 -20 -37t-37 -14h-901q-29 0 -47.5 20.5t-14.5 51.5l21 157q2 23 18.5 37.5t38.5 14.5h901q29 0 47.5 -21.5t14.5 -50.5zM78 0q-47 0 -67.5 37t3.5 78l750 1241q16 27 47 26h367q45 0 55 -41l369 -1255q10 -35 -9.5 -60.5t-54.5 -25.5h-225
q-43 0 -63.5 17.5t-30.5 66.5l-33 104q-4 16 -21 17h-688q-8 0 -18 -10l-80 -138q-18 -35 -46 -46t-83 -11h-172zM668 489h415q12 0 20.5 10.5t4.5 20.5l-131 461q-6 27 -12.5 40t-9.5 19.5t-11 -4t-12 -16.5t-17 -31l-272 -459q-8 -14 0.5 -27.5t24.5 -13.5z" />
    <glyph glyph-name="amacron" unicode="&#x101;" horiz-adv-x="1445" 
d="M1343 1210q-4 -23 -20 -37t-37 -14h-901q-29 0 -47.5 20.5t-13.5 51.5l20 158q2 23 18.5 37t38.5 14h902q29 0 47 -21.5t14 -50.5zM418 -37q-178 0 -259 67.5t-81 209.5q0 303 467 303h332q49 0 49 22l2 15q12 121 -232 120q-219 0 -356 -69q-59 -18 -78 35l-59 157
q-10 23 -2 45.5t32 30.5q205 96 543 96q283 0 423 -104.5t99 -370.5l-75 -471q-6 -49 -58 -49h-194q-31 0 -50.5 21.5t-13.5 52.5l8 43q4 20 -8 20q-10 0 -26 -16q-170 -158 -463 -158zM567 219q96 0 211 40t119 91l4 25q0 14 -20 14h-316q-129 0 -129 -88q0 -82 131 -82z
" />
    <glyph glyph-name="Abreve" unicode="&#x102;" horiz-adv-x="1722" 
d="M1036 1464q-250 0 -361.5 117t-99.5 307q2 23 18.5 38.5t39.5 15.5h198q55 0 62 -64q0 -154 149 -154q178 0 226 177q16 41 55 41h197q33 0 51 -19.5t12 -46.5q-43 -190 -181.5 -301t-365.5 -111zM78 0q-47 0 -67.5 37t3.5 78l750 1241q16 27 47 26h367q45 0 55 -41
l369 -1255q10 -35 -9.5 -60.5t-54.5 -25.5h-225q-43 0 -63.5 17.5t-30.5 66.5l-33 104q-4 16 -21 17h-688q-8 0 -18 -10l-80 -138q-18 -35 -46 -46t-83 -11h-172zM668 489h415q12 0 20.5 10.5t4.5 20.5l-131 461q-6 27 -12.5 40t-9.5 19.5t-11 -4t-12 -16.5t-17 -31
l-272 -459q-8 -14 0.5 -27.5t24.5 -13.5z" />
    <glyph glyph-name="abreve" unicode="&#x103;" horiz-adv-x="1445" 
d="M827 1040q-250 0 -361.5 117t-98.5 307q2 23 18 38.5t39 15.5h199q55 0 61 -64q0 -154 150 -154q178 0 225 177q16 41 55 41h197q33 0 51 -19.5t12 -46.5q-43 -190 -181.5 -301t-365.5 -111zM418 -37q-178 0 -259 67.5t-81 209.5q0 303 467 303h332q49 0 49 22l2 15
q12 121 -232 120q-219 0 -356 -69q-59 -18 -78 35l-59 157q-10 23 -2 45.5t32 30.5q205 96 543 96q283 0 423 -104.5t99 -370.5l-75 -471q-6 -49 -58 -49h-194q-31 0 -50.5 21.5t-13.5 52.5l8 43q4 20 -8 20q-10 0 -26 -16q-170 -158 -463 -158zM567 219q96 0 211 40t119 91
l4 25q0 14 -20 14h-316q-129 0 -129 -88q0 -82 131 -82z" />
    <glyph glyph-name="Aogonek" unicode="&#x104;" horiz-adv-x="1722" 
d="M1470 -190q35 4 57.5 -12.5t22.5 -49.5l-2 -78q0 -55 -49 -65q-129 -20 -211 -21q-266 0 -266 174q0 170 227 260q-23 18 -30 66l-33 104q-4 16 -21 17h-688q-8 0 -18 -10l-80 -138q-18 -35 -46 -46t-83 -11h-172q-47 0 -67.5 37t3.5 78l750 1241q16 27 47 26h367
q45 0 55 -41l369 -1255q10 -39 -13 -63l21 -19q-305 -96 -305 -170q0 -35 61 -35q20 0 40.5 2t39 5.5t24.5 3.5zM1083 489q12 0 20.5 10.5t4.5 20.5l-131 461q-6 27 -12.5 40t-9.5 19.5t-11 -4t-12 -16.5t-17 -31l-272 -459q-8 -14 0 -27.5t25 -13.5h415z" />
    <glyph glyph-name="aogonek" unicode="&#x105;" horiz-adv-x="1445" 
d="M776 995q283 0 423 -104.5t99 -370.5l-75 -471q-2 -23 -21 -37l12 -12q-305 -96 -305 -170q0 -35 62 -35q20 0 40.5 2t39 5t24.5 3q35 4 57.5 -12t22.5 -49l-2 -78q0 -55 -49 -65q-129 -20 -211 -21q-266 0 -266 174q0 190 284 281q-6 18 -4 39l8 43q4 20 -8 20
q-10 0 -26 -16q-170 -158 -463 -158q-178 0 -259 67.5t-81 209.5q0 303 467 303h332q49 0 49 22l2 15q12 121 -232 120q-219 0 -356 -69q-59 -18 -78 35l-59 157q-10 23 -2 45.5t32 30.5q205 96 543 96zM897 350l4 25q0 14 -20 14h-316q-129 0 -129 -88q0 -82 131 -82
q96 0 211 40t119 91z" />
    <glyph glyph-name="Cacute" unicode="&#x106;" horiz-adv-x="1800" 
d="M1509 1829q14 -23 6 -48.5t-30 -39.5l-414 -244q-43 -23 -76 16l-39 56q-16 18 -13 41.5t24 38.5l372 317q23 20 52.5 16t44.5 -30zM1683 360q18 -16 20.5 -41.5t-15.5 -44.5q-301 -311 -805 -311q-414 0 -593 181.5t-126 523.5l12 71q106 680 903 680q514 0 703 -293
q14 -20 9 -42.5t-26 -36.5l-200 -146q-43 -31 -80 10q-76 96 -175.5 138.5t-246.5 42.5q-215 0 -359.5 -89.5t-175.5 -283.5l-10 -78q-31 -190 73.5 -270t309.5 -80q328 0 531 211q47 43 86 6z" />
    <glyph glyph-name="cacute" unicode="&#x107;" horiz-adv-x="1372" 
d="M1221 1405q14 -23 6 -48.5t-31 -39.5l-414 -244q-43 -23 -75 17l-39 55q-16 18 -13.5 41.5t23.5 38.5l373 317q23 20 52.5 16t43.5 -30zM1249 188q14 -20 9 -43.5t-25 -38.5q-217 -143 -612 -143q-283 0 -418 121t-99 381l11 59q76 471 700 471q334 0 510 -131
q27 -18 28 -48t-22 -50l-141 -133q-33 -29 -74 -4q-102 72 -305 71q-156 0 -244 -43t-106 -155l-6 -33q-16 -115 56.5 -162t203.5 -47q215 0 358 94q53 25 84 -20z" />
    <glyph glyph-name="Cdotaccent" unicode="&#x10a;" horiz-adv-x="1800" 
d="M1102 1516q-104 0 -155.5 60t-35.5 165q20 176 213 176q104 0 158.5 -56.5t40.5 -156.5q-12 -90 -70.5 -139t-150.5 -49zM1683 360q18 -16 20.5 -41.5t-15.5 -44.5q-301 -311 -805 -311q-414 0 -593 181.5t-126 523.5l12 71q106 680 903 680q514 0 703 -293
q14 -20 9 -42.5t-26 -36.5l-200 -146q-43 -31 -80 10q-76 96 -175.5 138.5t-246.5 42.5q-215 0 -359.5 -89.5t-175.5 -283.5l-10 -78q-31 -190 73.5 -270t309.5 -80q328 0 531 211q47 43 86 6z" />
    <glyph glyph-name="cdotaccent" unicode="&#x10b;" horiz-adv-x="1372" 
d="M823 1092q-104 0 -155.5 60t-34.5 165q20 176 213 176q104 0 158.5 -56.5t39.5 -156.5q-12 -90 -70.5 -139t-150.5 -49zM1249 188q14 -20 9 -43.5t-25 -38.5q-217 -143 -612 -143q-283 0 -418 121t-99 381l11 59q76 471 700 471q334 0 510 -131q27 -18 28 -48t-22 -50
l-141 -133q-33 -29 -74 -4q-102 72 -305 71q-156 0 -244 -43t-106 -155l-6 -33q-16 -115 56.5 -162t203.5 -47q215 0 358 94q53 25 84 -20z" />
    <glyph glyph-name="Ccaron" unicode="&#x10c;" horiz-adv-x="1800" 
d="M1217 1513q-29 -29 -47.5 -36t-53.5 -7h-76q-35 0 -52 9.5t-38 38.5l-256 325q-31 41 4 76l60 63q14 16 36.5 19.5t41.5 -10.5l198 -176q49 -41 66.5 -43.5t62.5 24.5l260 168q47 27 78 -14l41 -56q31 -41 -6 -77zM1683 360q18 -16 20.5 -41.5t-15.5 -44.5
q-301 -311 -805 -311q-414 0 -593 181.5t-126 523.5l12 71q106 680 903 680q514 0 703 -293q14 -20 9 -42.5t-26 -36.5l-200 -146q-43 -31 -80 10q-76 96 -175.5 138.5t-246.5 42.5q-215 0 -359.5 -89.5t-175.5 -283.5l-10 -78q-31 -190 73.5 -270t309.5 -80q328 0 531 211
q47 43 86 6z" />
    <glyph glyph-name="ccaron" unicode="&#x10d;" horiz-adv-x="1372" 
d="M938 1090q-29 -29 -47.5 -36t-52.5 -7h-76q-35 0 -52.5 9t-37.5 38l-256 325q-31 41 4 76l59 64q14 16 37 19t41 -11l199 -176q49 -41 66.5 -43t62.5 24l260 168q47 27 78 -14l41 -56q31 -41 -7 -77zM1249 188q14 -20 9 -43.5t-25 -38.5q-217 -143 -612 -143
q-283 0 -418 121t-99 381l11 59q76 471 700 471q334 0 510 -131q27 -18 28 -48t-22 -50l-141 -133q-33 -29 -74 -4q-102 72 -305 71q-156 0 -244 -43t-106 -155l-6 -33q-16 -115 56.5 -162t203.5 -47q215 0 358 94q53 25 84 -20z" />
    <glyph glyph-name="Dcaron" unicode="&#x10e;" horiz-adv-x="1906" 
d="M1217 1513q-29 -29 -47.5 -36t-53.5 -7h-76q-35 0 -52 9.5t-38 38.5l-256 325q-31 41 4 76l60 63q14 16 36.5 19.5t41.5 -10.5l198 -176q49 -41 66.5 -43.5t62.5 24.5l260 168q47 27 78 -14l41 -56q31 -41 -6 -77zM1165 1382q373 0 528.5 -171t114.5 -504l-8 -50
q-78 -657 -864 -657h-729q-33 0 -51.5 21.5t-14.5 54.5l199 1257q10 49 59 49h766zM1456 733q25 186 -55 254t-285 68h-446q-18 0 -23 -19l-104 -680q-2 -12 6 -20t18 -8h402q209 0 331.5 82t147.5 268z" />
    <glyph glyph-name="dcaron" unicode="&#x10f;" horiz-adv-x="1730" 
d="M1761 993q-33 0 -51 23.5t-10 56.5l98 420q8 47 55 47l170 -2q41 0 61.5 -31.5t2.5 -68.5l-178 -414q-14 -31 -47 -31h-101zM602 -37q-281 0 -406.5 130t-89.5 384l9 47q74 471 655 471q266 0 393 -106q14 -14 30.5 -10t18.5 26l86 580q2 23 19.5 37t40.5 14h225
q31 0 49.5 -21.5t14.5 -52.5l-217 -1411q-6 -51 -56 -51h-176q-25 0 -44 15.5t-19 37.5l4 39q2 23 -17.5 24t-40.5 -14q-192 -139 -479 -139zM705 260q248 0 391 113q41 25 49 67l12 97q2 29 -22 59q-66 104 -326 104q-315 0 -346 -198l-4 -33q-18 -113 51.5 -161t194.5 -48
z" />
    <glyph glyph-name="Dcroat" unicode="&#x110;" horiz-adv-x="1906" 
d="M1165 1382q373 0 528.5 -171t114.5 -504l-8 -50q-78 -657 -864 -657h-729q-33 0 -51.5 21.5t-14.5 54.5l74 463h-12q-29 0 -47.5 20.5t-16.5 50.5l17 129q8 51 59 52h39l86 542q10 49 59 49h766zM1456 733q25 186 -55 254t-285 68h-446q-18 0 -23 -19l-37 -245h551
q29 0 47.5 -21.5t14.5 -50.5l-15 -129q-2 -23 -19.5 -37t-39.5 -14h-578l-28 -183q-2 -12 6 -20t18 -8h402q209 0 331.5 82t147.5 268z" />
    <glyph glyph-name="dcroat" unicode="&#x111;" horiz-adv-x="1677" 
d="M1651 1323q29 0 47 -21.5t14 -50.5l-14 -129q-2 -23 -19.5 -37t-40.5 -14h-51l-157 -1020q-6 -51 -56 -51h-176q-25 0 -44 15.5t-19 37.5l4 39q2 23 -17.5 24t-40.5 -14q-193 -139 -479 -139q-281 0 -406.5 130t-89.5 384l9 47q74 471 655 471q266 0 393 -106
q14 -14 30.5 -10t18.5 26l25 166h-545q-29 0 -47 20.5t-16 51.5l16 129q8 51 60 51h569l24 162q2 23 19.5 37t40.5 14h225q31 0 49.5 -21.5t14.5 -52.5l-21 -139h25zM1157 537q2 29 -22 59q-66 104 -326 104q-315 0 -346 -198l-4 -33q-18 -113 51.5 -161t194.5 -48
q248 0 391 113q41 25 49 67z" />
    <glyph glyph-name="Emacron" unicode="&#x112;" horiz-adv-x="1716" 
d="M1593 1634q-4 -23 -20.5 -37t-36.5 -14h-901q-29 0 -47.5 20.5t-14.5 51.5l21 157q2 23 18.5 37.5t38.5 14.5h901q29 0 47.5 -21.5t14.5 -50.5zM1622 1382q31 0 50.5 -21.5t13.5 -51.5l-31 -195q-2 -23 -18.5 -37t-39.5 -14h-925q-18 0 -23 -19l-28 -178q-2 -12 6 -20
t18 -8h674q31 0 49 -21.5t14 -54.5l-24 -154q-4 -23 -20.5 -36t-39.5 -13h-704q-16 0 -21 -18l-30 -193q-4 -27 24 -26h899q31 0 50.5 -21.5t13.5 -52.5l-31 -199q-10 -49 -57 -49h-1235q-33 0 -51.5 21.5t-14.5 54.5l199 1257q10 49 59 49h1223z" />
    <glyph glyph-name="emacron" unicode="&#x113;" horiz-adv-x="1402" 
d="M1319 1210q-4 -23 -20.5 -37t-36.5 -14h-902q-29 0 -47 20.5t-14 51.5l20 158q2 23 18.5 37t39.5 14h901q29 0 47 -21.5t14 -50.5zM655 -37q-303 0 -448.5 120t-100.5 384l11 72q72 457 665 456q614 0 547 -481l-6 -45q-2 -25 -20.5 -40t-40.5 -15h-775q-25 0 -24 -19v-4
q-6 -74 58.5 -102.5t172.5 -28.5q231 0 357 64q47 23 77 -25l76 -131q33 -51 -39 -92q-170 -113 -510 -113zM522 547h424q25 0 25 20l2 15q6 61 -48.5 89.5t-150.5 28.5q-252 0 -266 -129l-2 -12q0 -12 16 -12z" />
    <glyph glyph-name="Edotaccent" unicode="&#x116;" horiz-adv-x="1716" 
d="M1079 1516q-104 0 -155.5 60t-34.5 165q20 176 213 176q104 0 158.5 -56.5t39.5 -156.5q-12 -90 -70.5 -139t-150.5 -49zM1622 1382q31 0 50.5 -21.5t13.5 -51.5l-31 -195q-2 -23 -18.5 -37t-39.5 -14h-925q-18 0 -23 -19l-28 -178q-2 -12 6 -20t18 -8h674q31 0 49 -21.5
t14 -54.5l-24 -154q-4 -23 -20.5 -36t-39.5 -13h-704q-16 0 -21 -18l-30 -193q-4 -27 24 -26h899q31 0 50.5 -21.5t13.5 -52.5l-31 -199q-10 -49 -57 -49h-1235q-33 0 -51.5 21.5t-14.5 54.5l199 1257q10 49 59 49h1223z" />
    <glyph glyph-name="edotaccent" unicode="&#x117;" horiz-adv-x="1402" 
d="M805 1092q-104 0 -155.5 60t-35.5 165q20 176 213 176q104 0 158.5 -56.5t40.5 -156.5q-12 -90 -70.5 -139t-150.5 -49zM655 -37q-303 0 -448.5 120t-100.5 384l11 72q72 457 665 456q614 0 547 -481l-6 -45q-2 -25 -20.5 -40t-40.5 -15h-775q-25 0 -24 -19v-4
q-6 -74 58.5 -102.5t172.5 -28.5q231 0 357 64q47 23 77 -25l76 -131q33 -51 -39 -92q-170 -113 -510 -113zM522 547h424q25 0 25 20l2 15q6 61 -48.5 89.5t-150.5 28.5q-252 0 -266 -129l-2 -12q0 -12 16 -12z" />
    <glyph glyph-name="Eogonek" unicode="&#x118;" horiz-adv-x="1716" 
d="M1622 1382q31 0 50.5 -21.5t13.5 -51.5l-31 -195q-2 -23 -18.5 -37t-39.5 -14h-925q-18 0 -23 -19l-28 -178q-2 -12 6 -20t18 -8h674q31 0 49 -21.5t14 -54.5l-24 -154q-4 -23 -20.5 -36t-39.5 -13h-704q-16 0 -21 -18l-30 -193q-4 -27 24 -26h899q31 0 50.5 -21.5
t13.5 -52.5l-31 -199q-6 -29 -24 -41l4 -4q-305 -96 -305 -170q0 -35 61 -35q20 0 40.5 2t39 5.5t24.5 3.5q35 4 57.5 -12.5t22.5 -49.5l-2 -78q0 -55 -49 -65q-129 -20 -211 -21q-266 0 -266 174q0 154 186 242h-870q-33 0 -51.5 21.5t-14.5 54.5l199 1257q10 49 59 49
h1223z" />
    <glyph glyph-name="eogonek" unicode="&#x119;" horiz-adv-x="1402" 
d="M782 995q614 0 547 -481l-6 -45q-2 -25 -20.5 -40t-40.5 -15h-775q-25 0 -24 -19v-4q-6 -74 58.5 -102.5t172.5 -28.5q231 0 357 64q47 23 77 -25l76 -131q33 -51 -39 -92q-84 -55 -221 -84q-242 -84 -242 -150q0 -35 62 -35q20 0 40.5 2.5t39 5.5t24.5 3
q35 4 57.5 -12.5t22.5 -49.5l-2 -78q0 -55 -49 -65q-129 -20 -211 -21q-266 0 -266 175q0 121 117 200q-506 47 -431 500l11 72q71 456 665 456zM973 582q6 61 -48.5 89.5t-150.5 28.5q-252 0 -266 -129l-2 -12q0 -12 16 -12h424q25 0 25 20z" />
    <glyph glyph-name="Ecaron" unicode="&#x11a;" horiz-adv-x="1716" 
d="M1194 1513q-29 -29 -47.5 -36t-52.5 -7h-76q-35 0 -52.5 9.5t-37.5 38.5l-256 325q-31 41 4 76l59 63q14 16 37 19.5t41 -10.5l199 -176q49 -41 66.5 -43.5t62.5 24.5l260 168q47 27 78 -14l41 -56q31 -41 -7 -77zM1622 1382q31 0 50.5 -21.5t13.5 -51.5l-31 -195
q-2 -23 -18.5 -37t-39.5 -14h-925q-18 0 -23 -19l-28 -178q-2 -12 6 -20t18 -8h674q31 0 49 -21.5t14 -54.5l-24 -154q-4 -23 -20.5 -36t-39.5 -13h-704q-16 0 -21 -18l-30 -193q-4 -27 24 -26h899q31 0 50.5 -21.5t13.5 -52.5l-31 -199q-10 -49 -57 -49h-1235
q-33 0 -51.5 21.5t-14.5 54.5l199 1257q10 49 59 49h1223z" />
    <glyph glyph-name="ecaron" unicode="&#x11b;" horiz-adv-x="1402" 
d="M920 1090q-29 -29 -47.5 -36t-53.5 -7h-76q-35 0 -52 9t-38 38l-256 325q-31 41 4 76l60 64q14 16 36.5 19t41.5 -11l198 -176q49 -41 66.5 -43t62.5 24l260 168q47 27 78 -14l41 -56q31 -41 -6 -77zM655 -37q-303 0 -448.5 120t-100.5 384l11 72q72 457 665 456
q614 0 547 -481l-6 -45q-2 -25 -20.5 -40t-40.5 -15h-775q-25 0 -24 -19v-4q-6 -74 58.5 -102.5t172.5 -28.5q231 0 357 64q47 23 77 -25l76 -131q33 -51 -39 -92q-170 -113 -510 -113zM522 547h424q25 0 25 20l2 15q6 61 -48.5 89.5t-150.5 28.5q-252 0 -266 -129l-2 -12
q0 -12 16 -12z" />
    <glyph glyph-name="Gbreve" unicode="&#x11e;" horiz-adv-x="1841" 
d="M1110 1464q-250 0 -361.5 117t-99.5 307q2 23 18.5 38.5t39.5 15.5h198q55 0 62 -64q0 -154 149 -154q178 0 225 177q16 41 56 41h196q33 0 51.5 -19.5t12.5 -46.5q-43 -190 -181.5 -301t-365.5 -111zM887 -37q-418 0 -598 181.5t-125 523.5l12 71q106 680 903 680
q229 0 390 -53t290 -174q47 -41 2 -90l-164 -170q-43 -43 -90 0q-152 160 -444 160q-215 0 -359.5 -89.5t-175.5 -283.5l-10 -78q-33 -195 80 -272.5t352 -77.5q211 0 383 55q18 6 21 27l14 98q4 27 -22 27h-492q-31 0 -50.5 21.5t-12.5 51.5l24 156q6 49 57 49h828
q31 0 49 -21.5t14 -54.5l-77 -518q-4 -31 -60 -57q-111 -72 -304 -117t-435 -45z" />
    <glyph glyph-name="gbreve" unicode="&#x11f;" horiz-adv-x="1488" 
d="M850 1040q-250 0 -361.5 117t-99.5 307q2 23 18.5 38.5t38.5 15.5h199q55 0 62 -64q0 -154 149 -154q178 0 225 177q16 41 56 41h196q33 0 51.5 -19.5t12.5 -46.5q-43 -190 -181.5 -301t-365.5 -111zM569 -434q-346 0 -499 119q-39 27 -13 71l78 150q12 25 38 31t52 -9
q125 -86 324 -86q158 0 254 49.5t104 141.5l4 30q0 8 -5 12.5t-19.5 2.5t-25.5 -4t-34 -8q-131 -53 -299 -54q-221 0 -346 109.5t-86 365.5l10 60q72 449 553 448q246 0 377 -104q35 -29 54 2l12 39q18 27 49 26h199q33 0 51 -20t12 -53l-123 -793q-23 -133 -71 -230.5
t-110 -153.5t-153.5 -89t-179.5 -43t-207 -10zM655 293q211 0 306 94q27 25 30 62l19 114q6 45 -17 66q-74 74 -231 73q-139 0 -216 -39.5t-93 -142.5l-7 -37q-16 -98 42 -144t167 -46z" />
    <glyph glyph-name="Gdotaccent" unicode="&#x120;" horiz-adv-x="1841" 
d="M1112 1516q-104 0 -155.5 60t-34.5 165q20 176 213 176q104 0 158.5 -56.5t39.5 -156.5q-12 -90 -70.5 -139t-150.5 -49zM887 -37q-418 0 -598 181.5t-125 523.5l12 71q106 680 903 680q229 0 390 -53t290 -174q47 -41 2 -90l-164 -170q-43 -43 -90 0q-152 160 -444 160
q-215 0 -359.5 -89.5t-175.5 -283.5l-10 -78q-33 -195 80 -272.5t352 -77.5q211 0 383 55q18 6 21 27l14 98q4 27 -22 27h-492q-31 0 -50.5 21.5t-12.5 51.5l24 156q6 49 57 49h828q31 0 49 -21.5t14 -54.5l-77 -518q-4 -31 -60 -57q-111 -72 -304 -117t-435 -45z" />
    <glyph glyph-name="gdotaccent" unicode="&#x121;" horiz-adv-x="1488" 
d="M852 1092q-104 0 -155.5 60t-34.5 165q20 176 212 176q104 0 158.5 -56.5t40.5 -156.5q-12 -90 -70.5 -139t-150.5 -49zM569 -434q-346 0 -499 119q-39 27 -13 71l78 150q12 25 38 31t52 -9q125 -86 324 -86q158 0 254 49.5t104 141.5l4 30q0 8 -5 12.5t-19.5 2.5
t-25.5 -4t-34 -8q-131 -53 -299 -54q-221 0 -346 109.5t-86 365.5l10 60q72 449 553 448q246 0 377 -104q35 -29 54 2l12 39q18 27 49 26h199q33 0 51 -20t12 -53l-123 -793q-23 -133 -71 -230.5t-110 -153.5t-153.5 -89t-179.5 -43t-207 -10zM655 293q211 0 306 94
q27 25 30 62l19 114q6 45 -17 66q-74 74 -231 73q-139 0 -216 -39.5t-93 -142.5l-7 -37q-16 -98 42 -144t167 -46z" />
    <glyph glyph-name="uni0122" unicode="&#x122;" horiz-adv-x="1841" 
d="M887 -37q-418 0 -598 181.5t-125 523.5l12 71q106 680 903 680q229 0 390 -53t290 -174q47 -41 2 -90l-164 -170q-43 -43 -90 0q-152 160 -444 160q-215 0 -359.5 -89.5t-175.5 -283.5l-10 -78q-33 -195 80 -272.5t352 -77.5q211 0 383 55q18 6 21 27l14 98q4 27 -22 27
h-492q-31 0 -50.5 21.5t-12.5 51.5l24 156q6 49 57 49h828q31 0 49 -21.5t14 -54.5l-77 -518q-4 -31 -60 -57q-111 -72 -304 -117t-435 -45zM641 -594q-29 2 -45 24.5t-12 51.5l10 51q10 53 70 47q125 -16 198 27q72 33 84 55q12 10 2 14q-6 2 -16 -8q-43 -29 -113 -28
q-92 0 -132 37.5t-30 103.5q18 127 240 127q147 0 225 -72t62 -198q-23 -137 -168.5 -194.5t-374.5 -37.5z" />
    <glyph glyph-name="uni0123" unicode="&#x123;" horiz-adv-x="1488" 
d="M1133 1565q29 -2 45 -24.5t12 -51.5l-10 -51q-10 -53 -70 -47q-125 16 -199 -27q-72 -33 -84 -55q-12 -10 -2 -15q6 -2 17 9q43 29 112 28q92 0 132 -38t30 -103q-18 -127 -239 -127q-147 0 -225.5 71.5t-61.5 198.5q23 137 168.5 194.5t374.5 37.5zM569 -434
q-346 0 -499 119q-39 27 -13 71l78 150q12 25 38 31t52 -9q125 -86 324 -86q158 0 254 49.5t104 141.5l4 30q0 8 -5 12.5t-19.5 2.5t-25.5 -4t-34 -8q-131 -53 -299 -54q-221 0 -346 109.5t-86 365.5l10 60q72 449 553 448q246 0 377 -104q35 -29 54 2l12 39q18 27 49 26
h199q33 0 51 -20t12 -53l-123 -793q-23 -133 -71 -230.5t-110 -153.5t-153.5 -89t-179.5 -43t-207 -10zM655 293q211 0 306 94q27 25 30 62l19 114q6 45 -17 66q-74 74 -231 73q-139 0 -216 -39.5t-93 -142.5l-7 -37q-16 -98 42 -144t167 -46z" />
    <glyph glyph-name="Hbar" unicode="&#x126;" horiz-adv-x="1898" 
d="M1909 1268q31 0 49 -21.5t14 -50.5l-20 -158q-2 -20 -19.5 -35.5t-40.5 -15.5h-120l-148 -936q-6 -51 -59 -51h-230q-33 0 -51 21.5t-12 54.5l69 446q4 27 -24 27h-723q-23 0 -23 -19l-75 -479q-10 -51 -60 -51h-231q-31 0 -49.5 22.5t-14.5 55.5l144 909h-92
q-31 0 -49.5 20.5t-14.5 51.5l23 158q2 20 18 35.5t39 15.5h121l10 63q10 51 59 51h230q33 0 51 -22.5t12 -54.5l-6 -37h772l10 63q10 51 60 51h231q31 0 49.5 -21.5t14.5 -53.5l-6 -39h92zM1399 889l16 98h-772l-14 -90q-4 -29 24 -29h723q19 1 23 21z" />
    <glyph glyph-name="hbar" unicode="&#x127;" horiz-adv-x="1574" 
d="M1010 995q94 0 168.5 -20.5t138 -68.5t89.5 -138t5 -217l-80 -500q-6 -51 -57 -51h-227q-31 0 -49.5 21.5t-14.5 54.5l64 407q18 119 -30 160t-149 41q-143 0 -266 -76q-57 -33 -63 -78l-76 -479q-6 -51 -57 -51h-226q-33 0 -51 20.5t-14 53.5l161 1022h-63
q-29 0 -47.5 20.5t-15.5 50.5l16 129q8 51 59 52h90l23 139q10 49 59 49h199q31 0 49.5 -21.5t13.5 -54.5l-18 -112h530q29 0 47.5 -21.5t14.5 -50.5l-14 -129q-2 -23 -19.5 -37t-40.5 -14h-559l-25 -160q-4 -20 8.5 -33.5t30.5 -1.5q165 94 396 94z" />
    <glyph glyph-name="Imacron" unicode="&#x12a;" horiz-adv-x="768" 
d="M1073 1634q-4 -23 -20.5 -37t-36.5 -14h-901q-29 0 -47.5 20.5t-14.5 51.5l21 157q2 23 18.5 37.5t38.5 14.5h901q29 0 47.5 -21.5t14.5 -50.5zM205 0q-31 0 -49.5 22.5t-14.5 55.5l199 1253q10 51 59 51h232q31 0 49 -21.5t12 -53.5l-196 -1256q-10 -51 -60 -51h-231z
" />
    <glyph glyph-name="imacron" unicode="&#x12b;" horiz-adv-x="745" 
d="M995 1210q-4 -23 -20.5 -37t-36.5 -14h-901q-29 0 -47.5 20.5t-14.5 51.5l21 158q2 23 18.5 37t38.5 14h901q29 0 47.5 -21.5t14.5 -50.5zM197 0q-31 0 -49.5 20.5t-14.5 53.5l131 835q6 49 60 49h225q31 0 50 -21.5t13 -51.5l-131 -836q-6 -49 -57 -49h-227z" />
    <glyph glyph-name="Iogonek" unicode="&#x12e;" horiz-adv-x="768" 
d="M631 1382q31 0 49 -21.5t12 -53.5l-196 -1256q-6 -31 -31 -43l4 -4q-305 -96 -305 -170q0 -35 61 -35q20 0 41 2t39.5 5.5t24.5 3.5q35 4 57.5 -12.5t22.5 -49.5l-2 -78q0 -55 -50 -65q-129 -20 -211 -21q-266 0 -266 174q0 186 266 275q-10 18 -6 45l199 1253
q10 51 59 51h232z" />
    <glyph glyph-name="iogonek" unicode="&#x12f;" horiz-adv-x="745" 
d="M504 1493q104 0 158.5 -56.5t39.5 -156.5q-12 -90 -70.5 -139t-150.5 -49q-104 0 -155.5 60t-34.5 165q20 176 213 176zM549 958q31 0 50 -21.5t13 -51.5l-131 -836q-2 -23 -20 -37l12 -12q-305 -96 -305 -170q0 -35 61 -35q20 0 41 2t39.5 5t24.5 3q35 4 57.5 -12
t22.5 -49l-2 -78q0 -55 -50 -65q-129 -20 -210 -21q-266 0 -267 174q0 182 258 271q-12 23 -10 49l131 835q6 49 60 49h225z" />
    <glyph glyph-name="Idotaccent" unicode="&#x130;" horiz-adv-x="768" 
d="M559 1516q-104 0 -155.5 60t-34.5 165q20 176 213 176q104 0 158.5 -56.5t39.5 -156.5q-12 -90 -70.5 -139t-150.5 -49zM205 0q-31 0 -49.5 22.5t-14.5 55.5l199 1253q10 51 59 51h232q31 0 49 -21.5t12 -53.5l-196 -1256q-10 -51 -60 -51h-231z" />
    <glyph glyph-name="dotlessi" unicode="&#x131;" horiz-adv-x="745" 
d="M197 0q-31 0 -49.5 20.5t-14.5 53.5l131 835q6 49 60 49h225q31 0 50 -21.5t13 -51.5l-131 -836q-6 -49 -57 -49h-227z" />
    <glyph glyph-name="uni0136" unicode="&#x136;" horiz-adv-x="1804" 
d="M1626 1380q72 0 92.5 -61.5t-37.5 -104.5l-495 -370q-12 -10 -6 -29l405 -702q23 -41 3.5 -77t-66.5 -36h-281q-37 0 -49 29l-309 551q-10 27 -35 6l-297 -219q-8 -4 -8 -13l-47 -303q-10 -51 -60 -51h-231q-31 0 -49.5 22.5t-14.5 53.5l199 1257q10 49 59 49h230
q31 0 50 -22.5t13 -52.5l-65 -428q-4 -25 14 -36.5t37 5.5l668 500q39 33 100 32h180zM561 -594q-29 2 -45 24.5t-12 51.5l10 51q10 53 70 47q125 -16 198 27q72 33 84 55q12 10 2 14q-6 2 -16 -8q-43 -29 -113 -28q-92 0 -132 37.5t-29 103.5q18 127 239 127q147 0 225 -72
t62 -198q-23 -137 -168.5 -194.5t-374.5 -37.5z" />
    <glyph glyph-name="uni0137" unicode="&#x137;" horiz-adv-x="1456" 
d="M178 0q-31 0 -49 20.5t-14 53.5l225 1413q6 49 57 49h228q31 0 49 -20.5t14 -53.5l-119 -745q-2 -25 15.5 -35t38.5 6l327 230q35 25 60.5 32.5t83.5 7.5h114q72 0 92.5 -59t-34.5 -104l-242 -179q-18 -12 -8 -28l258 -479q20 -39 0.5 -74t-64.5 -35h-274q-33 0 -49 33
l-158 317q-16 27 -37 6l-176 -125q-29 -20 -33 -53l-18 -127q-10 -51 -59 -51h-228zM332 -594q-29 2 -45.5 24.5t-12.5 51.5l11 51q10 53 69 47q125 -16 199 27q72 33 84 55q12 10 2 14q-6 2 -16 -8q-43 -29 -113 -28q-92 0 -132 37.5t-30 103.5q18 127 240 127
q147 0 225 -72t61 -198q-23 -137 -168 -194.5t-374 -37.5z" />
    <glyph glyph-name="Lacute" unicode="&#x139;" horiz-adv-x="1492" 
d="M958 1829q14 -23 6 -48.5t-30 -39.5l-414 -244q-43 -23 -76 16l-38 56q-16 18 -13.5 41.5t23.5 38.5l372 317q23 20 52.5 16t44.5 -30zM1323 328q33 0 51.5 -21.5t14.5 -54.5l-31 -203q-10 -49 -62 -49h-1089q-33 0 -51.5 22.5t-14.5 55.5l199 1253q10 51 59 51h230
q31 0 50 -21.5t13 -53.5l-147 -951q-2 -12 6 -20t18 -8h754z" />
    <glyph glyph-name="lacute" unicode="&#x13a;" horiz-adv-x="710" 
d="M973 1982q14 -23 6 -48t-31 -40l-413 -243q-43 -23 -76 16l-39 55q-16 18 -13 42t23 38l373 318q23 20 52.5 16t43.5 -31zM178 0q-31 0 -49 21.5t-14 54.5l223 1409q6 51 59 51h226q33 0 51 -20.5t12 -53.5l-221 -1411q-10 -51 -59 -51h-228z" />
    <glyph glyph-name="uni013B" unicode="&#x13b;" horiz-adv-x="1492" 
d="M1323 328q33 0 51.5 -21.5t14.5 -54.5l-31 -203q-10 -49 -62 -49h-1089q-33 0 -51.5 22.5t-14.5 55.5l199 1253q10 51 59 51h230q31 0 50 -21.5t13 -53.5l-147 -951q-2 -12 6 -20t18 -8h754zM424 -594q-29 2 -45.5 24.5t-11.5 51.5l10 51q10 53 69 47q125 -16 199 27
q72 33 84 55q12 10 2 14q-6 2 -16 -8q-43 -29 -113 -28q-92 0 -132 37.5t-30 103.5q18 127 240 127q147 0 225 -72t62 -198q-23 -137 -168.5 -194.5t-374.5 -37.5z" />
    <glyph glyph-name="uni013C" unicode="&#x13c;" horiz-adv-x="710" 
d="M178 0q-31 0 -49 21.5t-14 54.5l223 1409q6 51 59 51h226q33 0 51 -20.5t12 -53.5l-221 -1411q-10 -51 -59 -51h-228zM-41 -594q-29 2 -45 24.5t-12 51.5l10 51q10 53 70 47q125 -16 198 27q72 33 84 55q12 10 2 14q-6 2 -16 -8q-43 -29 -113 -28q-92 0 -132 37.5
t-30 103.5q18 127 240 127q147 0 225 -72t62 -198q-23 -137 -168.5 -194.5t-374.5 -37.5z" />
    <glyph glyph-name="Lcaron" unicode="&#x13d;" horiz-adv-x="1492" 
d="M1292 1382q41 0 61.5 -29.5t4.5 -68.5l-197 -512q-12 -33 -51 -33h-106q-33 0 -52.5 23.5t-11.5 56.5l102 520q10 45 60 45zM1323 328q33 0 51.5 -21.5t14.5 -54.5l-31 -203q-10 -49 -62 -49h-1089q-33 0 -51.5 22.5t-14.5 55.5l199 1253q10 51 59 51h230q31 0 50 -21.5
t13 -53.5l-147 -951q-2 -12 6 -20t18 -8h754z" />
    <glyph glyph-name="lcaron" unicode="&#x13e;" horiz-adv-x="798" 
d="M770 993q-33 0 -51.5 23.5t-9.5 56.5l98 420q8 47 55 47l170 -2q41 0 61.5 -31.5t2.5 -68.5l-178 -414q-14 -31 -48 -31h-100zM178 0q-31 0 -49 21.5t-14 54.5l223 1409q6 51 59 51h226q33 0 51 -20.5t12 -53.5l-221 -1411q-10 -51 -59 -51h-228z" />
    <glyph glyph-name="Lslash" unicode="&#x141;" horiz-adv-x="1492" 
d="M1323 328q33 0 51.5 -21.5t14.5 -54.5l-31 -203q-10 -49 -62 -49h-1089q-33 0 -51.5 22.5t-14.5 55.5l68 434q2 16 -8.5 25.5t-26.5 3.5l-72 -25q-27 -10 -49 1t-30 38l-43 141q-16 51 38 74l236 86q10 4 14 14l72 461q10 51 59 51h230q31 0 50 -21.5t13 -53.5l-41 -265
q-2 -16 9.5 -26t27.5 -4l223 80q25 10 47.5 -2.5t30.5 -38.5l43 -142q16 -51 -37 -73l-385 -140q-12 -4 -14 -14l-51 -326q-2 -12 6 -20t18 -8h754z" />
    <glyph glyph-name="lslash" unicode="&#x142;" horiz-adv-x="819" 
d="M995 979q8 -20 -1 -43t-31 -33l-322 -145q-8 -4 -12 -15l-109 -692q-6 -51 -57 -51h-227q-33 0 -50.5 21.5t-13.5 54.5l74 461q4 18 -9.5 28t-29.5 2l-109 -51q-25 -12 -49 -2t-33 37l-53 137q-16 51 35 76l295 135q10 6 10 16l90 570q10 51 60 51h227q31 0 49.5 -20.5
t13.5 -53.5l-53 -340q-4 -20 9.5 -29.5t31.5 -0.5l131 61q25 12 48.5 2t33.5 -37z" />
    <glyph glyph-name="Nacute" unicode="&#x143;" horiz-adv-x="1873" 
d="M1520 1829q14 -23 6 -48.5t-31 -39.5l-414 -244q-43 -23 -75 16l-39 56q-16 18 -13.5 41.5t23.5 38.5l373 317q23 20 52.5 16t43.5 -30zM1735 1382q31 0 49 -22.5t14 -54.5l-194 -1233q-10 -72 -82 -72l-222 -2q-63 0 -100 55l-534 760q-10 14 -22.5 20.5t-24 -2
t-15.5 -32.5l-117 -748q-10 -51 -59 -51h-223q-31 0 -49.5 22.5t-14.5 53.5l199 1255q10 51 59 51h275q29 0 45 -22l557 -791q49 -63 61 15l115 747q10 51 59 51h224z" />
    <glyph glyph-name="nacute" unicode="&#x144;" horiz-adv-x="1591" 
d="M1300 1405q14 -23 6 -48.5t-30 -39.5l-414 -244q-43 -23 -76 17l-38 55q-16 18 -13.5 41.5t23.5 38.5l372 317q23 20 52.5 16t44.5 -30zM197 0q-31 0 -49.5 20.5t-14.5 53.5l131 835q6 49 60 49h196q41 0 58 -32l2 -31q6 -27 34 -10q156 111 414 110q94 0 169 -20.5
t137.5 -68.5t88 -138t4.5 -217l-77 -502q-10 -49 -60 -49h-227q-31 0 -49.5 20.5t-14.5 53.5l66 409q18 119 -30 160t-148 41q-119 0 -258 -72q-37 -16 -52.5 -32.5t-19.5 -44.5l-76 -486q-10 -49 -57 -49h-227z" />
    <glyph glyph-name="uni0145" unicode="&#x145;" horiz-adv-x="1873" 
d="M1735 1382q31 0 49 -22.5t14 -54.5l-194 -1233q-10 -72 -82 -72l-222 -2q-63 0 -100 55l-534 760q-10 14 -22.5 20.5t-24 -2t-15.5 -32.5l-117 -748q-10 -51 -59 -51h-223q-31 0 -49.5 22.5t-14.5 53.5l199 1255q10 51 59 51h275q29 0 45 -22l557 -791q49 -63 61 15
l115 747q10 51 59 51h224zM551 -594q-29 2 -45.5 24.5t-11.5 51.5l10 51q10 53 69 47q125 -16 199 27q72 33 84 55q12 10 2 14q-6 2 -16 -8q-43 -29 -113 -28q-92 0 -132 37.5t-30 103.5q18 127 240 127q147 0 225 -72t62 -198q-23 -137 -168.5 -194.5t-374.5 -37.5z" />
    <glyph glyph-name="uni0146" unicode="&#x146;" horiz-adv-x="1591" 
d="M197 0q-31 0 -49.5 20.5t-14.5 53.5l131 835q6 49 60 49h196q41 0 58 -32l2 -31q6 -27 34 -10q156 111 414 110q94 0 169 -20.5t137.5 -68.5t88 -138t4.5 -217l-77 -502q-10 -49 -60 -49h-227q-31 0 -49.5 20.5t-14.5 53.5l66 409q18 119 -30 160t-148 41
q-119 0 -258 -72q-37 -16 -52.5 -32.5t-19.5 -44.5l-76 -486q-10 -49 -57 -49h-227zM399 -594q-29 2 -45 24.5t-12 51.5l10 51q10 53 70 47q125 -16 199 27q72 33 84 55q12 10 2 14q-6 2 -17 -8q-43 -29 -112 -28q-92 0 -132 37.5t-30 103.5q18 127 239 127q147 0 225 -72
t62 -198q-23 -137 -168.5 -194.5t-374.5 -37.5z" />
    <glyph glyph-name="Ncaron" unicode="&#x147;" horiz-adv-x="1873" 
d="M1227 1513q-29 -29 -47.5 -36t-53.5 -7h-75q-35 0 -52.5 9.5t-37.5 38.5l-256 325q-31 41 4 76l59 63q14 16 36.5 19.5t41.5 -10.5l198 -176q49 -41 66.5 -43.5t63.5 24.5l260 168q47 27 77 -14l41 -56q31 -41 -6 -77zM1735 1382q31 0 49 -22.5t14 -54.5l-194 -1233
q-10 -72 -82 -72l-222 -2q-63 0 -100 55l-534 760q-10 14 -22.5 20.5t-24 -2t-15.5 -32.5l-117 -748q-10 -51 -59 -51h-223q-31 0 -49.5 22.5t-14.5 53.5l199 1255q10 51 59 51h275q29 0 45 -22l557 -791q49 -63 61 15l115 747q10 51 59 51h224z" />
    <glyph glyph-name="ncaron" unicode="&#x148;" horiz-adv-x="1591" 
d="M1018 1090q-29 -29 -47.5 -36t-52.5 -7h-76q-35 0 -52.5 9t-37.5 38l-256 325q-31 41 4 76l59 64q14 16 36.5 19t41.5 -11l199 -176q49 -41 66.5 -43t62.5 24l260 168q47 27 78 -14l40 -56q31 -41 -6 -77zM197 0q-31 0 -49.5 20.5t-14.5 53.5l131 835q6 49 60 49h196
q41 0 58 -32l2 -31q6 -27 34 -10q156 111 414 110q94 0 169 -20.5t137.5 -68.5t88 -138t4.5 -217l-77 -502q-10 -49 -60 -49h-227q-31 0 -49.5 20.5t-14.5 53.5l66 409q18 119 -30 160t-148 41q-119 0 -258 -72q-37 -16 -52.5 -32.5t-19.5 -44.5l-76 -486q-10 -49 -57 -49
h-227z" />
    <glyph glyph-name="Eng" unicode="&#x14a;" horiz-adv-x="1873" 
d="M1735 1382q31 0 49 -20.5t14 -52.5l-172 -1098q-49 -330 -202.5 -489.5t-430.5 -159.5q-250 0 -440 131q-47 31 -18 82l110 176q35 57 96 14q94 -82 226 -82q164 0 215 103q31 45 -25 123l-491 706q-47 70 -62 -14l-117 -752q-10 -49 -59 -49h-221q-33 0 -51.5 21.5
t-14.5 54.5l199 1257q10 49 59 49h275q29 0 43 -22l559 -791q49 -74 61 19l117 745q10 49 57 49h224z" />
    <glyph glyph-name="eng" unicode="&#x14b;" horiz-adv-x="1591" 
d="M1028 995q94 0 169 -20.5t136.5 -67.5t87 -138t6.5 -218l-67 -451q-51 -301 -217 -419.5t-447 -124.5q-27 -2 -44 15t-17 46l-2 172q0 25 16.5 41t42.5 20q272 16 316 271l57 362q18 119 -30 160t-148 41q-154 0 -271 -70q-49 -25 -59 -84l-76 -481q-10 -49 -57 -49h-227
q-31 0 -49.5 20.5t-14.5 53.5l131 835q6 49 60 49h196q43 0 53 -26l5 -33q6 -33 45 -6q145 102 405 102z" />
    <glyph glyph-name="Omacron" unicode="&#x14c;" horiz-adv-x="1957" 
d="M1667 1634q-4 -23 -20.5 -37t-36.5 -14h-901q-29 0 -47.5 20.5t-14.5 51.5l21 157q2 23 18 37.5t39 14.5h901q29 0 47.5 -21.5t14.5 -50.5zM911 -37q-426 0 -614 181.5t-133 523.5l12 71q106 680 932 680q428 0 617.5 -181t136.5 -523l-13 -70q-104 -682 -938 -682z
M930 291q143 0 259 34.5t201 120.5t107 220l10 75q31 193 -83.5 272t-331.5 79q-223 0 -378 -90.5t-186 -282.5l-10 -78q-31 -193 83 -271.5t329 -78.5z" />
    <glyph glyph-name="omacron" unicode="&#x14d;" horiz-adv-x="1515" 
d="M1378 1210q-4 -23 -20.5 -37t-36.5 -14h-901q-29 0 -47.5 20.5t-14.5 51.5l21 158q2 23 18.5 37t38.5 14h901q29 0 47.5 -21.5t14.5 -50.5zM682 -37q-315 0 -468 116t-110 380l11 65q74 471 706 471q150 0 262.5 -25.5t195.5 -82t118 -153.5t12 -232l-8 -66
q-76 -473 -719 -473zM705 260q309 0 348 207l6 35q10 59 -6.5 100t-55.5 61.5t-84 28.5t-104 8q-309 0 -348 -206l-6 -35q-16 -115 53.5 -157t196.5 -42z" />
    <glyph glyph-name="Ohungarumlaut" unicode="&#x150;" horiz-adv-x="1957" 
d="M1151 1919q55 0 67.5 -50t-30.5 -97l-187 -201q-39 -39 -94 -39h-59q-37 0 -47 30.5t2 47.5l137 250q20 37 37.5 48t54.5 11h119zM1710 1919q47 0 59.5 -44t-18.5 -67l-326 -254q-33 -23 -90 -22h-55q-45 0 -50 35t23 61l244 250q27 27 43 34t51 7h119zM911 -37
q-426 0 -614 181.5t-133 523.5l12 71q106 680 932 680q428 0 617.5 -181t136.5 -523l-13 -70q-104 -682 -938 -682zM930 291q143 0 259 34.5t201 120.5t107 220l10 75q31 193 -83.5 272t-331.5 79q-223 0 -378 -90.5t-186 -282.5l-10 -78q-31 -193 83 -271.5t329 -78.5z" />
    <glyph glyph-name="ohungarumlaut" unicode="&#x151;" horiz-adv-x="1515" 
d="M856 1495q55 0 67.5 -51t-30.5 -96l-186 -201q-39 -39 -95 -39h-59q-37 0 -47 30.5t2 47.5l137 250q20 37 37.5 48t54.5 11h119zM1415 1495q47 0 59.5 -45t-18.5 -66l-326 -254q-33 -23 -90 -22h-55q-45 0 -50 35t23 61l244 250q27 27 43.5 34t50.5 7h119zM682 -37
q-315 0 -468 116t-110 380l11 65q74 471 706 471q150 0 262.5 -25.5t195.5 -82t118 -153.5t12 -232l-8 -66q-76 -473 -719 -473zM705 260q309 0 348 207l6 35q10 59 -6.5 100t-55.5 61.5t-84 28.5t-104 8q-309 0 -348 -206l-6 -35q-16 -115 53.5 -157t196.5 -42z" />
    <glyph glyph-name="OE" unicode="&#x152;" horiz-adv-x="2934" 
d="M870 -37q-397 0 -578 183.5t-128 523.5l12 69q106 680 932 680q274 0 408 -110q25 -23 49 -32t39 9l14 55q2 2 6 8.5t7 9.5t11.5 8t16.5 8t21.5 5t29.5 2h1131q31 0 50 -21.5t13 -51.5l-31 -195q-2 -23 -18 -37t-39 -14h-877q-27 0 -30 -31l-27 -166q-4 -29 25 -28h630
q31 0 49.5 -21.5t14.5 -54.5l-25 -154q-2 -20 -18 -34.5t-39 -14.5h-666q-18 0 -22 -18l-29 -189q-4 -31 27 -30h856q31 0 50.5 -21.5t12.5 -52.5l-30 -199q-10 -49 -58 -49h-1151q-61 0 -73 29l2 63q-6 20 -43 -10q-148 -119 -525 -119zM930 291q250 0 390 81t173 277
l18 127q8 47 -6 97.5t-55 101.5t-134 84t-224 33q-223 0 -378 -90.5t-186 -284.5l-10 -74q-31 -193 83 -272.5t329 -79.5z" />
    <glyph glyph-name="oe" unicode="&#x153;" horiz-adv-x="2351" 
d="M643 -37q-295 0 -438.5 116t-100.5 380l11 65q74 471 710 471q291 0 408 -127q33 -23 61 -2q147 129 439 129q610 0 542 -481l-6 -45q-4 -23 -21.5 -39t-41.5 -16h-762q-14 0 -23 -13q-4 -6 0 -20q6 -70 64.5 -95.5t161.5 -25.5q227 0 352 66q49 20 74 -27l79 -147
q14 -27 5 -52.5t-35 -36.5q-207 -100 -537 -100q-289 0 -393 123q-29 27 -62 6q-147 -129 -487 -129zM705 260q92 0 157.5 16.5t116.5 63.5t65 127l7 35q18 115 -48.5 156.5t-189.5 41.5q-313 0 -352 -206l-6 -35q-16 -115 53.5 -157t196.5 -42zM1499 547h391q31 0 31 22
q0 14 -12 25q-10 106 -197 106q-182 0 -231 -104q-16 -10 -13 -31q11 -18 31 -18z" />
    <glyph glyph-name="Racute" unicode="&#x154;" horiz-adv-x="1720" 
d="M1442 1829q14 -23 6 -48.5t-31 -39.5l-413 -244q-43 -23 -76 16l-39 56q-16 18 -13 41.5t23 38.5l373 317q23 20 52.5 16t43.5 -30zM207 0q-33 0 -51.5 22.5t-14.5 55.5l199 1253q10 51 59 51h826q238 0 358.5 -89t120.5 -302q0 -408 -358 -514q-33 -10 -15 -37l201 -319
q27 -43 6.5 -82t-70.5 -39h-239q-33 0 -47 27l-240 391q-6 12 -18 12h-101h-262q-18 0 -22 -20l-56 -359q-6 -51 -57 -51h-219zM616 733h453q133 0 207 54.5t74 152.5q0 76 -46.5 99.5t-142.5 23.5h-502q-18 0 -22 -19l-45 -282q-2 -12 6 -20.5t18 -8.5z" />
    <glyph glyph-name="racute" unicode="&#x155;" horiz-adv-x="1169" 
d="M1090 1405q14 -23 5.5 -48.5t-30.5 -39.5l-414 -244q-43 -23 -76 17l-38 55q-16 18 -13.5 41.5t23.5 38.5l373 317q23 20 52 16t44 -30zM1165 934q23 -12 28 -37t-11 -47l-105 -162q-29 -41 -78 -18q-66 35 -151 35q-164 0 -266 -140q-20 -20 -29 -63l-72 -453
q-6 -49 -57 -49h-227q-31 0 -49.5 20.5t-14.5 53.5l131 835q6 49 60 49h172q31 0 43 -10t24 -41l2 -26q8 -39 39 -9q121 123 324 123q137 0 237 -61z" />
    <glyph glyph-name="uni0156" unicode="&#x156;" horiz-adv-x="1720" 
d="M207 0q-33 0 -51.5 22.5t-14.5 55.5l199 1253q10 51 59 51h826q238 0 358.5 -89t120.5 -302q0 -408 -358 -514q-33 -10 -15 -37l201 -319q27 -43 6.5 -82t-70.5 -39h-239q-33 0 -47 27l-240 391q-6 12 -18 12h-101h-262q-18 0 -22 -20l-56 -359q-6 -51 -57 -51h-219z
M616 733h453q133 0 207 54.5t74 152.5q0 76 -46.5 99.5t-142.5 23.5h-502q-18 0 -22 -19l-45 -282q-2 -12 6 -20.5t18 -8.5zM473 -594q-29 2 -45 24.5t-12 51.5l10 51q10 53 70 47q125 -16 198 27q72 33 84 55q12 10 2 14q-6 2 -16 -8q-43 -29 -113 -28q-92 0 -132 37.5
t-30 103.5q18 127 240 127q147 0 225 -72t62 -198q-23 -137 -168.5 -194.5t-374.5 -37.5z" />
    <glyph glyph-name="uni0157" unicode="&#x157;" horiz-adv-x="1169" 
d="M1165 934q23 -12 28 -37t-11 -47l-105 -162q-29 -41 -78 -18q-66 35 -151 35q-164 0 -266 -140q-20 -20 -29 -63l-72 -453q-6 -49 -57 -49h-227q-31 0 -49.5 20.5t-14.5 53.5l131 835q6 49 60 49h172q31 0 43 -10t24 -41l2 -26q8 -39 39 -9q121 123 324 123
q137 0 237 -61zM6 -594q-29 2 -45 24.5t-12 51.5l10 51q10 53 70 47q125 -16 198 27q72 33 84 55q12 10 2 14q-6 2 -16 -8q-43 -29 -113 -28q-92 0 -132 37.5t-29 103.5q18 127 239 127q147 0 225 -72t62 -198q-23 -137 -168.5 -194.5t-374.5 -37.5z" />
    <glyph glyph-name="Rcaron" unicode="&#x158;" horiz-adv-x="1720" 
d="M1149 1513q-29 -29 -47.5 -36t-52.5 -7h-76q-35 0 -52.5 9.5t-37.5 38.5l-256 325q-31 41 4 76l59 63q14 16 37 19.5t41 -10.5l199 -176q49 -41 66.5 -43.5t62.5 24.5l260 168q47 27 78 -14l41 -56q31 -41 -7 -77zM207 0q-33 0 -51.5 22.5t-14.5 55.5l199 1253
q10 51 59 51h826q238 0 358.5 -89t120.5 -302q0 -408 -358 -514q-33 -10 -15 -37l201 -319q27 -43 6.5 -82t-70.5 -39h-239q-33 0 -47 27l-240 391q-6 12 -18 12h-101h-262q-18 0 -22 -20l-56 -359q-6 -51 -57 -51h-219zM616 733h453q133 0 207 54.5t74 152.5
q0 76 -46.5 99.5t-142.5 23.5h-502q-18 0 -22 -19l-45 -282q-2 -12 6 -20.5t18 -8.5z" />
    <glyph glyph-name="rcaron" unicode="&#x159;" horiz-adv-x="1169" 
d="M807 1090q-29 -29 -47.5 -36t-52.5 -7h-76q-35 0 -52.5 9t-37.5 38l-256 325q-31 41 4 76l59 64q14 16 37 19t41 -11l199 -176q49 -41 66.5 -43t62.5 24l260 168q47 27 78 -14l41 -56q31 -41 -7 -77zM1165 934q23 -12 28 -37t-11 -47l-105 -162q-29 -41 -78 -18
q-66 35 -151 35q-164 0 -266 -140q-20 -20 -29 -63l-72 -453q-6 -49 -57 -49h-227q-31 0 -49.5 20.5t-14.5 53.5l131 835q6 49 60 49h172q31 0 43 -10t24 -41l2 -26q8 -39 39 -9q121 123 324 123q137 0 237 -61z" />
    <glyph glyph-name="Sacute" unicode="&#x15a;" horiz-adv-x="1691" 
d="M1382 1829q14 -23 6 -48.5t-30 -39.5l-414 -244q-43 -23 -76 16l-39 56q-16 18 -13 41.5t24 38.5l372 317q23 20 52.5 16t44.5 -30zM784 -37q-469 0 -712 176q-47 33 -13 82l117 193q37 55 94 16q188 -147 533 -147q397 0 397 139q0 47 -53 68.5t-180 29.5l-277 21
q-475 35 -475 383q0 496 766 495q399 0 676 -135q27 -14 35 -40.5t-9 -53.5l-120 -195q-31 -43 -80 -20q-231 129 -586 129q-315 0 -315 -129q0 -90 190 -105l318 -24q92 -6 158.5 -16.5t134 -35t109.5 -62.5t68.5 -99.5t26.5 -145.5q0 -524 -803 -524z" />
    <glyph glyph-name="sacute" unicode="&#x15b;" horiz-adv-x="1280" 
d="M1151 1405q14 -23 6 -48.5t-31 -39.5l-413 -244q-43 -23 -76 17l-39 55q-16 18 -13 41.5t23 38.5l373 317q23 20 52.5 16t43.5 -30zM573 -37q-336 0 -493 82q-49 16 -35 72l39 135q20 66 90 37q137 -78 404 -78q283 0 282 94q0 49 -78 49l-295 11q-381 10 -381 278
q0 352 609 352q293 0 459 -65q33 -8 44 -36t-6 -56l-65 -127q-25 -45 -72 -27q-119 59 -397 59q-238 0 -238 -77q0 -55 113 -58l317 -12q168 -6 249 -64.5t81 -189.5q0 -379 -627 -379z" />
    <glyph glyph-name="Scedilla" unicode="&#x15e;" horiz-adv-x="1691" 
d="M897 1104q-315 0 -315 -129q0 -90 190 -105l318 -24q92 -6 158.5 -16.5t134 -35t109.5 -62.5t68.5 -99.5t26.5 -145.5q0 -524 -803 -524h-18l-4 -16q-4 -16 9 -25.5t50 -17.5q92 -12 137.5 -56.5t36.5 -113.5q-20 -186 -321 -187q-115 0 -201 21q-53 14 -39 72l12 41
q16 57 78 40q45 -10 121 -10q113 0 113 37q2 20 -28 29.5t-99 11.5q-96 6 -78 92l22 92q-319 33 -503 166q-47 33 -13 82l117 193q37 55 94 16q188 -147 533 -147q397 0 397 139q0 47 -53 68.5t-180 29.5l-277 21q-475 35 -475 383q0 496 766 495q399 0 676 -135
q27 -14 35 -40.5t-9 -53.5l-120 -195q-31 -43 -80 -20q-232 129 -586 129z" />
    <glyph glyph-name="scedilla" unicode="&#x15f;" horiz-adv-x="1280" 
d="M678 743q-238 0 -238 -77q0 -55 113 -58l317 -12q168 -6 249 -64.5t81 -189.5q0 -356 -557 -377l-4 -18q-4 -16 9.5 -25.5t49.5 -17.5q92 -12 137.5 -56.5t36.5 -113.5q-20 -186 -321 -187q-115 0 -201 21q-53 14 -39 72l13 41q16 57 77 40q45 -10 121 -10q113 0 113 37
q2 20 -27.5 29.5t-99.5 11.5q-96 6 -78 92l21 84q-238 12 -371 80q-49 16 -35 72l39 135q20 66 90 37q137 -78 404 -78q283 0 282 94q0 49 -78 49l-295 11q-381 10 -381 278q0 352 609 352q293 0 459 -65q33 -8 44 -36t-6 -56l-65 -127q-25 -45 -72 -27q-118 59 -397 59z
" />
    <glyph glyph-name="Scaron" unicode="&#x160;" horiz-adv-x="1691" 
d="M1090 1513q-29 -29 -47.5 -36t-53.5 -7h-76q-35 0 -52 9.5t-38 38.5l-256 325q-31 41 4 76l60 63q14 16 36.5 19.5t41.5 -10.5l198 -176q49 -41 66.5 -43.5t62.5 24.5l260 168q47 27 78 -14l41 -56q31 -41 -6 -77zM784 -37q-469 0 -712 176q-47 33 -13 82l117 193
q37 55 94 16q188 -147 533 -147q397 0 397 139q0 47 -53 68.5t-180 29.5l-277 21q-475 35 -475 383q0 496 766 495q399 0 676 -135q27 -14 35 -40.5t-9 -53.5l-120 -195q-31 -43 -80 -20q-231 129 -586 129q-315 0 -315 -129q0 -90 190 -105l318 -24q92 -6 158.5 -16.5
t134 -35t109.5 -62.5t68.5 -99.5t26.5 -145.5q0 -524 -803 -524z" />
    <glyph glyph-name="scaron" unicode="&#x161;" horiz-adv-x="1280" 
d="M868 1090q-29 -29 -47 -36t-53 -7h-76q-35 0 -52 9t-38 38l-256 325q-31 41 4 76l60 64q14 16 36.5 19t40.5 -11l199 -176q49 -41 66.5 -43t62.5 24l260 168q47 27 78 -14l41 -56q31 -41 -6 -77zM573 -37q-336 0 -493 82q-49 16 -35 72l39 135q20 66 90 37
q137 -78 404 -78q283 0 282 94q0 49 -78 49l-295 11q-381 10 -381 278q0 352 609 352q293 0 459 -65q33 -8 44 -36t-6 -56l-65 -127q-25 -45 -72 -27q-119 59 -397 59q-238 0 -238 -77q0 -55 113 -58l317 -12q168 -6 249 -64.5t81 -189.5q0 -379 -627 -379z" />
    <glyph glyph-name="uni0162" unicode="&#x162;" horiz-adv-x="1564" 
d="M1583 1382q31 0 50.5 -21.5t13.5 -51.5l-31 -195q-2 -23 -18.5 -37t-38.5 -14h-488q-23 0 -22 -19l-156 -995q-10 -49 -59 -49h-111l-14 -53q-4 -16 9 -25.5t50 -17.5q92 -12 137 -56.5t37 -113.5q-20 -186 -321 -187q-115 0 -201 21q-53 14 -39 72l12 41q16 57 78 40
q45 -10 121 -10q113 0 113 37q2 20 -28 29.5t-99 11.5q-96 6 -78 92l30 121h56q-55 14 -45 72l151 960q2 12 -6 20.5t-18 8.5h-451q-31 0 -50.5 21.5t-12.5 52.5l30 196q6 49 58 49h1341z" />
    <glyph glyph-name="uni0163" unicode="&#x163;" horiz-adv-x="1257" 
d="M1182 958q31 0 50 -22.5t13 -52.5l-24 -156q-6 -49 -58 -49h-534q-18 0 -23 -19l-22 -149q-25 -147 21 -196.5t149 -49.5q160 0 286 51q63 25 84 -39l54 -165q16 -45 -9 -60q-158 -80 -446 -88l-4 -16q-4 -16 9 -25.5t50 -17.5q92 -12 137.5 -56.5t36.5 -113.5
q-20 -186 -321 -187q-115 0 -201 21q-53 14 -39 72l12 41q16 57 78 40q45 -10 121 -10q113 0 113 37q2 20 -28 29.5t-99 11.5q-96 6 -78 92l22 90q-381 59 -311 490l31 188q4 29 -25 29h-39q-33 0 -51 20.5t-12 53.5l25 157q6 49 55 49h76q23 0 22 21l29 186q10 49 59 49
h227q31 0 50.5 -21.5t13.5 -51.5l-25 -154q-2 -12 6.5 -20.5t18.5 -8.5h500z" />
    <glyph glyph-name="Tcaron" unicode="&#x164;" horiz-adv-x="1564" 
d="M1071 1513q-29 -29 -47 -36t-53 -7h-76q-35 0 -52.5 9.5t-37.5 38.5l-256 325q-31 41 4 76l59 63q14 16 37 19.5t41 -10.5l199 -176q49 -41 66.5 -43.5t62.5 24.5l260 168q47 27 78 -14l41 -56q31 -41 -6 -77zM1583 1382q31 0 50.5 -21.5t13.5 -51.5l-31 -195
q-2 -23 -18.5 -37t-38.5 -14h-488q-23 0 -22 -19l-156 -995q-10 -49 -59 -49h-230q-31 0 -50 21.5t-13 52.5l151 960q2 12 -6 20.5t-18 8.5h-451q-31 0 -50.5 21.5t-12.5 52.5l30 196q6 49 58 49h1341z" />
    <glyph glyph-name="tcaron" unicode="&#x165;" horiz-adv-x="1257" 
d="M893 1071q-33 0 -51.5 23.5t-10.5 56.5l99 420q8 47 55 47l170 -2q41 0 61.5 -32t2.5 -68l-179 -414q-14 -31 -47 -31h-100zM1182 958q31 0 50 -22.5t13 -52.5l-24 -156q-6 -49 -58 -49h-534q-18 0 -23 -19l-22 -149q-25 -147 21 -196.5t149 -49.5q160 0 286 51
q63 25 84 -39l54 -165q16 -45 -9 -60q-172 -88 -510 -88q-518 0 -438 498l31 188q4 29 -25 29h-39q-33 0 -51 20.5t-12 53.5l25 157q6 49 55 49h76q23 0 22 21l29 186q10 49 59 49h227q31 0 50.5 -21.5t13.5 -51.5l-25 -154q-2 -12 6.5 -20.5t18.5 -8.5h500z" />
    <glyph glyph-name="Tbar" unicode="&#x166;" horiz-adv-x="1564" 
d="M1583 1382q31 0 50.5 -21.5t13.5 -51.5l-31 -195q-2 -23 -18.5 -37t-38.5 -14h-488q-23 0 -22 -19l-39 -253h297q29 0 47 -21.5t14 -50.5l-14 -129q-2 -23 -19.5 -37t-40.5 -14h-325l-76 -490q-10 -49 -59 -49h-230q-31 0 -50 21.5t-13 52.5l73 465h-266q-29 0 -47 20.5
t-16 50.5l16 129q8 51 59 52h293l39 243q2 12 -6 20.5t-18 8.5h-451q-31 0 -50.5 21.5t-12.5 52.5l30 196q6 49 58 49h1341z" />
    <glyph glyph-name="tbar" unicode="&#x167;" horiz-adv-x="1257" 
d="M659 -37q-229 0 -347.5 102.5t-98.5 340.5l6 32q4 27 -24 27h-41q-31 0 -49.5 21.5t-14.5 50.5l4 30q4 51 58 51h75q18 0 23 19l10 61q4 27 -24 27h-41q-31 0 -50.5 22.5t-13.5 53.5l16 108q6 49 58 49h76q23 0 22 21l29 186q10 49 59 49h227q31 0 50.5 -21.5t13.5 -51.5
l-25 -154q-2 -12 6.5 -20.5t18.5 -8.5h500q31 0 50 -21.5t13 -51.5l-16 -111q-6 -49 -58 -49h-534q-23 0 -23 -18l-10 -62q-4 -27 25 -27h469q31 0 49 -21.5t14 -49.5l-2 -31q-8 -51 -59 -51h-492q-23 0 -22 -27l-4 -26q-6 -78 43 -113t129 -35q164 0 286 41q66 16 82 -43
l41 -170q14 -51 -10 -61q-158 -68 -494 -68z" />
    <glyph glyph-name="Umacron" unicode="&#x16a;" horiz-adv-x="1843" 
d="M1610 1634q-4 -23 -20.5 -37t-37.5 -14h-901q-29 0 -47 20.5t-14 51.5l20 157q2 23 18.5 37.5t39.5 14.5h901q29 0 47 -21.5t14 -50.5zM850 -37q-375 0 -534.5 187.5t-102.5 554.5l100 626q6 51 58 51h231q31 0 49.5 -22.5t14.5 -54.5l-101 -627q-35 -217 47 -302
t256 -85q117 0 209 35.5t166 131t98 244.5l99 629q10 51 59 51h230q33 0 51 -22.5t14 -54.5l-100 -623q-57 -365 -264 -542t-580 -177z" />
    <glyph glyph-name="umacron" unicode="&#x16b;" horiz-adv-x="1591" 
d="M1417 1210q-4 -23 -20.5 -37t-36.5 -14h-901q-29 0 -47.5 20.5t-14.5 51.5l21 158q2 23 18.5 37t38.5 14h901q29 0 47.5 -21.5t14.5 -50.5zM1407 958q31 0 49.5 -21.5t13.5 -53.5l-131 -834q-10 -51 -59 -51h-199q-49 0 -55 33v32q0 29 -29 11q-172 -113 -419 -113
q-92 0 -168 21.5t-138.5 68.5t-88 138.5t-5.5 216.5l80 501q2 23 18.5 37t38.5 14h228q31 0 49 -22.5t14 -52.5l-65 -410q-18 -117 29.5 -158t148.5 -41q156 0 289 88q33 23 36 56l78 489q10 51 58 51h227z" />
    <glyph glyph-name="Uring" unicode="&#x16e;" horiz-adv-x="1843" 
d="M1090 1464q-250 0 -355.5 82t-87.5 219l2 13q37 281 490 280q471 0 432 -299v-14q-18 -137 -128.5 -209t-352.5 -72zM1087 1679q215 0 230 84l2 13q4 35 -33 51t-145 16q-221 0 -236 -80l-2 -12q-4 -37 37 -54.5t147 -17.5zM850 -37q-375 0 -534.5 187.5t-102.5 554.5
l100 626q6 51 58 51h231q31 0 49.5 -22.5t14.5 -54.5l-101 -627q-35 -217 47 -302t256 -85q117 0 209 35.5t166 131t98 244.5l99 629q10 51 59 51h230q33 0 51 -22.5t14 -54.5l-100 -623q-57 -365 -264 -542t-580 -177z" />
    <glyph glyph-name="uring" unicode="&#x16f;" horiz-adv-x="1591" 
d="M897 1073q-262 0 -361.5 77t-80.5 222l4 29q37 264 522 264q225 0 323.5 -76t73.5 -225l-2 -14q-43 -277 -479 -277zM883 1286q238 0 241 92v8q2 33 -35.5 48.5t-130.5 15.5q-244 0 -247 -80l-2 -10q-2 -37 36 -55.5t138 -18.5zM1407 958q31 0 49.5 -21.5t13.5 -53.5
l-131 -834q-10 -51 -59 -51h-199q-49 0 -55 33v32q0 29 -29 11q-172 -113 -419 -113q-92 0 -168 21.5t-138.5 68.5t-88 138.5t-5.5 216.5l80 501q2 23 18.5 37t38.5 14h228q31 0 49 -22.5t14 -52.5l-65 -410q-18 -117 29.5 -158t148.5 -41q156 0 289 88q33 23 36 56l78 489
q10 51 58 51h227z" />
    <glyph glyph-name="Uhungarumlaut" unicode="&#x170;" horiz-adv-x="1843" 
d="M1094 1919q55 0 67.5 -50t-31.5 -97l-186 -201q-39 -39 -94 -39h-59q-37 0 -47.5 30.5t1.5 47.5l138 250q20 37 37.5 48t54.5 11h119zM1653 1919q47 0 59 -44t-18 -67l-326 -254q-33 -23 -90 -22h-55q-45 0 -50.5 35t23.5 61l244 250q27 27 43 34t51 7h119zM850 -37
q-375 0 -534.5 187.5t-102.5 554.5l100 626q6 51 58 51h231q31 0 49.5 -22.5t14.5 -54.5l-101 -627q-35 -217 47 -302t256 -85q117 0 209 35.5t166 131t98 244.5l99 629q10 51 59 51h230q33 0 51 -22.5t14 -54.5l-100 -623q-57 -365 -264 -542t-580 -177z" />
    <glyph glyph-name="uhungarumlaut" unicode="&#x171;" horiz-adv-x="1591" 
d="M895 1495q55 0 67.5 -51t-30.5 -96l-187 -201q-39 -39 -94 -39h-59q-37 0 -47 30.5t2 47.5l137 250q20 37 37.5 48t54.5 11h119zM1454 1495q47 0 59.5 -45t-18.5 -66l-326 -254q-33 -23 -90 -22h-55q-45 0 -50 35t23 61l244 250q27 27 43 34t51 7h119zM1407 958
q31 0 49.5 -21.5t13.5 -53.5l-131 -834q-10 -51 -59 -51h-199q-49 0 -55 33v32q0 29 -29 11q-172 -113 -419 -113q-92 0 -168 21.5t-138.5 68.5t-88 138.5t-5.5 216.5l80 501q2 23 18.5 37t38.5 14h228q31 0 49 -22.5t14 -52.5l-65 -410q-18 -117 29.5 -158t148.5 -41
q156 0 289 88q33 23 36 56l78 489q10 51 58 51h227z" />
    <glyph glyph-name="Uogonek" unicode="&#x172;" horiz-adv-x="1843" 
d="M1729 1382q33 0 51 -22.5t14 -54.5l-100 -623q-92 -592 -590 -694q-156 -66 -156 -117q0 -35 62 -35q20 0 40.5 2t39 5t24.5 3q35 4 57.5 -12t22.5 -49l-2 -78q0 -55 -49 -65q-129 -20 -211 -21q-266 0 -266 174q0 98 79 172q-637 53 -532 738l100 626q6 51 58 51h231
q31 0 49.5 -22.5t14.5 -54.5l-101 -627q-35 -217 47 -302t256 -85q117 0 209 35.5t166 131t98 244.5l99 629q10 51 59 51h230z" />
    <glyph glyph-name="uogonek" unicode="&#x173;" horiz-adv-x="1591" 
d="M1407 958q31 0 49.5 -21.5t13.5 -53.5l-131 -834q-6 -23 -22 -39l14 -12q-305 -96 -305 -170q0 -35 61 -35q20 0 41 2t39.5 5t24.5 3q35 4 57.5 -12t22.5 -49l-2 -78q0 -57 -49 -65q-129 -20 -211 -21q-266 0 -267 174q0 193 283 279v32q0 29 -29 11q-172 -113 -419 -113
q-92 0 -168 21.5t-138.5 68.5t-88 138.5t-5.5 216.5l80 501q2 23 18.5 37t38.5 14h228q31 0 49 -22.5t14 -52.5l-65 -410q-18 -117 29.5 -158t148.5 -41q156 0 289 88q33 23 36 56l78 489q10 51 58 51h227z" />
    <glyph glyph-name="Wcircumflex" unicode="&#x174;" horiz-adv-x="2760" 
d="M1460 1972q29 29 47.5 36t53.5 7h75q35 0 52.5 -9t37.5 -38l256 -326q31 -41 -4 -75l-59 -64q-14 -16 -36.5 -19t-41.5 11l-199 176q-49 41 -66 43t-63 -24l-260 -168q-47 -27 -77 14l-41 55q-31 41 6 78zM2695 1382q45 0 64.5 -34.5t-0.5 -75.5l-688 -1245
q-14 -27 -48 -27h-297q-20 0 -36.5 12.5t-18.5 32.5l-194 819q-20 88 -64 10l-467 -847q-16 -27 -49 -27h-297q-45 0 -55 45l-291 1255q-8 33 10.5 57.5t52.5 24.5h267q51 0 57 -47l150 -786q8 -49 26.5 -52t40.5 40l426 817q12 29 49 28h353q47 0 55 -47l170 -792
q8 -45 26.5 -48t40.5 40l416 815q16 33 51 32h250z" />
    <glyph glyph-name="wcircumflex" unicode="&#x175;" horiz-adv-x="2197" 
d="M1116 1548q29 29 47.5 36t53.5 7h75q35 0 52.5 -9t37.5 -38l256 -325q31 -41 -4 -76l-59 -64q-14 -16 -36.5 -19t-41.5 11l-199 176q-49 41 -66.5 43t-62.5 -24l-260 -168q-47 -27 -78 14l-40 55q-31 41 6 78zM2114 958q47 0 67.5 -36.5t-4.5 -77.5l-494 -817
q-18 -27 -47 -27h-354q-49 0 -59 47l-95 424q-4 27 -28.5 31t-36.5 -19l-252 -452q-16 -31 -49 -31h-334q-45 0 -55 43l-240 829q-10 35 10.5 60.5t55.5 25.5h286q23 0 40.5 -14t19.5 -37l76 -415q4 -39 18 -47.5t27.5 4t23.5 32.5l240 447q14 31 51 30h369q49 0 59 -49
l90 -420q6 -33 26.5 -42t43.5 34l225 447q14 31 49 30h271z" />
    <glyph glyph-name="Ycircumflex" unicode="&#x176;" horiz-adv-x="1865" 
d="M1016 1972q29 29 47 36t53 7h76q35 0 52.5 -9t37.5 -38l256 -326q31 -41 -4 -75l-59 -64q-14 -16 -37 -19t-41 11l-199 176q-49 41 -66.5 43t-62.5 -24l-260 -168q-47 -27 -78 14l-41 55q-31 41 6 78zM1757 1382q59 0 80 -46t-20 -93l-664 -721q-29 -31 -35 -47t-14 -72
l-55 -352q-10 -51 -58 -51h-231q-31 0 -49.5 21.5t-14.5 54.5l52 338q8 55 4 76.5t-33 68.5l-436 709q-25 39 -4.5 76.5t67.5 37.5h234q35 0 47 -26l331 -563q18 -29 43 -5l517 576q12 18 38 18h201z" />
    <glyph glyph-name="ycircumflex" unicode="&#x177;" horiz-adv-x="1523" 
d="M778 1548q29 29 47.5 36t53.5 7h75q35 0 52.5 -9t37.5 -38l256 -325q31 -41 -4 -76l-59 -64q-14 -16 -36.5 -19t-41.5 11l-198 176q-49 41 -66.5 43t-63.5 -24l-260 -168q-47 -27 -77 14l-41 55q-31 41 6 78zM1419 958q51 0 72.5 -39.5t-8.5 -82.5l-852 -1211
q-16 -23 -43 -22h-209q-51 0 -70.5 40t8.5 83l129 194q43 49 21 100l-320 844q-12 39 7.5 66.5t58.5 27.5h285q41 0 55 -45l154 -497q20 -72 59 -10l344 526q18 27 45 26h264z" />
    <glyph glyph-name="Ydieresis" unicode="&#x178;" horiz-adv-x="1865" 
d="M831 1516q-106 0 -157 60t-35 165q20 176 215 176q102 0 156.5 -56.5t40.5 -156.5q-12 -90 -71 -139t-149 -49zM1386 1516q-104 0 -154 60t-36 165q20 176 213 176q104 0 158.5 -56.5t40.5 -156.5q-12 -92 -71 -140t-151 -48zM1757 1382q59 0 80 -46t-20 -93l-664 -721
q-29 -31 -35 -47t-14 -72l-55 -352q-10 -51 -58 -51h-231q-31 0 -49.5 21.5t-14.5 54.5l52 338q8 55 4 76.5t-33 68.5l-436 709q-25 39 -4.5 76.5t67.5 37.5h234q35 0 47 -26l331 -563q18 -29 43 -5l517 576q12 18 38 18h201z" />
    <glyph glyph-name="Zacute" unicode="&#x179;" horiz-adv-x="1564" 
d="M1364 1829q14 -23 6 -48.5t-31 -39.5l-413 -244q-43 -23 -76 16l-39 56q-16 18 -13 41.5t23 38.5l373 317q23 20 52.5 16t43.5 -30zM1563 1382q31 0 49 -21.5t14 -51.5l-20 -146q-6 -43 -17.5 -60.5t-46.5 -45.5l-815 -674q-80 -63 6 -64h686q31 0 50.5 -21.5t13.5 -51.5
l-31 -197q-10 -49 -57 -49h-1317q-33 0 -51.5 26.5t-10.5 75.5l19 115q6 51 61 96l834 686q47 41 47 52q-2 12 -41 12h-719q-31 0 -50.5 21.5t-12.5 52.5l30 196q6 49 58 49h1321z" />
    <glyph glyph-name="zacute" unicode="&#x17a;" horiz-adv-x="1259" 
d="M1135 1405q14 -23 6 -48.5t-31 -39.5l-414 -244q-43 -23 -75 17l-39 55q-16 18 -13.5 41.5t23.5 38.5l373 317q23 20 52.5 16t43.5 -30zM1182 958q31 0 50 -20t15 -51l-22 -135q-6 -45 -18.5 -63.5t-53.5 -45.5l-401 -291q-104 -72 22 -71h320q31 0 50 -21.5t13 -52.5
l-24 -158q-6 -49 -56 -49h-977q-33 0 -51 21.5t-14 52.5l20 129q6 43 17.5 61.5t44.5 38.5l413 307q20 14 31.5 27.5t2.5 27t-54 13.5h-307q-31 0 -49.5 20.5t-14.5 53.5l25 157q10 49 57 49h961z" />
    <glyph glyph-name="Zdotaccent" unicode="&#x17b;" horiz-adv-x="1564" 
d="M956 1516q-104 0 -155 60t-35 165q20 176 213 176q104 0 158.5 -56.5t40.5 -156.5q-12 -90 -71 -139t-151 -49zM1563 1382q31 0 49 -21.5t14 -51.5l-20 -146q-6 -43 -17.5 -60.5t-46.5 -45.5l-815 -674q-80 -63 6 -64h686q31 0 50.5 -21.5t13.5 -51.5l-31 -197
q-10 -49 -57 -49h-1317q-33 0 -51.5 26.5t-10.5 75.5l19 115q6 51 61 96l834 686q47 41 47 52q-2 12 -41 12h-719q-31 0 -50.5 21.5t-12.5 52.5l30 196q6 49 58 49h1321z" />
    <glyph glyph-name="zdotaccent" unicode="&#x17c;" horiz-adv-x="1259" 
d="M737 1092q-104 0 -155.5 60t-34.5 165q20 176 213 176q104 0 158.5 -56.5t39.5 -156.5q-12 -90 -70.5 -139t-150.5 -49zM1182 958q31 0 50 -20t15 -51l-22 -135q-6 -45 -18.5 -63.5t-53.5 -45.5l-401 -291q-104 -72 22 -71h320q31 0 50 -21.5t13 -52.5l-24 -158
q-6 -49 -56 -49h-977q-33 0 -51 21.5t-14 52.5l20 129q6 43 17.5 61.5t44.5 38.5l413 307q20 14 31.5 27.5t2.5 27t-54 13.5h-307q-31 0 -49.5 20.5t-14.5 53.5l25 157q10 49 57 49h961z" />
    <glyph glyph-name="Zcaron" unicode="&#x17d;" horiz-adv-x="1564" 
d="M1071 1513q-29 -29 -47 -36t-53 -7h-76q-35 0 -52.5 9.5t-37.5 38.5l-256 325q-31 41 4 76l59 63q14 16 37 19.5t41 -10.5l199 -176q49 -41 66.5 -43.5t62.5 24.5l260 168q47 27 78 -14l41 -56q31 -41 -6 -77zM1563 1382q31 0 49 -21.5t14 -51.5l-20 -146
q-6 -43 -17.5 -60.5t-46.5 -45.5l-815 -674q-80 -63 6 -64h686q31 0 50.5 -21.5t13.5 -51.5l-31 -197q-10 -49 -57 -49h-1317q-33 0 -51.5 26.5t-10.5 75.5l19 115q6 51 61 96l834 686q47 41 47 52q-2 12 -41 12h-719q-31 0 -50.5 21.5t-12.5 52.5l30 196q6 49 58 49h1321z
" />
    <glyph glyph-name="zcaron" unicode="&#x17e;" horiz-adv-x="1259" 
d="M852 1090q-29 -29 -47.5 -36t-52.5 -7h-76q-35 0 -52.5 9t-37.5 38l-256 325q-31 41 4 76l59 64q14 16 37 19t41 -11l199 -176q49 -41 66.5 -43t62.5 24l260 168q47 27 78 -14l41 -56q31 -41 -7 -77zM1182 958q31 0 50 -20t15 -51l-22 -135q-6 -45 -18.5 -63.5
t-53.5 -45.5l-401 -291q-104 -72 22 -71h320q31 0 50 -21.5t13 -52.5l-24 -158q-6 -49 -56 -49h-977q-33 0 -51 21.5t-14 52.5l20 129q6 43 17.5 61.5t44.5 38.5l413 307q20 14 31.5 27.5t2.5 27t-54 13.5h-307q-31 0 -49.5 20.5t-14.5 53.5l25 157q10 49 57 49h961z" />
    <glyph glyph-name="uni01CD" unicode="&#x1cd;" horiz-adv-x="1722" 
d="M1153 1513q-29 -29 -47.5 -36t-52.5 -7h-76q-35 0 -52.5 9.5t-37.5 38.5l-256 325q-31 41 4 76l59 63q14 16 37 19.5t41 -10.5l199 -176q49 -41 66.5 -43.5t62.5 24.5l260 168q47 27 78 -14l41 -56q31 -41 -6 -77zM78 0q-47 0 -67.5 37t3.5 78l750 1241q16 27 47 26h367
q45 0 55 -41l369 -1255q10 -35 -9.5 -60.5t-54.5 -25.5h-225q-43 0 -63.5 17.5t-30.5 66.5l-33 104q-4 16 -21 17h-688q-8 0 -18 -10l-80 -138q-18 -35 -46 -46t-83 -11h-172zM668 489h415q12 0 20.5 10.5t4.5 20.5l-131 461q-6 27 -12.5 40t-9.5 19.5t-11 -4t-12 -16.5
t-17 -31l-272 -459q-8 -14 0.5 -27.5t24.5 -13.5z" />
    <glyph glyph-name="uni01CE" unicode="&#x1ce;" horiz-adv-x="1445" 
d="M944 1090q-29 -29 -47 -36t-53 -7h-76q-35 0 -52.5 9t-37.5 38l-256 325q-31 41 4 76l59 64q14 16 37 19t41 -11l199 -176q49 -41 66.5 -43t62.5 24l260 168q47 27 78 -14l41 -56q31 -41 -6 -77zM418 -37q-178 0 -259 67.5t-81 209.5q0 303 467 303h332q49 0 49 22l2 15
q12 121 -232 120q-219 0 -356 -69q-59 -18 -78 35l-59 157q-10 23 -2 45.5t32 30.5q205 96 543 96q283 0 423 -104.5t99 -370.5l-75 -471q-6 -49 -58 -49h-194q-31 0 -50.5 21.5t-13.5 52.5l8 43q4 20 -8 20q-10 0 -26 -16q-170 -158 -463 -158zM567 219q96 0 211 40t119 91
l4 25q0 14 -20 14h-316q-129 0 -129 -88q0 -82 131 -82z" />
    <glyph glyph-name="uni01CF" unicode="&#x1cf;" horiz-adv-x="768" 
d="M674 1513q-29 -29 -47.5 -36t-53.5 -7h-75q-35 0 -52.5 9.5t-37.5 38.5l-256 325q-31 41 4 76l59 63q14 16 36.5 19.5t41.5 -10.5l199 -176q49 -41 66 -43.5t63 24.5l260 168q47 27 77 -14l41 -56q31 -41 -6 -77zM205 0q-31 0 -49.5 22.5t-14.5 55.5l199 1253
q10 51 59 51h232q31 0 49 -21.5t12 -53.5l-196 -1256q-10 -51 -60 -51h-231z" />
    <glyph glyph-name="uni01D0" unicode="&#x1d0;" horiz-adv-x="745" 
d="M596 1090q-29 -29 -47.5 -36t-52.5 -7h-76q-35 0 -52.5 9t-37.5 38l-256 325q-31 41 4 76l59 64q14 16 37 19t41 -11l199 -176q49 -41 66.5 -43t62.5 24l260 168q47 27 78 -14l41 -56q31 -41 -7 -77zM197 0q-31 0 -49.5 20.5t-14.5 53.5l131 835q6 49 60 49h225
q31 0 50 -21.5t13 -51.5l-131 -836q-6 -49 -57 -49h-227z" />
    <glyph glyph-name="uni01D1" unicode="&#x1d1;" horiz-adv-x="1957" 
d="M1268 1513q-29 -29 -47.5 -36t-53.5 -7h-75q-35 0 -52.5 9.5t-38.5 38.5l-256 325q-31 41 5 76l59 63q14 16 36.5 19.5t41.5 -10.5l198 -176q49 -41 66.5 -43.5t62.5 24.5l261 168q47 27 77 -14l41 -56q31 -41 -6 -77zM911 -37q-426 0 -614 181.5t-133 523.5l12 71
q106 680 932 680q428 0 617.5 -181t136.5 -523l-13 -70q-104 -682 -938 -682zM930 291q143 0 259 34.5t201 120.5t107 220l10 75q31 193 -83.5 272t-331.5 79q-223 0 -378 -90.5t-186 -282.5l-10 -78q-31 -193 83 -271.5t329 -78.5z" />
    <glyph glyph-name="uni01D2" unicode="&#x1d2;" horiz-adv-x="1515" 
d="M979 1090q-29 -29 -47.5 -36t-52.5 -7h-76q-35 0 -52.5 9t-37.5 38l-256 325q-31 41 4 76l59 64q14 16 37 19t41 -11l199 -176q49 -41 66.5 -43t62.5 24l260 168q47 27 78 -14l41 -56q31 -41 -7 -77zM682 -37q-315 0 -468 116t-110 380l11 65q74 471 706 471
q150 0 262.5 -25.5t195.5 -82t118 -153.5t12 -232l-8 -66q-76 -473 -719 -473zM705 260q309 0 348 207l6 35q10 59 -6.5 100t-55.5 61.5t-84 28.5t-104 8q-309 0 -348 -206l-6 -35q-16 -115 53.5 -157t196.5 -42z" />
    <glyph glyph-name="uni01D3" unicode="&#x1d3;" horiz-adv-x="1843" 
d="M1210 1513q-29 -29 -47 -36t-53 -7h-76q-35 0 -52 9.5t-38 38.5l-256 325q-31 41 4 76l60 63q14 16 36.5 19.5t40.5 -10.5l199 -176q49 -41 66.5 -43.5t62.5 24.5l260 168q47 27 78 -14l41 -56q31 -41 -6 -77zM850 -37q-375 0 -534.5 187.5t-102.5 554.5l100 626
q6 51 58 51h231q31 0 49.5 -22.5t14.5 -54.5l-101 -627q-35 -217 47 -302t256 -85q117 0 209 35.5t166 131t98 244.5l99 629q10 51 59 51h230q33 0 51 -22.5t14 -54.5l-100 -623q-57 -365 -264 -542t-580 -177z" />
    <glyph glyph-name="uni01D4" unicode="&#x1d4;" horiz-adv-x="1591" 
d="M1018 1090q-29 -29 -47.5 -36t-52.5 -7h-76q-35 0 -52.5 9t-37.5 38l-256 325q-31 41 4 76l59 64q14 16 36.5 19t41.5 -11l199 -176q49 -41 66.5 -43t62.5 24l260 168q47 27 78 -14l40 -56q31 -41 -6 -77zM1407 958q31 0 49.5 -21.5t13.5 -53.5l-131 -834
q-10 -51 -59 -51h-199q-49 0 -55 33v32q0 29 -29 11q-172 -113 -419 -113q-92 0 -168 21.5t-138.5 68.5t-88 138.5t-5.5 216.5l80 501q2 23 18.5 37t38.5 14h228q31 0 49 -22.5t14 -52.5l-65 -410q-18 -117 29.5 -158t148.5 -41q156 0 289 88q33 23 36 56l78 489
q10 51 58 51h227z" />
    <glyph glyph-name="uni01D5" unicode="&#x1d5;" horiz-adv-x="1843" 
d="M1681 2036q-4 -23 -20 -37t-37 -14h-901q-29 0 -47.5 20t-13.5 51l20 158q2 23 18.5 37t38.5 14h901q29 0 47.5 -21.5t14.5 -50.5zM821 1470q-106 0 -157.5 60.5t-34.5 165.5q20 176 215 176q102 0 156.5 -56.5t39.5 -156.5q-12 -90 -70.5 -139.5t-148.5 -49.5z
M1376 1470q-104 0 -154.5 60.5t-35.5 165.5q20 176 213 176q104 0 158.5 -56.5t39.5 -156.5q-12 -92 -70.5 -140.5t-150.5 -48.5zM850 -37q-375 0 -534.5 187.5t-102.5 554.5l100 626q6 51 58 51h231q31 0 49.5 -22.5t14.5 -54.5l-101 -627q-35 -217 47 -302t256 -85
q117 0 209 35.5t166 131t98 244.5l99 629q10 51 59 51h230q33 0 51 -22.5t14 -54.5l-100 -623q-57 -365 -264 -542t-580 -177z" />
    <glyph glyph-name="uni01D6" unicode="&#x1d6;" horiz-adv-x="1591" 
d="M1485 1634q-4 -23 -20.5 -37t-37.5 -14h-901q-29 0 -47 20.5t-14 51.5l20 157q2 23 18.5 37.5t39.5 14.5h901q29 0 47 -21.5t14 -50.5zM629 1067q-106 0 -157.5 60.5t-35.5 164.5q20 176 215 176q102 0 156.5 -56t40.5 -157q-12 -90 -70.5 -139t-148.5 -49zM1184 1067
q-104 0 -154.5 60.5t-36.5 164.5q20 176 213 176q104 0 158.5 -56t40.5 -157q-12 -92 -70.5 -140t-150.5 -48zM1407 958q31 0 49.5 -21.5t13.5 -53.5l-131 -834q-10 -51 -59 -51h-199q-49 0 -55 33v32q0 29 -29 11q-172 -113 -419 -113q-92 0 -168 21.5t-138.5 68.5
t-88 138.5t-5.5 216.5l80 501q2 23 18.5 37t38.5 14h228q31 0 49 -22.5t14 -52.5l-65 -410q-18 -117 29.5 -158t148.5 -41q156 0 289 88q33 23 36 56l78 489q10 51 58 51h227z" />
    <glyph glyph-name="uni01D7" unicode="&#x1d7;" horiz-adv-x="1843" 
d="M1575 2259q14 -23 6 -48.5t-31 -39.5l-413 -244q-43 -23 -76 17l-39 55q-16 18 -13 41.5t23 38.5l373 317q23 20 52.5 16t43.5 -30zM821 1470q-106 0 -157.5 60.5t-34.5 165.5q20 176 215 176q102 0 156.5 -56.5t39.5 -156.5q-12 -90 -70.5 -139.5t-148.5 -49.5z
M1376 1470q-104 0 -154.5 60.5t-35.5 165.5q20 176 213 176q104 0 158.5 -56.5t39.5 -156.5q-12 -92 -70.5 -140.5t-150.5 -48.5zM850 -37q-375 0 -534.5 187.5t-102.5 554.5l100 626q6 51 58 51h231q31 0 49.5 -22.5t14.5 -54.5l-101 -627q-35 -217 47 -302t256 -85
q117 0 209 35.5t166 131t98 244.5l99 629q10 51 59 51h230q33 0 51 -22.5t14 -54.5l-100 -623q-57 -365 -264 -542t-580 -177z" />
    <glyph glyph-name="uni01D8" unicode="&#x1d8;" horiz-adv-x="1591" 
d="M1370 1851q14 -23 6 -48t-30 -40l-414 -243q-43 -23 -76 16l-39 55q-16 18 -13 42t23 38l373 318q23 20 52.5 16t43.5 -31zM629 1063q-106 0 -157.5 60.5t-35.5 164.5q20 176 215 176q102 0 156.5 -56t40.5 -157q-12 -90 -70.5 -139t-148.5 -49zM1184 1063
q-104 0 -154.5 60.5t-36.5 164.5q20 176 213 176q104 0 158.5 -56t40.5 -157q-12 -92 -70.5 -140t-150.5 -48zM1407 958q31 0 49.5 -21.5t13.5 -53.5l-131 -834q-10 -51 -59 -51h-199q-49 0 -55 33v32q0 29 -29 11q-172 -113 -419 -113q-92 0 -168 21.5t-138.5 68.5
t-88 138.5t-5.5 216.5l80 501q2 23 18.5 37t38.5 14h228q31 0 49 -22.5t14 -52.5l-65 -410q-18 -117 29.5 -158t148.5 -41q156 0 289 88q33 23 36 56l78 489q10 51 58 51h227z" />
    <glyph glyph-name="uni01D9" unicode="&#x1d9;" horiz-adv-x="1843" 
d="M1282 1939q-29 -29 -47 -36t-53 -7h-76q-35 0 -52.5 9.5t-37.5 38.5l-256 325q-31 41 4 76l59 63q14 16 37 19.5t41 -10.5l199 -176q49 -41 66.5 -43.5t62.5 24.5l260 168q47 27 78 -14l41 -56q31 -41 -6 -77zM821 1466q-106 0 -157.5 60.5t-34.5 165.5q20 176 215 176
q102 0 156.5 -56.5t39.5 -156.5q-12 -90 -70.5 -139.5t-148.5 -49.5zM1376 1466q-104 0 -154.5 60.5t-35.5 165.5q20 176 213 176q104 0 158.5 -56.5t39.5 -156.5q-12 -92 -70.5 -140.5t-150.5 -48.5zM850 -37q-375 0 -534.5 187.5t-102.5 554.5l100 626q6 51 58 51h231
q31 0 49.5 -22.5t14.5 -54.5l-101 -627q-35 -217 47 -302t256 -85q117 0 209 35.5t166 131t98 244.5l99 629q10 51 59 51h230q33 0 51 -22.5t14 -54.5l-100 -623q-57 -365 -264 -542t-580 -177z" />
    <glyph glyph-name="uni01DA" unicode="&#x1da;" horiz-adv-x="1591" 
d="M1090 1532q-29 -29 -47.5 -36t-53.5 -7h-76q-35 0 -52 9t-38 38l-256 326q-31 41 4 75l60 64q14 16 36.5 19t41.5 -11l198 -176q49 -41 66.5 -43t62.5 25l260 167q47 27 78 -14l41 -55q31 -41 -6 -78zM633 1059q-106 0 -157.5 60.5t-35.5 164.5q20 176 215 176
q102 0 156.5 -56t40.5 -157q-12 -90 -70.5 -139t-148.5 -49zM1188 1059q-104 0 -154.5 60.5t-36.5 164.5q20 176 213 176q104 0 158.5 -56t40.5 -157q-12 -92 -70.5 -140t-150.5 -48zM1407 958q31 0 49.5 -21.5t13.5 -53.5l-131 -834q-10 -51 -59 -51h-199q-49 0 -55 33v32
q0 29 -29 11q-172 -113 -419 -113q-92 0 -168 21.5t-138.5 68.5t-88 138.5t-5.5 216.5l80 501q2 23 18.5 37t38.5 14h228q31 0 49 -22.5t14 -52.5l-65 -410q-18 -117 29.5 -158t148.5 -41q156 0 289 88q33 23 36 56l78 489q10 51 58 51h227z" />
    <glyph glyph-name="uni01DB" unicode="&#x1db;" horiz-adv-x="1843" 
d="M829 2165q-27 16 -31.5 43.5t15.5 52.5l107 131q20 23 47.5 24t48.5 -22l291 -309q41 -43 2 -82l-60 -66q-33 -37 -71 -8zM817 1470q-106 0 -157.5 60.5t-34.5 165.5q20 176 215 176q102 0 156.5 -56.5t39.5 -156.5q-12 -90 -70.5 -139.5t-148.5 -49.5zM1372 1470
q-104 0 -154.5 60.5t-35.5 165.5q20 176 213 176q104 0 158.5 -56.5t39.5 -156.5q-12 -92 -70.5 -140.5t-150.5 -48.5zM850 -37q-375 0 -534.5 187.5t-102.5 554.5l100 626q6 51 58 51h231q31 0 49.5 -22.5t14.5 -54.5l-101 -627q-35 -217 47 -302t256 -85q117 0 209 35.5
t166 131t98 244.5l99 629q10 51 59 51h230q33 0 51 -22.5t14 -54.5l-100 -623q-57 -365 -264 -542t-580 -177z" />
    <glyph glyph-name="uni01DC" unicode="&#x1dc;" horiz-adv-x="1591" 
d="M616 1753q-27 16 -31.5 44t15.5 52l107 131q20 23 47.5 24t48.5 -22l291 -309q41 -43 2 -82l-60 -65q-33 -37 -71 -8zM629 1063q-106 0 -157.5 60.5t-35.5 164.5q20 176 215 176q102 0 156.5 -56t40.5 -157q-12 -90 -70.5 -139t-148.5 -49zM1184 1063q-104 0 -154.5 60.5
t-36.5 164.5q20 176 213 176q104 0 158.5 -56t40.5 -157q-12 -92 -70.5 -140t-150.5 -48zM1407 958q31 0 49.5 -21.5t13.5 -53.5l-131 -834q-10 -51 -59 -51h-199q-49 0 -55 33v32q0 29 -29 11q-172 -113 -419 -113q-92 0 -168 21.5t-138.5 68.5t-88 138.5t-5.5 216.5
l80 501q2 23 18.5 37t38.5 14h228q31 0 49 -22.5t14 -52.5l-65 -410q-18 -117 29.5 -158t148.5 -41q156 0 289 88q33 23 36 56l78 489q10 51 58 51h227z" />
    <glyph glyph-name="uni0218" unicode="&#x218;" horiz-adv-x="1691" 
d="M784 -37q-469 0 -712 176q-47 33 -13 82l117 193q37 55 94 16q188 -147 533 -147q397 0 397 139q0 47 -53 68.5t-180 29.5l-277 21q-475 35 -475 383q0 496 766 495q399 0 676 -135q27 -14 35 -40.5t-9 -53.5l-120 -195q-31 -43 -80 -20q-231 129 -586 129
q-315 0 -315 -129q0 -90 190 -105l318 -24q92 -6 158.5 -16.5t134 -35t109.5 -62.5t68.5 -99.5t26.5 -145.5q0 -524 -803 -524zM449 -594q-29 2 -45.5 24.5t-12.5 51.5l10 51q10 53 70 47q125 -16 199 27q72 33 84 55q12 10 2 14q-6 2 -17 -8q-43 -29 -112 -28
q-92 0 -132 37.5t-30 103.5q18 127 240 127q147 0 225 -72t61 -198q-23 -137 -168 -194.5t-374 -37.5z" />
    <glyph glyph-name="uni0219" unicode="&#x219;" horiz-adv-x="1280" 
d="M573 -37q-336 0 -493 82q-49 16 -35 72l39 135q20 66 90 37q137 -78 404 -78q283 0 282 94q0 49 -78 49l-295 11q-381 10 -381 278q0 352 609 352q293 0 459 -65q33 -8 44 -36t-6 -56l-65 -127q-25 -45 -72 -27q-119 59 -397 59q-238 0 -238 -77q0 -55 113 -58l317 -12
q168 -6 249 -64.5t81 -189.5q0 -379 -627 -379zM250 -594q-29 2 -45.5 24.5t-11.5 51.5l10 51q10 53 69 47q125 -16 199 27q72 33 84 55q12 10 2 14q-6 2 -16 -8q-43 -29 -113 -28q-92 0 -132 37.5t-30 103.5q18 127 240 127q147 0 225 -72t62 -198q-23 -137 -168.5 -194.5
t-374.5 -37.5z" />
    <glyph glyph-name="uni021A" unicode="&#x21a;" horiz-adv-x="1564" 
d="M1583 1382q31 0 50.5 -21.5t13.5 -51.5l-31 -195q-2 -23 -18.5 -37t-38.5 -14h-488q-23 0 -22 -19l-156 -995q-10 -49 -59 -49h-230q-31 0 -50 21.5t-13 52.5l151 960q2 12 -6 20.5t-18 8.5h-451q-31 0 -50.5 21.5t-12.5 52.5l30 196q6 49 58 49h1341zM395 -594
q-29 2 -45 24.5t-12 51.5l10 51q10 53 70 47q125 -16 198 27q72 33 84 55q12 10 2 14q-6 2 -16 -8q-43 -29 -113 -28q-92 0 -132 37.5t-29 103.5q18 127 239 127q147 0 225 -72t62 -198q-23 -137 -168.5 -194.5t-374.5 -37.5z" />
    <glyph glyph-name="uni021B" unicode="&#x21b;" horiz-adv-x="1257" 
d="M1182 958q31 0 50 -22.5t13 -52.5l-24 -156q-6 -49 -58 -49h-534q-18 0 -23 -19l-22 -149q-25 -147 21 -196.5t149 -49.5q160 0 286 51q63 25 84 -39l54 -165q16 -45 -9 -60q-172 -88 -510 -88q-518 0 -438 498l31 188q4 29 -25 29h-39q-33 0 -51 20.5t-12 53.5l25 157
q6 49 55 49h76q23 0 22 21l29 186q10 49 59 49h227q31 0 50.5 -21.5t13.5 -51.5l-25 -154q-2 -12 6.5 -20.5t18.5 -8.5h500zM330 -594q-29 2 -45.5 24.5t-12.5 51.5l11 51q10 53 69 47q125 -16 199 27q72 33 84 55q12 10 2 14q-6 2 -16 -8q-43 -29 -113 -28q-92 0 -132 37.5
t-30 103.5q18 127 240 127q147 0 225 -72t61 -198q-23 -137 -168 -194.5t-374 -37.5z" />
    <glyph glyph-name="gravecomb" unicode="&#x300;" 
d="M-428 1311q-27 16 -32 43.5t16 52.5l106 131q20 23 48 24t48 -22l291 -309q41 -43 2 -82l-59 -66q-33 -37 -72 -8z" />
    <glyph glyph-name="acutecomb" unicode="&#x301;" 
d="M59 1405q14 -23 6 -48.5t-30 -39.5l-414 -244q-43 -23 -76 17l-39 55q-16 18 -13 41.5t24 38.5l372 317q23 20 52.5 16t44.5 -30z" />
    <glyph glyph-name="uni0302" unicode="&#x302;" 
d="M-514 1548q29 29 47 36t53 7h76q35 0 52.5 -9t37.5 -38l256 -325q31 -41 -4 -76l-59 -64q-14 -16 -37 -19t-41 11l-199 176q-49 41 -66.5 43t-62.5 -24l-260 -168q-47 -27 -78 14l-41 55q-31 41 6 78z" />
    <glyph glyph-name="tildecomb" unicode="&#x303;" 
d="M-817 1081q-31 0 -49.5 20.5t-14.5 51.5q27 188 112 275.5t200 87.5q47 0 83.5 -11.5t55 -23t57.5 -41.5q14 -8 34 -23.5t30 -23t24.5 -13.5t28.5 -6q61 0 82 99q18 41 49 40h164q29 0 48 -21.5t15 -51.5q-31 -186 -124 -276.5t-214 -90.5q-86 0 -178 76
q-12 10 -34.5 27.5t-30.5 23.5t-21.5 11.5t-25.5 5.5q-29 0 -49.5 -26t-26.5 -71q-16 -39 -49 -39h-166z" />
    <glyph glyph-name="uni0304" unicode="&#x304;" 
d="M2 1210q-4 -23 -20.5 -37t-36.5 -14h-901q-29 0 -47.5 20.5t-14.5 51.5l21 158q2 23 18 37t39 14h901q29 0 47.5 -21.5t14.5 -50.5z" />
    <glyph glyph-name="uni0306" unicode="&#x306;" 
d="M-459 1040q-250 0 -361.5 117t-99.5 307q2 23 18.5 38.5t39.5 15.5h198q55 0 62 -64q0 -154 149 -154q178 0 226 177q16 41 55 41h197q33 0 51 -19.5t12 -46.5q-43 -190 -181.5 -301t-365.5 -111z" />
    <glyph glyph-name="uni0307" unicode="&#x307;" 
d="M-160 1092q-104 0 -155.5 60t-34.5 165q20 176 213 176q104 0 158.5 -56.5t39.5 -156.5q-12 -90 -70.5 -139t-150.5 -49z" />
    <glyph glyph-name="uni0308" unicode="&#x308;" 
d="M-715 1092q-106 0 -157.5 60t-34.5 165q20 176 215 176q102 0 156.5 -56.5t39.5 -156.5q-12 -90 -70.5 -139t-148.5 -49zM-160 1092q-104 0 -154.5 60t-35.5 165q20 176 213 176q104 0 158.5 -56.5t39.5 -156.5q-12 -92 -70.5 -140t-150.5 -48z" />
    <glyph glyph-name="uni030A" unicode="&#x30a;" 
d="M-367 1073q-262 0 -361 77t-81 222l4 29q37 264 522 264q225 0 323.5 -76t74.5 -225l-2 -14q-44 -277 -480 -277zM-381 1286q238 0 242 92v8q2 33 -36 48.5t-130 15.5q-244 0 -248 -80l-2 -10q-2 -37 36 -55.5t138 -18.5z" />
    <glyph glyph-name="uni030B" unicode="&#x30b;" 
d="M-618 1495q55 0 67 -51t-31 -96l-186 -201q-39 -39 -94 -39h-60q-37 0 -47 30.5t2 47.5l138 250q20 37 37.5 48t54.5 11h119zM-59 1495q47 0 59 -45t-18 -66l-326 -254q-33 -23 -90 -22h-55q-45 0 -50.5 35t23.5 61l244 250q27 27 43 34t51 7h119z" />
    <glyph glyph-name="uni030C" unicode="&#x30c;" 
d="M-309 1090q-29 -29 -47.5 -36t-53.5 -7h-75q-35 0 -52.5 9t-37.5 38l-256 325q-31 41 4 76l59 64q14 16 36.5 19t41.5 -11l198 -176q49 -41 66.5 -43t63.5 24l260 168q47 27 77 -14l41 -56q31 -41 -6 -77z" />
    <glyph glyph-name="uni0312" unicode="&#x312;" 
d="M68 1565q29 -2 45 -24.5t12 -51.5l-10 -51q-10 -53 -70 -47q-125 16 -199 -27q-72 -33 -84 -55q-12 -10 -2 -15q6 -2 17 9q43 29 112 28q92 0 132 -38t30 -103q-18 -127 -239 -127q-147 0 -225.5 71.5t-61.5 198.5q23 137 168.5 194.5t374.5 37.5z" />
    <glyph glyph-name="uni0326" unicode="&#x326;" 
d="M-709 -594q-29 2 -45 24.5t-12 51.5l10 51q10 53 70 47q125 -16 199 27q72 33 84 55q12 10 2 14q-6 2 -17 -8q-43 -29 -112 -28q-92 0 -132 37.5t-30 103.5q18 127 239 127q147 0 225 -72t62 -198q-23 -137 -168.5 -194.5t-374.5 -37.5z" />
    <glyph glyph-name="uni0327" unicode="&#x327;" 
d="M-440 -453q-115 0 -201 21q-53 14 -39 72l12 41q16 57 78 40q45 -10 121 -10q113 0 113 37q2 20 -28 29.5t-99 11.5q-96 6 -78 92l31 121h192l-14 -55q-4 -16 9 -25.5t50 -17.5q92 -12 137 -56.5t37 -113.5q-20 -187 -321 -187z" />
    <glyph glyph-name="uni0328" unicode="&#x328;" 
d="M-416 -418q-266 0 -266 174q0 98 81 171t188.5 107t236.5 44l82 -76q-305 -96 -305 -170q0 -35 61 -35q20 0 41 2t39 5t25 3q35 4 57 -12t22 -49l-2 -78q0 -57 -49 -65q-129 -21 -211 -21z" />
    <glyph glyph-name="uni0335" unicode="&#x335;" 
d="M-193 453q-2 -23 -19 -37.5t-40 -14.5h-946q-29 0 -47.5 20.5t-16.5 51.5l17 129q8 51 59 51h946q29 0 47.5 -21.5t14.5 -49.5z" />
    <glyph glyph-name="uni0336" unicode="&#x336;" 
d="M-106 485q-2 -20 -19.5 -35.5t-40.5 -15.5h-1700q-31 0 -49 20.5t-14 51.5l22 158q2 20 18.5 35.5t39.5 15.5h1699q31 0 49.5 -21.5t14.5 -50.5z" />
    <glyph glyph-name="uni0337" unicode="&#x337;" 
d="M-23 723q10 -23 2 -44.5t-30 -31.5l-846 -428q-25 -14 -49.5 -5t-34.5 36l-59 133q-10 23 -2 45.5t30 32.5l846 428q25 14 49.5 5t34.5 -36z" />
    <glyph glyph-name="uni0338" unicode="&#x338;" 
d="M-1780 -20q-23 -12 -47 -6t-37 28l-108 188q-33 49 22 84l1792 1129q23 14 47.5 7t36.5 -30l111 -190q29 -51 -21 -82z" />
    <glyph glyph-name="Wgrave" unicode="&#x1e80;" horiz-adv-x="2760" 
d="M1221 1735q-27 16 -32 43.5t15 52.5l107 131q20 23 47.5 24t48.5 -22l291 -309q41 -43 2 -82l-60 -66q-33 -37 -71 -8zM2695 1382q45 0 64.5 -34.5t-0.5 -75.5l-688 -1245q-14 -27 -48 -27h-297q-20 0 -36.5 12.5t-18.5 32.5l-194 819q-20 88 -64 10l-467 -847
q-16 -27 -49 -27h-297q-45 0 -55 45l-291 1255q-8 33 10.5 57.5t52.5 24.5h267q51 0 57 -47l150 -786q8 -49 26.5 -52t40.5 40l426 817q12 29 49 28h353q47 0 55 -47l170 -792q8 -45 26.5 -48t40.5 40l416 815q16 33 51 32h250z" />
    <glyph glyph-name="wgrave" unicode="&#x1e81;" horiz-adv-x="2197" 
d="M877 1311q-27 16 -32 43.5t15 52.5l107 131q20 23 47.5 24t48.5 -22l291 -309q41 -43 2 -82l-60 -66q-33 -37 -71 -8zM2114 958q47 0 67.5 -36.5t-4.5 -77.5l-494 -817q-18 -27 -47 -27h-354q-49 0 -59 47l-95 424q-4 27 -28.5 31t-36.5 -19l-252 -452q-16 -31 -49 -31
h-334q-45 0 -55 43l-240 829q-10 35 10.5 60.5t55.5 25.5h286q23 0 40.5 -14t19.5 -37l76 -415q4 -39 18 -47.5t27.5 4t23.5 32.5l240 447q14 31 51 30h369q49 0 59 -49l90 -420q6 -33 26.5 -42t43.5 34l225 447q14 31 49 30h271z" />
    <glyph glyph-name="Wacute" unicode="&#x1e82;" horiz-adv-x="2760" 
d="M1958 1829q14 -23 6 -48.5t-31 -39.5l-413 -244q-43 -23 -76 16l-39 56q-16 18 -13 41.5t23 38.5l373 317q23 20 52.5 16t43.5 -30zM2695 1382q45 0 64.5 -34.5t-0.5 -75.5l-688 -1245q-14 -27 -48 -27h-297q-20 0 -36.5 12.5t-18.5 32.5l-194 819q-20 88 -64 10
l-467 -847q-16 -27 -49 -27h-297q-45 0 -55 45l-291 1255q-8 33 10.5 57.5t52.5 24.5h267q51 0 57 -47l150 -786q8 -49 26.5 -52t40.5 40l426 817q12 29 49 28h353q47 0 55 -47l170 -792q8 -45 26.5 -48t40.5 40l416 815q16 33 51 32h250z" />
    <glyph glyph-name="wacute" unicode="&#x1e83;" horiz-adv-x="2197" 
d="M1604 1405q14 -23 6 -48.5t-31 -39.5l-414 -244q-43 -23 -75 17l-39 55q-16 18 -13.5 41.5t23.5 38.5l373 317q23 20 52.5 16t43.5 -30zM2114 958q47 0 67.5 -36.5t-4.5 -77.5l-494 -817q-18 -27 -47 -27h-354q-49 0 -59 47l-95 424q-4 27 -28.5 31t-36.5 -19l-252 -452
q-16 -31 -49 -31h-334q-45 0 -55 43l-240 829q-10 35 10.5 60.5t55.5 25.5h286q23 0 40.5 -14t19.5 -37l76 -415q4 -39 18 -47.5t27.5 4t23.5 32.5l240 447q14 31 51 30h369q49 0 59 -49l90 -420q6 -33 26.5 -42t43.5 34l225 447q14 31 49 30h271z" />
    <glyph glyph-name="Wdieresis" unicode="&#x1e84;" horiz-adv-x="2760" 
d="M1276 1516q-106 0 -157.5 60t-35.5 165q20 176 215 176q102 0 156.5 -56.5t40.5 -156.5q-12 -90 -70.5 -139t-148.5 -49zM1831 1516q-104 0 -154.5 60t-36.5 165q20 176 213 176q104 0 158.5 -56.5t40.5 -156.5q-12 -92 -70.5 -140t-150.5 -48zM2695 1382
q45 0 64.5 -34.5t-0.5 -75.5l-688 -1245q-14 -27 -48 -27h-297q-20 0 -36.5 12.5t-18.5 32.5l-194 819q-20 88 -64 10l-467 -847q-16 -27 -49 -27h-297q-45 0 -55 45l-291 1255q-8 33 10.5 57.5t52.5 24.5h267q51 0 57 -47l150 -786q8 -49 26.5 -52t40.5 40l426 817
q12 29 49 28h353q47 0 55 -47l170 -792q8 -45 26.5 -48t40.5 40l416 815q16 33 51 32h250z" />
    <glyph glyph-name="wdieresis" unicode="&#x1e85;" horiz-adv-x="2197" 
d="M932 1092q-106 0 -157.5 60t-35.5 165q20 176 215 176q102 0 156.5 -56.5t40.5 -156.5q-12 -90 -70.5 -139t-148.5 -49zM1487 1092q-104 0 -154.5 60t-36.5 165q20 176 213 176q104 0 158.5 -56.5t40.5 -156.5q-12 -92 -70.5 -140t-150.5 -48zM2114 958q47 0 67.5 -36.5
t-4.5 -77.5l-494 -817q-18 -27 -47 -27h-354q-49 0 -59 47l-95 424q-4 27 -28.5 31t-36.5 -19l-252 -452q-16 -31 -49 -31h-334q-45 0 -55 43l-240 829q-10 35 10.5 60.5t55.5 25.5h286q23 0 40.5 -14t19.5 -37l76 -415q4 -39 18 -47.5t27.5 4t23.5 32.5l240 447
q14 31 51 30h369q49 0 59 -49l90 -420q6 -33 26.5 -42t43.5 34l225 447q14 31 49 30h271z" />
    <glyph glyph-name="Ygrave" unicode="&#x1ef2;" horiz-adv-x="1865" 
d="M776 1735q-27 16 -32 43.5t16 52.5l106 131q20 23 48 24t49 -22l290 -309q41 -43 2 -82l-59 -66q-33 -37 -72 -8zM1757 1382q59 0 80 -46t-20 -93l-664 -721q-29 -31 -35 -47t-14 -72l-55 -352q-10 -51 -58 -51h-231q-31 0 -49.5 21.5t-14.5 54.5l52 338q8 55 4 76.5
t-33 68.5l-436 709q-25 39 -4.5 76.5t67.5 37.5h234q35 0 47 -26l331 -563q18 -29 43 -5l517 576q12 18 38 18h201z" />
    <glyph glyph-name="ygrave" unicode="&#x1ef3;" horiz-adv-x="1523" 
d="M539 1311q-27 16 -32 43.5t15 52.5l107 131q20 23 48 24t48 -22l291 -309q41 -43 2 -82l-60 -66q-33 -37 -71 -8zM1419 958q51 0 72.5 -39.5t-8.5 -82.5l-852 -1211q-16 -23 -43 -22h-209q-51 0 -70.5 40t8.5 83l129 194q43 49 21 100l-320 844q-12 39 7.5 66.5
t58.5 27.5h285q41 0 55 -45l154 -497q20 -72 59 -10l344 526q18 27 45 26h264z" />
    <glyph glyph-name="endash" unicode="&#x2013;" horiz-adv-x="1519" 
d="M1413 508q-10 -49 -57 -49h-1172q-31 0 -49 20.5t-14 52.5l24 158q10 49 58 49h1171q31 0 49.5 -21.5t14.5 -53.5z" />
    <glyph glyph-name="emdash" unicode="&#x2014;" horiz-adv-x="2025" 
d="M1917 508q-10 -49 -57 -49h-1676q-31 0 -49 20.5t-14 52.5l24 158q10 49 58 49h1675q31 0 49.5 -21.5t14.5 -53.5z" />
    <glyph glyph-name="quoteleft" unicode="&#x2018;" horiz-adv-x="626" 
d="M428 885q-147 0 -228 84t-55 256q23 184 165.5 279t381.5 83q31 -2 47.5 -24.5t10.5 -51.5l-19 -86q-12 -51 -65 -47q-106 8 -186.5 -30.5t-110.5 -108.5q-8 -35 10 -41q8 -4 16 4q37 25 99 25q86 0 133 -45t32 -133q-24 -164 -231 -164z" />
    <glyph glyph-name="quoteright" unicode="&#x2019;" horiz-adv-x="626" 
d="M178 887q-33 2 -49 24.5t-10 51.5l18 88q10 49 66 45q113 -8 196.5 35t114.5 118q4 23 -8 32t-29 -5q-39 -31 -110 -31q-82 0 -126 47t-32 135q23 162 233 162q145 0 226.5 -83t56.5 -255q-25 -184 -167 -280t-380 -84z" />
    <glyph glyph-name="quotesinglbase" unicode="&#x201a;" horiz-adv-x="610" 
d="M-94 -395q-33 2 -48.5 24.5t-9.5 51.5l17 90q10 45 63 45q172 -6 301 110q53 55 23 70q-10 6 -23 0q-37 -18 -86 -19q-61 0 -100 47.5t-37 125.5q0 207 230 206q127 0 198.5 -70.5t69.5 -215.5q-2 -240 -163 -360.5t-435 -104.5z" />
    <glyph glyph-name="quotedblleft" unicode="&#x201c;" horiz-adv-x="1222" 
d="M428 885q-147 0 -228 84t-55 256q23 184 165.5 279t381.5 83q31 -2 47.5 -24.5t10.5 -51.5l-19 -86q-12 -51 -65 -47q-106 8 -186.5 -30.5t-110.5 -108.5q-8 -35 10 -41q8 -4 16 4q37 25 99 25q86 0 133 -45t32 -133q-24 -164 -231 -164zM1024 885q-147 0 -228 84
t-55 256q23 184 165.5 279t381.5 83q31 -2 47.5 -24.5t10.5 -51.5l-19 -86q-12 -51 -65 -47q-106 8 -186.5 -30.5t-110.5 -108.5q-8 -35 10 -41q8 -4 16 4q37 25 99 25q86 0 133 -45t32 -133q-24 -164 -231 -164z" />
    <glyph glyph-name="quotedblright" unicode="&#x201d;" horiz-adv-x="1220" 
d="M444 1591q147 0 228.5 -84t54.5 -256q-23 -184 -165 -279t-382 -83q-31 2 -47 24.5t-10 51.5l18 86q12 51 66 47q106 -8 186 30.5t111 108.5q8 35 -10 41q-8 4 -17 -4q-37 -25 -98 -25q-86 0 -133 45t-33 133q24 164 231 164zM1040 1591q147 0 228.5 -84t54.5 -256
q-23 -184 -165 -279t-382 -83q-31 2 -47 24.5t-10 51.5l18 86q12 51 66 47q106 -8 186 30.5t111 108.5q8 35 -10 41q-8 4 -17 -4q-37 -25 -98 -25q-86 0 -133 45t-33 133q24 164 231 164z" />
    <glyph glyph-name="quotedblbase" unicode="&#x201e;" horiz-adv-x="1200" 
d="M236 356q127 0 198.5 -70.5t69.5 -215.5q-2 -240 -163 -361t-435 -104q-33 2 -48.5 24.5t-9.5 51.5l17 90q10 45 63 45q172 -6 301 110q53 55 23 70q-10 6 -23 0q-37 -18 -86 -19q-61 0 -100 47.5t-37 125.5q1 206 230 206zM825 356q127 0 199 -70.5t70 -215.5
q-2 -240 -163 -361t-435 -104q-33 2 -48.5 24.5t-9.5 51.5l17 90q10 45 63 45q172 -6 301 110q53 55 23 70q-10 6 -23 0q-37 -18 -86 -19q-61 0 -100 47.5t-37 125.5q0 206 229 206z" />
    <glyph glyph-name="bullet" unicode="&#x2022;" horiz-adv-x="741" 
d="M377 434q-143 0 -212 76t-46 211q37 227 301 227q145 0 219 -71.5t53 -198.5q-18 -117 -101 -180.5t-214 -63.5z" />
    <glyph glyph-name="ellipsis" unicode="&#x2026;" horiz-adv-x="1228" 
 />
    <glyph glyph-name="perthousand" unicode="&#x2030;" horiz-adv-x="3524" 
d="M647 717q-227 0 -354 74.5t-100 244.5l10 64q47 315 555 315q514 0 469 -315l-8 -64q-46 -319 -572 -319zM319 0q-82 0 -91 65.5t53 108.5l1656 1180q41 29 117 28h92q80 0 102.5 -64.5t-38.5 -109.5l-1592 -1147q-86 -61 -190 -61h-109zM682 944q256 0 270 105l4 38
q16 102 -235 103q-240 0 -252 -103l-6 -38q-6 -59 51 -82t168 -23zM1743 -37q-227 0 -354 75t-101 245l10 61q51 317 555 318q236 0 367 -74t104 -244l-10 -61q-51 -320 -571 -320zM2839 -37q-227 0 -353.5 75t-99.5 245l10 61q51 317 553 318q238 0 368 -74t103 -244
l-10 -61q-51 -320 -571 -320zM1778 190q252 0 270 105l6 39q10 55 -53.5 77.5t-183.5 22.5q-233 0 -252 -100l-6 -39q-8 -59 50 -82t169 -23zM2873 190q252 0 271 105l6 39q10 55 -53.5 77.5t-184.5 22.5q-236 0 -250 -100l-8 -39q-10 -59 48 -82t171 -23z" />
    <glyph glyph-name="guilsinglleft" unicode="&#x2039;" horiz-adv-x="962" 
d="M780 51q-10 -25 -34.5 -34t-49.5 1l-643 310q-37 16 -33 59l29 195q6 31 35 43l735 309q35 12 62.5 -4.5t29.5 -50.5l15 -162q4 -47 -41 -62l-418 -157q-80 -27 -2 -49l342 -140q27 -8 39 -32.5t2 -51.5z" />
    <glyph glyph-name="guilsinglright" unicode="&#x203a;" horiz-adv-x="960" 
d="M182 907q10 25 35 34t49 -1l643 -309q37 -16 33 -60l-29 -194q-6 -31 -34 -43l-736 -309q-35 -12 -62.5 4t-29.5 51l-14 162q-4 47 41 61l418 158q80 27 2 49l-342 139q-27 8 -39.5 33t-1.5 51z" />
    <glyph glyph-name="Euro" unicode="&#x20ac;" horiz-adv-x="1792" 
d="M870 -37q-604 0 -663 406q-2 12 -7 41.5t-7 48.5q0 18 -23 18h-51q-27 0 -41.5 18.5t-9.5 45.5l8 49q2 27 22.5 44t46.5 17h35q20 0 25 23q4 33 8 45q6 25 -20 24h-33q-25 0 -41.5 18.5t-12.5 43.5l7 37q6 27 25.5 44t45.5 17h54q16 0 26 19q16 41 33 77q201 420 831 420
q231 0 391 -47t285 -162q20 -16 19.5 -40.5t-19.5 -47.5l-159 -182q-43 -45 -86 -12q-160 164 -482 164q-281 0 -395 -150q-10 -10 -14 -24q0 -14 18 -15h561q27 0 43.5 -18.5t9.5 -42.5l-6 -37q-4 -27 -24.5 -44.5t-44.5 -17.5h-629q-18 0 -27 -22q-2 -8 -4 -23.5t-4 -23.5
q-4 -23 21 -23h626q27 0 42.5 -17.5t11.5 -43.5l-9 -51q-4 -25 -24.5 -43.5t-46.5 -18.5h-553q-23 0 -23 -14q0 -12 8 -25q76 -147 344 -147q186 0 312.5 38t245.5 128q55 37 83 -8l107 -162q12 -20 10 -42t-16 -32q-154 -135 -355 -192.5t-475 -57.5z" />
    <glyph glyph-name="trademark" unicode="&#x2122;" horiz-adv-x="3256" 
d="M621 520q-29 0 -48.5 21.5t-15.5 50.5l57 444q4 27 -22 27h-326q-31 0 -50 22.5t-13 53.5l33 194q6 49 57 49h1087q31 0 50.5 -21.5t15.5 -53.5l-33 -195q-10 -49 -59 -49h-361q-18 0 -20 -19l-62 -473q-8 -51 -59 -51h-231zM1602 520q-33 0 -51.5 22.5t-12.5 53.5
l125 737q2 20 18.5 34.5t38.5 14.5h314q31 0 45 -26l239 -377q23 -31 49 -4l390 391q12 16 34 16h299q31 0 49.5 -22.5t12.5 -54.5l-125 -738q-8 -47 -55 -47h-228q-33 0 -51 22.5t-12 55.5l35 217q6 33 -17.5 45t-46.5 -10l-225 -229q-14 -14 -35 -15h-207q-31 0 -45 25
l-155 241q-8 14 -22.5 19.5t-27 -2.5t-14.5 -27l-49 -295q-6 -47 -55 -47h-215z" />
    <glyph glyph-name="minus" unicode="&#x2212;" horiz-adv-x="1409" 
d="M1358 571q-6 -51 -55 -51h-1156q-31 0 -50 21.5t-13 52.5l18 125q10 51 58 51h1155q31 0 49 -21.5t14 -54.5z" />
    <glyph glyph-name="notequal" unicode="&#x2260;" horiz-adv-x="1228" 
 />
    <glyph glyph-name="lessequal" unicode="&#x2264;" horiz-adv-x="1228" 
 />
    <glyph glyph-name="greaterequal" unicode="&#x2265;" horiz-adv-x="1228" 
 />
    <glyph glyph-name="lozenge" unicode="&#x25ca;" horiz-adv-x="1228" 
 />
    <glyph glyph-name="i.locl" horiz-adv-x="745" 
d="M481 1092q-104 0 -155.5 60t-34.5 165q20 176 213 176q104 0 158.5 -56.5t39.5 -156.5q-12 -90 -70.5 -139t-150.5 -49zM197 0q-31 0 -49.5 20.5t-14.5 53.5l131 835q6 49 60 49h225q31 0 50 -21.5t13 -51.5l-131 -836q-6 -49 -57 -49h-227z" />
    <glyph glyph-name="A.aalt" horiz-adv-x="1742" 
d="M102 0q-51 0 -69.5 40t10.5 85l659 911q16 23 43 23h377q37 0 49 -33l420 -926q16 -39 -3 -69.5t-60 -30.5h-244q-37 0 -51 35l-49 112q-6 12 -21 13h-688q-12 0 -18 -10l-86 -125q-14 -25 -45 -25h-224zM664 399h383q14 0 21 11.5t3 23.5l-147 342q-8 20 -26.5 22.5
t-29.5 -16.5l-229 -340q-8 -16 0.5 -29.5t24.5 -13.5z" />
    <glyph glyph-name="Aacute.aalt" horiz-adv-x="1742" 
d="M1395 1507q14 -23 6 -48t-31 -40l-414 -243q-43 -23 -75 16l-39 55q-16 18 -13.5 42t23.5 38l373 318q23 20 52.5 16t43.5 -31zM102 0q-51 0 -69.5 40t10.5 85l659 911q16 23 43 23h377q37 0 49 -33l420 -926q16 -39 -3 -69.5t-60 -30.5h-244q-37 0 -51 35l-49 112
q-6 12 -21 13h-688q-12 0 -18 -10l-86 -125q-14 -25 -45 -25h-224zM664 399h383q14 0 21 11.5t3 23.5l-147 342q-8 20 -26.5 22.5t-29.5 -16.5l-229 -340q-8 -16 0.5 -29.5t24.5 -13.5z" />
    <glyph glyph-name="Abreve.aalt" horiz-adv-x="1742" 
d="M995 1143q-250 0 -361.5 116.5t-98.5 307.5q2 23 18 38t39 15h199q55 0 61 -64q0 -154 149 -153q178 0 226 176q16 41 55 41h197q33 0 51 -19.5t12 -46.5q-43 -190 -181.5 -300.5t-365.5 -110.5zM102 0q-51 0 -69.5 40t10.5 85l659 911q16 23 43 23h377q37 0 49 -33
l420 -926q16 -39 -3 -69.5t-60 -30.5h-244q-37 0 -51 35l-49 112q-6 12 -21 13h-688q-12 0 -18 -10l-86 -125q-14 -25 -45 -25h-224zM664 399h383q14 0 21 11.5t3 23.5l-147 342q-8 20 -26.5 22.5t-29.5 -16.5l-229 -340q-8 -16 0.5 -29.5t24.5 -13.5z" />
    <glyph glyph-name="Acircumflex.aalt" horiz-adv-x="1742" 
d="M907 1651q29 29 47.5 36t53.5 7h75q35 0 52.5 -9.5t38.5 -37.5l256 -326q31 -41 -5 -76l-59 -63q-14 -16 -36.5 -19.5t-41.5 11.5l-198 176q-49 41 -66.5 43t-62.5 -25l-261 -168q-47 -27 -77 14l-41 56q-31 41 6 78zM102 0q-51 0 -69.5 40t10.5 85l659 911q16 23 43 23
h377q37 0 49 -33l420 -926q16 -39 -3 -69.5t-60 -30.5h-244q-37 0 -51 35l-49 112q-6 12 -21 13h-688q-12 0 -18 -10l-86 -125q-14 -25 -45 -25h-224zM664 399h383q14 0 21 11.5t3 23.5l-147 342q-8 20 -26.5 22.5t-29.5 -16.5l-229 -340q-8 -16 0.5 -29.5t24.5 -13.5z" />
    <glyph glyph-name="Adieresis.aalt" horiz-adv-x="1742" 
d="M723 1194q-106 0 -157.5 60.5t-35.5 164.5q20 176 215 176q102 0 156.5 -56t40.5 -157q-12 -90 -70.5 -139t-148.5 -49zM1278 1194q-104 0 -154.5 60.5t-36.5 164.5q20 176 213 176q104 0 158.5 -56t40.5 -157q-12 -92 -70.5 -140t-150.5 -48zM102 0q-51 0 -69.5 40
t10.5 85l659 911q16 23 43 23h377q37 0 49 -33l420 -926q16 -39 -3 -69.5t-60 -30.5h-244q-37 0 -51 35l-49 112q-6 12 -21 13h-688q-12 0 -18 -10l-86 -125q-14 -25 -45 -25h-224zM664 399h383q14 0 21 11.5t3 23.5l-147 342q-8 20 -26.5 22.5t-29.5 -16.5l-229 -340
q-8 -16 0.5 -29.5t24.5 -13.5z" />
    <glyph glyph-name="Agrave.aalt" horiz-adv-x="1742" 
d="M668 1413q-27 16 -32 44t15 52l107 131q20 23 48 24t48 -22l291 -309q41 -43 2 -82l-60 -65q-33 -37 -71 -8zM102 0q-51 0 -69.5 40t10.5 85l659 911q16 23 43 23h377q37 0 49 -33l420 -926q16 -39 -3 -69.5t-60 -30.5h-244q-37 0 -51 35l-49 112q-6 12 -21 13h-688
q-12 0 -18 -10l-86 -125q-14 -25 -45 -25h-224zM664 399h383q14 0 21 11.5t3 23.5l-147 342q-8 20 -26.5 22.5t-29.5 -16.5l-229 -340q-8 -16 0.5 -29.5t24.5 -13.5z" />
    <glyph glyph-name="Amacron.aalt" horiz-adv-x="1742" 
d="M1511 1313q-4 -23 -20 -37t-37 -14h-901q-29 0 -47.5 20.5t-13.5 50.5l20 158q2 23 18.5 37t38.5 14h901q29 0 47.5 -21.5t14.5 -50.5zM102 0q-51 0 -69.5 40t10.5 85l659 911q16 23 43 23h377q37 0 49 -33l420 -926q16 -39 -3 -69.5t-60 -30.5h-244q-37 0 -51 35
l-49 112q-6 12 -21 13h-688q-12 0 -18 -10l-86 -125q-14 -25 -45 -25h-224zM664 399h383q14 0 21 11.5t3 23.5l-147 342q-8 20 -26.5 22.5t-29.5 -16.5l-229 -340q-8 -16 0.5 -29.5t24.5 -13.5z" />
    <glyph glyph-name="Aogonek.aalt" horiz-adv-x="1742" 
d="M1495 -195q35 4 57.5 -12t22.5 -49l-2 -78q0 -55 -49 -65q-129 -20 -211 -21q-266 0 -266 174q0 162 210 254q-20 12 -24 27l-49 112q-6 12 -21 13h-688q-12 0 -18 -10l-86 -125q-14 -25 -45 -25h-224q-51 0 -69.5 40t10.5 85l659 911q16 23 43 23h377q37 0 49 -33
l420 -926q16 -35 2 -61l41 -39q-305 -96 -305 -170q0 -35 62 -35q20 0 40.5 2t39 5t24.5 3zM1047 399q14 0 21 11.5t3 23.5l-147 342q-8 20 -26.5 22.5t-29.5 -16.5l-229 -340q-8 -16 0 -29.5t25 -13.5h383z" />
    <glyph glyph-name="Aring.aalt" horiz-adv-x="1742" 
d="M991 1176q-262 0 -361.5 76.5t-80.5 222.5l4 28q37 264 522 264q225 0 323.5 -75.5t74.5 -225.5l-3 -14q-43 -276 -479 -276zM977 1389q238 0 242 92v8q2 33 -36 48t-130 15q-244 0 -248 -79l-2 -11q-2 -37 36 -55t138 -18zM102 0q-51 0 -69.5 40t10.5 85l659 911
q16 23 43 23h377q37 0 49 -33l420 -926q16 -39 -3 -69.5t-60 -30.5h-244q-37 0 -51 35l-49 112q-6 12 -21 13h-688q-12 0 -18 -10l-86 -125q-14 -25 -45 -25h-224zM664 399h383q14 0 21 11.5t3 23.5l-147 342q-8 20 -26.5 22.5t-29.5 -16.5l-229 -340q-8 -16 0.5 -29.5
t24.5 -13.5z" />
    <glyph glyph-name="Atilde.aalt" horiz-adv-x="1742" 
d="M559 1184q-31 0 -49 20.5t-14 50.5q27 188 111.5 275.5t199.5 87.5q47 0 84 -11.5t55.5 -22.5t57.5 -42q14 -8 33.5 -23.5t29.5 -22.5t24.5 -13t28.5 -6q61 0 82 98q18 41 49 41h164q29 0 48.5 -21.5t15.5 -52.5q-31 -186 -124 -276t-214 -90q-86 0 -178 75
q-12 10 -35 27.5t-31 24t-21.5 11.5t-25.5 5q-29 0 -49.5 -25.5t-26.5 -70.5q-16 -39 -49 -39h-166zM102 0q-51 0 -69.5 40t10.5 85l659 911q16 23 43 23h377q37 0 49 -33l420 -926q16 -39 -3 -69.5t-60 -30.5h-244q-37 0 -51 35l-49 112q-6 12 -21 13h-688q-12 0 -18 -10
l-86 -125q-14 -25 -45 -25h-224zM664 399h383q14 0 21 11.5t3 23.5l-147 342q-8 20 -26.5 22.5t-29.5 -16.5l-229 -340q-8 -16 0.5 -29.5t24.5 -13.5z" />
    <glyph glyph-name="AE.aalt" horiz-adv-x="2584" 
d="M197 0q-55 0 -75 44t15 87l752 901q16 23 43 23h1485q31 0 49 -21.5t14 -54.5l-26 -160q-6 -47 -58 -47h-756q-39 0 -43 -27l-16 -94q-4 -16 6 -25.5t41 -9.5h524q31 0 49.5 -20.5t14.5 -50.5l-4 -29q-4 -51 -58 -51h-559q-47 0 -51 -27l-16 -100q-4 -25 10 -36t55 -11
h705q31 0 49 -21.5t14 -54.5l-26 -166q-6 -49 -60 -49h-1077q-33 0 -52.5 22.5t-10.5 53.5l16 86q8 33 -11.5 58.5t-54.5 25.5h-417q-35 0 -58 -33l-141 -190q-16 -23 -43 -23h-229zM856 412h281q51 0 57 49l41 270q4 14 -6 28.5t-31 14.5h-104q-25 0 -41 -20l-207 -230
q-18 -25 -26.5 -50t0.5 -43.5t36 -18.5z" />
    <glyph glyph-name="B.aalt" horiz-adv-x="1880" 
d="M231 0q-33 0 -51 22.5t-12 55.5l145 926q10 49 60 49h960q188 0 275.5 -56.5t87.5 -177.5q0 -164 -156 -239q-14 -6 -14 -14.5t16 -12.5q174 -47 174 -209q0 -344 -532 -344h-953zM627 616h526q182 0 182 97q0 63 -110 63h-578q-20 0 -29 -22l-16 -107q-4 -31 25 -31z
M571 281h607q96 0 145 28.5t49 75.5q0 70 -121 70h-659q-20 0 -25 -19l-20 -125q-5 -30 24 -30z" />
    <glyph glyph-name="C.aalt" horiz-adv-x="1867" 
d="M1645 215q16 -23 11 -47.5t-30 -38.5q-266 -162 -754 -166q-180 0 -315 31t-215 85t-127 130t-53 165t8 189l8 43q41 246 258 365t635 119q395 0 617 -125q31 -14 37 -44t-17 -57l-139 -168q-29 -29 -62 -14q-184 100 -454 100q-240 0 -371 -50t-154 -177l-6 -29
q-20 -131 76 -190.5t326 -59.5q324 0 534 123q47 25 76 -20z" />
    <glyph glyph-name="Cacute.aalt" horiz-adv-x="1867" 
d="M1473 1507q14 -23 5.5 -48t-30.5 -40l-414 -243q-43 -23 -76 16l-38 55q-16 18 -13.5 42t23.5 38l373 318q23 20 52 16t44 -31zM1645 215q16 -23 11 -47.5t-30 -38.5q-266 -162 -754 -166q-180 0 -315 31t-215 85t-127 130t-53 165t8 189l8 43q41 246 258 365t635 119
q395 0 617 -125q31 -14 37 -44t-17 -57l-139 -168q-29 -29 -62 -14q-184 100 -454 100q-240 0 -371 -50t-154 -177l-6 -29q-20 -131 76 -190.5t326 -59.5q324 0 534 123q47 25 76 -20z" />
    <glyph glyph-name="Ccaron.aalt" horiz-adv-x="1867" 
d="M1190 1192q-29 -29 -47.5 -36t-52.5 -7h-76q-35 0 -52.5 9t-37.5 38l-256 326q-31 41 4 75l59 64q14 16 37 19t41 -11l199 -176q49 -41 66.5 -43t62.5 25l260 167q47 27 78 -14l41 -55q31 -41 -7 -78zM1645 215q16 -23 11 -47.5t-30 -38.5q-266 -162 -754 -166
q-180 0 -315 31t-215 85t-127 130t-53 165t8 189l8 43q41 246 258 365t635 119q395 0 617 -125q31 -14 37 -44t-17 -57l-139 -168q-29 -29 -62 -14q-184 100 -454 100q-240 0 -371 -50t-154 -177l-6 -29q-20 -131 76 -190.5t326 -59.5q324 0 534 123q47 25 76 -20z" />
    <glyph glyph-name="Ccedilla.aalt" horiz-adv-x="1867" 
d="M528 555l-6 -29q-20 -131 76 -190.5t326 -59.5q324 0 534 123q47 25 76 -20l111 -164q16 -23 11 -47.5t-30 -38.5q-223 -135 -600 -162l-6 -20q-4 -16 9 -25.5t50 -17.5q92 -12 137.5 -56.5t36.5 -113.5q-20 -186 -321 -187q-115 0 -201 21q-53 14 -39 72l13 41
q16 57 77 40q45 -10 121 -10q113 0 113 37q2 20 -28 29.5t-99 11.5q-96 6 -78 92l20 82q-170 4 -296.5 36t-202.5 87t-121 130t-49 162t8 185l8 43q41 246 258 365t635 119q395 0 617 -125q31 -14 37 -44t-17 -57l-139 -168q-29 -29 -62 -14q-184 100 -454 100
q-240 0 -371 -50t-154 -177z" />
    <glyph glyph-name="Cdotaccent.aalt" horiz-adv-x="1867" 
d="M1075 1194q-104 0 -155.5 60.5t-34.5 164.5q20 176 213 176q104 0 158.5 -56t39.5 -157q-12 -90 -70.5 -139t-150.5 -49zM1645 215q16 -23 11 -47.5t-30 -38.5q-266 -162 -754 -166q-180 0 -315 31t-215 85t-127 130t-53 165t8 189l8 43q41 246 258 365t635 119
q395 0 617 -125q31 -14 37 -44t-17 -57l-139 -168q-29 -29 -62 -14q-184 100 -454 100q-240 0 -371 -50t-154 -177l-6 -29q-20 -131 76 -190.5t326 -59.5q324 0 534 123q47 25 76 -20z" />
    <glyph glyph-name="D.aalt" horiz-adv-x="1955" 
d="M1255 1055q168 0 285 -39t176.5 -110.5t81 -159t8.5 -195.5l-6 -49q-31 -266 -235.5 -384t-603.5 -118h-730q-33 0 -51 22.5t-14 55.5l147 926q2 23 19.5 37t40.5 14h882zM1442 555q16 119 -45.5 166t-200.5 47h-510q-53 0 -63 -53l-56 -344q-6 -33 12.5 -56.5
t53.5 -23.5h375q397 0 430 235z" />
    <glyph glyph-name="Eth.aalt" horiz-adv-x="1908" 
d="M1255 1055q168 0 285 -39t176.5 -110.5t81 -159t8.5 -195.5l-6 -49q-31 -266 -235.5 -384t-603.5 -118h-730q-33 0 -51 22.5t-14 55.5l57 348q4 27 -24 27h-47q-31 0 -50.5 22.5t-13.5 52.5l4 35q10 51 60 51h81q18 0 23 19l57 371q2 23 19.5 37t40.5 14h882zM1442 555
q16 119 -45.5 166t-200.5 47h-510q-55 0 -61 -37l-13 -88q-4 -29 23 -29h463q31 0 49 -20.5t14 -52.5l-6 -37q-2 -23 -18.5 -37t-38.5 -14h-496q-23 0 -22 -17l-15 -100q0 -45 68 -45h375q397 0 430 235z" />
    <glyph glyph-name="Dcaron.aalt" horiz-adv-x="1955" 
d="M1190 1192q-29 -29 -47.5 -36t-52.5 -7h-76q-35 0 -52.5 9t-37.5 38l-256 326q-31 41 4 75l59 64q14 16 37 19t41 -11l199 -176q49 -41 66.5 -43t62.5 25l260 167q47 27 78 -14l41 -55q31 -41 -7 -78zM1255 1055q168 0 285 -39t176.5 -110.5t81 -159t8.5 -195.5l-6 -49
q-31 -266 -235.5 -384t-603.5 -118h-730q-33 0 -51 22.5t-14 55.5l147 926q2 23 19.5 37t40.5 14h882zM1442 555q16 119 -45.5 166t-200.5 47h-510q-53 0 -63 -53l-56 -344q-6 -33 12.5 -56.5t53.5 -23.5h375q397 0 430 235z" />
    <glyph glyph-name="Dcroat.aalt" horiz-adv-x="1908" 
d="M1255 1055q168 0 285 -39t176.5 -110.5t81 -159t8.5 -195.5l-6 -49q-31 -266 -235.5 -384t-603.5 -118h-730q-33 0 -51 22.5t-14 55.5l57 348q4 27 -24 27h-47q-31 0 -50.5 22.5t-13.5 52.5l4 35q10 51 60 51h81q18 0 23 19l57 371q2 23 19.5 37t40.5 14h882zM1442 555
q16 119 -45.5 166t-200.5 47h-510q-55 0 -61 -37l-13 -88q-4 -29 23 -29h463q31 0 49 -20.5t14 -52.5l-6 -37q-2 -23 -18.5 -37t-38.5 -14h-496q-23 0 -22 -17l-15 -100q0 -45 68 -45h375q397 0 430 235z" />
    <glyph glyph-name="E.aalt" horiz-adv-x="1765" 
d="M1597 1053q31 0 48.5 -20.5t15.5 -53.5l-25 -162q-6 -49 -57 -49h-895q-49 0 -55 -27l-17 -92q-2 -18 9.5 -27.5t35.5 -9.5h662q33 0 50 -22.5t13 -54.5l-6 -29q-8 -47 -55 -47h-690q-53 0 -56 -33l-14 -100q-4 -18 6.5 -26.5t36.5 -8.5h875q31 0 49 -21.5t14 -52.5
l-24 -168q-2 -20 -19.5 -34.5t-40.5 -14.5h-1227q-33 0 -51 21.5t-14 54.5l147 928q6 49 60 49h1224z" />
    <glyph glyph-name="Eacute.aalt" horiz-adv-x="1765" 
d="M1450 1507q14 -23 6 -48t-31 -40l-413 -243q-43 -23 -76 16l-39 55q-16 18 -13 42t23 38l373 318q23 20 52.5 16t43.5 -31zM1597 1053q31 0 48.5 -20.5t15.5 -53.5l-25 -162q-6 -49 -57 -49h-895q-49 0 -55 -27l-17 -92q-2 -18 9.5 -27.5t35.5 -9.5h662q33 0 50 -22.5
t13 -54.5l-6 -29q-8 -47 -55 -47h-690q-53 0 -56 -33l-14 -100q-4 -18 6.5 -26.5t36.5 -8.5h875q31 0 49 -21.5t14 -52.5l-24 -168q-2 -20 -19.5 -34.5t-40.5 -14.5h-1227q-33 0 -51 21.5t-14 54.5l147 928q6 49 60 49h1224z" />
    <glyph glyph-name="Ecaron.aalt" horiz-adv-x="1765" 
d="M1167 1192q-29 -29 -47 -36t-53 -7h-76q-35 0 -52 9t-38 38l-256 326q-31 41 4 75l60 64q14 16 36.5 19t40.5 -11l199 -176q49 -41 66.5 -43t62.5 25l260 167q47 27 78 -14l41 -55q31 -41 -6 -78zM1597 1053q31 0 48.5 -20.5t15.5 -53.5l-25 -162q-6 -49 -57 -49h-895
q-49 0 -55 -27l-17 -92q-2 -18 9.5 -27.5t35.5 -9.5h662q33 0 50 -22.5t13 -54.5l-6 -29q-8 -47 -55 -47h-690q-53 0 -56 -33l-14 -100q-4 -18 6.5 -26.5t36.5 -8.5h875q31 0 49 -21.5t14 -52.5l-24 -168q-2 -20 -19.5 -34.5t-40.5 -14.5h-1227q-33 0 -51 21.5t-14 54.5
l147 928q6 49 60 49h1224z" />
    <glyph glyph-name="Ecircumflex.aalt" horiz-adv-x="1765" 
d="M963 1651q29 29 47 36t53 7h76q35 0 52 -9.5t38 -37.5l256 -326q31 -41 -4 -76l-60 -63q-14 -16 -36.5 -19.5t-41.5 11.5l-198 176q-49 41 -66.5 43t-62.5 -25l-260 -168q-47 -27 -78 14l-41 56q-31 41 6 78zM1597 1053q31 0 48.5 -20.5t15.5 -53.5l-25 -162
q-6 -49 -57 -49h-895q-49 0 -55 -27l-17 -92q-2 -18 9.5 -27.5t35.5 -9.5h662q33 0 50 -22.5t13 -54.5l-6 -29q-8 -47 -55 -47h-690q-53 0 -56 -33l-14 -100q-4 -18 6.5 -26.5t36.5 -8.5h875q31 0 49 -21.5t14 -52.5l-24 -168q-2 -20 -19.5 -34.5t-40.5 -14.5h-1227
q-33 0 -51 21.5t-14 54.5l147 928q6 49 60 49h1224z" />
    <glyph glyph-name="Edieresis.aalt" horiz-adv-x="1765" 
d="M778 1194q-106 0 -157.5 60.5t-34.5 164.5q20 176 215 176q102 0 156.5 -56t39.5 -157q-12 -90 -70.5 -139t-148.5 -49zM1333 1194q-104 0 -154.5 60.5t-35.5 164.5q20 176 213 176q104 0 158.5 -56t39.5 -157q-12 -92 -70.5 -140t-150.5 -48zM1597 1053q31 0 48.5 -20.5
t15.5 -53.5l-25 -162q-6 -49 -57 -49h-895q-49 0 -55 -27l-17 -92q-2 -18 9.5 -27.5t35.5 -9.5h662q33 0 50 -22.5t13 -54.5l-6 -29q-8 -47 -55 -47h-690q-53 0 -56 -33l-14 -100q-4 -18 6.5 -26.5t36.5 -8.5h875q31 0 49 -21.5t14 -52.5l-24 -168q-2 -20 -19.5 -34.5
t-40.5 -14.5h-1227q-33 0 -51 21.5t-14 54.5l147 928q6 49 60 49h1224z" />
    <glyph glyph-name="Edotaccent.aalt" horiz-adv-x="1765" 
d="M1053 1194q-104 0 -155.5 60.5t-35.5 164.5q20 176 213 176q104 0 158.5 -56t40.5 -157q-12 -90 -70.5 -139t-150.5 -49zM1597 1053q31 0 48.5 -20.5t15.5 -53.5l-25 -162q-6 -49 -57 -49h-895q-49 0 -55 -27l-17 -92q-2 -18 9.5 -27.5t35.5 -9.5h662q33 0 50 -22.5
t13 -54.5l-6 -29q-8 -47 -55 -47h-690q-53 0 -56 -33l-14 -100q-4 -18 6.5 -26.5t36.5 -8.5h875q31 0 49 -21.5t14 -52.5l-24 -168q-2 -20 -19.5 -34.5t-40.5 -14.5h-1227q-33 0 -51 21.5t-14 54.5l147 928q6 49 60 49h1224z" />
    <glyph glyph-name="Egrave.aalt" horiz-adv-x="1765" 
d="M723 1413q-27 16 -32 44t16 52l106 131q20 23 48 24t48 -22l291 -309q41 -43 2 -82l-59 -65q-33 -37 -72 -8zM1597 1053q31 0 48.5 -20.5t15.5 -53.5l-25 -162q-6 -49 -57 -49h-895q-49 0 -55 -27l-17 -92q-2 -18 9.5 -27.5t35.5 -9.5h662q33 0 50 -22.5t13 -54.5l-6 -29
q-8 -47 -55 -47h-690q-53 0 -56 -33l-14 -100q-4 -18 6.5 -26.5t36.5 -8.5h875q31 0 49 -21.5t14 -52.5l-24 -168q-2 -20 -19.5 -34.5t-40.5 -14.5h-1227q-33 0 -51 21.5t-14 54.5l147 928q6 49 60 49h1224z" />
    <glyph glyph-name="Emacron.aalt" horiz-adv-x="1765" 
d="M1567 1313q-4 -23 -20.5 -37t-37.5 -14h-901q-29 0 -47 20.5t-14 50.5l20 158q2 23 18.5 37t39.5 14h901q29 0 47 -21.5t14 -50.5zM1597 1053q31 0 48.5 -20.5t15.5 -53.5l-25 -162q-6 -49 -57 -49h-895q-49 0 -55 -27l-17 -92q-2 -18 9.5 -27.5t35.5 -9.5h662
q33 0 50 -22.5t13 -54.5l-6 -29q-8 -47 -55 -47h-690q-53 0 -56 -33l-14 -100q-4 -18 6.5 -26.5t36.5 -8.5h875q31 0 49 -21.5t14 -52.5l-24 -168q-2 -20 -19.5 -34.5t-40.5 -14.5h-1227q-33 0 -51 21.5t-14 54.5l147 928q6 49 60 49h1224z" />
    <glyph glyph-name="Eogonek.aalt" horiz-adv-x="1765" 
d="M1597 1053q31 0 48.5 -20.5t15.5 -53.5l-25 -162q-6 -49 -57 -49h-895q-49 0 -55 -27l-17 -92q-2 -18 9.5 -27.5t35.5 -9.5h662q33 0 50 -22.5t13 -54.5l-6 -29q-8 -47 -55 -47h-690q-53 0 -56 -33l-14 -100q-4 -18 6.5 -26.5t36.5 -8.5h875q31 0 49 -21.5t14 -52.5
l-24 -168q-4 -25 -23 -37l14 -12q-305 -96 -305 -170q0 -35 62 -35q20 0 40.5 2t39 5t24.5 3q35 4 57.5 -12t22.5 -49l-2 -78q0 -55 -49 -65q-129 -20 -211 -21q-266 0 -266 174q0 158 194 246h-885q-33 0 -51 21.5t-14 54.5l147 928q6 49 60 49h1224z" />
    <glyph glyph-name="F.aalt" horiz-adv-x="1617" 
d="M1511 1055q31 0 51.5 -22.5t14.5 -53.5l-27 -162q-10 -49 -59 -49h-799q-59 0 -67 -55l-17 -99q-14 -80 66 -79h543q33 0 51 -23t14 -53l-25 -131q-2 -20 -18 -34.5t-39 -14.5h-592q-51 0 -61 -54l-27 -176q-10 -49 -59 -49h-230q-33 0 -51 21.5t-14 54.5l147 928
q10 51 60 51h1138z" />
    <glyph glyph-name="G.aalt" horiz-adv-x="1908" 
d="M915 -31q-233 0 -391.5 41t-239.5 120t-107.5 180.5t-8.5 234.5l6 39q39 262 260 384t647 122q412 0 631 -82q33 -8 45 -36t-4 -57l-90 -178q-23 -41 -66 -30q-172 74 -528 73q-498 0 -539 -233l-6 -37q-20 -139 88.5 -189.5t348.5 -50.5q201 0 372 47q39 8 45 48l23 153
q6 51 55 51h256q31 0 49.5 -22.5t14.5 -52.5l-54 -365q-6 -37 -39 -49q-307 -111 -768 -111z" />
    <glyph glyph-name="Gbreve.aalt" horiz-adv-x="1908" 
d="M1087 1143q-250 0 -361.5 116.5t-98.5 307.5q2 23 18.5 38t38.5 15h199q55 0 61 -64q0 -154 150 -153q178 0 225 176q16 41 55 41h197q33 0 51 -19.5t12 -46.5q-43 -190 -181.5 -300.5t-365.5 -110.5zM915 -31q-233 0 -391.5 41t-239.5 120t-107.5 180.5t-8.5 234.5l6 39
q39 262 260 384t647 122q412 0 631 -82q33 -8 45 -36t-4 -57l-90 -178q-23 -41 -66 -30q-172 74 -528 73q-498 0 -539 -233l-6 -37q-20 -139 88.5 -189.5t348.5 -50.5q201 0 372 47q39 8 45 48l23 153q6 51 55 51h256q31 0 49.5 -22.5t14.5 -52.5l-54 -365q-6 -37 -39 -49
q-307 -111 -768 -111z" />
    <glyph glyph-name="uni0122.aalt" horiz-adv-x="1908" 
d="M915 -31q-233 0 -391.5 41t-239.5 120t-107.5 180.5t-8.5 234.5l6 39q39 262 260 384t647 122q412 0 631 -82q33 -8 45 -36t-4 -57l-90 -178q-23 -41 -66 -30q-172 74 -528 73q-498 0 -539 -233l-6 -37q-20 -139 88.5 -189.5t348.5 -50.5q201 0 372 47q39 8 45 48l23 153
q6 51 55 51h256q31 0 49.5 -22.5t14.5 -52.5l-54 -365q-6 -37 -39 -49q-307 -111 -768 -111zM659 -594q-29 2 -45 24.5t-12 51.5l10 51q10 53 70 47q125 -16 199 27q72 33 84 55q12 10 2 14q-6 2 -17 -8q-43 -29 -112 -28q-92 0 -132 37.5t-30 103.5q18 127 239 127
q147 0 225.5 -72t61.5 -198q-23 -137 -168.5 -194.5t-374.5 -37.5z" />
    <glyph glyph-name="Gdotaccent.aalt" horiz-adv-x="1908" 
d="M1090 1194q-104 0 -155.5 60.5t-35.5 164.5q20 176 213 176q104 0 158.5 -56t40.5 -157q-12 -90 -70.5 -139t-150.5 -49zM915 -31q-233 0 -391.5 41t-239.5 120t-107.5 180.5t-8.5 234.5l6 39q39 262 260 384t647 122q412 0 631 -82q33 -8 45 -36t-4 -57l-90 -178
q-23 -41 -66 -30q-172 74 -528 73q-498 0 -539 -233l-6 -37q-20 -139 88.5 -189.5t348.5 -50.5q201 0 372 47q39 8 45 48l23 153q6 51 55 51h256q31 0 49.5 -22.5t14.5 -52.5l-54 -365q-6 -37 -39 -49q-307 -111 -768 -111z" />
    <glyph glyph-name="H.aalt" horiz-adv-x="1947" 
d="M1733 1055q31 0 49 -21.5t14 -52.5l-145 -932q-10 -49 -60 -49h-229q-31 0 -50.5 21.5t-13.5 52.5l48 295q2 12 -6.5 20t-18.5 8h-727q-18 0 -23 -20l-51 -328q-6 -49 -57 -49h-232q-31 0 -49 20.5t-14 53.5l145 930q10 51 60 51h229q31 0 50.5 -21.5t13.5 -52.5
l-43 -279q-4 -27 24 -26h727q18 0 23 18l47 310q2 23 18.5 37t38.5 14h232z" />
    <glyph glyph-name="Hbar.aalt" horiz-adv-x="1882" 
d="M199 0q-31 0 -49.5 20.5t-14.5 53.5l88 557q2 12 -6 20t-18 8h-80q-31 0 -50.5 21.5t-13.5 52.5l19 125q10 51 57 51h115q23 0 22 19l13 76q10 51 59 51h229q27 0 46.5 -14.5t17.5 -43.5l-10 -61q-2 -10 6 -18.5t18 -8.5h729q18 0 23 19l12 76q2 23 18.5 37t38.5 14h232
q72 0 63 -64l-8 -55q-4 -27 25 -27h78q31 0 49 -21.5t14 -53.5l-20 -125q-6 -49 -58 -50h-112q-18 0 -23 -18l-90 -592q-6 -49 -59 -49h-230q-31 0 -50 21.5t-13 52.5l24 164q4 29 -24 28h-723q-23 0 -23 -18l-33 -199q-6 -49 -57 -49h-231zM588 510h727q16 0 20 18l17 103
q4 29 -25 28h-725q-18 0 -22 -18l-17 -102q-2 -12 6.5 -20.5t18.5 -8.5z" />
    <glyph glyph-name="I.aalt" horiz-adv-x="817" 
d="M231 0q-33 0 -51 21.5t-14 54.5l147 928q10 49 60 49h229q31 0 50.5 -22.5t13.5 -53.5l-146 -928q-10 -49 -59 -49h-230z" />
    <glyph glyph-name="Iacute.aalt" horiz-adv-x="817" 
d="M934 1505q14 -23 6 -48t-31 -40l-413 -243q-43 -23 -76 16l-39 55q-16 18 -13 42t23 38l373 317q23 20 52.5 16.5t43.5 -30.5zM231 0q-33 0 -51 21.5t-14 54.5l147 928q10 49 60 49h229q31 0 50.5 -22.5t13.5 -53.5l-146 -928q-10 -49 -59 -49h-230z" />
    <glyph glyph-name="Icircumflex.aalt" horiz-adv-x="817" 
d="M446 1649q29 29 47.5 36t53.5 7h76q35 0 52 -9.5t38 -37.5l256 -326q31 -41 -4 -76l-60 -63q-14 -16 -36.5 -19.5t-41.5 10.5l-198 177q-49 41 -66.5 43t-62.5 -25l-260 -168q-47 -27 -78 14l-41 56q-31 41 6 78zM231 0q-33 0 -51 21.5t-14 54.5l147 928q10 49 60 49h229
q31 0 50.5 -22.5t13.5 -53.5l-146 -928q-10 -49 -59 -49h-230z" />
    <glyph glyph-name="Idieresis.aalt" horiz-adv-x="817" 
d="M262 1192q-106 0 -157.5 60.5t-34.5 164.5q20 176 215 176q102 0 156.5 -56t39.5 -157q-12 -90 -70.5 -139t-148.5 -49zM817 1192q-104 0 -154.5 60.5t-35.5 164.5q20 176 213 176q104 0 158.5 -56t39.5 -157q-12 -92 -70.5 -140t-150.5 -48zM231 0q-33 0 -51 21.5
t-14 54.5l147 928q10 49 60 49h229q31 0 50.5 -22.5t13.5 -53.5l-146 -928q-10 -49 -59 -49h-230z" />
    <glyph glyph-name="Idotaccent.aalt" horiz-adv-x="817" 
d="M537 1192q-104 0 -155.5 60.5t-35.5 164.5q20 176 213 176q104 0 158.5 -56t40.5 -157q-12 -90 -70.5 -139t-150.5 -49zM231 0q-33 0 -51 21.5t-14 54.5l147 928q10 49 60 49h229q31 0 50.5 -22.5t13.5 -53.5l-146 -928q-10 -49 -59 -49h-230z" />
    <glyph glyph-name="Igrave.aalt" horiz-adv-x="817" 
d="M207 1411q-27 16 -32 44t15 52l107 131q20 23 48 24t48 -22l291 -309q41 -43 2 -82l-59 -65q-33 -37 -72 -8zM231 0q-33 0 -51 21.5t-14 54.5l147 928q10 49 60 49h229q31 0 50.5 -22.5t13.5 -53.5l-146 -928q-10 -49 -59 -49h-230z" />
    <glyph glyph-name="Imacron.aalt" horiz-adv-x="817" 
d="M1051 1311q-4 -23 -20.5 -37t-37.5 -14h-901q-29 0 -47 20t-14 51l20 158q2 23 18.5 37t39.5 14h901q29 0 47 -21.5t14 -50.5zM231 0q-33 0 -51 21.5t-14 54.5l147 928q10 49 60 49h229q31 0 50.5 -22.5t13.5 -53.5l-146 -928q-10 -49 -59 -49h-230z" />
    <glyph glyph-name="Iogonek.aalt" horiz-adv-x="817" 
d="M602 1053q31 0 50.5 -22.5t13.5 -53.5l-146 -928q-10 -49 -59 -49q-305 -96 -305 -170q0 -35 61 -35q20 0 41 2t39 5t25 3q35 4 57 -12t22 -49l-2 -78q0 -55 -49 -65q-129 -20 -211 -21q-266 0 -266 174q0 104 82 175t215 108q-6 20 -4 39l147 928q10 49 60 49h229z" />
    <glyph glyph-name="J.aalt" horiz-adv-x="1462" 
d="M57 123q-20 14 -24 38.5t10 45.5l111 168q14 25 41.5 29t48.5 -13q143 -115 383 -115q170 0 265 76t124 248l67 406q2 20 18.5 34.5t39.5 14.5h231q31 0 49.5 -21.5t14.5 -54.5l-70 -438q-49 -309 -227 -442.5t-512 -133.5q-345 0 -570 158z" />
    <glyph glyph-name="K.aalt" horiz-adv-x="1835" 
d="M231 0q-33 0 -51 21.5t-14 54.5l147 928q10 49 60 49h229q31 0 50.5 -22.5t13.5 -53.5l-48 -307q-4 -23 11.5 -34t36.5 1l591 369q70 45 134 45h120q76 0 97.5 -68t-43.5 -113l-332 -204q-18 -12 -6 -33l364 -512q29 -43 7.5 -82t-70.5 -39h-266q-31 0 -45 27l-283 413
q-10 20 -33 6l-342 -215q-12 -12 -12 -18l-27 -164q-10 -49 -59 -49h-230z" />
    <glyph glyph-name="uni0136.aalt" horiz-adv-x="1835" 
d="M231 0q-33 0 -51 21.5t-14 54.5l147 928q10 49 60 49h229q31 0 50.5 -22.5t13.5 -53.5l-48 -307q-4 -23 11.5 -34t36.5 1l591 369q70 45 134 45h120q76 0 97.5 -68t-43.5 -113l-332 -204q-18 -12 -6 -33l364 -512q29 -43 7.5 -82t-70.5 -39h-266q-31 0 -45 27l-283 413
q-10 20 -33 6l-342 -215q-12 -12 -12 -18l-27 -164q-10 -49 -59 -49h-230zM575 -594q-29 2 -45 24.5t-12 51.5l10 51q10 53 70 47q125 -16 199 27q72 33 84 55q12 10 2 14q-6 2 -17 -8q-43 -29 -112 -28q-92 0 -132 37.5t-30 103.5q18 127 239 127q147 0 225.5 -72
t61.5 -198q-23 -137 -168.5 -194.5t-374.5 -37.5z" />
    <glyph glyph-name="L.aalt" horiz-adv-x="1546" 
d="M1343 291q31 0 49.5 -20.5t14.5 -51.5l-18 -168q-2 -23 -19.5 -37t-40.5 -14h-1098q-33 0 -51 21.5t-14 54.5l147 928q10 51 60 51h227q33 0 52.5 -21.5t13.5 -54.5l-99 -606q-6 -31 7.5 -56.5t52.5 -25.5h716z" />
    <glyph glyph-name="Lacute.aalt" horiz-adv-x="1546" 
d="M938 1507q14 -23 6 -48t-31 -40l-413 -243q-43 -23 -76 16l-39 55q-16 18 -13 42t23 38l373 318q23 20 52.5 16t43.5 -31zM1343 291q31 0 49.5 -20.5t14.5 -51.5l-18 -168q-2 -23 -19.5 -37t-40.5 -14h-1098q-33 0 -51 21.5t-14 54.5l147 928q10 51 60 51h227
q33 0 52.5 -21.5t13.5 -54.5l-99 -606q-6 -31 7.5 -56.5t52.5 -25.5h716z" />
    <glyph glyph-name="Lcaron.aalt" horiz-adv-x="1546" 
d="M1343 291q31 0 49.5 -20.5t14.5 -51.5l-18 -168q-2 -23 -19.5 -37t-40.5 -14h-1098q-33 0 -51 21.5t-14 54.5l147 928q10 51 60 51h227q33 0 52.5 -21.5t13.5 -54.5l-99 -606q-6 -31 7.5 -56.5t52.5 -25.5h716zM889 502q-33 0 -51.5 23.5t-10.5 56.5l99 419q8 47 55 48
l170 -2q41 0 61.5 -32t1.5 -69l-178 -414q-14 -31 -47 -30h-100z" />
    <glyph glyph-name="uni013B.aalt" horiz-adv-x="1546" 
d="M1343 291q31 0 49.5 -20.5t14.5 -51.5l-18 -168q-2 -23 -19.5 -37t-40.5 -14h-1098q-33 0 -51 21.5t-14 54.5l147 928q10 51 60 51h227q33 0 52.5 -21.5t13.5 -54.5l-99 -606q-6 -31 7.5 -56.5t52.5 -25.5h716zM436 -565q-29 2 -45 24.5t-12 51.5l10 51q10 53 70 47
q125 -16 198 26q72 33 84 56q12 10 2 14q-6 2 -16 -8q-43 -29 -113 -29q-92 0 -132 38t-29 104q18 127 239 127q147 0 225 -72t62 -199q-23 -137 -168.5 -194t-374.5 -37z" />
    <glyph glyph-name="Lslash.aalt" horiz-adv-x="1546" 
d="M1343 291q31 0 49.5 -20.5t14.5 -51.5l-18 -168q-2 -23 -19.5 -37t-40.5 -14h-1098q-33 0 -51 21.5t-14 54.5l39 248l-49 -25q-25 -14 -49.5 -5t-34.5 36l-60 133q-10 23 -2 45t31 33l217 108l55 355q10 51 60 51h227q33 0 52.5 -21.5t13.5 -54.5l-23 -133l244 123
q25 14 49.5 5t34.5 -36l59 -135q10 -23 2 -44.5t-31 -31.5l-409 -207l-25 -147q-6 -31 7.5 -56.5t52.5 -25.5h716z" />
    <glyph glyph-name="M.aalt" horiz-adv-x="2320" 
d="M2105 1053q31 0 50.5 -22.5t13.5 -53.5l-148 -928q-6 -49 -57 -49h-221q-33 0 -50.5 22.5t-13.5 53.5l68 405q6 37 -3 48.5t-22.5 5t-29.5 -20.5l-406 -367q-53 -47 -96 -47h-174q-37 0 -72 47l-299 394q-8 10 -20.5 13t-21.5 -4t-11 -22l-80 -479q-10 -49 -59 -49h-222
q-33 0 -51 21.5t-14 54.5l147 928q10 49 60 49h297q29 0 43 -21l395 -520q39 -51 92 -4l586 532q12 12 33 13h286z" />
    <glyph glyph-name="N.aalt" horiz-adv-x="1923" 
d="M1708 1055q31 0 49.5 -21.5t14.5 -54.5l-148 -930q-6 -49 -57 -49h-283q-20 0 -35 14l-600 588q-14 12 -30.5 7t-18.5 -23l-88 -537q-10 -49 -59 -49h-222q-33 0 -51 21.5t-14 54.5l147 928q10 51 60 51h282q18 0 33 -15l604 -589q14 -12 31.5 -6t19.5 24l84 535
q2 23 18.5 37t39.5 14h223z" />
    <glyph glyph-name="Nacute.aalt" horiz-adv-x="1923" 
d="M1483 1507q14 -23 6 -48t-31 -40l-414 -243q-43 -23 -75 16l-39 55q-16 18 -13 42t23 38l373 318q23 20 52.5 16t43.5 -31zM1708 1055q31 0 49.5 -21.5t14.5 -54.5l-148 -930q-6 -49 -57 -49h-283q-20 0 -35 14l-600 588q-14 12 -30.5 7t-18.5 -23l-88 -537
q-10 -49 -59 -49h-222q-33 0 -51 21.5t-14 54.5l147 928q10 51 60 51h282q18 0 33 -15l604 -589q14 -12 31.5 -6t19.5 24l84 535q2 23 18.5 37t39.5 14h223z" />
    <glyph glyph-name="Ncaron.aalt" horiz-adv-x="1923" 
d="M1200 1192q-29 -29 -47 -36t-53 -7h-76q-35 0 -52.5 9t-37.5 38l-256 326q-31 41 4 75l59 64q14 16 37 19t41 -11l199 -176q49 -41 66.5 -43t62.5 25l260 167q47 27 78 -14l41 -55q31 -41 -6 -78zM1708 1055q31 0 49.5 -21.5t14.5 -54.5l-148 -930q-6 -49 -57 -49h-283
q-20 0 -35 14l-600 588q-14 12 -30.5 7t-18.5 -23l-88 -537q-10 -49 -59 -49h-222q-33 0 -51 21.5t-14 54.5l147 928q10 51 60 51h282q18 0 33 -15l604 -589q14 -12 31.5 -6t19.5 24l84 535q2 23 18.5 37t39.5 14h223z" />
    <glyph glyph-name="uni0145.aalt" horiz-adv-x="1923" 
d="M1708 1055q31 0 49.5 -21.5t14.5 -54.5l-148 -930q-6 -49 -57 -49h-283q-20 0 -35 14l-600 588q-14 12 -30.5 7t-18.5 -23l-88 -537q-10 -49 -59 -49h-222q-33 0 -51 21.5t-14 54.5l147 928q10 51 60 51h282q18 0 33 -15l604 -589q14 -12 31.5 -6t19.5 24l84 535
q2 23 18.5 37t39.5 14h223zM565 -594q-29 2 -45 24.5t-12 51.5l10 51q10 53 70 47q125 -16 198 27q72 33 84 55q12 10 2 14q-6 2 -16 -8q-43 -29 -113 -28q-92 0 -132 37.5t-29 103.5q18 127 239 127q147 0 225 -72t62 -198q-23 -137 -168.5 -194.5t-374.5 -37.5z" />
    <glyph glyph-name="Eng.aalt" horiz-adv-x="1955" 
d="M1049 -358q-240 0 -412 96q-23 10 -29 34.5t6 49.5l88 158q14 27 40 31.5t53 -11.5q100 -70 231 -70q111 0 158 60.5t-8 111.5l-508 498q-14 14 -32 8t-20 -26l-88 -533q-10 -49 -59 -49h-221q-33 0 -51.5 21.5t-14.5 54.5l148 928q10 51 59 51h283q18 0 33 -15l604 -589
q16 -14 31.5 -8t19.5 24l84 537q10 51 57 51h223q31 0 49.5 -21.5t14.5 -54.5l-129 -811q-80 -526 -610 -526z" />
    <glyph glyph-name="Ntilde.aalt" horiz-adv-x="1923" 
d="M647 1184q-31 0 -49 20.5t-14 50.5q27 188 111.5 275.5t199.5 87.5q47 0 84 -11.5t55.5 -22.5t57.5 -42q14 -8 33.5 -23.5t29.5 -22.5t24.5 -13t28.5 -6q61 0 82 98q18 41 49 41h164q29 0 48.5 -21.5t15.5 -52.5q-31 -186 -124 -276t-214 -90q-86 0 -178 75
q-12 10 -35 27.5t-31 24t-21.5 11.5t-25.5 5q-29 0 -49.5 -25.5t-26.5 -70.5q-16 -39 -49 -39h-166zM1708 1055q31 0 49.5 -21.5t14.5 -54.5l-148 -930q-6 -49 -57 -49h-283q-20 0 -35 14l-600 588q-14 12 -30.5 7t-18.5 -23l-88 -537q-10 -49 -59 -49h-222q-33 0 -51 21.5
t-14 54.5l147 928q10 51 60 51h282q18 0 33 -15l604 -589q14 -12 31.5 -6t19.5 24l84 535q2 23 18.5 37t39.5 14h223z" />
    <glyph glyph-name="O.aalt" horiz-adv-x="2007" 
d="M913 -37q-240 0 -401.5 42t-240 122t-102.5 178t-3 225l6 39q84 522 938 523q160 0 279.5 -15.5t221 -53.5t160 -99.5t83 -157.5t6.5 -225l-7 -39q-41 -289 -278.5 -414t-661.5 -125zM938 279q522 0 555 247l4 27q18 133 -81 180t-337 47q-508 0 -549 -233l-4 -25
q-12 -74 13.5 -124t87 -75.5t134.5 -34.5t177 -9z" />
    <glyph glyph-name="Oacute.aalt" horiz-adv-x="2007" 
d="M1524 1507q14 -23 6 -48t-31 -40l-414 -243q-43 -23 -75 16l-39 55q-16 18 -13 42t23 38l373 318q23 20 52.5 16t43.5 -31zM913 -37q-240 0 -401.5 42t-240 122t-102.5 178t-3 225l6 39q84 522 938 523q160 0 279.5 -15.5t221 -53.5t160 -99.5t83 -157.5t6.5 -225l-7 -39
q-41 -289 -278.5 -414t-661.5 -125zM938 279q522 0 555 247l4 27q18 133 -81 180t-337 47q-508 0 -549 -233l-4 -25q-12 -74 13.5 -124t87 -75.5t134.5 -34.5t177 -9z" />
    <glyph glyph-name="Ocircumflex.aalt" horiz-adv-x="2007" 
d="M1036 1651q29 29 47.5 36t53.5 7h75q35 0 52.5 -9.5t38.5 -37.5l256 -326q31 -41 -5 -76l-59 -63q-14 -16 -36.5 -19.5t-41.5 11.5l-198 176q-49 41 -66.5 43t-62.5 -25l-261 -168q-47 -27 -77 14l-41 56q-31 41 6 78zM913 -37q-240 0 -401.5 42t-240 122t-102.5 178
t-3 225l6 39q84 522 938 523q160 0 279.5 -15.5t221 -53.5t160 -99.5t83 -157.5t6.5 -225l-7 -39q-41 -289 -278.5 -414t-661.5 -125zM938 279q522 0 555 247l4 27q18 133 -81 180t-337 47q-508 0 -549 -233l-4 -25q-12 -74 13.5 -124t87 -75.5t134.5 -34.5t177 -9z" />
    <glyph glyph-name="Odieresis.aalt" horiz-adv-x="2007" 
d="M852 1194q-106 0 -157.5 60.5t-35.5 164.5q20 176 215 176q102 0 156.5 -56t40.5 -157q-12 -90 -70.5 -139t-148.5 -49zM1407 1194q-104 0 -154.5 60.5t-35.5 164.5q20 176 213 176q104 0 158 -56t40 -157q-12 -92 -70.5 -140t-150.5 -48zM913 -37q-240 0 -401.5 42
t-240 122t-102.5 178t-3 225l6 39q84 522 938 523q160 0 279.5 -15.5t221 -53.5t160 -99.5t83 -157.5t6.5 -225l-7 -39q-41 -289 -278.5 -414t-661.5 -125zM938 279q522 0 555 247l4 27q18 133 -81 180t-337 47q-508 0 -549 -233l-4 -25q-12 -74 13.5 -124t87 -75.5
t134.5 -34.5t177 -9z" />
    <glyph glyph-name="Ograve.aalt" horiz-adv-x="2007" 
d="M797 1413q-27 16 -32 44t15 52l107 131q20 23 48 24t48 -22l291 -309q41 -43 2 -82l-59 -65q-33 -37 -72 -8zM913 -37q-240 0 -401.5 42t-240 122t-102.5 178t-3 225l6 39q84 522 938 523q160 0 279.5 -15.5t221 -53.5t160 -99.5t83 -157.5t6.5 -225l-7 -39
q-41 -289 -278.5 -414t-661.5 -125zM938 279q522 0 555 247l4 27q18 133 -81 180t-337 47q-508 0 -549 -233l-4 -25q-12 -74 13.5 -124t87 -75.5t134.5 -34.5t177 -9z" />
    <glyph glyph-name="Ohungarumlaut.aalt" horiz-adv-x="2007" 
d="M1118 1597q55 0 67.5 -51t-30.5 -96l-186 -201q-39 -39 -95 -39h-59q-37 0 -47 31t2 47l137 250q20 37 38 48t54 11h119zM1677 1597q47 0 59.5 -45t-18.5 -65l-325 -254q-33 -23 -90 -23h-56q-45 0 -50 35t24 62l243 249q27 27 43.5 34t51.5 7h118zM913 -37
q-240 0 -401.5 42t-240 122t-102.5 178t-3 225l6 39q84 522 938 523q160 0 279.5 -15.5t221 -53.5t160 -99.5t83 -157.5t6.5 -225l-7 -39q-41 -289 -278.5 -414t-661.5 -125zM938 279q522 0 555 247l4 27q18 133 -81 180t-337 47q-508 0 -549 -233l-4 -25q-12 -74 13.5 -124
t87 -75.5t134.5 -34.5t177 -9z" />
    <glyph glyph-name="Omacron.aalt" horiz-adv-x="2007" 
d="M1640 1313q-4 -23 -20 -37t-37 -14h-901q-29 0 -47.5 20.5t-13.5 50.5l20 158q2 23 18.5 37t38.5 14h901q29 0 47.5 -21.5t14.5 -50.5zM913 -37q-240 0 -401.5 42t-240 122t-102.5 178t-3 225l6 39q84 522 938 523q160 0 279.5 -15.5t221 -53.5t160 -99.5t83 -157.5
t6.5 -225l-7 -39q-41 -289 -278.5 -414t-661.5 -125zM938 279q522 0 555 247l4 27q18 133 -81 180t-337 47q-508 0 -549 -233l-4 -25q-12 -74 13.5 -124t87 -75.5t134.5 -34.5t177 -9z" />
    <glyph glyph-name="Oslash.aalt" horiz-adv-x="2007" 
d="M258 -139q-23 -14 -47.5 -7t-38.5 29l-106 187q-14 20 -8.5 44.5t28.5 39.5l104 59q23 10 9 29q-61 117 -33 288l6 39q84 522 938 523q262 0 422 -50q6 -2 14 2l215 125q23 14 47.5 8t36.5 -30l109 -189q31 -51 -21 -81l-90 -54q-14 -10 -10 -26q47 -104 27 -256l-7 -39
q-41 -289 -278.5 -414t-661.5 -125q-236 0 -395 43q-8 2 -14 -2zM938 279q522 0 555 247l4 27q18 133 -81 180t-337 47q-508 0 -549 -233l-4 -25q-12 -74 13.5 -124t87 -75.5t134.5 -34.5t177 -9z" />
    <glyph glyph-name="Otilde.aalt" horiz-adv-x="2007" 
d="M688 1182q-31 0 -49 20.5t-14 50.5q27 188 112.5 276.5t198.5 88.5q47 0 86 -12.5t53.5 -21.5t57.5 -42q12 -8 32.5 -23.5t30.5 -22.5t25.5 -13t29.5 -6q59 0 80 98q18 41 49 41h164q29 0 48.5 -21.5t15.5 -52.5q-29 -186 -122 -276t-216 -90q-86 0 -178 73
q-16 12 -36 28.5t-29 24t-22.5 12.5t-25.5 5q-27 0 -47.5 -26.5t-28.5 -69.5q-16 -41 -49 -41h-166zM913 -37q-240 0 -401.5 42t-240 122t-102.5 178t-3 225l6 39q84 522 938 523q160 0 279.5 -15.5t221 -53.5t160 -99.5t83 -157.5t6.5 -225l-7 -39q-41 -289 -278.5 -414
t-661.5 -125zM938 279q522 0 555 247l4 27q18 133 -81 180t-337 47q-508 0 -549 -233l-4 -25q-12 -74 13.5 -124t87 -75.5t134.5 -34.5t177 -9z" />
    <glyph glyph-name="OE.aalt" horiz-adv-x="2985" 
d="M840 -35q-375 0 -544 145.5t-128 428.5l4 28q39 268 261 396.5t632 128.5q328 0 455 -93q29 -18 43 0l14 45q16 10 61 11h1178q31 0 49.5 -21.5t13.5 -52.5l-24 -162q-6 -51 -55 -51h-885q-35 0 -46 -9t-16 -34l-14 -84q-4 -29 25 -29h673q72 0 66 -59l-6 -45
q-2 -20 -18.5 -34.5t-38.5 -14.5h-713q-18 0 -23 -19l-20 -118q-4 -31 24 -31h889q31 0 49.5 -21.5t14.5 -52.5l-25 -168q-4 -23 -20.5 -36t-38.5 -13h-1194q-29 0 -45 14l-4 49q-2 6 -7.5 8.5t-14.5 0.5t-17.5 -5.5t-23.5 -9.5t-28 -10q-181 -82 -503 -82zM940 276
q317 0 465 91q37 25 47 71l31 189q10 57 -31 80q-96 78 -373 77q-516 0 -553 -227l-6 -31q-23 -137 92 -193.5t328 -56.5z" />
    <glyph glyph-name="P.aalt" horiz-adv-x="1742" 
d="M231 0q-33 0 -51 21.5t-14 54.5l147 928q10 49 60 49h819q236 0 356.5 -71t120.5 -245q0 -236 -154.5 -353.5t-480.5 -117.5h-471q-18 0 -22 -18l-31 -199q-10 -49 -59 -49h-220zM616 543h492q207 0 207 135q0 88 -133 88h-514q-45 0 -52 -45l-24 -150q-2 -12 6 -20
t18 -8z" />
    <glyph glyph-name="Thorn.aalt" horiz-adv-x="1744" 
d="M248 0q-33 0 -51.5 21.5t-14.5 54.5l148 928q10 51 59 51h217q29 0 50.5 -18.5t15.5 -43.5l-6 -32q-4 -25 24 -25h510q240 0 346.5 -68.5t106.5 -257.5q0 -207 -163 -321.5t-466 -114.5h-461q-23 0 -22 -18l-17 -107q-6 -49 -57 -49h-219zM612 436h445q244 0 243 135
q0 94 -163 95h-496q-20 0 -25 -19l-28 -182q-5 -29 24 -29z" />
    <glyph glyph-name="Q.aalt" horiz-adv-x="2007" 
d="M1503 -270q-33 -43 -78 -17l-442 238q-33 14 -70 14h-114q-397 16 -536.5 163.5t-96.5 401.5l6 39q84 522 938 523q160 0 279.5 -15.5t221 -53.5t160 -99.5t83 -157.5t6.5 -225l-7 -39q-47 -319 -352 -445q-20 -10 -25.5 -27.5t15.5 -29.5l86 -35q29 -14 36 -42.5
t-11 -53.5zM938 279q522 0 555 247l4 27q18 133 -81 180t-337 47q-508 0 -549 -233l-4 -25q-12 -74 13.5 -124t87 -75.5t134.5 -34.5t177 -9z" />
    <glyph glyph-name="R.aalt" horiz-adv-x="1822" 
d="M231 0q-33 0 -51 21.5t-14 54.5l147 928q10 49 60 49h878q248 0 361.5 -69t113.5 -243q0 -305 -315 -399q-39 -16 -12 -45l131 -152q41 -45 20.5 -95t-82.5 -50h-231q-25 0 -39 18l-182 234q-33 43 -68 43h-381q-18 0 -22 -21l-35 -225q-10 -49 -59 -49h-220zM621 559
h540q100 0 156.5 34t56.5 93q0 82 -141 82h-555q-33 0 -44 -9t-16 -32l-22 -139q-2 -12 6.5 -20.5t18.5 -8.5z" />
    <glyph glyph-name="Racute.aalt" horiz-adv-x="1822" 
d="M1405 1507q14 -23 6 -48t-31 -40l-413 -243q-43 -23 -76 16l-39 55q-16 18 -13 42t23 38l373 318q23 20 52.5 16t43.5 -31zM231 0q-33 0 -51 21.5t-14 54.5l147 928q10 49 60 49h878q248 0 361.5 -69t113.5 -243q0 -305 -315 -399q-39 -16 -12 -45l131 -152
q41 -45 20.5 -95t-82.5 -50h-231q-25 0 -39 18l-182 234q-33 43 -68 43h-381q-18 0 -22 -21l-35 -225q-10 -49 -59 -49h-220zM621 559h540q100 0 156.5 34t56.5 93q0 82 -141 82h-555q-33 0 -44 -9t-16 -32l-22 -139q-2 -12 6.5 -20.5t18.5 -8.5z" />
    <glyph glyph-name="Rcaron.aalt" horiz-adv-x="1822" 
d="M1122 1192q-29 -29 -47 -36t-53 -7h-76q-35 0 -52 9t-38 38l-256 326q-31 41 4 75l60 64q14 16 36.5 19t40.5 -11l199 -176q49 -41 66.5 -43t62.5 25l260 167q47 27 78 -14l41 -55q31 -41 -6 -78zM231 0q-33 0 -51 21.5t-14 54.5l147 928q10 49 60 49h878
q248 0 361.5 -69t113.5 -243q0 -305 -315 -399q-39 -16 -12 -45l131 -152q41 -45 20.5 -95t-82.5 -50h-231q-25 0 -39 18l-182 234q-33 43 -68 43h-381q-18 0 -22 -21l-35 -225q-10 -49 -59 -49h-220zM621 559h540q100 0 156.5 34t56.5 93q0 82 -141 82h-555q-33 0 -44 -9
t-16 -32l-22 -139q-2 -12 6.5 -20.5t18.5 -8.5z" />
    <glyph glyph-name="uni0156.aalt" horiz-adv-x="1822" 
d="M231 0q-33 0 -51 21.5t-14 54.5l147 928q10 49 60 49h878q248 0 361.5 -69t113.5 -243q0 -305 -315 -399q-39 -16 -12 -45l131 -152q41 -45 20.5 -95t-82.5 -50h-231q-25 0 -39 18l-182 234q-33 43 -68 43h-381q-18 0 -22 -21l-35 -225q-10 -49 -59 -49h-220zM621 559
h540q100 0 156.5 34t56.5 93q0 82 -141 82h-555q-33 0 -44 -9t-16 -32l-22 -139q-2 -12 6.5 -20.5t18.5 -8.5zM487 -594q-29 2 -45 24.5t-12 51.5l10 51q10 53 70 47q125 -16 199 27q72 33 84 55q12 10 2 14q-6 2 -17 -8q-43 -29 -112 -28q-92 0 -132 37.5t-30 103.5
q18 127 239 127q147 0 225.5 -72t61.5 -198q-23 -137 -168.5 -194.5t-374.5 -37.5z" />
    <glyph glyph-name="S.aalt" horiz-adv-x="1716" 
d="M831 -35q-465 0 -700 107q-49 20 -33 75l60 168q10 29 34.5 38t53.5 -5q213 -109 643 -108q315 0 315 90q0 53 -127 59l-415 25q-274 18 -383 95t-109 216q0 106 54.5 180t157.5 114t226 56.5t285 16.5q369 0 645 -86q33 -8 45 -36t-2 -59l-72 -143q-20 -45 -67 -31
q-223 76 -594 82q-176 0 -253 -19.5t-77 -64.5q0 -57 199 -69l381 -21q238 -12 348 -74.5t110 -214.5q0 -391 -725 -391z" />
    <glyph glyph-name="Sacute.aalt" horiz-adv-x="1716" 
d="M1352 1507q14 -23 6 -48t-31 -40l-414 -243q-43 -23 -75 16l-39 55q-16 18 -13.5 42t23.5 38l373 318q23 20 52.5 16t43.5 -31zM831 -35q-465 0 -700 107q-49 20 -33 75l60 168q10 29 34.5 38t53.5 -5q213 -109 643 -108q315 0 315 90q0 53 -127 59l-415 25
q-274 18 -383 95t-109 216q0 106 54.5 180t157.5 114t226 56.5t285 16.5q369 0 645 -86q33 -8 45 -36t-2 -59l-72 -143q-20 -45 -67 -31q-223 76 -594 82q-176 0 -253 -19.5t-77 -64.5q0 -57 199 -69l381 -21q238 -12 348 -74.5t110 -214.5q0 -391 -725 -391z" />
    <glyph glyph-name="Scaron.aalt" horiz-adv-x="1716" 
d="M1069 1192q-29 -29 -47 -36t-53 -7h-76q-35 0 -52.5 9t-37.5 38l-256 326q-31 41 4 75l59 64q14 16 37 19t41 -11l199 -176q49 -41 66.5 -43t62.5 25l260 167q47 27 78 -14l41 -55q31 -41 -6 -78zM831 -35q-465 0 -700 107q-49 20 -33 75l60 168q10 29 34.5 38t53.5 -5
q213 -109 643 -108q315 0 315 90q0 53 -127 59l-415 25q-274 18 -383 95t-109 216q0 106 54.5 180t157.5 114t226 56.5t285 16.5q369 0 645 -86q33 -8 45 -36t-2 -59l-72 -143q-20 -45 -67 -31q-223 76 -594 82q-176 0 -253 -19.5t-77 -64.5q0 -57 199 -69l381 -21
q238 -12 348 -74.5t110 -214.5q0 -391 -725 -391z" />
    <glyph glyph-name="Scedilla.c2sc" horiz-adv-x="1716" 
d="M848 819q-176 0 -253 -19.5t-77 -64.5q0 -57 199 -69l381 -21q238 -12 348 -74.5t110 -214.5q0 -391 -725 -391h-30l-4 -18q-4 -16 9 -25.5t50 -17.5q92 -12 137 -56.5t37 -113.5q-20 -186 -321 -187q-115 0 -201 21q-53 14 -39 72l12 41q16 57 78 40q45 -10 121 -10
q113 0 113 37q2 20 -28 29.5t-99 11.5q-96 6 -78 92l22 90q-305 20 -479 101q-49 20 -33 75l60 168q10 29 34.5 38t53.5 -5q213 -109 643 -108q315 0 315 90q0 53 -127 59l-415 25q-274 18 -383 95t-109 216q0 106 54.5 180t157.5 114t226 56.5t285 16.5q369 0 645 -86
q33 -8 45 -36t-2 -59l-72 -143q-20 -45 -67 -31q-223 76 -594 82z" />
    <glyph glyph-name="uni0218.aalt" horiz-adv-x="1716" 
d="M831 -35q-465 0 -700 107q-49 20 -33 75l60 168q10 29 34.5 38t53.5 -5q213 -109 643 -108q315 0 315 90q0 53 -127 59l-415 25q-274 18 -383 95t-109 216q0 106 54.5 180t157.5 114t226 56.5t285 16.5q369 0 645 -86q33 -8 45 -36t-2 -59l-72 -143q-20 -45 -67 -31
q-223 76 -594 82q-176 0 -253 -19.5t-77 -64.5q0 -57 199 -69l381 -21q238 -12 348 -74.5t110 -214.5q0 -391 -725 -391zM408 -594q-29 2 -45.5 24.5t-12.5 51.5l10 51q10 53 70 47q125 -16 199 27q72 33 84 55q12 10 2 14q-6 2 -17 -8q-43 -29 -112 -28q-92 0 -132 37.5
t-30 103.5q18 127 240 127q147 0 225 -72t61 -198q-23 -137 -168 -194.5t-374 -37.5z" />
    <glyph glyph-name="T.aalt" horiz-adv-x="1515" 
d="M580 0q-31 0 -50.5 21.5t-13.5 52.5l105 667q4 29 -25 29h-408q-31 0 -49 21.5t-14 54.5l25 160q6 49 59 49h1259q31 0 49.5 -21.5t14.5 -54.5l-25 -160q-6 -49 -57 -49h-451q-18 0 -22 -18l-111 -703q-6 -49 -57 -49h-229z" />
    <glyph glyph-name="Tbar.aalt" horiz-adv-x="1515" 
d="M1468 1055q31 0 49.5 -21.5t14.5 -54.5l-25 -160q-6 -49 -57 -49h-451q-18 0 -22 -18l-21 -134q-4 -29 23 -28h258q29 0 48.5 -21.5t14.5 -50.5l-16 -131q-8 -51 -59 -51h-295q-18 0 -23 -19l-41 -268q-6 -49 -57 -49h-229q-31 0 -50.5 21.5t-13.5 52.5l37 233
q4 29 -25 29h-247q-31 0 -49.5 21.5t-14.5 50.5l16 131q2 23 18.5 37t39.5 14h287q18 0 22 18l21 133q4 29 -25 29h-408q-31 0 -49 21.5t-14 54.5l25 160q6 49 59 49h1259z" />
    <glyph glyph-name="Tcaron.aalt" horiz-adv-x="1515" 
d="M1006 1192q-29 -29 -47.5 -36t-53.5 -7h-76q-35 0 -52 9t-38 38l-256 326q-31 41 4 75l60 64q14 16 36.5 19t41.5 -11l198 -176q49 -41 66.5 -43t62.5 25l260 167q47 27 78 -14l41 -55q31 -41 -6 -78zM580 0q-31 0 -50.5 21.5t-13.5 52.5l105 667q4 29 -25 29h-408
q-31 0 -49 21.5t-14 54.5l25 160q6 49 59 49h1259q31 0 49.5 -21.5t14.5 -54.5l-25 -160q-6 -49 -57 -49h-451q-18 0 -22 -18l-111 -703q-6 -49 -57 -49h-229z" />
    <glyph glyph-name="uni0162.c2sc" horiz-adv-x="1515" 
d="M1468 1055q31 0 49.5 -21.5t14.5 -54.5l-25 -160q-6 -49 -57 -49h-451q-18 0 -22 -18l-111 -703q-6 -49 -57 -49h-35l-14 -53q-4 -16 9 -25.5t50 -17.5q92 -12 137 -56.5t37 -113.5q-20 -186 -321 -187q-115 0 -201 21q-53 14 -39 72l12 41q16 57 78 40q45 -10 121 -10
q113 0 113 37q2 20 -28 29.5t-99 11.5q-96 6 -78 92l31 119h-2q-31 0 -50.5 21.5t-13.5 52.5l105 667q4 29 -25 29h-408q-31 0 -49 21.5t-14 54.5l25 160q6 49 59 49h1259z" />
    <glyph glyph-name="uni021A.aalt" horiz-adv-x="1515" 
d="M580 0q-31 0 -50.5 21.5t-13.5 52.5l105 667q4 29 -25 29h-408q-31 0 -49 21.5t-14 54.5l25 160q6 49 59 49h1259q31 0 49.5 -21.5t14.5 -54.5l-25 -160q-6 -49 -57 -49h-451q-18 0 -22 -18l-111 -703q-6 -49 -57 -49h-229zM371 -594q-29 2 -45.5 24.5t-12.5 51.5l11 51
q10 53 69 47q125 -16 199 27q72 33 84 55q12 10 2 14q-6 2 -16 -8q-43 -29 -113 -28q-92 0 -132 37.5t-30 103.5q18 127 240 127q147 0 225 -72t61 -198q-23 -137 -168 -194.5t-374 -37.5z" />
    <glyph glyph-name="U.aalt" horiz-adv-x="1900" 
d="M893 -33q-221 0 -366.5 45t-218 132t-92 214t10.5 291l58 357q4 23 20.5 36t38.5 13h227q31 0 50.5 -22.5t13.5 -53.5l-55 -344q-35 -211 39.5 -289t273.5 -78q211 0 323.5 76t149.5 291l64 371q4 23 19 36t36 13h231q31 0 50.5 -21.5t15.5 -54.5l-66 -387
q-55 -334 -251.5 -479.5t-571.5 -145.5z" />
    </font>
</defs>
</svg>
