<?xml version="1.0" standalone="no"?>
<!DOCTYPE svg PUBLIC "-//W3C//DTD SVG 1.1//EN" "http://www.w3.org/Graphics/SVG/1.1/DTD/svg11.dtd" >
<svg xmlns="http://www.w3.org/2000/svg" xmlns:xlink="http://www.w3.org/1999/xlink" version="1.1">
<metadata>
Created by FontForge 20161003 at Mon Feb 25 19:56:48 2019
 By www-data
Copyright (c) 2017 by Emil Bertell. All rights reserved.
</metadata>
<defs>
<font id="PraktikaRounded-BlackExtIta" horiz-adv-x="0" >
  <font-face 
    font-family="Praktika Rounded Black Ext Ita"
    font-weight="900"
    font-style="italic"
    font-stretch="expanded"
    units-per-em="2048"
    panose-1="0 0 10 5 0 0 0 0 0 0"
    ascent="1638"
    descent="-410"
    x-height="961"
    cap-height="1386"
    bbox="-2078.76 -635.32 3535.31 2522.47"
    underline-thickness="0"
    underline-position="0"
    unicode-range="U+0020-25CA"
  />
<missing-glyph horiz-adv-x="970" 
d="M797 1542v-1941h-617v1941h617zM647 1411h-321v-63h127v-72h-129v-64h323v64h-129v72h129v63zM518 1161h-194v-200h323v65h-129v135zM453 1096v-70h-64v70h64zM647 907h-323v-63h129v-72h-129v-65h194v137h129v63zM647 791h-65v-127h-258v-68h323v195zM647 553h-194v-109
h65v45h64v-90h-193v154h-65v-219h323v219zM647 217h-323v-219h323v219zM582 154v-91h-193v91h193zM647 -45h-323v-66h137l-137 -90v-65h323v65h-198l135 90h63v66z" />
    <glyph glyph-name=".notdef" horiz-adv-x="970" 
d="M797 1542v-1941h-617v1941h617zM647 1411h-321v-63h127v-72h-129v-64h323v64h-129v72h129v63zM518 1161h-194v-200h323v65h-129v135zM453 1096v-70h-64v70h64zM647 907h-323v-63h129v-72h-129v-65h194v137h129v63zM647 791h-65v-127h-258v-68h323v195zM647 553h-194v-109
h65v45h64v-90h-193v154h-65v-219h323v219zM647 217h-323v-219h323v219zM582 154v-91h-193v91h193zM647 -45h-323v-66h137l-137 -90v-65h323v65h-198l135 90h63v66z" />
    <glyph glyph-name="glyph1" 
 />
    <glyph glyph-name="glyph2" horiz-adv-x="681" 
 />
    <glyph glyph-name="space" unicode=" " horiz-adv-x="614" 
 />
    <glyph glyph-name="exclam" unicode="!" horiz-adv-x="925" 
d="M319 432q-37 0 -59 25.5t-16 64.5l127 805q10 59 69 59h287q37 0 59.5 -25.5t16.5 -64.5l-127 -804q-10 -59 -70 -60h-287zM397 -39q-147 0 -207.5 61.5t-42.5 176.5q14 90 77 130t196 40q150 0 213 -57.5t47 -166.5q-14 -94 -81 -139t-202 -45z" />
    <glyph glyph-name="quotedbl" unicode="&#x22;" horiz-adv-x="1298" 
d="M315 1382q4 29 24.5 47.5t47.5 18.5h268q39 0 62.5 -28.5t13.5 -67.5l-104 -471q-4 -23 -23.5 -38.5t-44.5 -15.5h-213q-33 0 -55.5 23.5t-18.5 58.5zM846 1382q4 29 24.5 47.5t47.5 18.5h268q39 0 62.5 -28.5t13.5 -67.5l-105 -471q-4 -23 -23.5 -38.5t-43.5 -15.5h-213
q-33 0 -55.5 23.5t-18.5 58.5z" />
    <glyph glyph-name="numbersign" unicode="#" horiz-adv-x="2056" 
d="M213 0q-49 0 -76.5 29.5t-11.5 66.5l25 56q6 16 -2.5 28.5t-24.5 12.5h-14q-47 0 -71 34.5t-7 79.5l75 195q16 41 62 41h133q14 0 21 14l92 215q6 16 -2.5 28.5t-24.5 12.5h-49q-47 0 -70.5 35t-7.5 80l76 194q16 41 61 41h168q12 0 21 15l73 170q16 39 60 38h233
q49 0 74 -33.5t6 -76.5l-31 -72q-6 -16 2.5 -28.5t24.5 -12.5h471q12 0 21 15l73 170q16 39 60 38h233q49 0 74 -33.5t6 -76.5l-31 -72q-6 -16 2.5 -28.5t24.5 -12.5h49q47 0 70.5 -34.5t7.5 -79.5l-76 -195q-16 -41 -61 -41h-168q-14 0 -21 -14l-92 -215q-6 -16 2 -28.5
t25 -12.5h84q47 0 70.5 -35t7.5 -80l-76 -195q-16 -41 -62 -40h-202q-14 0 -21 -15l-59 -139q-16 -39 -60 -39h-233q-49 0 -77 29.5t-11 66.5l24 56q6 16 -2 28.5t-24 12.5h-471q-14 0 -21 -15l-59 -139q-16 -39 -60 -39h-233zM764 543h471q14 0 20 14l93 215
q6 16 -2.5 28.5t-24.5 12.5h-471q-14 0 -21 -14l-92 -215q-6 -16 2.5 -28.5t24.5 -12.5z" />
    <glyph glyph-name="dollar" unicode="$" horiz-adv-x="1767" 
d="M698 -115q-35 0 -57.5 26t-17.5 60l6 58q4 25 -23 28q-311 25 -491 119q-31 14 -38 46t11 59l133 206q37 53 96 23q184 -96 572 -96q365 0 373 55q2 23 -23 30t-111 11l-477 29q-289 16 -404.5 129.5t-92.5 283.5q25 174 171 266.5t457 112.5q18 4 23 21l6 41
q2 27 22.5 44t47.5 17h286q37 0 58.5 -25.5t17.5 -60.5l-2 -14q-4 -25 23 -29q225 -23 419 -88q35 -14 46.5 -46t-7.5 -65l-116 -204q-29 -51 -88 -31q-223 88 -641 88q-285 0 -291 -64q-2 -16 38 -23t181 -15l291 -17q332 -18 478 -108t118 -312q-45 -334 -600 -381
q-18 -4 -23 -20l-12 -92q-4 -27 -23.5 -44.5t-46.5 -17.5h-289z" />
    <glyph glyph-name="percent" unicode="%" horiz-adv-x="2516" 
d="M627 692q-231 0 -362.5 78t-102.5 258l10 64q53 334 569 333q115 0 204 -16t159 -53t101.5 -103.5t19.5 -160.5l-8 -64q-47 -336 -590 -336zM358 0q-63 0 -92.5 38t-15.5 88t61 85l1592 1141q47 35 141 34h113q98 0 126.5 -77.5t-45.5 -130.5l-1511 -1104
q-68 -47 -116 -60.5t-117 -13.5h-136zM670 969q211 0 221 73l4 35q6 41 -43 56.5t-154 15.5q-190 0 -200 -72l-4 -35q-6 -43 38 -58t138 -15zM1823 -39q-231 0 -361.5 78t-101.5 258l10 63q53 334 569 334q115 0 204 -16t160 -53t102.5 -103.5t17.5 -161.5l-10 -63
q-53 -336 -590 -336zM1866 238q209 0 221 73l6 35q6 41 -44 56.5t-155 15.5q-94 0 -143 -14.5t-55 -57.5l-6 -35q-6 -43 38 -58t138 -15z" />
    <glyph glyph-name="ampersand" unicode="&#x26;" horiz-adv-x="1843" 
d="M825 -39q-428 0 -602 110.5t-139 360.5q27 223 233 289q43 14 5 39q-150 98 -123 295q25 197 209 283.5t534 86.5q252 0 425 -27.5t333 -99.5q29 -14 38 -42.5t-5 -57.5l-115 -219q-12 -25 -37 -34t-51 1q-236 86 -586 86q-322 0 -321 -108q0 -35 46 -49.5t181 -14.5h967
q35 0 57 -25.5t18 -60.5l-22 -172q-4 -27 -23.5 -44t-46.5 -17h-84q-20 0 -22 -21l-4 -28q-39 -289 -247 -410t-618 -121zM815 362q453 2 471 138l2 12q4 29 -26 29h-437q-166 0 -232.5 -17.5t-70.5 -60.5q-4 -35 13.5 -55.5t86 -33t193.5 -12.5z" />
    <glyph glyph-name="quotesingle" unicode="'" horiz-adv-x="768" 
d="M315 1382q4 29 24.5 47.5t47.5 18.5h268q39 0 62.5 -28.5t13.5 -67.5l-104 -471q-4 -23 -23.5 -38.5t-44.5 -15.5h-213q-33 0 -55.5 23.5t-18.5 58.5z" />
    <glyph glyph-name="parenleft" unicode="(" horiz-adv-x="1157" 
d="M1018 -281q-4 -29 -23.5 -47t-50.5 -18q-266 8 -449.5 85t-273.5 210t-117.5 317.5t13.5 409.5l10 63q72 453 327 692.5t771 258.5q37 2 60.5 -23t19.5 -61l-27 -248q-4 -27 -22.5 -44.5t-45.5 -19.5q-561 -25 -651 -579l-10 -72q-20 -168 -6 -278.5t78.5 -178
t147.5 -97.5t202 -38q35 -2 55.5 -24.5t17.5 -57.5z" />
    <glyph glyph-name="parenright" unicode=")" horiz-adv-x="1157" 
d="M242 1626q4 29 23.5 47.5t49.5 18.5q266 -8 449.5 -85t273.5 -210t118 -317.5t-13 -409.5l-10 -64q-72 -453 -327 -692.5t-771 -257.5q-37 -2 -60.5 22.5t-19.5 61.5l27 248q4 27 22.5 44t44.5 19q561 25 651 580l11 71q20 168 5.5 279t-79 178.5t-147 97t-201.5 37.5
q-35 2 -55.5 24.5t-18.5 57.5z" />
    <glyph glyph-name="asterisk" unicode="*" horiz-adv-x="1259" 
d="M424 530l-141 111q-33 25 -33 62.5t33 62.5l145 113q23 18 14.5 42.5t-36.5 24.5l-123 2q-47 2 -70 38t-4 79l80 190q14 33 45 44.5t61 -7.5l178 -110q18 -10 35 0t15 32l-19 193q-4 35 17.5 58.5t56.5 23.5h192q45 0 70 -35t8 -78l-55 -125q-25 -55 -15.5 -65t66.5 18
l150 76q41 23 77.5 2.5t40.5 -68.5l21 -182q2 -35 -18.5 -57.5t-55.5 -24.5l-209 -2q-49 0 -55 -14t31 -49l121 -113q27 -27 22.5 -62.5t-37.5 -56.5l-174 -114q-37 -25 -76 -11.5t-49 58.5l-31 133q-10 47 -18 60.5t-18.5 3t-32.5 -53.5l-94 -176q-18 -33 -52 -39.5
t-63 16.5z" />
    <glyph glyph-name="plus" unicode="+" horiz-adv-x="1421" 
d="M575 145q-37 0 -59 26t-16 62l37 234q2 27 -23 27h-354q-37 0 -59.5 25.5t-16.5 62.5l25 155q10 59 67 60h389q25 0 27 22l41 266q10 59 69 60h195q37 0 59.5 -25.5t16.5 -62.5l-37 -234q-2 -27 22 -26h355q37 0 59.5 -26t16.5 -64l-25 -154q-10 -59 -68 -59h-389
q-25 0 -26 -23l-41 -266q-10 -59 -70 -60h-195z" />
    <glyph glyph-name="comma" unicode="," horiz-adv-x="661" 
d="M-82 -401q-37 2 -56.5 29.5t-11.5 62.5l23 110q10 55 74 56q147 -4 284 82q59 39 37 53q-8 4 -24 0q-45 -12 -90 -12q-70 0 -115 54t-45 146q0 244 268 244q305 0 305 -305q0 -274 -176 -405t-473 -115z" />
    <glyph glyph-name="hyphen" unicode="-" horiz-adv-x="1277" 
d="M1169 485q-10 -59 -67 -59h-912q-37 0 -59 25.5t-16 62.5l30 197q10 59 68 59h911q37 0 59.5 -25.5t16.5 -64.5z" />
    <glyph glyph-name="period" unicode="." horiz-adv-x="700" 
d="M285 -39q-135 0 -200 74t-44 201q33 205 276 204q137 0 207 -68.5t49 -189.5q-16 -109 -91.5 -165t-196.5 -56z" />
    <glyph glyph-name="slash" unicode="/" horiz-adv-x="907" 
d="M410 -268q-12 -47 -64 -47h-276q-43 0 -66.5 30.5t-11.5 73.5l526 1780q12 49 66 49h276q43 0 66.5 -31t11.5 -74z" />
    <glyph glyph-name="zero" unicode="0" horiz-adv-x="1855" 
d="M866 -39q-438 0 -620.5 189.5t-128.5 525.5l10 63q109 686 928 686q440 0 622.5 -189t128.5 -525l-10 -64q-109 -686 -930 -686zM887 362q115 0 210 27t172 99.5t95 183.5l10 71q14 86 -8.5 143.5t-76.5 86t-113.5 40t-139.5 11.5q-117 0 -212 -26.5t-170.5 -98.5
t-94.5 -184l-10 -72q-14 -84 8.5 -142.5t75.5 -87t113.5 -40t140.5 -11.5z" />
    <glyph glyph-name="one" unicode="1" horiz-adv-x="1058" 
d="M451 0q-37 0 -59.5 25.5t-16.5 62.5l129 830q4 31 -10.5 38t-32.5 -4l-182 -75q-33 -12 -62 1t-39 46l-57 178q-20 63 43 88l434 172q63 25 158 24h151q45 0 71 -25.5t19 -64.5l-194 -1237q-10 -59 -70 -59h-282z" />
    <glyph glyph-name="two" unicode="2" horiz-adv-x="1771" 
d="M193 0q-37 0 -59.5 25.5t-16.5 62.5l39 260q8 37 37 49l696 303q193 84 261.5 132.5t68.5 103.5q0 59 -49.5 78.5t-141.5 19.5q-336 0 -596 -174q-27 -18 -56.5 -13t-47.5 32l-131 196q-33 53 14 94q334 256 811 256q340 0 492.5 -95t152.5 -333q0 -182 -100.5 -305
t-306.5 -223l-121 -51q-16 -6 -23.5 -12.5t-2.5 -10.5t26 -4h450q37 0 59.5 -25.5t16.5 -62.5l-39 -244q-10 -59 -67 -59h-1366z" />
    <glyph glyph-name="three" unicode="3" horiz-adv-x="1699" 
d="M811 -39q-287 0 -454 58.5t-308 173.5q-27 20 -29 49.5t21 54.5l180 205q20 23 50 25.5t55 -17.5q96 -82 197.5 -115t271.5 -33q352 0 352 121q0 37 -28.5 47.5t-98.5 10.5h-363q-37 0 -59.5 25.5t-15.5 62.5l26 172q10 59 68 59h223q164 0 234.5 21.5t70.5 79.5
q0 45 -45 58t-166 13q-383 0 -616 -121q-70 -33 -103 33l-102 203q-14 27 -6 53.5t35 40.5q184 98 382.5 141t458.5 43q311 0 471 -82.5t160 -277.5q0 -217 -188 -315q-16 -8 -16.5 -19.5t18.5 -19.5q150 -74 149 -256q0 -238 -234.5 -366t-590.5 -128z" />
    <glyph glyph-name="four" unicode="4" horiz-adv-x="1738" 
d="M1059 0q-37 0 -59.5 25.5t-16.5 62.5l10 66q4 31 -26 30h-867q-37 0 -58.5 26t-16.5 62l36 240q2 16 15 31l792 825q16 18 43 18h314q76 0 101.5 -60t-28.5 -114l-581 -594q-16 -18 -8 -38.5t32 -20.5h295q20 0 25 21l33 219q10 59 69 59h283q37 0 59.5 -25.5t16.5 -62.5
l-29 -180q-4 -31 27 -31h102q37 0 59.5 -25.5t16.5 -64.5l-35 -225q-10 -59 -70 -60h-143q-18 0 -23 -20l-16 -105q-10 -59 -70 -59h-282z" />
    <glyph glyph-name="five" unicode="5" horiz-adv-x="1679" 
d="M750 -39q-395 0 -635 115q-61 29 -31 96l115 229q14 31 44.5 40.5t61.5 -7.5q147 -78 436 -78q180 0 268.5 25t88.5 94q0 35 -29 44t-106 9h-670q-37 0 -59.5 26t-16.5 62l111 711q10 59 69 59h1110q37 0 59.5 -25.5t16.5 -62.5l-39 -243q-10 -59 -67 -60h-703
q-45 0 -51 -43l-4 -24q-8 -51 37 -51l405 2q418 4 418 -342q0 -576 -829 -576z" />
    <glyph glyph-name="six" unicode="6" horiz-adv-x="1812" 
d="M874 -39q-242 0 -404.5 51t-242.5 146.5t-106.5 230.5t4.5 301l8 49q53 336 282.5 511t674.5 175q346 0 614 -120q33 -14 41 -47t-12 -64l-150 -225q-33 -51 -94 -23q-152 78 -418 78q-340 0 -442 -186q-18 -39 -23 -47q-6 -18 -1 -21.5t20 8.5q129 98 497 99
q289 0 434.5 -82t145.5 -269q0 -164 -59.5 -276.5t-175 -175t-258 -88t-335.5 -25.5zM858 362q199 0 295 29t96 96q0 49 -54 65.5t-204 16.5q-410 0 -409 -123q0 -51 59 -67.5t217 -16.5z" />
    <glyph glyph-name="seven" unicode="7" horiz-adv-x="1558" 
d="M1554 1386q37 0 59.5 -25.5t16.5 -62.5l-20 -133q-29 -139 -115 -233l-737 -909q-18 -23 -47 -23h-353q-70 0 -95 55.5t20 108.5l669 776q45 55 -24 55h-733q-37 0 -59.5 26t-16.5 62l39 244q10 59 67 59h1329z" />
    <glyph glyph-name="eight" unicode="8" horiz-adv-x="1978" 
d="M928 -39q-215 0 -359.5 17.5t-252 61.5t-157.5 123t-50 197q0 125 76.5 216.5t215.5 132.5q31 10 2 22q-68 29 -110.5 99.5t-42.5 152.5q0 94 31.5 167t95 120t140.5 78.5t186.5 48t214 22.5t241.5 6q184 0 309 -14t227.5 -53t151.5 -113t49 -184q0 -252 -202 -336
q-16 -6 -16.5 -17.5t16.5 -19.5q143 -68 143 -233q0 -143 -69.5 -243.5t-199.5 -153t-283.5 -75t-356.5 -22.5zM979 856q242 0 339 18.5t97 83.5q0 41 -64.5 59.5t-217.5 18.5q-223 0 -323.5 -22.5t-100.5 -83.5q0 -74 270 -74zM877 350q270 0 385.5 22.5t115.5 94.5
q0 88 -295 88q-281 0 -393 -23.5t-112 -89.5q0 -92 299 -92z" />
    <glyph glyph-name="nine" unicode="9" horiz-adv-x="1787" 
d="M795 -39q-455 0 -715 137q-55 31 -27 92l117 244q35 76 115 29q174 -100 503 -101q207 0 314 64q57 35 57 82q0 35 -115 2q-72 -20 -303 -21q-582 0 -581 381q0 162 63.5 273.5t181 171t258 85t320.5 25.5q455 0 631 -188t121 -535l-9 -55q-53 -338 -274 -512t-657 -174z
M881 817q387 0 387 123q0 49 -64.5 66.5t-245.5 17.5q-184 0 -271 -26.5t-87 -96.5q0 -49 67 -66.5t214 -17.5z" />
    <glyph glyph-name="colon" unicode=":" horiz-adv-x="700" 
d="M383 522q-135 0 -199.5 74t-44.5 201q33 205 277 204q137 0 206.5 -68.5t49.5 -189.5q-16 -109 -92 -165t-197 -56zM285 -39q-135 0 -200 74t-44 201q33 205 276 204q137 0 207 -68.5t49 -189.5q-16 -109 -91.5 -165t-196.5 -56z" />
    <glyph glyph-name="semicolon" unicode=";" horiz-adv-x="663" 
d="M350 535q-135 0 -199.5 73.5t-44.5 200.5q33 205 277 205q137 0 206.5 -68.5t49.5 -189.5q-16 -109 -92 -165t-197 -56zM-86 -430q-37 2 -56.5 29.5t-11.5 62.5l23 111q10 55 74 55q147 -4 284 82q59 39 37 53q-8 4 -24 0q-45 -12 -90 -12q-70 0 -115 54t-45 147
q0 244 268 243q305 0 305 -305q0 -274 -176 -405t-473 -115z" />
    <glyph glyph-name="less" unicode="&#x3c;" horiz-adv-x="1286" 
d="M80 426q-57 20 -47 76l49 305q6 43 45 53l1034 303q39 10 69 -11.5t32 -59.5l12 -244q2 -27 -13.5 -47.5t-41.5 -26.5l-627 -125q-10 -2 -14.5 -8t0 -13t14.5 -10l551 -126q37 -8 51 -38t2 -65l-88 -231q-10 -27 -35.5 -40.5t-54.5 -2.5z" />
    <glyph glyph-name="equal" unicode="=" horiz-adv-x="1441" 
d="M201 692q-37 0 -59.5 25.5t-16.5 64.5l25 154q10 59 69 59h1137q37 0 59.5 -25.5t16.5 -64.5l-25 -153q-10 -59 -70 -60h-1136zM135 274q-37 0 -59.5 26t-16.5 62l25 156q10 59 68 60h1136q37 0 59.5 -26t16.5 -63l-25 -155q-10 -59 -67 -60h-1137z" />
    <glyph glyph-name="greater" unicode="&#x3e;" horiz-adv-x="1286" 
d="M1231 858q57 -20 47 -76l-49 -305q-6 -43 -45 -53l-1034 -303q-39 -10 -69 11.5t-32 60.5l-12 243q-2 27 13.5 47.5t41.5 26.5l627 125q10 2 14 8t0 13.5t-14 9.5l-551 127q-37 8 -51.5 37.5t-1.5 64.5l88 231q10 27 35.5 40.5t54.5 2.5z" />
    <glyph glyph-name="question" unicode="?" horiz-adv-x="1771" 
d="M606 428q-39 0 -62.5 28.5t-13.5 67.5q45 162 145.5 233.5t266.5 92.5q279 35 279 121q0 39 -47.5 54t-180.5 15q-326 0 -569 -172q-68 -45 -109 17l-133 192q-16 23 -12 51.5t27 45.5q332 252 825 251q326 0 485.5 -91t159.5 -302q0 -217 -126 -329.5t-374 -151.5
q-188 -29 -225 -88q-20 -35 -55 -35h-281zM659 -39q-147 0 -207.5 61.5t-41.5 176.5q14 90 76.5 130t195.5 40q150 0 213 -57.5t47 -166.5q-14 -94 -81 -139t-202 -45z" />
    <glyph glyph-name="at" unicode="@" horiz-adv-x="2359" 
d="M1180 -369q-266 0 -469 49.5t-347.5 151.5t-206 275.5t-30.5 406.5l8 57q31 227 131.5 394.5t260 265.5t355 144t435.5 46q489 0 750.5 -195.5t209.5 -596.5l-8 -58q-61 -467 -530 -467q-174 0 -269 76q-16 14 -34 4q-145 -80 -324 -80q-104 0 -189 20.5t-150.5 64.5
t-96.5 121t-17 179l7 46q18 135 96 219t172 112.5t215 28.5q182 0 268 -61q16 -10 35 10l6 6q18 16 45 16h176q35 0 57.5 -25.5t18.5 -60.5l-35 -260q-10 -57 -3 -91t42 -34q100 0 129 176l10 82q27 205 -129.5 314.5t-463.5 109.5q-342 0 -551 -138t-242 -392l-6 -58
q-35 -258 136 -386t546 -128q274 0 551 56q41 8 71.5 -16.5t28.5 -65.5l-6 -199q0 -53 -43 -63q-262 -56 -610 -56zM1149 412q106 0 180 39q35 16 39 47l4 39q6 33 -22 45q-29 10 -125 10q-86 0 -142.5 -24.5t-62.5 -69.5l-2 -17q-6 -43 27.5 -56t103.5 -13z" />
    <glyph glyph-name="A" unicode="A" horiz-adv-x="1751" 
d="M90 0q-57 0 -81.5 43t3.5 92l715 1221q16 31 55 30h453q51 0 65 -49l338 -1235q10 -41 -12 -71.5t-63 -30.5h-279q-53 0 -77.5 21.5t-39.5 80.5l-12 56q-4 18 -22 18h-603q-10 0 -18 -12l-51 -94q-23 -41 -55.5 -55.5t-100.5 -14.5h-215zM758 524h278q14 0 22.5 10.5
t4.5 22.5l-78 346q-4 20 -8 33.5t-7 24t-8.5 10.5t-6.5 3t-8 -7.5t-9 -12.5t-10 -19t-13 -24l-184 -342q-10 -16 -0.5 -30.5t27.5 -14.5z" />
    <glyph glyph-name="B" unicode="B" horiz-adv-x="1830" 
d="M211 0q-37 0 -59.5 25.5t-16.5 64.5l195 1237q10 59 69 59h955q377 0 377 -315q0 -246 -203 -317q-27 -12 2 -21q205 -55 205 -264q0 -242 -160 -355.5t-438 -113.5h-926zM711 852h426q145 0 145 86q0 39 -22.5 52.5t-69.5 13.5h-467q-18 0 -23 -21l-16 -100
q-4 -31 27 -31zM639 385h510q166 0 166 104q0 63 -98 64h-564q-18 0 -22 -21l-19 -116q-4 -31 27 -31z" />
    <glyph glyph-name="C" unicode="C" horiz-adv-x="1812" 
d="M1702 369q23 -23 25 -52.5t-19 -52.5q-299 -303 -807 -303q-438 0 -615 188.5t-124 526.5l10 63q53 336 273.5 511t644.5 175q518 0 714 -282q37 -55 -18 -96l-250 -181q-49 -37 -94 13q-78 80 -163 112.5t-208 32.5q-182 0 -312 -72.5t-155 -236.5l-10 -72
q-14 -84 6.5 -142.5t72.5 -87t110.5 -40t138.5 -11.5q293 0 473 183q55 51 102 6z" />
    <glyph glyph-name="D" unicode="D" horiz-adv-x="1933" 
d="M1186 1386q387 0 538.5 -179t110.5 -513l-4 -30q-78 -664 -860 -664h-760q-37 0 -59.5 25.5t-16.5 64.5l195 1237q10 59 69 59h787zM1405 727q23 160 -42 209t-237 49h-395q-20 0 -24 -20l-80 -533q-4 -31 26 -31h359q350 0 387 287z" />
    <glyph glyph-name="E" unicode="E" horiz-adv-x="1726" 
d="M1624 1386q37 0 59.5 -25.5t16.5 -62.5l-39 -243q-10 -59 -68 -60h-860q-20 0 -24 -20l-13 -80q-4 -31 27 -31h594q37 0 59.5 -25.5t16.5 -64.5l-31 -192q-10 -57 -70 -58h-630q-18 0 -23 -20l-12 -80q-4 -31 26 -31h830q37 0 59.5 -25.5t16.5 -62.5l-39 -246
q-10 -59 -68 -59h-1241q-37 0 -59.5 25.5t-16.5 64.5l195 1237q10 59 69 59h1225z" />
    <glyph glyph-name="F" unicode="F" horiz-adv-x="1548" 
d="M1522 1386q37 0 59.5 -25.5t15.5 -64.5l-38 -252q-10 -59 -70 -59h-760q-20 0 -24 -20l-23 -146q-4 -31 27 -31h493q37 0 59.5 -25.5t16.5 -64.5l-33 -211q-10 -59 -69 -59h-533q-20 0 -25 -20l-53 -349q-10 -59 -67 -59h-287q-37 0 -59.5 25.5t-16.5 64.5l195 1237
q10 59 69 59h1123z" />
    <glyph glyph-name="G" unicode="G" horiz-adv-x="1863" 
d="M901 -39q-438 0 -615 188.5t-124 526.5l10 63q53 336 273.5 511t644.5 175q227 0 387.5 -50t296.5 -163q27 -20 26.5 -51t-22.5 -55l-205 -211q-49 -53 -107 0q-145 129 -395 129q-182 0 -312 -72.5t-155 -236.5l-10 -72q-27 -164 74.5 -222.5t312.5 -58.5q158 0 311 27
q14 0 19 19l2 26q4 29 -25 29h-405q-37 0 -59.5 25.5t-16.5 62.5l31 194q10 59 67 60h817q37 0 58.5 -25.5t17.5 -62.5l-80 -543q-4 -33 -69 -61q-111 -63 -307.5 -107.5t-440.5 -44.5z" />
    <glyph glyph-name="H" unicode="H" horiz-adv-x="1933" 
d="M1790 1386q37 0 59.5 -25.5t16.5 -64.5l-195 -1237q-10 -59 -69 -59h-287q-37 0 -59.5 25.5t-16.5 64.5l61 391q4 31 -26 31h-615q-20 0 -24 -20l-68 -433q-10 -59 -69 -59h-287q-37 0 -59.5 25.5t-16.5 64.5l195 1237q10 59 69 59h287q37 0 59.5 -25.5t16.5 -64.5
l-57 -362q-4 -31 26 -31h615q20 0 24 21l64 403q10 59 69 59h287z" />
    <glyph glyph-name="I" unicode="I" horiz-adv-x="829" 
d="M211 0q-37 0 -59.5 25.5t-16.5 64.5l195 1237q10 59 69 59h287q37 0 59.5 -25.5t16.5 -64.5l-195 -1237q-10 -59 -69 -59h-287z" />
    <glyph glyph-name="J" unicode="J" horiz-adv-x="1474" 
d="M18 156q-43 43 -2 92l170 198q53 61 117 -2q102 -96 291 -96q168 0 244.5 68.5t103.5 245.5l105 665q10 59 69 59h287q37 0 59.5 -25.5t16.5 -64.5l-115 -721q-49 -311 -234.5 -462.5t-537.5 -151.5q-381 0 -574 195z" />
    <glyph glyph-name="K" unicode="K" horiz-adv-x="1830" 
d="M1640 1384q86 0 112 -73.5t-42 -126.5l-459 -353q-16 -10 -6 -30l377 -668q29 -47 4.5 -90t-80.5 -43h-350q-41 0 -57 33l-258 477q-14 29 -39 8l-224 -172q-8 -4 -8 -12l-43 -275q-10 -59 -69 -59h-287q-37 0 -59.5 25.5t-16.5 64.5l195 1237q10 59 69 59h287
q37 0 59.5 -25.5t16.5 -64.5l-51 -331q-4 -27 15 -38.5t42 5.5l528 414q49 39 119 38h225z" />
    <glyph glyph-name="L" unicode="L" horiz-adv-x="1519" 
d="M1350 401q37 0 59.5 -25.5t15.5 -64.5l-39 -252q-10 -59 -69 -59h-1106q-37 0 -59.5 25.5t-16.5 64.5l195 1237q10 59 69 59h287q37 0 59.5 -25.5t16.5 -62.5l-133 -866q-4 -31 26 -31h695z" />
    <glyph glyph-name="M" unicode="M" horiz-adv-x="2314" 
d="M2171 1386q37 0 59.5 -25.5t16.5 -64.5l-195 -1237q-10 -59 -70 -59h-276q-37 0 -59.5 25.5t-16.5 64.5l64 402q10 61 -24 63t-54 -31l-334 -420q-16 -23 -47 -22h-262q-43 0 -60 37l-204 428q-10 20 -24.5 32.5t-30 3t-21.5 -47.5l-76 -476q-10 -59 -70 -59h-276
q-37 0 -59.5 25.5t-16.5 64.5l195 1237q10 59 69 59h359q43 0 59 -36l336 -695q8 -16 23.5 -18t25.5 12l574 715q16 23 47 22h348z" />
    <glyph glyph-name="N" unicode="N" horiz-adv-x="1906" 
d="M1763 1386q37 0 59.5 -25.5t16.5 -64.5l-190 -1210q-8 -47 -31 -66.5t-68 -19.5l-272 -2q-78 0 -123 68l-434 632q-14 27 -36.5 25t-29.5 -41l-98 -623q-10 -59 -70 -59h-276q-37 0 -59.5 25.5t-16.5 64.5l195 1237q10 59 69 59h340q33 0 52 -26l464 -670q53 -74 66 15
l96 622q10 59 70 59h276z" />
    <glyph glyph-name="O" unicode="O" horiz-adv-x="1986" 
d="M932 -39q-449 0 -636 189.5t-134 525.5l10 63q109 686 948 686q451 0 638.5 -189t133.5 -525l-10 -64q-108 -686 -950 -686zM952 362q121 0 220.5 27t179.5 99.5t98 183.5l10 71q14 86 -10.5 143.5t-80.5 86t-119.5 40t-147.5 11.5q-90 0 -168 -15.5t-149.5 -49t-120 -96
t-60.5 -148.5l-10 -72q-14 -84 10.5 -142.5t80.5 -87t119.5 -40t147.5 -11.5z" />
    <glyph glyph-name="P" unicode="P" horiz-adv-x="1697" 
d="M211 0q-37 0 -59.5 25.5t-16.5 64.5l195 1237q10 59 69 59h838q231 0 354 -94t123 -317q0 -285 -171 -435.5t-496 -150.5h-422q-20 0 -25 -20l-47 -310q-10 -59 -68 -59h-274zM694 770h391q195 0 195 137q0 57 -33 72.5t-104 15.5h-424q-20 0 -25 -20l-26 -174
q-5 -31 26 -31z" />
    <glyph glyph-name="Q" unicode="Q" horiz-adv-x="1986" 
d="M1120 1425q451 0 638.5 -189t133.5 -525l-10 -64q-63 -403 -377 -569l97 -55q31 -18 37 -50t-15 -61l-133 -178q-16 -23 -44 -28t-52 11l-373 246q-29 -2 -90 -2q-449 0 -636 189.5t-134 525.5l10 63q108 686 948 686zM594 643q-14 -84 10.5 -142.5t80.5 -87t119.5 -40
t147.5 -11.5q121 0 220.5 27t179.5 99.5t98 183.5l10 71q14 86 -10.5 143.5t-80.5 86t-119.5 40t-147.5 11.5q-90 0 -168 -15.5t-149.5 -49t-120 -96t-60.5 -148.5z" />
    <glyph glyph-name="R" unicode="R" horiz-adv-x="1753" 
d="M211 0q-37 0 -59.5 25.5t-16.5 64.5l195 1237q10 59 69 59h834q250 0 376 -94t126 -321q0 -401 -338 -516q-35 -10 -17 -41l181 -271q33 -51 8 -97t-84 -46h-299q-35 0 -53 29l-228 358q-6 10 -18 10h-107h-155q-20 0 -25 -20l-47 -318q-10 -59 -68 -59h-274zM692 770
h387q221 0 221 137q0 57 -32.5 72.5t-112.5 15.5h-438q-20 0 -25 -20l-26 -174q-5 -31 26 -31z" />
    <glyph glyph-name="S" unicode="S" horiz-adv-x="1679" 
d="M778 -39q-473 0 -725 166q-53 37 -16 94l147 240q18 31 50 36t61 -16q180 -129 504 -129q319 0 319 74q0 29 -42 40t-156 19l-234 17q-487 37 -487 405q0 518 790 518q393 0 672 -112q33 -14 42 -47t-9 -64l-150 -241q-33 -51 -92 -27q-225 104 -565 104q-238 0 -238 -67
q0 -55 137 -66l291 -22q96 -6 162 -16.5t138.5 -36t115.5 -64.5t71.5 -104.5t28.5 -155.5q0 -545 -815 -545z" />
    <glyph glyph-name="T" unicode="T" horiz-adv-x="1574" 
d="M1589 1386q37 0 59.5 -25.5t16.5 -62.5l-39 -243q-10 -59 -67 -60h-453q-20 0 -25 -20l-141 -916q-10 -59 -70 -59h-286q-37 0 -59.5 25.5t-16.5 62.5l137 877q4 31 -27 30h-407q-37 0 -59.5 26t-16.5 62l39 244q10 59 68 59h1347z" />
    <glyph glyph-name="U" unicode="U" horiz-adv-x="1857" 
d="M852 -39q-768 0 -649 760l96 606q10 59 70 59h286q37 0 59.5 -25.5t16.5 -64.5l-96 -608q-31 -193 34.5 -259.5t202.5 -66.5q98 0 178 28t150 111t90 216l96 610q10 59 70 59h287q37 0 59.5 -25.5t16.5 -64.5l-97 -604q-57 -365 -266 -548t-604 -183z" />
    <glyph glyph-name="V" unicode="V" horiz-adv-x="1970" 
d="M1874 1386q59 0 83.5 -46t-7.5 -95l-785 -1216q-18 -29 -53 -29h-377q-47 0 -61 45l-414 1233q-14 43 9.5 75.5t68.5 32.5h321q53 0 66 -49l233 -796q6 -23 29 -26t35 17l498 824q18 31 53 30h301z" />
    <glyph glyph-name="W" unicode="W" horiz-adv-x="2809" 
d="M2726 1386q53 0 78.5 -40.5t-0.5 -90.5l-664 -1222q-16 -33 -57 -33h-365q-25 0 -44 15.5t-23 37.5l-158 709q-12 53 -28.5 55t-41.5 -45l-397 -739q-16 -33 -57 -33h-365q-53 0 -67 53l-285 1237q-10 39 13.5 67.5t62.5 28.5h331q59 0 70 -57l111 -667q6 -37 17 -51.5
t26.5 -5.5t31.5 44l345 703q16 35 59 34h434q27 0 45.5 -16t22.5 -41l125 -672q6 -35 17 -49t26.5 -4t31.5 43l334 703q16 37 60 36h311z" />
    <glyph glyph-name="X" unicode="X" horiz-adv-x="1970" 
d="M1784 1386q76 0 101.5 -61t-27.5 -115l-537 -536q-14 -14 0 -31l387 -485q41 -51 15.5 -104.5t-91.5 -53.5h-295q-70 0 -106 53l-258 367q-16 27 -41 2l-332 -363q-53 -59 -115 -59h-229q-76 0 -101.5 61.5t27.5 114.5l518 516q12 12 2 31l-383 512q-39 51 -13 101t89 50
h314q37 0 56 -11t42 -46l240 -373q20 -31 43 -4l358 385q29 33 50.5 41t70.5 8h215z" />
    <glyph glyph-name="Y" unicode="Y" horiz-adv-x="1970" 
d="M1817 1386q72 0 97 -56t-24 -111l-641 -711q-33 -35 -41 -54.5t-16 -82.5l-49 -312q-10 -59 -68 -59h-287q-37 0 -59 25.5t-16 62.5l43 291q10 66 5 90.5t-38 79.5l-418 700q-29 47 -4 92t82 45h291q39 0 55 -32l287 -516q8 -14 22.5 -15.5t24.5 11.5l457 532
q16 20 47 20h250z" />
    <glyph glyph-name="Z" unicode="Z" horiz-adv-x="1574" 
d="M1571 1386q37 0 58.5 -25.5t17.5 -62.5l-27 -180q-8 -53 -20.5 -73.5t-53.5 -53.5l-682 -530q-55 -45 -47 -58q8 -12 51 -12h564q37 0 59 -25.5t16 -62.5l-39 -244q-10 -59 -67 -59h-1329q-39 0 -60.5 31.5t-13.5 91.5l22 143q10 63 74 115l703 545q53 41 55 51
q0 18 -43 18h-598q-37 0 -59.5 26t-16.5 62l39 244q10 59 68 59h1329z" />
    <glyph glyph-name="bracketleft" unicode="[" horiz-adv-x="1173" 
d="M1255 1634q37 0 59.5 -25.5t16.5 -62.5l-33 -207q-10 -59 -67 -59h-361q-90 0 -117.5 -29.5t-43.5 -138.5l-154 -1008q-8 -61 6 -84.5t78 -23.5h356q37 0 59.5 -25.5t16.5 -62.5l-33 -207q-10 -59 -67 -59h-838q-37 0 -59.5 25.5t-16.5 64.5l291 1843q10 59 70 59h837z
" />
    <glyph glyph-name="backslash" unicode="\" horiz-adv-x="1030" 
d="M494 -315q-29 0 -48.5 17t-21.5 46l-197 1786q-4 35 18.5 59.5t57.5 24.5h289q29 0 48 -17.5t22 -46.5l194 -1785q4 -35 -18.5 -59.5t-57.5 -24.5h-286z" />
    <glyph glyph-name="bracketright" unicode="]" horiz-adv-x="1173" 
d="M41 -358q-37 0 -59.5 25.5t-16.5 62.5l33 207q10 59 68 59h360q90 0 117.5 29.5t44.5 138.5l153 1007q8 61 -6 85t-78 24h-356q-37 0 -59.5 25.5t-16.5 62.5l33 207q10 59 68 59h837q37 0 59.5 -25.5t16.5 -64.5l-291 -1843q-10 -59 -69 -59h-838z" />
    <glyph glyph-name="underscore" unicode="_" horiz-adv-x="1427" 
d="M1212 -317q-10 -59 -67 -60h-1102q-37 0 -59.5 25.5t-16.5 62.5l31 197q10 59 68 59h1101q37 0 59.5 -25.5t16.5 -64.5z" />
    <glyph glyph-name="a" unicode="a" horiz-adv-x="1478" 
d="M414 -39q-182 0 -262 68.5t-80 212.5q0 166 127 238.5t368 72.5h252q59 0 60 25v6q0 55 -197 55q-190 0 -320 -43q-31 -10 -56 1t-36 42l-73 197q-25 68 39 90q205 76 546 75q143 0 247 -22.5t184.5 -75.5t111.5 -151.5t8 -241.5l-71 -451q-10 -59 -70 -59h-242
q-37 0 -60.5 25.5t-15.5 62.5l3 10q4 16 -3.5 20.5t-25.5 -9.5q-160 -148 -434 -148zM600 272q72 0 161 28t89 52v4q0 12 -23 13h-235q-80 0 -80 -50q0 -47 88 -47z" />
    <glyph glyph-name="b" unicode="b" horiz-adv-x="1685" 
d="M905 -39q-207 0 -342 102q-16 12 -25.5 18.5t-20.5 11.5t-18 1t-12 -16l-6 -21q-16 -57 -69 -57h-228q-37 0 -59.5 25.5t-15.5 62.5l219 1395q10 59 69 59h283q37 0 59.5 -25.5t16.5 -62.5l-76 -481q-10 -55 6 -55q4 0 21 8q139 76 399 75q248 0 386 -120.5t97 -382.5
l-8 -47q-41 -272 -212 -381t-464 -109zM848 324q285 0 307 153l4 31q10 78 -40 104.5t-156 26.5q-260 0 -332 -90q-18 -27 -25 -60l-6 -45q-4 -37 18 -61q54 -59 230 -59z" />
    <glyph glyph-name="c" unicode="c" horiz-adv-x="1376" 
d="M1264 195q16 -25 11 -53.5t-30 -43.5q-221 -137 -633 -137q-289 0 -421 123t-95 385l8 57q76 475 713 475q332 0 520 -124q31 -20 33 -55.5t-27 -61.5l-176 -166q-35 -35 -84 -6q-96 51 -270 51q-137 0 -202.5 -30.5t-80.5 -110.5l-4 -25q-12 -80 42.5 -114.5
t160.5 -34.5q182 0 320 75q66 33 100 -24z" />
    <glyph glyph-name="d" unicode="d" horiz-adv-x="1716" 
d="M590 -39q-569 0 -492 524l6 41q76 475 658 475q242 0 375 -90q14 -10 30.5 -5t18.5 26l80 551q2 27 22.5 43t46.5 16h281q37 0 59.5 -25.5t16.5 -62.5l-211 -1395q-10 -59 -68 -59h-219q-31 0 -52.5 17.5t-21.5 41.5v21q0 18 -19.5 20t-41.5 -12q-193 -127 -469 -127z
M717 324q193 0 348 75q49 25 53 68l6 47q0 16 -3 26.5t-6 13.5t-19 17q-74 68 -285 68q-256 0 -279 -139l-4 -25q-24 -151 189 -151z" />
    <glyph glyph-name="e" unicode="e" horiz-adv-x="1415" 
d="M666 -39q-317 0 -465 124t-103 394l11 62q16 113 64 196.5t110.5 133t148.5 80t169 40.5t183 10q137 0 241.5 -22.5t189.5 -75.5t121 -151.5t18 -239.5l-6 -43q-2 -27 -22.5 -44t-47.5 -17h-715q-27 0 -26 -21v-2q0 -61 178 -61q193 0 319 45q57 23 90 -33l97 -164
q35 -59 -50 -109q-173 -102 -505 -102zM604 565h285q27 0 26 23v6q0 45 -139 45q-86 0 -137 -17.5t-51 -39.5v-7q0 -10 16 -10z" />
    <glyph glyph-name="f" unicode="f" horiz-adv-x="1165" 
d="M1352 1499q27 -14 33 -41.5t-9 -54.5l-106 -193q-31 -57 -94 -28q-98 41 -222 41q-102 0 -147 -43t-59 -129l-9 -58q-4 -31 27 -30h276q37 0 59.5 -26t16.5 -65l-31 -194q-10 -59 -67 -60h-318q-20 0 -24 -20l-84 -539q-10 -59 -70 -59h-284q-37 0 -59.5 25.5t-16.5 62.5
l80 500q4 31 -27 30h-16q-37 0 -59.5 26t-16.5 63l31 196q10 59 67 60h58q20 0 24 20l12 86q25 162 81.5 267.5t143.5 156.5t178 69.5t220 18.5q238 0 412 -82z" />
    <glyph glyph-name="g" unicode="g" horiz-adv-x="1511" 
d="M578 -438q-348 0 -510 108q-43 31 -17 84l96 187q14 31 46 38t63 -10q125 -70 295 -69q141 0 224 42t83 97v6q0 27 -94 6q-129 -29 -246 -28q-504 0 -430 477l8 53q74 449 539 448q236 0 360 -86q37 -27 60 7l8 12q23 29 57 29h250q37 0 59.5 -26t16.5 -63l-119 -759
q-23 -143 -73 -244.5t-114.5 -161t-159.5 -93.5t-186 -44t-216 -10zM676 365q164 0 244 67q25 20 30 57l8 52q8 45 -16 59q-57 41 -178 41t-177.5 -26.5t-66.5 -94.5l-4 -24q-10 -68 31 -99.5t129 -31.5z" />
    <glyph glyph-name="h" unicode="h" horiz-adv-x="1609" 
d="M1049 1001q94 0 168.5 -21.5t137 -70.5t88 -142t5.5 -220l-76 -488q-10 -59 -69 -59h-283q-37 0 -59.5 25.5t-16.5 62.5l57 373q14 92 -16.5 124.5t-112.5 32.5q-106 0 -204 -55q-59 -33 -66 -80l-67 -424q-10 -59 -68 -59h-283q-37 0 -59.5 25.5t-15.5 62.5l219 1395
q10 59 69 59h248q37 0 59.5 -25.5t16.5 -64.5l-78 -491q-4 -25 9.5 -38.5t31.5 -2.5q146 81 365 81z" />
    <glyph glyph-name="i" unicode="i" horiz-adv-x="808" 
d="M471 1077q-244 0 -199 221q39 184 301 185q113 0 164 -46t33 -157q-29 -203 -299 -203zM203 0q-37 0 -59.5 25.5t-16.5 62.5l127 815q10 59 70 60h282q37 0 59.5 -26t16.5 -63l-127 -815q-10 -59 -70 -59h-282z" />
    <glyph glyph-name="j" unicode="j" horiz-adv-x="798" 
d="M471 1077q-244 0 -199 221q39 184 301 185q113 0 164 -46t33 -157q-29 -203 -299 -203zM-129 -457q-33 -2 -53.5 18.5t-20.5 53.5l-2 215q0 29 19.5 50.5t50.5 23.5q231 20 264 235l121 764q10 59 69 60h285q37 0 59.5 -26t16.5 -63l-119 -759q-27 -166 -87 -280
t-154.5 -174t-200 -87t-248.5 -31z" />
    <glyph glyph-name="k" unicode="k" horiz-adv-x="1505" 
d="M184 0q-37 0 -59.5 25.5t-15.5 62.5l221 1395q10 59 69 59h283q37 0 59.5 -25.5t16.5 -62.5l-105 -657q-4 -27 15.5 -38t42.5 5l190 147q39 31 71 41.5t101 10.5h144q86 0 111.5 -74t-42.5 -127l-196 -156q-18 -14 -9 -31l236 -446q25 -47 0 -88t-78 -41h-340
q-41 0 -57 37l-113 246q-14 31 -41 8l-106 -84q-27 -20 -31 -55l-14 -93q-10 -59 -70 -59h-283z" />
    <glyph glyph-name="l" unicode="l" horiz-adv-x="772" 
d="M184 0q-37 0 -59.5 25.5t-15.5 62.5l219 1395q10 59 69 59h283q37 0 59.5 -25.5t16.5 -62.5l-219 -1395q-10 -59 -70 -59h-283z" />
    <glyph glyph-name="m" unicode="m" horiz-adv-x="2461" 
d="M203 0q-37 0 -59.5 25.5t-16.5 62.5l127 815q10 59 70 60h247q45 0 66 -37l6 -15q10 -23 35 -8q145 98 389 98t348 -137q18 -23 45 4q145 133 441 133q94 0 168.5 -21.5t137 -70.5t88 -142t5.5 -220l-76 -488q-10 -59 -70 -59h-282q-37 0 -59.5 25.5t-16.5 62.5l57 373
q14 92 -16.5 124.5t-112.5 32.5q-147 0 -254 -79q-16 -12 -16 -33q0 -55 -12 -117l-51 -330q-10 -59 -70 -59h-283q-37 0 -59.5 25.5t-15.5 62.5l57 373q14 92 -16.5 124.5t-112.5 32.5q-117 0 -229 -67q-35 -25 -41 -55l-68 -437q-10 -59 -68 -59h-282z" />
    <glyph glyph-name="n" unicode="n" horiz-adv-x="1628" 
d="M203 0q-37 0 -59.5 25.5t-16.5 62.5l127 815q10 59 70 60h247q45 0 66 -37l8 -17q12 -23 37 -6q141 98 385 98q94 0 169 -21.5t137.5 -70.5t88 -142t4.5 -220l-75 -488q-10 -59 -70 -59h-283q-37 0 -59.5 25.5t-15.5 62.5l57 373q14 92 -16.5 124.5t-112.5 32.5
q-80 0 -186 -45q-45 -20 -62.5 -38.5t-21.5 -49.5l-68 -426q-10 -59 -68 -59h-282z" />
    <glyph glyph-name="o" unicode="o" horiz-adv-x="1529" 
d="M690 -39q-330 0 -483.5 118t-110.5 388l8 59q76 475 721 475q156 0 274 -26.5t202.5 -85t119.5 -156.5t13 -235l-9 -60q-76 -477 -735 -477zM717 324q250 0 282 153l5 21q12 82 -38.5 111.5t-154.5 29.5q-250 0 -281 -152l-4 -20q-12 -82 38.5 -112.5t152.5 -30.5z" />
    <glyph glyph-name="p" unicode="p" horiz-adv-x="1685" 
d="M1104 1001q250 0 386 -120.5t99 -382.5l-6 -43q-39 -272 -206 -383t-439 -111q-225 0 -363 84q-14 10 -29.5 4t-17.5 -24l-57 -365q-10 -59 -68 -59h-282q-37 0 -59.5 25.5t-16.5 62.5l191 1214q10 59 69 60h225q51 0 66 -43l6 -17q6 -25 72 12q158 86 430 86zM1159 506
q14 76 -38 104.5t-158 28.5q-178 0 -316 -80q-39 -23 -45 -55l-10 -78q-4 -27 26 -57q47 -45 213 -45q295 0 324 159z" />
    <glyph glyph-name="q" unicode="q" horiz-adv-x="1730" 
d="M1546 963q37 0 59.5 -26t16.5 -63l-190 -1214q-10 -59 -70 -59h-283q-37 0 -59.5 25.5t-15.5 62.5l47 303q2 23 -12.5 34t-34.5 1q-150 -66 -396 -66q-272 0 -403 126t-96 380l8 59q76 475 641 475q317 0 442 -122q14 -16 31.5 -12.5t23.5 24.5l7 22q14 49 65 50h219z
M729 324q117 0 197 18t149 76q51 45 58 98l4 39q4 41 -56 57q-72 27 -258 27q-133 0 -200.5 -34t-79.5 -113l-4 -27q-12 -78 39 -109.5t151 -31.5z" />
    <glyph glyph-name="r" unicode="r" horiz-adv-x="1218" 
d="M1202 948q29 -14 35 -45t-12 -57l-131 -199q-31 -51 -90 -24q-57 23 -127 22q-143 0 -234 -129q-18 -25 -27 -67l-61 -390q-10 -59 -70 -59h-282q-37 0 -59.5 25.5t-16.5 62.5l127 815q10 59 70 60h217q35 0 49 -12.5t31 -49.5l6 -14q6 -14 17 -14.5t18 8.5
q115 121 313 120q131 0 227 -53z" />
    <glyph glyph-name="s" unicode="s" horiz-adv-x="1261" 
d="M575 -39q-319 0 -491 59q-59 20 -43 86l47 166q23 78 107 47q156 -55 385 -55q215 0 215 43q0 20 -35 21l-268 8q-399 10 -400 295q0 106 47 181t136.5 115t197 57t246.5 17q272 0 444 -43q39 -8 53.5 -41.5t-4.5 -68.5l-82 -158q-27 -51 -83 -33q-131 37 -375 37
q-170 0 -170 -35q0 -27 67 -28l299 -10q176 -6 259 -67.5t83 -199.5q0 -393 -635 -393z" />
    <glyph glyph-name="t" unicode="t" horiz-adv-x="1265" 
d="M1182 963q37 0 59.5 -26t15.5 -65l-30 -194q-10 -59 -68 -60h-477q-20 0 -25 -20l-10 -68q-20 -121 13.5 -160.5t115.5 -39.5q129 0 242 41q33 12 62.5 -0.5t39.5 -46.5l66 -207q16 -55 -8 -70q-168 -86 -519 -86q-537 0 -456 506l20 121q4 31 -26 30h-17q-37 0 -59.5 26
t-16.5 63l31 196q10 59 68 60h57q20 0 25 20l26 178q10 59 70 60h285q37 0 59.5 -26t15.5 -62l-22 -140q-4 -31 26 -30h437z" />
    <glyph glyph-name="u" unicode="u" horiz-adv-x="1628" 
d="M1442 961q37 0 59.5 -26t16.5 -63l-127 -815q-10 -59 -70 -59h-248q-57 0 -65 35l-4 20q-4 25 -29 8q-156 -102 -397 -102q-94 0 -169 21.5t-137.5 70.5t-88 142.5t-5.5 220.5l76 487q10 59 70 60h282q37 0 59.5 -26t16.5 -65l-59 -370q-14 -92 17.5 -125t113.5 -33
q123 0 231 70q33 20 37 57l70 432q10 59 67 60h283z" />
    <glyph glyph-name="v" unicode="v" horiz-adv-x="1533" 
d="M1411 963q59 0 85 -46.5t-7 -97.5l-531 -792q-20 -27 -51 -27h-407q-49 0 -64 43l-289 809q-14 45 8.5 78t69.5 33h355q57 0 67 -54l86 -395q6 -29 30.5 -33t39.5 23l225 424q16 35 57 35h326z" />
    <glyph glyph-name="w" unicode="w" horiz-adv-x="2299" 
d="M2191 963q57 0 81 -44.5t-5 -93.5l-481 -794q-18 -31 -53 -31h-443q-59 0 -69 57l-54 318q-4 29 -31.5 34t-41.5 -22l-179 -352q-16 -35 -57 -35h-416q-53 0 -65 49l-238 809q-12 41 11.5 73t66.5 32h356q27 0 46.5 -17.5t23.5 -44.5l41 -309q6 -47 21.5 -56.5t31 6
t25.5 38.5l164 346q16 37 59 37h459q59 0 69 -60l50 -313q6 -39 29.5 -50.5t49.5 40.5l154 344q18 39 59 39h336z" />
    <glyph glyph-name="x" unicode="x" horiz-adv-x="1533" 
d="M1272 963q76 0 100.5 -60.5t-29.5 -114.5l-284 -290q-16 -16 -4 -31l215 -324q33 -51 7 -97t-85 -46h-313q-41 0 -58 33l-96 180q-8 14 -22.5 16t-24.5 -10l-172 -199q-20 -20 -45 -20h-268q-76 0 -101.5 61.5t27.5 114.5l299 301q16 16 4 31l-203 313q-33 49 -7 95.5
t85 46.5h315q43 0 60 -37l80 -168q8 -16 23.5 -18.5t25.5 12.5l155 188q18 23 48 23h268z" />
    <glyph glyph-name="y" unicode="y" horiz-adv-x="1576" 
d="M1450 963q61 0 87 -47.5t-9 -98.5l-821 -1190q-18 -27 -52 -26h-258q-61 0 -86.5 47t8.5 98l103 162q47 57 24 117l-296 827q-14 45 8 78t69 33h355q51 0 65 -54l94 -401q20 -84 66 -10l262 434q18 31 53 31h328z" />
    <glyph glyph-name="z" unicode="z" horiz-adv-x="1267" 
d="M1182 963q37 0 60.5 -26t17.5 -63l-27 -167q-8 -55 -22.5 -77t-63.5 -52l-250 -156q-127 -78 23 -78h184q37 0 59.5 -25.5t16.5 -62.5l-31 -197q-10 -59 -68 -59h-979q-37 0 -60.5 25.5t-16.5 62.5l24 160q8 53 20.5 73.5t53.5 47.5l266 174q25 16 38 31.5t3 29.5t-63 14
h-166q-37 0 -59.5 26t-16.5 63l31 196q10 59 67 60h959z" />
    <glyph glyph-name="braceleft" unicode="{" horiz-adv-x="1114" 
d="M1186 1587q29 -8 42 -34.5t3 -57.5l-60 -180q-8 -29 -33.5 -41t-56.5 -4q-160 39 -327 39q-152 0 -152 -47q0 -27 54.5 -63t119 -70.5t118.5 -104.5t54 -158q0 -168 -203 -227q-35 -12 0 -29q137 -59 138 -178q0 -72 -49.5 -134t-120 -105t-141 -78t-120 -67t-49.5 -56
q0 -33 93 -33q168 0 352 45q35 10 64.5 -8.5t33.5 -54.5l23 -177q8 -57 -19 -65q-238 -78 -489 -78q-137 0 -234.5 27.5t-142.5 74t-63.5 92.5t-18.5 99q0 109 49 195t118 135t138.5 87t118.5 69.5t49 62.5q0 10 -8 15t-34.5 9.5t-77 6.5t-136.5 2q-39 0 -62.5 22.5
t-21.5 56.5l10 132q2 29 22.5 47t53.5 18q129 2 203 14.5t93.5 26.5t19.5 34.5t-33 44t-79 53.5t-92 70t-79 109.5t-33 155.5q0 367 516 367q246 -1 449 -60z" />
    <glyph glyph-name="bar" unicode="|" horiz-adv-x="829" 
d="M184 -276q-35 0 -57.5 25.5t-17.5 60.5l233 1783q4 27 23.5 44.5t46.5 17.5h286q35 0 57.5 -25.5t18.5 -60.5l-233 -1784q-4 -27 -23.5 -44t-46.5 -17h-287z" />
    <glyph glyph-name="braceright" unicode="}" horiz-adv-x="1114" 
d="M23 -319q-29 8 -42.5 34.5t-3.5 57.5l60 180q8 29 33.5 41t56.5 4q160 -39 328 -39q152 0 151 47q0 27 -54 62.5t-118.5 70.5t-119 104.5t-54.5 157.5q0 168 203 228q35 12 0 28q-137 59 -137 179q0 72 49 134t119.5 105t141.5 78t120 66.5t49 56.5q0 33 -92 33
q-168 0 -353 -45q-35 -10 -64.5 8t-33.5 55l-22 176q-8 57 18 66q238 78 490 78q137 0 234 -28t142 -74t63.5 -92t18.5 -99q0 -109 -49 -195t-117.5 -135t-138.5 -87t-119 -69.5t-49 -62.5q0 -10 8.5 -15.5t35 -9.5t76.5 -6t136 -2q39 0 62.5 -22.5t21.5 -57.5l-10 -131
q-2 -29 -22.5 -47t-53.5 -18q-129 -2 -202.5 -14.5t-93 -27t-19.5 -35t32.5 -44t78.5 -53t92.5 -69.5t79 -109.5t32.5 -155.5q0 -367 -516 -367q-245 1 -448 60z" />
    <glyph glyph-name="exclamdown" unicode="&#xa1;" horiz-adv-x="925" 
d="M520 1004q147 0 211 -61.5t47 -176.5q-14 -88 -79.5 -129t-198.5 -41q-150 0 -210.5 57.5t-43.5 165.5q16 94 78.5 139.5t195.5 45.5zM236 473q10 59 69 59h287q37 0 59.5 -25.5t16.5 -64.5l-123 -782q-10 -59 -70 -59h-287q-37 0 -59.5 25.5t-15.5 62.5z" />
    <glyph glyph-name="cent" unicode="&#xa2;" horiz-adv-x="1468" 
d="M629 0q-37 0 -58.5 25.5t-17.5 60.5l10 80q4 25 -20 29q-211 31 -321.5 153.5t-82.5 339.5l8 60q57 403 535 466q18 2 20 21l13 90q4 27 23.5 44t45.5 17h289q35 0 56.5 -25.5t17.5 -60.5l-10 -73q-4 -23 20 -27q137 -25 248 -82q33 -16 39 -51t-19 -61l-147 -183
q-39 -47 -94 -12q-92 51 -273 51q-324 0 -338 -149l-2 -21q-8 -82 52.5 -113.5t187.5 -31.5q213 0 340 69q70 35 106 -28l105 -193q12 -23 9 -47t-21 -37q-121 -80 -328 -106q-18 -2 -21 -21l-16 -123q-4 -27 -23.5 -44t-46.5 -17h-286z" />
    <glyph glyph-name="sterling" unicode="&#xa3;" horiz-adv-x="1751" 
d="M100 0q-35 0 -57.5 24.5t-17.5 59.5l24 225q4 27 23.5 44.5t48.5 19.5q188 8 215 88q6 20 6 47q0 25 -27 24h-165q-37 0 -58.5 26t-17.5 60l18 138q2 27 22.5 44t47.5 17h82q25 0 24 25q0 43 6 96q27 209 217.5 348t550.5 139q229 0 384 -38.5t298 -133.5q31 -20 34 -54
t-21 -60l-187 -199q-45 -49 -102 -2q-123 90 -348 90q-223 0 -309 -113q-27 -37 -35 -71q-6 -27 20 -27h531q37 0 58 -25.5t17 -60.5l-18 -137q-2 -27 -22.5 -44.5t-47.5 -17.5h-465q-25 0 -24 -16q0 -4 -1 -22.5t-3 -28.5q-6 -29 -17 -45q-12 -29 17 -29h788
q35 0 56.5 -25.5t17.5 -60.5l-31 -244q-4 -27 -23.5 -44t-45.5 -17h-1463z" />
    <glyph glyph-name="currency" unicode="&#xa4;" horiz-adv-x="1228" 
 />
    <glyph glyph-name="yen" unicode="&#xa5;" horiz-adv-x="1929" 
d="M776 0q-35 0 -57.5 25.5t-18.5 60.5l5 31q2 27 -23 26h-315q-37 0 -58.5 26t-17.5 60l20 156q4 27 23.5 44t46.5 17h350q25 0 27 23l4 39q4 27 -23 27h-321q-37 0 -58.5 25.5t-17.5 60.5l20 155q4 27 24 44.5t46 17.5h121q16 0 20.5 9t-6.5 21l-313 357q-45 53 -19.5 107
t95.5 54h221q33 0 51.5 -8t40.5 -35l326 -391q49 -59 100 -14l438 401q47 45 103 45l172 2q80 2 106.5 -65.5t-33.5 -120.5l-393 -332q-12 -10 -9 -20t20 -10h106q37 0 58.5 -26t17.5 -60l-21 -156q-2 -27 -22.5 -44t-46.5 -17h-357q-23 0 -24 -23l-4 -39q-4 -27 22 -27h326
q37 0 58.5 -25.5t17.5 -60.5l-21 -155q-2 -27 -22.5 -44.5t-47.5 -17.5h-346q-23 0 -24 -22l-8 -60q-4 -27 -23.5 -44t-46.5 -17h-289z" />
    <glyph glyph-name="brokenbar" unicode="&#xa6;" horiz-adv-x="829" 
d="M322 772q-35 0 -57.5 25.5t-18.5 60.5l96 735q4 27 23.5 44.5t46.5 17.5h288q35 0 57.5 -25.5t18.5 -60.5l-96 -735q-4 -27 -23.5 -44.5t-46.5 -17.5h-288zM561 610q35 0 57.5 -25.5t18.5 -60.5l-96 -739q-4 -27 -23.5 -44t-46.5 -17h-287q-35 0 -57.5 25.5t-17.5 60.5
l96 739q4 27 23.5 44t45.5 17h287z" />
    <glyph glyph-name="section" unicode="&#xa7;" horiz-adv-x="1767" 
d="M891 -381q-279 0 -472.5 28.5t-365.5 108.5q-29 14 -38 44t8 59l124 225q14 27 43 35t56 -6q219 -106 573 -107q338 0 352 94q2 18 -36.5 24.5t-184.5 10.5l-377 19q-117 4 -201.5 23.5t-155.5 59t-101.5 112.5t-16.5 177q14 109 113 183q20 16 4 36q-74 96 -55 256
q29 213 217 318.5t579 105.5q453 0 750 -137q29 -14 38 -45t-7 -57l-123 -225q-33 -61 -98 -29q-219 106 -574 106q-135 0 -216 -13t-106.5 -32.5t-29.5 -48.5q-2 -10 4 -15t32.5 -9.5t65.5 -6.5l117 -6l418 -18q117 -6 201.5 -24.5t155.5 -58.5t101.5 -112.5t16.5 -175.5
q-14 -119 -135 -201q-23 -12 -8 -36q59 -84 43 -213q-29 -227 -203 -338t-508 -111zM1206 432q29 0 41 10q39 29 39 62q0 37 -28.5 49t-120.5 18l-439 29l-98 6q-35 2 -49 -8q-31 -20 -37 -66q-2 -29 21.5 -41t85.5 -16l509 -37z" />
    <glyph glyph-name="copyright" unicode="&#xa9;" horiz-adv-x="2068" 
d="M983 -39q-459 0 -654.5 188.5t-152.5 524.5l8 63q92 688 957 688q459 0 655.5 -188t151.5 -524l-9 -64q-92 -688 -956 -688zM963 72q123 0 233.5 16t220 57t191.5 103.5t140 164t75 230.5l16 125q16 131 -13.5 229.5t-91 157.5t-157.5 96t-195.5 50.5t-220.5 13.5
q-123 0 -233.5 -15.5t-220 -56.5t-191.5 -103.5t-140.5 -164t-74.5 -232.5l-16 -125q-16 -129 13.5 -227t91 -157.5t157.5 -97.5t195.5 -51t220.5 -13zM1524 461q14 -27 6 -56.5t-37 -42.5q-207 -100 -489 -100q-111 0 -203 23.5t-167 72t-111 136.5t-19 204l4 39
q55 410 612 410q264 0 432 -92q33 -18 38 -53t-19 -62l-115 -135q-37 -43 -90 -12q-82 41 -221 41q-113 0 -187.5 -33t-83.5 -99l-2 -16q-8 -63 46.5 -87t162.5 -24q154 0 269 56q29 14 57.5 6t42.5 -37z" />
    <glyph glyph-name="guillemotleft" unicode="&#xab;" horiz-adv-x="1794" 
d="M748 43q-10 -31 -37 -42t-54 1l-612 285q-41 18 -35 71l31 242q6 35 39 49l688 285q37 16 67.5 -4.5t32.5 -63.5l17 -200q4 -57 -47 -74l-328 -103q-31 -10 -41 -17t0 -15t41 -19l270 -80q31 -8 43.5 -37.5t1.5 -62.5zM1628 43q-10 -31 -36.5 -42t-53.5 1l-612 285
q-41 18 -35 71l31 242q6 35 39 49l688 285q37 16 67.5 -4.5t32.5 -63.5l16 -200q4 -57 -47 -74l-327 -103q-31 -10 -41.5 -17t0 -15t41.5 -19l270 -80q31 -8 43 -37.5t2 -62.5z" />
    <glyph glyph-name="registered" unicode="&#xae;" horiz-adv-x="1757" 
d="M858 268q-385 0 -561 158t-139 432l4 23q37 281 240.5 433t576.5 152q395 0 576.5 -162.5t142.5 -447.5l-2 -22q-37 -272 -245 -419t-593 -147zM838 379q129 0 245.5 22.5t225 70.5t181.5 139t89 216l12 84q16 131 -28.5 223.5t-138 138.5t-196 64.5t-227 18.5
t-237.5 -22.5t-220.5 -73t-178 -146.5t-89.5 -227l-10 -84q-16 -125 27 -212t134 -131t190.5 -62.5t220.5 -18.5zM588 508q-35 0 -57.5 25.5t-18.5 60.5l74 569q4 27 23.5 44.5t45.5 17.5h416q156 0 230.5 -60.5t58.5 -193.5l-2 -15q-20 -162 -148 -215q-31 -14 -12 -41
l31 -47q35 -51 10 -98t-86 -47h-68q-29 0 -51 29l-80 129q-33 41 -43 43h-125q-23 0 -24 -21l-14 -119q-2 -27 -21.5 -44t-48.5 -17h-90zM819 926h217q31 0 54.5 15t23.5 36v4q0 20 -27 20h-268q-18 0 -22 -20l-4 -25q-5 -30 26 -30z" />
    <glyph glyph-name="degree" unicode="&#xb0;" horiz-adv-x="1275" 
d="M672 602q-242 0 -380 97.5t-112 304.5l6 47q47 375 557 374q240 0 380.5 -96t113.5 -303l-6 -47q-49 -377 -559 -377zM672 889q90 0 152.5 33.5t70.5 97.5l2 16q6 61 -34 82t-122 21q-90 0 -150.5 -32t-68.5 -95l-2 -17q-8 -61 32 -83.5t120 -22.5z" />
    <glyph glyph-name="plusminus" unicode="&#xb1;" horiz-adv-x="1228" 
 />
    <glyph glyph-name="paragraph" unicode="&#xb6;" horiz-adv-x="1695" 
d="M1532 1386q35 0 56.5 -25.5t17.5 -60.5l-197 -1511q-4 -27 -23.5 -44t-46.5 -17h-276q-35 0 -57.5 25.5t-18.5 60.5l72 546q4 29 -27 29h-342q-270 0 -403 135t-101 389q35 266 183.5 369.5t433.5 103.5h729z" />
    <glyph glyph-name="periodcentered" unicode="&#xb7;" horiz-adv-x="700" 
d="M387 459q-135 0 -199.5 73.5t-44.5 200.5q33 205 277 205q137 0 206.5 -68.5t49.5 -189.5q-16 -109 -92 -165t-197 -56z" />
    <glyph glyph-name="guillemotright" unicode="&#xbb;" horiz-adv-x="1794" 
d="M236 901q14 31 42.5 42t53.5 -1l567 -285q37 -18 25 -71l-72 -242q-12 -37 -45 -49l-733 -285q-41 -16 -67.5 4.5t-22.5 63.5l14 201q8 57 59 73l346 103q47 14 49.5 25.5t-42.5 25.5l-256 80q-31 8 -39.5 37.5t8.5 62.5zM1116 901q14 31 43 42t53 -1l568 -285
q37 -18 24 -71l-71 -242q-12 -37 -45 -49l-734 -285q-41 -16 -67.5 4.5t-22.5 63.5l15 201q8 57 59 73l346 103q47 14 49 25.5t-43 25.5l-256 80q-31 8 -39 37.5t9 62.5z" />
    <glyph glyph-name="questiondown" unicode="&#xbf;" horiz-adv-x="1771" 
d="M1030 1001q129 0 184.5 -47t55.5 -139q0 -106 -77 -164.5t-222 -58.5q-119 0 -180.5 48t-61.5 136q0 113 83 169t218 56zM1069 535q39 0 62.5 -29t13.5 -68q-45 -162 -145.5 -233.5t-266.5 -91.5q-279 -35 -278 -121q0 -39 47 -54.5t180 -15.5q326 0 569 172
q68 45 109 -16l133 -193q16 -23 12 -51.5t-26 -44.5q-332 -252 -826 -252q-326 0 -485.5 91t-159.5 302q0 217 125 329t375 153q188 29 225 88q20 35 55 35h281z" />
    <glyph glyph-name="Agrave" unicode="&#xc0;" horiz-adv-x="1751" 
d="M698 1710q-33 20 -38 53t18 62l131 162q23 29 56.5 29.5t58.5 -25.5l290 -305q47 -51 3 -99l-74 -80q-39 -43 -86 -12zM90 0q-57 0 -81.5 43t3.5 92l715 1221q16 31 55 30h453q51 0 65 -49l338 -1235q10 -41 -12 -71.5t-63 -30.5h-279q-53 0 -77.5 21.5t-39.5 80.5
l-12 56q-4 18 -22 18h-603q-10 0 -18 -12l-51 -94q-23 -41 -55.5 -55.5t-100.5 -14.5h-215zM758 524h278q14 0 22.5 10.5t4.5 22.5l-78 346q-4 20 -8 33.5t-7 24t-8.5 10.5t-6.5 3t-8 -7.5t-9 -12.5t-10 -19t-13 -24l-184 -342q-10 -16 -0.5 -30.5t27.5 -14.5z" />
    <glyph glyph-name="Aacute" unicode="&#xc1;" horiz-adv-x="1751" 
d="M1473 1823q16 -29 6.5 -58.5t-37.5 -46.5l-420 -223q-55 -29 -90 21l-49 67q-39 53 12 96l371 314q29 25 63.5 19.5t52.5 -38.5zM90 0q-57 0 -81.5 43t3.5 92l715 1221q16 31 55 30h453q51 0 65 -49l338 -1235q10 -41 -12 -71.5t-63 -30.5h-279q-53 0 -77.5 21.5
t-39.5 80.5l-12 56q-4 18 -22 18h-603q-10 0 -18 -12l-51 -94q-23 -41 -55.5 -55.5t-100.5 -14.5h-215zM758 524h278q14 0 22.5 10.5t4.5 22.5l-78 346q-4 20 -8 33.5t-7 24t-8.5 10.5t-6.5 3t-8 -7.5t-9 -12.5t-10 -19t-13 -24l-184 -342q-10 -16 -0.5 -30.5t27.5 -14.5z
" />
    <glyph glyph-name="Acircumflex" unicode="&#xc2;" horiz-adv-x="1751" 
d="M942 2001q35 33 56.5 42t64.5 9h90q39 0 59.5 -10t47.5 -45l251 -326q35 -47 -4 -90l-73 -80q-18 -20 -45 -23t-50 13l-182 145q-57 45 -76.5 48.5t-68.5 -23.5l-248 -141q-53 -31 -92 18l-51 70q-37 47 8 92zM90 0q-57 0 -81.5 43t3.5 92l715 1221q16 31 55 30h453
q51 0 65 -49l338 -1235q10 -41 -12 -71.5t-63 -30.5h-279q-53 0 -77.5 21.5t-39.5 80.5l-12 56q-4 18 -22 18h-603q-10 0 -18 -12l-51 -94q-23 -41 -55.5 -55.5t-100.5 -14.5h-215zM758 524h278q14 0 22.5 10.5t4.5 22.5l-78 346q-4 20 -8 33.5t-7 24t-8.5 10.5t-6.5 3
t-8 -7.5t-9 -12.5t-10 -19t-13 -24l-184 -342q-10 -16 -0.5 -30.5t27.5 -14.5z" />
    <glyph glyph-name="Atilde" unicode="&#xc3;" horiz-adv-x="1751" 
d="M627 1507q-35 0 -57.5 24.5t-18.5 61.5q29 203 119 293t207 90q39 0 72.5 -7t50 -13t52 -23.5t52.5 -23.5q70 -31 92 -31q35 0 51 41q20 51 62 51h200q37 0 59.5 -25.5t16.5 -62.5q-33 -188 -129 -278.5t-209 -90.5q-84 0 -196 54q-92 43 -117 43q-45 0 -61.5 -51.5
t-65.5 -51.5h-180zM90 0q-57 0 -81.5 43t3.5 92l715 1221q16 31 55 30h453q51 0 65 -49l338 -1235q10 -41 -12 -71.5t-63 -30.5h-279q-53 0 -77.5 21.5t-39.5 80.5l-12 56q-4 18 -22 18h-603q-10 0 -18 -12l-51 -94q-23 -41 -55.5 -55.5t-100.5 -14.5h-215zM758 524h278
q14 0 22.5 10.5t4.5 22.5l-78 346q-4 20 -8 33.5t-7 24t-8.5 10.5t-6.5 3t-8 -7.5t-9 -12.5t-10 -19t-13 -24l-184 -342q-10 -16 -0.5 -30.5t27.5 -14.5z" />
    <glyph glyph-name="Adieresis" unicode="&#xc4;" horiz-adv-x="1751" 
d="M772 1477q-125 0 -185.5 71.5t-43.5 198.5q27 209 256 209q123 0 186.5 -67.5t46.5 -186.5q-14 -109 -82.5 -167t-177.5 -58zM1339 1477q-125 0 -184 71.5t-43 198.5q27 209 254 209q125 0 188.5 -66.5t47.5 -187.5q-14 -109 -83 -167t-180 -58zM90 0q-57 0 -81.5 43
t3.5 92l715 1221q16 31 55 30h453q51 0 65 -49l338 -1235q10 -41 -12 -71.5t-63 -30.5h-279q-53 0 -77.5 21.5t-39.5 80.5l-12 56q-4 18 -22 18h-603q-10 0 -18 -12l-51 -94q-23 -41 -55.5 -55.5t-100.5 -14.5h-215zM758 524h278q14 0 22.5 10.5t4.5 22.5l-78 346
q-4 20 -8 33.5t-7 24t-8.5 10.5t-6.5 3t-8 -7.5t-9 -12.5t-10 -19t-13 -24l-184 -342q-10 -16 -0.5 -30.5t27.5 -14.5z" />
    <glyph glyph-name="Aring" unicode="&#xc5;" horiz-adv-x="1751" 
d="M1051 1454q-270 0 -382 88t-91 238l2 12q20 147 139 224t379 77q270 0 376.5 -87t86.5 -239v-12q-20 -147 -135 -224t-375 -77zM1049 1714q190 0 200 64l2 10q2 18 -7 26.5t-42 13.5t-100 5q-199 0 -209 -59l-2 -11q-2 -16 9 -26.5t47 -16.5t102 -6zM90 0q-57 0 -81.5 43
t3.5 92l715 1221q16 31 55 30h453q51 0 65 -49l338 -1235q10 -41 -12 -71.5t-63 -30.5h-279q-53 0 -77.5 21.5t-39.5 80.5l-12 56q-4 18 -22 18h-603q-10 0 -18 -12l-51 -94q-23 -41 -55.5 -55.5t-100.5 -14.5h-215zM758 524h278q14 0 22.5 10.5t4.5 22.5l-78 346
q-4 20 -8 33.5t-7 24t-8.5 10.5t-6.5 3t-8 -7.5t-9 -12.5t-10 -19t-13 -24l-184 -342q-10 -16 -0.5 -30.5t27.5 -14.5z" />
    <glyph glyph-name="AE" unicode="&#xc6;" horiz-adv-x="2551" 
d="M147 0q-57 0 -81.5 43t4.5 92l714 1221q16 31 56 30h1609q37 0 59.5 -25.5t16.5 -62.5l-39 -243q-10 -59 -67 -60h-740q-20 0 -24 -20l-13 -80q-4 -31 27 -31h473q37 0 59.5 -25.5t16.5 -64.5l-31 -192q-10 -57 -69 -58h-510q-20 0 -25 -20l-12 -80q-4 -31 26 -31h711
q37 0 59.5 -25.5t16.5 -62.5l-39 -246q-10 -59 -68 -59h-1120q-37 0 -59.5 25.5t-16.5 64.5l9 55q4 31 -25 31h-479q-10 0 -19 -12l-69 -131q-16 -33 -58 -33h-293zM811 524h317q20 0 25 21l68 420q4 31 -27 30h-170q-10 0 -18 -12l-222 -414q-10 -16 -0.5 -30.5t27.5 -14.5
z" />
    <glyph glyph-name="Ccedilla" unicode="&#xc7;" horiz-adv-x="1812" 
d="M1804 1143q37 -55 -18 -96l-250 -181q-49 -37 -94 13q-78 80 -163 112.5t-208 32.5q-182 0 -312 -72.5t-155 -236.5l-10 -72q-14 -84 6.5 -142.5t72.5 -87t110.5 -40t138.5 -11.5q293 0 473 183q55 51 102 6l205 -182q23 -23 25 -52.5t-19 -52.5q-276 -281 -735 -301
q-4 -18 11 -29.5t60 -19.5q168 -31 154 -182q-12 -115 -101 -158t-237 -43q-117 0 -207 20q-29 6 -41 30t-4 54l15 52q20 66 92 49q49 -8 110 -8q86 0 86 20q0 23 -96 29q-57 4 -80.5 34.5t-13.5 75.5l18 82q-348 35 -486 219.5t-91 487.5l10 63q53 336 273.5 511t644.5 175
q517 1 714 -282z" />
    <glyph glyph-name="Egrave" unicode="&#xc8;" horiz-adv-x="1726" 
d="M729 1710q-33 20 -38 53t18 62l131 162q23 29 56.5 29.5t57.5 -25.5l291 -305q47 -51 2 -99l-73 -80q-39 -43 -87 -12zM1624 1386q37 0 59.5 -25.5t16.5 -62.5l-39 -243q-10 -59 -68 -60h-860q-20 0 -24 -20l-13 -80q-4 -31 27 -31h594q37 0 59.5 -25.5t16.5 -64.5
l-31 -192q-10 -57 -70 -58h-630q-18 0 -23 -20l-12 -80q-4 -31 26 -31h830q37 0 59.5 -25.5t16.5 -62.5l-39 -246q-10 -59 -68 -59h-1241q-37 0 -59.5 25.5t-16.5 64.5l195 1237q10 59 69 59h1225z" />
    <glyph glyph-name="Eacute" unicode="&#xc9;" horiz-adv-x="1726" 
d="M1503 1823q16 -29 7 -58.5t-37 -46.5l-420 -223q-55 -29 -90 21l-50 67q-39 53 13 96l370 314q29 25 64 19.5t53 -38.5zM1624 1386q37 0 59.5 -25.5t16.5 -62.5l-39 -243q-10 -59 -68 -60h-860q-20 0 -24 -20l-13 -80q-4 -31 27 -31h594q37 0 59.5 -25.5t16.5 -64.5
l-31 -192q-10 -57 -70 -58h-630q-18 0 -23 -20l-12 -80q-4 -31 26 -31h830q37 0 59.5 -25.5t16.5 -62.5l-39 -246q-10 -59 -68 -59h-1241q-37 0 -59.5 25.5t-16.5 64.5l195 1237q10 59 69 59h1225z" />
    <glyph glyph-name="Ecircumflex" unicode="&#xca;" horiz-adv-x="1726" 
d="M973 2001q35 33 56.5 42t64.5 9h90q39 0 59.5 -10t46.5 -45l252 -326q35 -47 -4 -90l-74 -80q-18 -20 -44.5 -23t-49.5 13l-182 145q-57 45 -76.5 48.5t-69.5 -23.5l-247 -141q-53 -31 -93 18l-51 70q-37 47 8 92zM1624 1386q37 0 59.5 -25.5t16.5 -62.5l-39 -243
q-10 -59 -68 -60h-860q-20 0 -24 -20l-13 -80q-4 -31 27 -31h594q37 0 59.5 -25.5t16.5 -64.5l-31 -192q-10 -57 -70 -58h-630q-18 0 -23 -20l-12 -80q-4 -31 26 -31h830q37 0 59.5 -25.5t16.5 -62.5l-39 -246q-10 -59 -68 -59h-1241q-37 0 -59.5 25.5t-16.5 64.5l195 1237
q10 59 69 59h1225z" />
    <glyph glyph-name="Edieresis" unicode="&#xcb;" horiz-adv-x="1726" 
d="M803 1477q-125 0 -185.5 71.5t-44.5 198.5q27 209 256 209q123 0 186.5 -67.5t47.5 -186.5q-14 -109 -82.5 -167t-177.5 -58zM1370 1477q-125 0 -184.5 71.5t-42.5 198.5q27 209 254 209q125 0 188.5 -66.5t46.5 -187.5q-14 -109 -82.5 -167t-179.5 -58zM1624 1386
q37 0 59.5 -25.5t16.5 -62.5l-39 -243q-10 -59 -68 -60h-860q-20 0 -24 -20l-13 -80q-4 -31 27 -31h594q37 0 59.5 -25.5t16.5 -64.5l-31 -192q-10 -57 -70 -58h-630q-18 0 -23 -20l-12 -80q-4 -31 26 -31h830q37 0 59.5 -25.5t16.5 -62.5l-39 -246q-10 -59 -68 -59h-1241
q-37 0 -59.5 25.5t-16.5 64.5l195 1237q10 59 69 59h1225z" />
    <glyph glyph-name="Igrave" unicode="&#xcc;" horiz-adv-x="829" 
d="M233 1710q-33 20 -38 53t18 62l131 162q23 29 56.5 29.5t58.5 -25.5l291 -305q47 -51 2 -99l-74 -80q-39 -43 -86 -12zM211 0q-37 0 -59.5 25.5t-16.5 64.5l195 1237q10 59 69 59h287q37 0 59.5 -25.5t16.5 -64.5l-195 -1237q-10 -59 -69 -59h-287z" />
    <glyph glyph-name="Iacute" unicode="&#xcd;" horiz-adv-x="829" 
d="M1008 1823q16 -29 7 -58.5t-38 -46.5l-420 -223q-55 -29 -90 21l-49 67q-39 53 12 96l371 314q29 25 63.5 19.5t53.5 -38.5zM211 0q-37 0 -59.5 25.5t-16.5 64.5l195 1237q10 59 69 59h287q37 0 59.5 -25.5t16.5 -64.5l-195 -1237q-10 -59 -69 -59h-287z" />
    <glyph glyph-name="Icircumflex" unicode="&#xce;" horiz-adv-x="829" 
d="M477 2001q35 33 56.5 42t64.5 9h90q39 0 59.5 -10t47.5 -45l252 -326q35 -47 -5 -90l-73 -80q-18 -20 -45 -23t-50 13l-182 145q-57 45 -76.5 48.5t-68.5 -23.5l-248 -141q-53 -31 -92 18l-51 70q-37 47 8 92zM211 0q-37 0 -59.5 25.5t-16.5 64.5l195 1237q10 59 69 59
h287q37 0 59.5 -25.5t16.5 -64.5l-195 -1237q-10 -59 -69 -59h-287z" />
    <glyph glyph-name="Idieresis" unicode="&#xcf;" horiz-adv-x="829" 
d="M307 1477q-125 0 -185.5 71.5t-43.5 198.5q27 209 256 209q123 0 186.5 -67.5t46.5 -186.5q-14 -109 -82.5 -167t-177.5 -58zM874 1477q-125 0 -184 71.5t-43 198.5q27 209 254 209q125 0 188.5 -66.5t47.5 -187.5q-14 -109 -83 -167t-180 -58zM211 0q-37 0 -59.5 25.5
t-16.5 64.5l195 1237q10 59 69 59h287q37 0 59.5 -25.5t16.5 -64.5l-195 -1237q-10 -59 -69 -59h-287z" />
    <glyph glyph-name="Eth" unicode="&#xd0;" horiz-adv-x="1933" 
d="M1186 1386q387 0 538.5 -179t110.5 -513l-4 -30q-78 -664 -860 -664h-760q-37 0 -59.5 25.5t-16.5 64.5l66 418q-29 6 -46.5 29.5t-13.5 54.5l21 162q4 27 23.5 44t45.5 17h19l80 512q10 59 69 59h787zM1405 727q23 160 -42 209t-237 49h-395q-20 0 -24 -20l-23 -150h498
q35 0 57.5 -25.5t17.5 -60.5l-20 -162q-4 -27 -23.5 -44t-46.5 -17h-530l-10 -74q-4 -31 26 -31h359q350 0 387 287z" />
    <glyph glyph-name="Ntilde" unicode="&#xd1;" horiz-adv-x="1906" 
d="M700 1507q-35 0 -57 24.5t-18 61.5q29 203 119 293t206 90q39 0 73 -7t50.5 -13t52 -23.5t52.5 -23.5q70 -31 92 -31q35 0 51 41q20 51 61 51h201q37 0 59.5 -25.5t16.5 -62.5q-33 -188 -129 -278.5t-209 -90.5q-84 0 -197 54q-92 43 -116 43q-45 0 -61.5 -51.5
t-65.5 -51.5h-181zM1763 1386q37 0 59.5 -25.5t16.5 -64.5l-190 -1210q-8 -47 -31 -66.5t-68 -19.5l-272 -2q-78 0 -123 68l-434 632q-14 27 -36.5 25t-29.5 -41l-98 -623q-10 -59 -70 -59h-276q-37 0 -59.5 25.5t-16.5 64.5l195 1237q10 59 69 59h340q33 0 52 -26l464 -670
q53 -74 66 15l96 622q10 59 70 59h276z" />
    <glyph glyph-name="Ograve" unicode="&#xd2;" horiz-adv-x="1986" 
d="M811 1710q-33 20 -38 53t18 62l131 162q23 29 56.5 29.5t57.5 -25.5l291 -305q47 -51 2 -99l-74 -80q-39 -43 -86 -12zM932 -39q-449 0 -636 189.5t-134 525.5l10 63q109 686 948 686q451 0 638.5 -189t133.5 -525l-10 -64q-108 -686 -950 -686zM952 362q121 0 220.5 27
t179.5 99.5t98 183.5l10 71q14 86 -10.5 143.5t-80.5 86t-119.5 40t-147.5 11.5q-90 0 -168 -15.5t-149.5 -49t-120 -96t-60.5 -148.5l-10 -72q-14 -84 10.5 -142.5t80.5 -87t119.5 -40t147.5 -11.5z" />
    <glyph glyph-name="Oacute" unicode="&#xd3;" horiz-adv-x="1986" 
d="M1585 1823q16 -29 7 -58.5t-38 -46.5l-419 -223q-55 -29 -91 21l-49 67q-39 53 13 96l370 314q29 25 64 19.5t53 -38.5zM932 -39q-449 0 -636 189.5t-134 525.5l10 63q109 686 948 686q451 0 638.5 -189t133.5 -525l-10 -64q-108 -686 -950 -686zM952 362q121 0 220.5 27
t179.5 99.5t98 183.5l10 71q14 86 -10.5 143.5t-80.5 86t-119.5 40t-147.5 11.5q-90 0 -168 -15.5t-149.5 -49t-120 -96t-60.5 -148.5l-10 -72q-14 -84 10.5 -142.5t80.5 -87t119.5 -40t147.5 -11.5z" />
    <glyph glyph-name="Ocircumflex" unicode="&#xd4;" horiz-adv-x="1986" 
d="M1055 2001q35 33 56.5 42t64.5 9h90q39 0 59.5 -10t46.5 -45l252 -326q35 -47 -4 -90l-74 -80q-18 -20 -44.5 -23t-49.5 13l-182 145q-57 45 -76.5 48.5t-69.5 -23.5l-247 -141q-53 -31 -93 18l-51 70q-37 47 8 92zM932 -39q-449 0 -636 189.5t-134 525.5l10 63
q109 686 948 686q451 0 638.5 -189t133.5 -525l-10 -64q-108 -686 -950 -686zM952 362q121 0 220.5 27t179.5 99.5t98 183.5l10 71q14 86 -10.5 143.5t-80.5 86t-119.5 40t-147.5 11.5q-90 0 -168 -15.5t-149.5 -49t-120 -96t-60.5 -148.5l-10 -72q-14 -84 10.5 -142.5
t80.5 -87t119.5 -40t147.5 -11.5z" />
    <glyph glyph-name="Otilde" unicode="&#xd5;" horiz-adv-x="1986" 
d="M739 1507q-35 0 -57.5 24.5t-17.5 61.5q29 203 118.5 293t206.5 90q39 0 73 -7t50 -13t52 -23.5t53 -23.5q70 -31 92 -31q35 0 51 41q20 51 61 51h201q37 0 59.5 -25.5t16.5 -62.5q-33 -188 -129 -278.5t-209 -90.5q-84 0 -197 54q-92 43 -116 43q-45 0 -61.5 -51.5
t-65.5 -51.5h-181zM932 -39q-449 0 -636 189.5t-134 525.5l10 63q109 686 948 686q451 0 638.5 -189t133.5 -525l-10 -64q-108 -686 -950 -686zM952 362q121 0 220.5 27t179.5 99.5t98 183.5l10 71q14 86 -10.5 143.5t-80.5 86t-119.5 40t-147.5 11.5q-90 0 -168 -15.5
t-149.5 -49t-120 -96t-60.5 -148.5l-10 -72q-14 -84 10.5 -142.5t80.5 -87t119.5 -40t147.5 -11.5z" />
    <glyph glyph-name="Odieresis" unicode="&#xd6;" horiz-adv-x="1986" 
d="M885 1477q-125 0 -185.5 71.5t-44.5 198.5q27 209 256 209q123 0 186.5 -67.5t47.5 -186.5q-14 -109 -82.5 -167t-177.5 -58zM1452 1477q-125 0 -184.5 71.5t-42.5 198.5q27 209 254 209q125 0 188.5 -66.5t46.5 -187.5q-14 -109 -82.5 -167t-179.5 -58zM932 -39
q-449 0 -636 189.5t-134 525.5l10 63q109 686 948 686q451 0 638.5 -189t133.5 -525l-10 -64q-108 -686 -950 -686zM952 362q121 0 220.5 27t179.5 99.5t98 183.5l10 71q14 86 -10.5 143.5t-80.5 86t-119.5 40t-147.5 11.5q-90 0 -168 -15.5t-149.5 -49t-120 -96
t-60.5 -148.5l-10 -72q-14 -84 10.5 -142.5t80.5 -87t119.5 -40t147.5 -11.5z" />
    <glyph glyph-name="multiply" unicode="&#xd7;" horiz-adv-x="1421" 
d="M293 127q-23 -18 -52.5 -15t-47.5 25l-103 121q-20 25 -17 55.5t29 51.5l367 282q18 14 2 35l-248 254q-23 25 -22.5 55.5t26.5 52.5l160 138q20 18 49 17t49 -21l273 -279q14 -14 35 -2l368 287q23 18 52.5 15t48.5 -25l102 -121q20 -25 17 -55.5t-29 -51.5l-344 -264
q-18 -14 -2 -35l266 -272q23 -25 22.5 -55.5t-26.5 -53.5l-160 -137q-20 -18 -49 -17t-49 21l-289 295q-14 14 -35 2z" />
    <glyph glyph-name="Oslash" unicode="&#xd8;" horiz-adv-x="1986" 
d="M2068 1130q16 -27 9.5 -54t-33.5 -44l-146 -86q14 -98 -6 -235l-10 -64q-109 -686 -950 -686q-332 0 -522 107l-191 -113q-27 -16 -56.5 -8t-43.5 35l-135 235q-35 59 26 98l152 91q-25 123 0 270l10 63q109 686 948 686q356 0 555 -125l158 95q27 16 56.5 8t43.5 -35z
M604 715l-8 -51l604 356q-66 4 -98 4q-90 0 -168 -15.5t-149.5 -49t-120 -96t-60.5 -148.5zM1450 672l2 10l-541 -320h41q121 0 220.5 27t179.5 99.5t98 183.5z" />
    <glyph glyph-name="Ugrave" unicode="&#xd9;" horiz-adv-x="1857" 
d="M748 1710q-33 20 -38 53t17 62l131 162q23 29 56.5 29.5t58.5 -25.5l291 -305q47 -51 2 -99l-74 -80q-39 -43 -86 -12zM852 -39q-768 0 -649 760l96 606q10 59 70 59h286q37 0 59.5 -25.5t16.5 -64.5l-96 -608q-31 -193 34.5 -259.5t202.5 -66.5q98 0 178 28t150 111
t90 216l96 610q10 59 70 59h287q37 0 59.5 -25.5t16.5 -64.5l-97 -604q-57 -365 -266 -548t-604 -183z" />
    <glyph glyph-name="Uacute" unicode="&#xda;" horiz-adv-x="1857" 
d="M1522 1823q16 -29 7 -58.5t-38 -46.5l-420 -223q-55 -29 -90 21l-49 67q-39 53 12 96l371 314q29 25 63.5 19.5t53.5 -38.5zM852 -39q-768 0 -649 760l96 606q10 59 70 59h286q37 0 59.5 -25.5t16.5 -64.5l-96 -608q-31 -193 34.5 -259.5t202.5 -66.5q98 0 178 28
t150 111t90 216l96 610q10 59 70 59h287q37 0 59.5 -25.5t16.5 -64.5l-97 -604q-57 -365 -266 -548t-604 -183z" />
    <glyph glyph-name="Ucircumflex" unicode="&#xdb;" horiz-adv-x="1857" 
d="M991 2001q35 33 56.5 42t64.5 9h90q39 0 59.5 -10t47.5 -45l252 -326q35 -47 -5 -90l-73 -80q-18 -20 -45 -23t-49 13l-183 145q-57 45 -76.5 48.5t-68.5 -23.5l-248 -141q-53 -31 -92 18l-51 70q-37 47 8 92zM852 -39q-768 0 -649 760l96 606q10 59 70 59h286
q37 0 59.5 -25.5t16.5 -64.5l-96 -608q-31 -193 34.5 -259.5t202.5 -66.5q98 0 178 28t150 111t90 216l96 610q10 59 70 59h287q37 0 59.5 -25.5t16.5 -64.5l-97 -604q-57 -365 -266 -548t-604 -183z" />
    <glyph glyph-name="Udieresis" unicode="&#xdc;" horiz-adv-x="1857" 
d="M821 1477q-125 0 -185.5 71.5t-43.5 198.5q27 209 256 209q123 0 186.5 -67.5t46.5 -186.5q-14 -109 -82.5 -167t-177.5 -58zM1389 1477q-125 0 -184.5 71.5t-43.5 198.5q27 209 254 209q125 0 188.5 -66.5t47.5 -187.5q-14 -109 -82.5 -167t-179.5 -58zM852 -39
q-768 0 -649 760l96 606q10 59 70 59h286q37 0 59.5 -25.5t16.5 -64.5l-96 -608q-31 -193 34.5 -259.5t202.5 -66.5q98 0 178 28t150 111t90 216l96 610q10 59 70 59h287q37 0 59.5 -25.5t16.5 -64.5l-97 -604q-57 -365 -266 -548t-604 -183z" />
    <glyph glyph-name="Yacute" unicode="&#xdd;" horiz-adv-x="1970" 
d="M1577 1823q16 -29 7 -58.5t-38 -46.5l-420 -223q-55 -29 -90 21l-49 67q-39 53 12 96l371 314q29 25 63.5 19.5t53.5 -38.5zM1817 1386q72 0 97 -56t-24 -111l-641 -711q-33 -35 -41 -54.5t-16 -82.5l-49 -312q-10 -59 -68 -59h-287q-37 0 -59 25.5t-16 62.5l43 291
q10 66 5 90.5t-38 79.5l-418 700q-29 47 -4 92t82 45h291q39 0 55 -32l287 -516q8 -14 22.5 -15.5t24.5 11.5l457 532q16 20 47 20h250z" />
    <glyph glyph-name="Thorn" unicode="&#xde;" horiz-adv-x="1697" 
d="M211 0q-37 0 -59.5 25.5t-16.5 64.5l195 1237q10 59 69 59h271q37 0 59.5 -25.5t15.5 -62.5l-8 -51q-4 -31 27 -30h426q492 0 491 -412q0 -285 -171 -435.5t-496 -150.5h-416q-20 0 -25 -20l-20 -140q-10 -59 -68 -59h-274zM668 600h354q117 0 171 33t54 104
q0 88 -137 88h-418q-20 0 -24 -20l-27 -174q-4 -31 27 -31z" />
    <glyph glyph-name="germandbls" unicode="&#xdf;" horiz-adv-x="1947" 
d="M1153 -39q-303 0 -465 74q-45 20 -35 76l49 215q8 41 42 54t73 -3q121 -49 295 -49q133 0 212 44t79 134q0 61 -60.5 86.5t-203.5 25.5l-277 -2q-39 0 -60.5 28t-15.5 65l27 153q4 25 22.5 41.5t45.5 16.5h102q322 0 322 188q0 115 -242 115q-188 0 -280.5 -73
t-123.5 -271l-129 -820q-10 -59 -67 -59h-285q-37 0 -59.5 25.5t-16.5 62.5l131 840q25 164 78.5 280.5t126 189t180 113.5t222 55.5t272.5 14.5q350 0 494.5 -90t144.5 -297q0 -252 -188 -340q-37 -18 -47.5 -27.5t0 -15.5t47.5 -12q272 -53 272 -328q0 -227 -168 -368.5
t-514 -141.5z" />
    <glyph glyph-name="agrave" unicode="&#xe0;" horiz-adv-x="1478" 
d="M489 1286q-33 20 -38 53t18 62l131 162q23 29 56.5 29.5t58.5 -25.5l291 -305q47 -51 2 -99l-74 -80q-39 -43 -86 -12zM414 -39q-182 0 -262 68.5t-80 212.5q0 166 127 238.5t368 72.5h252q59 0 60 25v6q0 55 -197 55q-190 0 -320 -43q-31 -10 -56 1t-36 42l-73 197
q-25 68 39 90q205 76 546 75q143 0 247 -22.5t184.5 -75.5t111.5 -151.5t8 -241.5l-71 -451q-10 -59 -70 -59h-242q-37 0 -60.5 25.5t-15.5 62.5l3 10q4 16 -3.5 20.5t-25.5 -9.5q-160 -148 -434 -148zM600 272q72 0 161 28t89 52v4q0 12 -23 13h-235q-80 0 -80 -50
q0 -47 88 -47z" />
    <glyph glyph-name="aacute" unicode="&#xe1;" horiz-adv-x="1478" 
d="M1264 1399q16 -29 7 -58.5t-38 -46.5l-420 -223q-55 -29 -90 21l-49 67q-39 53 12 96l371 314q29 25 63.5 19.5t53.5 -38.5zM414 -39q-182 0 -262 68.5t-80 212.5q0 166 127 238.5t368 72.5h252q59 0 60 25v6q0 55 -197 55q-190 0 -320 -43q-31 -10 -56 1t-36 42l-73 197
q-25 68 39 90q205 76 546 75q143 0 247 -22.5t184.5 -75.5t111.5 -151.5t8 -241.5l-71 -451q-10 -59 -70 -59h-242q-37 0 -60.5 25.5t-15.5 62.5l3 10q4 16 -3.5 20.5t-25.5 -9.5q-160 -148 -434 -148zM600 272q72 0 161 28t89 52v4q0 12 -23 13h-235q-80 0 -80 -50
q0 -47 88 -47z" />
    <glyph glyph-name="acircumflex" unicode="&#xe2;" horiz-adv-x="1478" 
d="M733 1577q35 33 56.5 42t64.5 9h90q39 0 59.5 -10t47.5 -45l252 -326q35 -47 -5 -90l-73 -80q-18 -20 -45 -23t-50 13l-182 145q-57 45 -76.5 48.5t-68.5 -23.5l-248 -141q-53 -31 -92 18l-51 70q-37 47 8 92zM414 -39q-182 0 -262 68.5t-80 212.5q0 166 127 238.5
t368 72.5h252q59 0 60 25v6q0 55 -197 55q-190 0 -320 -43q-31 -10 -56 1t-36 42l-73 197q-25 68 39 90q205 76 546 75q143 0 247 -22.5t184.5 -75.5t111.5 -151.5t8 -241.5l-71 -451q-10 -59 -70 -59h-242q-37 0 -60.5 25.5t-15.5 62.5l3 10q4 16 -3.5 20.5t-25.5 -9.5
q-160 -148 -434 -148zM600 272q72 0 161 28t89 52v4q0 12 -23 13h-235q-80 0 -80 -50q0 -47 88 -47z" />
    <glyph glyph-name="atilde" unicode="&#xe3;" horiz-adv-x="1478" 
d="M389 1077q-35 0 -57.5 24.5t-18.5 61.5q31 193 122 277t212 84q49 0 86 -7.5t56.5 -15.5t60.5 -26q86 -41 108 -41q39 0 56 34q23 47 59 48h203q37 0 59.5 -26t16.5 -63q-33 -190 -135.5 -276t-233.5 -86q-86 0 -176 49q-84 45 -105 45q-35 0 -49 -35q-20 -47 -57 -47
h-207zM414 -39q-182 0 -262 68.5t-80 212.5q0 166 127 238.5t368 72.5h252q59 0 60 25v6q0 55 -197 55q-190 0 -320 -43q-31 -10 -56 1t-36 42l-73 197q-25 68 39 90q205 76 546 75q143 0 247 -22.5t184.5 -75.5t111.5 -151.5t8 -241.5l-71 -451q-10 -59 -70 -59h-242
q-37 0 -60.5 25.5t-15.5 62.5l3 10q4 16 -3.5 20.5t-25.5 -9.5q-160 -148 -434 -148zM600 272q72 0 161 28t89 52v4q0 12 -23 13h-235q-80 0 -80 -50q0 -47 88 -47z" />
    <glyph glyph-name="adieresis" unicode="&#xe4;" horiz-adv-x="1478" 
d="M563 1053q-125 0 -185.5 71.5t-43.5 198.5q27 209 256 209q123 0 186.5 -67.5t46.5 -186.5q-14 -109 -82.5 -167t-177.5 -58zM1130 1053q-125 0 -184 71.5t-43 198.5q27 209 254 209q125 0 188.5 -66.5t47.5 -187.5q-14 -109 -83 -167t-180 -58zM414 -39
q-182 0 -262 68.5t-80 212.5q0 166 127 238.5t368 72.5h252q59 0 60 25v6q0 55 -197 55q-190 0 -320 -43q-31 -10 -56 1t-36 42l-73 197q-25 68 39 90q205 76 546 75q143 0 247 -22.5t184.5 -75.5t111.5 -151.5t8 -241.5l-71 -451q-10 -59 -70 -59h-242q-37 0 -60.5 25.5
t-15.5 62.5l3 10q4 16 -3.5 20.5t-25.5 -9.5q-160 -148 -434 -148zM600 272q72 0 161 28t89 52v4q0 12 -23 13h-235q-80 0 -80 -50q0 -47 88 -47z" />
    <glyph glyph-name="aring" unicode="&#xe5;" horiz-adv-x="1478" 
d="M842 1069q-287 0 -391.5 83t-81.5 243l4 30q39 283 561 283q240 0 343 -81t75 -247l-2 -12q-51 -299 -508 -299zM823 1329q217 0 217 74v6q0 23 -28.5 31t-106.5 8q-225 0 -225 -62v-6q0 -27 28.5 -39t114.5 -12zM414 -39q-182 0 -262 68.5t-80 212.5q0 166 127 238.5
t368 72.5h252q59 0 60 25v6q0 55 -197 55q-190 0 -320 -43q-31 -10 -56 1t-36 42l-73 197q-25 68 39 90q205 76 546 75q143 0 247 -22.5t184.5 -75.5t111.5 -151.5t8 -241.5l-71 -451q-10 -59 -70 -59h-242q-37 0 -60.5 25.5t-15.5 62.5l3 10q4 16 -3.5 20.5t-25.5 -9.5
q-160 -148 -434 -148zM600 272q72 0 161 28t89 52v4q0 12 -23 13h-235q-80 0 -80 -50q0 -47 88 -47z" />
    <glyph glyph-name="ae" unicode="&#xe6;" horiz-adv-x="2209" 
d="M412 -39q-184 0 -266.5 69.5t-75.5 211.5q14 311 454 311h324q29 0 29 20v5q0 23 -53.5 42t-123.5 19q-195 0 -340 -43q-70 -20 -92 43l-73 192q-10 29 1 56.5t40 38.5q221 76 555 75q260 0 358 -131q16 -23 35 -8q156 139 467 139q111 0 201 -22.5t167.5 -74.5
t112.5 -152.5t16 -239.5l-6 -43q-2 -27 -22.5 -44t-46.5 -17h-713q-27 0 -27 -21v-2q0 -27 51.5 -44t124.5 -17q193 0 320 45q61 25 90 -33l96 -186q16 -31 6 -61t-41 -42q-231 -86 -546 -86q-334 0 -459 131q-14 14 -31 2q-204 -133 -532 -133zM1411 565h272q10 0 20.5 6.5
t10.5 14.5v4q0 49 -162 49q-51 0 -106 -16.5t-55 -38.5v-2q0 -17 20 -17zM598 272q61 0 145 22.5t84 51.5v4q0 18 -24 19h-213q-80 0 -80 -50q0 -47 88 -47z" />
    <glyph glyph-name="ccedilla" unicode="&#xe7;" horiz-adv-x="1376" 
d="M1337 877q31 -20 33 -55.5t-27 -61.5l-176 -166q-35 -35 -84 -6q-96 51 -270 51q-137 0 -202.5 -30.5t-80.5 -110.5l-4 -25q-12 -80 42.5 -114.5t160.5 -34.5q182 0 320 75q66 33 100 -24l115 -180q16 -25 11 -53.5t-30 -43.5q-188 -119 -520 -135q-4 -18 11.5 -29.5
t60.5 -19.5q168 -31 153 -182q-12 -115 -101 -158t-237 -43q-117 0 -206 20q-29 6 -41.5 30t-4.5 54l15 52q20 66 92 49q49 -8 111 -8q86 0 86 20q0 23 -97 29q-57 4 -80.5 34.5t-13.5 75.5l19 80q-459 49 -396 502l8 57q76 475 713 475q332 1 520 -124z" />
    <glyph glyph-name="egrave" unicode="&#xe8;" horiz-adv-x="1415" 
d="M453 1286q-33 20 -38 53t17 62l131 162q23 29 56.5 29.5t58.5 -25.5l291 -305q47 -51 2 -99l-74 -80q-39 -43 -86 -12zM666 -39q-317 0 -465 124t-103 394l11 62q16 113 64 196.5t110.5 133t148.5 80t169 40.5t183 10q137 0 241.5 -22.5t189.5 -75.5t121 -151.5
t18 -239.5l-6 -43q-2 -27 -22.5 -44t-47.5 -17h-715q-27 0 -26 -21v-2q0 -61 178 -61q193 0 319 45q57 23 90 -33l97 -164q35 -59 -50 -109q-173 -102 -505 -102zM604 565h285q27 0 26 23v6q0 45 -139 45q-86 0 -137 -17.5t-51 -39.5v-7q0 -10 16 -10z" />
    <glyph glyph-name="eacute" unicode="&#xe9;" horiz-adv-x="1415" 
d="M1227 1399q16 -29 7 -58.5t-38 -46.5l-420 -223q-55 -29 -90 21l-49 67q-39 53 12 96l371 314q29 25 63.5 19.5t53.5 -38.5zM666 -39q-317 0 -465 124t-103 394l11 62q16 113 64 196.5t110.5 133t148.5 80t169 40.5t183 10q137 0 241.5 -22.5t189.5 -75.5t121 -151.5
t18 -239.5l-6 -43q-2 -27 -22.5 -44t-47.5 -17h-715q-27 0 -26 -21v-2q0 -61 178 -61q193 0 319 45q57 23 90 -33l97 -164q35 -59 -50 -109q-173 -102 -505 -102zM604 565h285q27 0 26 23v6q0 45 -139 45q-86 0 -137 -17.5t-51 -39.5v-7q0 -10 16 -10z" />
    <glyph glyph-name="ecircumflex" unicode="&#xea;" horiz-adv-x="1415" 
d="M696 1577q35 33 56.5 42t64.5 9h90q39 0 59.5 -10t47.5 -45l252 -326q35 -47 -4 -90l-74 -80q-18 -20 -45 -23t-49 13l-183 145q-57 45 -76.5 48.5t-68.5 -23.5l-248 -141q-53 -31 -92 18l-51 70q-37 47 8 92zM666 -39q-317 0 -465 124t-103 394l11 62q16 113 64 196.5
t110.5 133t148.5 80t169 40.5t183 10q137 0 241.5 -22.5t189.5 -75.5t121 -151.5t18 -239.5l-6 -43q-2 -27 -22.5 -44t-47.5 -17h-715q-27 0 -26 -21v-2q0 -61 178 -61q193 0 319 45q57 23 90 -33l97 -164q35 -59 -50 -109q-173 -102 -505 -102zM604 565h285q27 0 26 23v6
q0 45 -139 45q-86 0 -137 -17.5t-51 -39.5v-7q0 -10 16 -10z" />
    <glyph glyph-name="edieresis" unicode="&#xeb;" horiz-adv-x="1415" 
d="M526 1053q-125 0 -185 71.5t-44 198.5q27 209 256 209q123 0 186.5 -67.5t46.5 -186.5q-14 -109 -82.5 -167t-177.5 -58zM1094 1053q-125 0 -184.5 71.5t-43.5 198.5q27 209 254 209q125 0 188.5 -66.5t47.5 -187.5q-14 -109 -82.5 -167t-179.5 -58zM666 -39
q-317 0 -465 124t-103 394l11 62q16 113 64 196.5t110.5 133t148.5 80t169 40.5t183 10q137 0 241.5 -22.5t189.5 -75.5t121 -151.5t18 -239.5l-6 -43q-2 -27 -22.5 -44t-47.5 -17h-715q-27 0 -26 -21v-2q0 -61 178 -61q193 0 319 45q57 23 90 -33l97 -164q35 -59 -50 -109
q-173 -102 -505 -102zM604 565h285q27 0 26 23v6q0 45 -139 45q-86 0 -137 -17.5t-51 -39.5v-7q0 -10 16 -10z" />
    <glyph glyph-name="igrave" unicode="&#xec;" horiz-adv-x="808" 
d="M156 1286q-33 20 -38 53t17 62l131 162q23 29 56.5 29.5t58.5 -25.5l291 -305q47 -51 2 -99l-74 -80q-39 -43 -86 -12zM203 0q-37 0 -59.5 25.5t-16.5 62.5l127 815q10 59 70 60h282q37 0 59.5 -26t16.5 -63l-127 -815q-10 -59 -70 -59h-282z" />
    <glyph glyph-name="iacute" unicode="&#xed;" horiz-adv-x="808" 
d="M930 1399q16 -29 7 -58.5t-38 -46.5l-420 -223q-55 -29 -90 21l-49 67q-39 53 12 96l371 314q29 25 63.5 19.5t53.5 -38.5zM203 0q-37 0 -59.5 25.5t-16.5 62.5l127 815q10 59 70 60h282q37 0 59.5 -26t16.5 -63l-127 -815q-10 -59 -70 -59h-282z" />
    <glyph glyph-name="icircumflex" unicode="&#xee;" horiz-adv-x="808" 
d="M399 1577q35 33 56.5 42t64.5 9h90q39 0 59.5 -10t47.5 -45l252 -326q35 -47 -4 -90l-74 -80q-18 -20 -45 -23t-49 13l-183 145q-57 45 -76.5 48.5t-68.5 -23.5l-248 -141q-53 -31 -92 18l-51 70q-37 47 8 92zM203 0q-37 0 -59.5 25.5t-16.5 62.5l127 815q10 59 70 60
h282q37 0 59.5 -26t16.5 -63l-127 -815q-10 -59 -70 -59h-282z" />
    <glyph glyph-name="idieresis" unicode="&#xef;" horiz-adv-x="808" 
d="M229 1053q-125 0 -185 71.5t-44 198.5q27 209 256 209q123 0 186.5 -67.5t46.5 -186.5q-14 -109 -82.5 -167t-177.5 -58zM797 1053q-125 0 -184.5 71.5t-43.5 198.5q27 209 254 209q125 0 188.5 -66.5t47.5 -187.5q-14 -109 -82.5 -167t-179.5 -58zM203 0
q-37 0 -59.5 25.5t-16.5 62.5l127 815q10 59 70 60h282q37 0 59.5 -26t16.5 -63l-127 -815q-10 -59 -70 -59h-282z" />
    <glyph glyph-name="eth" unicode="&#xf0;" horiz-adv-x="1562" 
d="M645 -39q-328 0 -476.5 101.5t-148.5 332.5q0 272 186.5 389t526.5 117q227 0 379 -88q16 -10 30.5 -3t16.5 28l2 24q4 66 -8 139q-2 14 -14.5 19.5t-24.5 -0.5l-186 -86q-27 -12 -53.5 -4t-40.5 35l-46 86q-14 29 -3.5 57.5t38.5 42.5l56 29q10 12 6 22t-15 12
q-23 2 -69 3q-219 0 -375 -58q-33 -12 -61.5 0t-38.5 45l-70 201q-10 29 2 55.5t39 34.5q236 86 565 86q317 0 502 -158q10 -10 22 -4l127 60q61 31 95 -33l47 -90q16 -31 6 -59.5t-41 -43.5l-80 -36q-18 -10 -12 -31q59 -168 43 -371l-6 -82q-31 -414 -267.5 -593
t-652.5 -179zM727 350q182 0 269 28t91 99q2 55 -58 74.5t-224 19.5q-172 0 -257 -28.5t-87 -104.5q-2 -51 63.5 -69.5t202.5 -18.5z" />
    <glyph glyph-name="ntilde" unicode="&#xf1;" horiz-adv-x="1628" 
d="M465 1077q-35 0 -57.5 24.5t-18.5 61.5q31 193 122 277t212 84q49 0 86 -7.5t56.5 -15.5t60.5 -26q86 -41 108 -41q39 0 56 34q23 47 59 48h203q37 0 59.5 -26t15.5 -63q-33 -190 -135 -276t-233 -86q-86 0 -176 49q-84 45 -105 45q-35 0 -49 -35q-20 -47 -57 -47h-207z
M203 0q-37 0 -59.5 25.5t-16.5 62.5l127 815q10 59 70 60h247q45 0 66 -37l8 -17q12 -23 37 -6q141 98 385 98q94 0 169 -21.5t137.5 -70.5t88 -142t4.5 -220l-75 -488q-10 -59 -70 -59h-283q-37 0 -59.5 25.5t-15.5 62.5l57 373q14 92 -16.5 124.5t-112.5 32.5
q-80 0 -186 -45q-45 -20 -62.5 -38.5t-21.5 -49.5l-68 -426q-10 -59 -68 -59h-282z" />
    <glyph glyph-name="ograve" unicode="&#xf2;" horiz-adv-x="1529" 
d="M516 1286q-33 20 -38 53t18 62l131 162q23 29 56.5 29.5t57.5 -25.5l291 -305q47 -51 2 -99l-73 -80q-39 -43 -87 -12zM690 -39q-330 0 -483.5 118t-110.5 388l8 59q76 475 721 475q156 0 274 -26.5t202.5 -85t119.5 -156.5t13 -235l-9 -60q-76 -477 -735 -477zM717 324
q250 0 282 153l5 21q12 82 -38.5 111.5t-154.5 29.5q-250 0 -281 -152l-4 -20q-12 -82 38.5 -112.5t152.5 -30.5z" />
    <glyph glyph-name="oacute" unicode="&#xf3;" horiz-adv-x="1529" 
d="M1290 1399q16 -29 7 -58.5t-37 -46.5l-420 -223q-55 -29 -90 21l-50 67q-39 53 13 96l370 314q29 25 64 19.5t53 -38.5zM690 -39q-330 0 -483.5 118t-110.5 388l8 59q76 475 721 475q156 0 274 -26.5t202.5 -85t119.5 -156.5t13 -235l-9 -60q-76 -477 -735 -477zM717 324
q250 0 282 153l5 21q12 82 -38.5 111.5t-154.5 29.5q-250 0 -281 -152l-4 -20q-12 -82 38.5 -112.5t152.5 -30.5z" />
    <glyph glyph-name="ocircumflex" unicode="&#xf4;" horiz-adv-x="1529" 
d="M760 1577q35 33 56.5 42t64.5 9h90q39 0 59.5 -10t46.5 -45l252 -326q35 -47 -4 -90l-74 -80q-18 -20 -44.5 -23t-49.5 13l-182 145q-57 45 -76.5 48.5t-69.5 -23.5l-247 -141q-53 -31 -93 18l-51 70q-37 47 8 92zM690 -39q-330 0 -483.5 118t-110.5 388l8 59
q76 475 721 475q156 0 274 -26.5t202.5 -85t119.5 -156.5t13 -235l-9 -60q-76 -477 -735 -477zM717 324q250 0 282 153l5 21q12 82 -38.5 111.5t-154.5 29.5q-250 0 -281 -152l-4 -20q-12 -82 38.5 -112.5t152.5 -30.5z" />
    <glyph glyph-name="otilde" unicode="&#xf5;" horiz-adv-x="1529" 
d="M416 1077q-35 0 -57.5 24.5t-18.5 61.5q31 193 122 277t212 84q49 0 86 -7.5t56.5 -15.5t60.5 -26q86 -41 108 -41q39 0 55 34q23 47 60 48h203q37 0 59 -26t16 -63q-33 -190 -135 -276t-233 -86q-86 0 -176 49q-84 45 -105 45q-35 0 -49 -35q-20 -47 -57 -47h-207z
M690 -39q-330 0 -483.5 118t-110.5 388l8 59q76 475 721 475q156 0 274 -26.5t202.5 -85t119.5 -156.5t13 -235l-9 -60q-76 -477 -735 -477zM717 324q250 0 282 153l5 21q12 82 -38.5 111.5t-154.5 29.5q-250 0 -281 -152l-4 -20q-12 -82 38.5 -112.5t152.5 -30.5z" />
    <glyph glyph-name="odieresis" unicode="&#xf6;" horiz-adv-x="1529" 
d="M590 1053q-125 0 -185.5 71.5t-44.5 198.5q27 209 256 209q123 0 186.5 -67.5t47.5 -186.5q-14 -109 -82.5 -167t-177.5 -58zM1157 1053q-125 0 -184.5 71.5t-42.5 198.5q27 209 254 209q125 0 188.5 -66.5t46.5 -187.5q-14 -109 -82.5 -167t-179.5 -58zM690 -39
q-330 0 -483.5 118t-110.5 388l8 59q76 475 721 475q156 0 274 -26.5t202.5 -85t119.5 -156.5t13 -235l-9 -60q-76 -477 -735 -477zM717 324q250 0 282 153l5 21q12 82 -38.5 111.5t-154.5 29.5q-250 0 -281 -152l-4 -20q-12 -82 38.5 -112.5t152.5 -30.5z" />
    <glyph glyph-name="divide" unicode="&#xf7;" horiz-adv-x="1421" 
d="M762 870q-131 0 -186.5 37t-55.5 109q0 104 56.5 155.5t240.5 51.5q135 0 193.5 -35t58.5 -107q0 -104 -65.5 -157.5t-241.5 -53.5zM160 494q-37 0 -59.5 25.5t-16.5 62.5l25 155q10 59 67 60h1137q37 0 59.5 -26t16.5 -62l-25 -156q-10 -59 -68 -59h-1136zM635 72
q-131 0 -185.5 35.5t-54.5 109.5q0 104 56.5 155.5t240.5 51.5q135 0 192.5 -35t57.5 -106q0 -104 -65.5 -157.5t-241.5 -53.5z" />
    <glyph glyph-name="oslash" unicode="&#xf8;" horiz-adv-x="1546" 
d="M1626 711l-168 -97q2 -45 -8 -116l-8 -60q-76 -477 -735 -477q-178 0 -304 33l-243 -148l-228 322l177 117q-12 76 4 182l8 59q76 475 721 475q215 0 360 -51l225 129zM1020 498q12 82 -38 111.5t-155 29.5q-250 0 -280 -152l-4 -20q-12 -82 38 -112.5t152 -30.5
q250 0 283 153z" />
    <glyph glyph-name="ugrave" unicode="&#xf9;" horiz-adv-x="1628" 
d="M565 1286q-33 20 -38 53t18 62l131 162q23 29 56.5 29.5t58.5 -25.5l290 -305q47 -51 2 -99l-73 -80q-39 -43 -86 -12zM1442 961q37 0 59.5 -26t16.5 -63l-127 -815q-10 -59 -70 -59h-248q-57 0 -65 35l-4 20q-4 25 -29 8q-156 -102 -397 -102q-94 0 -169 21.5
t-137.5 70.5t-88 142.5t-5.5 220.5l76 487q10 59 70 60h282q37 0 59.5 -26t16.5 -65l-59 -370q-14 -92 17.5 -125t113.5 -33q123 0 231 70q33 20 37 57l70 432q10 59 67 60h283z" />
    <glyph glyph-name="uacute" unicode="&#xfa;" horiz-adv-x="1628" 
d="M1339 1399q16 -29 7 -58.5t-37 -46.5l-420 -223q-55 -29 -90 21l-49 67q-39 53 12 96l371 314q29 25 63.5 19.5t52.5 -38.5zM1442 961q37 0 59.5 -26t16.5 -63l-127 -815q-10 -59 -70 -59h-248q-57 0 -65 35l-4 20q-4 25 -29 8q-156 -102 -397 -102q-94 0 -169 21.5
t-137.5 70.5t-88 142.5t-5.5 220.5l76 487q10 59 70 60h282q37 0 59.5 -26t16.5 -65l-59 -370q-14 -92 17.5 -125t113.5 -33q123 0 231 70q33 20 37 57l70 432q10 59 67 60h283z" />
    <glyph glyph-name="ucircumflex" unicode="&#xfb;" horiz-adv-x="1628" 
d="M809 1577q35 33 56.5 42t64.5 9h90q39 0 59.5 -10t46.5 -45l252 -326q35 -47 -4 -90l-74 -80q-18 -20 -44.5 -23t-49.5 13l-182 145q-57 45 -76.5 48.5t-68.5 -23.5l-248 -141q-53 -31 -92 18l-52 70q-37 47 9 92zM1442 961q37 0 59.5 -26t16.5 -63l-127 -815
q-10 -59 -70 -59h-248q-57 0 -65 35l-4 20q-4 25 -29 8q-156 -102 -397 -102q-94 0 -169 21.5t-137.5 70.5t-88 142.5t-5.5 220.5l76 487q10 59 70 60h282q37 0 59.5 -26t16.5 -65l-59 -370q-14 -92 17.5 -125t113.5 -33q123 0 231 70q33 20 37 57l70 432q10 59 67 60h283z
" />
    <glyph glyph-name="udieresis" unicode="&#xfc;" horiz-adv-x="1628" 
d="M639 1053q-125 0 -185.5 71.5t-43.5 198.5q27 209 256 209q123 0 186 -67.5t47 -186.5q-14 -109 -82.5 -167t-177.5 -58zM1206 1053q-125 0 -184 71.5t-43 198.5q27 209 254 209q125 0 188.5 -66.5t46.5 -187.5q-14 -109 -82.5 -167t-179.5 -58zM1442 961q37 0 59.5 -26
t16.5 -63l-127 -815q-10 -59 -70 -59h-248q-57 0 -65 35l-4 20q-4 25 -29 8q-156 -102 -397 -102q-94 0 -169 21.5t-137.5 70.5t-88 142.5t-5.5 220.5l76 487q10 59 70 60h282q37 0 59.5 -26t16.5 -65l-59 -370q-14 -92 17.5 -125t113.5 -33q123 0 231 70q33 20 37 57
l70 432q10 59 67 60h283z" />
    <glyph glyph-name="yacute" unicode="&#xfd;" horiz-adv-x="1576" 
d="M1313 1399q16 -29 7 -58.5t-38 -46.5l-420 -223q-55 -29 -90 21l-49 67q-39 53 12 96l371 314q29 25 63.5 19.5t53.5 -38.5zM1450 963q61 0 87 -47.5t-9 -98.5l-821 -1190q-18 -27 -52 -26h-258q-61 0 -86.5 47t8.5 98l103 162q47 57 24 117l-296 827q-14 45 8 78t69 33
h355q51 0 65 -54l94 -401q20 -84 66 -10l262 434q18 31 53 31h328z" />
    <glyph glyph-name="thorn" unicode="&#xfe;" horiz-adv-x="1685" 
d="M1104 1001q250 0 386 -120.5t99 -382.5l-6 -43q-39 -272 -206 -383t-439 -111q-236 0 -371 66q-14 8 -26.5 2t-14.5 -23l-55 -346q-10 -59 -68 -59h-282q-37 0 -59.5 25.5t-16.5 64.5l291 1792q10 59 70 59h268q39 0 60.5 -26.5t15.5 -63.5l-82 -479q-4 -33 10 -40t53 13
q111 55 373 55zM1159 506q14 76 -38 104.5t-158 28.5q-215 0 -318 -82q-37 -31 -39 -47l-14 -80q-6 -31 20 -57q49 -49 219 -49q295 0 324 159z" />
    <glyph glyph-name="ydieresis" unicode="&#xff;" horiz-adv-x="1576" 
d="M612 1053q-125 0 -185 71.5t-44 198.5q27 209 256 209q123 0 186.5 -67.5t46.5 -186.5q-14 -109 -82.5 -167t-177.5 -58zM1180 1053q-125 0 -184.5 71.5t-43.5 198.5q27 209 254 209q125 0 188.5 -66.5t47.5 -187.5q-14 -109 -82.5 -167t-179.5 -58zM1450 963
q61 0 87 -47.5t-9 -98.5l-821 -1190q-18 -27 -52 -26h-258q-61 0 -86.5 47t8.5 98l103 162q47 57 24 117l-296 827q-14 45 8 78t69 33h355q51 0 65 -54l94 -401q20 -84 66 -10l262 434q18 31 53 31h328z" />
    <glyph glyph-name="Amacron" unicode="&#x100;" horiz-adv-x="1751" 
d="M1583 1606q-4 -27 -23.5 -44.5t-46.5 -17.5h-913q-35 0 -56.5 25.5t-17.5 60.5l25 197q4 27 23.5 44t46.5 17h913q35 0 57.5 -25.5t18.5 -60.5zM90 0q-57 0 -81.5 43t3.5 92l715 1221q16 31 55 30h453q51 0 65 -49l338 -1235q10 -41 -12 -71.5t-63 -30.5h-279
q-53 0 -77.5 21.5t-39.5 80.5l-12 56q-4 18 -22 18h-603q-10 0 -18 -12l-51 -94q-23 -41 -55.5 -55.5t-100.5 -14.5h-215zM758 524h278q14 0 22.5 10.5t4.5 22.5l-78 346q-4 20 -8 33.5t-7 24t-8.5 10.5t-6.5 3t-8 -7.5t-9 -12.5t-10 -19t-13 -24l-184 -342
q-10 -16 -0.5 -30.5t27.5 -14.5z" />
    <glyph glyph-name="amacron" unicode="&#x101;" horiz-adv-x="1478" 
d="M1374 1182q-4 -27 -23.5 -44.5t-45.5 -17.5h-914q-35 0 -56.5 25.5t-17.5 60.5l25 197q4 27 23.5 44t46.5 17h913q35 0 57.5 -25.5t18.5 -60.5zM414 -39q-182 0 -262 68.5t-80 212.5q0 166 127 238.5t368 72.5h252q59 0 60 25v6q0 55 -197 55q-190 0 -320 -43
q-31 -10 -56 1t-36 42l-73 197q-25 68 39 90q205 76 546 75q143 0 247 -22.5t184.5 -75.5t111.5 -151.5t8 -241.5l-71 -451q-10 -59 -70 -59h-242q-37 0 -60.5 25.5t-15.5 62.5l3 10q4 16 -3.5 20.5t-25.5 -9.5q-160 -148 -434 -148zM600 272q72 0 161 28t89 52v4
q0 12 -23 13h-235q-80 0 -80 -50q0 -47 88 -47z" />
    <glyph glyph-name="Abreve" unicode="&#x102;" horiz-adv-x="1751" 
d="M1055 1454q-272 0 -393 120t-111 322q2 27 21.5 45.5t48.5 18.5h247q66 0 74 -76q6 -111 119 -110q145 0 192 137q16 49 64 49h246q39 0 62.5 -23.5t14.5 -56.5q-47 -201 -194 -313.5t-391 -112.5zM90 0q-57 0 -81.5 43t3.5 92l715 1221q16 31 55 30h453q51 0 65 -49
l338 -1235q10 -41 -12 -71.5t-63 -30.5h-279q-53 0 -77.5 21.5t-39.5 80.5l-12 56q-4 18 -22 18h-603q-10 0 -18 -12l-51 -94q-23 -41 -55.5 -55.5t-100.5 -14.5h-215zM758 524h278q14 0 22.5 10.5t4.5 22.5l-78 346q-4 20 -8 33.5t-7 24t-8.5 10.5t-6.5 3t-8 -7.5t-9 -12.5
t-10 -19t-13 -24l-184 -342q-10 -16 -0.5 -30.5t27.5 -14.5z" />
    <glyph glyph-name="abreve" unicode="&#x103;" horiz-adv-x="1478" 
d="M846 1030q-272 0 -393 120t-111 323q2 27 21.5 45t48.5 18h247q66 0 74 -76q6 -111 119 -110q145 0 192 137q16 49 64 49h246q39 0 62.5 -23.5t15.5 -56.5q-47 -201 -194.5 -313.5t-391.5 -112.5zM414 -39q-182 0 -262 68.5t-80 212.5q0 166 127 238.5t368 72.5h252
q59 0 60 25v6q0 55 -197 55q-190 0 -320 -43q-31 -10 -56 1t-36 42l-73 197q-25 68 39 90q205 76 546 75q143 0 247 -22.5t184.5 -75.5t111.5 -151.5t8 -241.5l-71 -451q-10 -59 -70 -59h-242q-37 0 -60.5 25.5t-15.5 62.5l3 10q4 16 -3.5 20.5t-25.5 -9.5
q-160 -148 -434 -148zM600 272q72 0 161 28t89 52v4q0 12 -23 13h-235q-80 0 -80 -50q0 -47 88 -47z" />
    <glyph glyph-name="Aogonek" unicode="&#x104;" horiz-adv-x="1751" 
d="M1493 -158q41 4 68.5 -16.5t25.5 -61.5l-2 -94q0 -68 -59 -78q-106 -18 -209 -18q-295 0 -295 195q0 162 188 249q-27 18 -43 84l-12 56q-4 18 -22 18h-603q-10 0 -18 -12l-51 -94q-23 -41 -55.5 -55.5t-100.5 -14.5h-215q-57 0 -81.5 43t3.5 92l715 1221q16 31 55 30
h453q51 0 65 -49l338 -1235q12 -43 -16 -75l25 -23q-281 -96 -281 -141q0 -27 47 -27q19 0 80 6zM1036 524q14 0 22.5 10.5t4.5 22.5l-78 346q-4 20 -8 33.5t-7 24t-8.5 10.5t-6.5 3t-8 -7.5t-9 -12.5t-10 -19t-13 -24l-184 -342q-10 -16 -1 -30.5t28 -14.5h278z" />
    <glyph glyph-name="aogonek" unicode="&#x105;" horiz-adv-x="1478" 
d="M782 1001q143 0 247 -22.5t184.5 -75.5t111.5 -151.5t8 -241.5l-71 -451q-6 -31 -27 -45l16 -14q-281 -96 -280 -141q0 -27 47 -27q18 0 80 6q41 4 68.5 -16.5t25.5 -61.5l-2 -94q0 -68 -60 -78q-106 -18 -208 -18q-295 0 -295 194q0 190 254 275q-12 23 -7 49l3 10
q4 16 -3.5 20.5t-25.5 -9.5q-160 -147 -434 -148q-182 0 -262 68.5t-80 212.5q0 166 127 238.5t368 72.5h252q59 0 60 25v6q0 55 -197 55q-190 0 -320 -43q-31 -10 -56 1t-36 42l-73 197q-25 68 39 90q204 75 546 75zM850 352v4q0 12 -23 13h-235q-80 0 -80 -50
q0 -47 88 -47q72 0 161 27.5t89 52.5z" />
    <glyph glyph-name="Cacute" unicode="&#x106;" horiz-adv-x="1812" 
d="M1520 1823q16 -29 7 -58.5t-38 -46.5l-420 -223q-55 -29 -90 21l-49 67q-39 53 12 96l371 314q29 25 63.5 19.5t53.5 -38.5zM1702 369q23 -23 25 -52.5t-19 -52.5q-299 -303 -807 -303q-438 0 -615 188.5t-124 526.5l10 63q53 336 273.5 511t644.5 175q518 0 714 -282
q37 -55 -18 -96l-250 -181q-49 -37 -94 13q-78 80 -163 112.5t-208 32.5q-182 0 -312 -72.5t-155 -236.5l-10 -72q-14 -84 6.5 -142.5t72.5 -87t110.5 -40t138.5 -11.5q293 0 473 183q55 51 102 6z" />
    <glyph glyph-name="cacute" unicode="&#x107;" horiz-adv-x="1376" 
d="M1237 1399q16 -29 7 -58.5t-38 -46.5l-420 -223q-55 -29 -90 21l-49 67q-39 53 12 96l371 314q29 25 63.5 19.5t53.5 -38.5zM1264 195q16 -25 11 -53.5t-30 -43.5q-221 -137 -633 -137q-289 0 -421 123t-95 385l8 57q76 475 713 475q332 0 520 -124q31 -20 33 -55.5
t-27 -61.5l-176 -166q-35 -35 -84 -6q-96 51 -270 51q-137 0 -202.5 -30.5t-80.5 -110.5l-4 -25q-12 -80 42.5 -114.5t160.5 -34.5q182 0 320 75q66 33 100 -24z" />
    <glyph glyph-name="Cdotaccent" unicode="&#x10a;" horiz-adv-x="1812" 
d="M1098 1477q-125 0 -184.5 71.5t-43.5 198.5q27 209 254 209q125 0 188.5 -66.5t47.5 -187.5q-14 -109 -82.5 -167t-179.5 -58zM1702 369q23 -23 25 -52.5t-19 -52.5q-299 -303 -807 -303q-438 0 -615 188.5t-124 526.5l10 63q53 336 273.5 511t644.5 175q518 0 714 -282
q37 -55 -18 -96l-250 -181q-49 -37 -94 13q-78 80 -163 112.5t-208 32.5q-182 0 -312 -72.5t-155 -236.5l-10 -72q-14 -84 6.5 -142.5t72.5 -87t110.5 -40t138.5 -11.5q293 0 473 183q55 51 102 6z" />
    <glyph glyph-name="cdotaccent" unicode="&#x10b;" horiz-adv-x="1376" 
d="M815 1053q-125 0 -184.5 71.5t-42.5 198.5q27 209 254 209q125 0 188.5 -66.5t46.5 -187.5q-14 -109 -82.5 -167t-179.5 -58zM1264 195q16 -25 11 -53.5t-30 -43.5q-221 -137 -633 -137q-289 0 -421 123t-95 385l8 57q76 475 713 475q332 0 520 -124q31 -20 33 -55.5
t-27 -61.5l-176 -166q-35 -35 -84 -6q-96 51 -270 51q-137 0 -202.5 -30.5t-80.5 -110.5l-4 -25q-12 -80 42.5 -114.5t160.5 -34.5q182 0 320 75q66 33 100 -24z" />
    <glyph glyph-name="Ccaron" unicode="&#x10c;" horiz-adv-x="1812" 
d="M1241 1511q-35 -33 -56.5 -42t-64.5 -9h-90q-39 0 -59.5 10.5t-46.5 45.5l-252 325q-35 47 4 90l74 80q18 20 44.5 23.5t49.5 -13.5l182 -145q57 -45 76.5 -48t68.5 23l248 142q53 31 92 -19l52 -69q37 -47 -9 -93zM1702 369q23 -23 25 -52.5t-19 -52.5
q-299 -303 -807 -303q-438 0 -615 188.5t-124 526.5l10 63q53 336 273.5 511t644.5 175q518 0 714 -282q37 -55 -18 -96l-250 -181q-49 -37 -94 13q-78 80 -163 112.5t-208 32.5q-182 0 -312 -72.5t-155 -236.5l-10 -72q-14 -84 6.5 -142.5t72.5 -87t110.5 -40t138.5 -11.5
q293 0 473 183q55 51 102 6z" />
    <glyph glyph-name="ccaron" unicode="&#x10d;" horiz-adv-x="1376" 
d="M958 1087q-35 -33 -56 -42t-64 -9h-90q-39 0 -59.5 10.5t-47.5 45.5l-252 325q-35 47 4 90l74 80q18 20 45 23.5t49 -13.5l182 -145q57 -45 77 -48t69 23l248 142q53 31 92 -19l51 -69q37 -47 -8 -92zM1264 195q16 -25 11 -53.5t-30 -43.5q-221 -137 -633 -137
q-289 0 -421 123t-95 385l8 57q76 475 713 475q332 0 520 -124q31 -20 33 -55.5t-27 -61.5l-176 -166q-35 -35 -84 -6q-96 51 -270 51q-137 0 -202.5 -30.5t-80.5 -110.5l-4 -25q-12 -80 42.5 -114.5t160.5 -34.5q182 0 320 75q66 33 100 -24z" />
    <glyph glyph-name="Dcaron" unicode="&#x10e;" horiz-adv-x="1933" 
d="M1247 1511q-35 -33 -56.5 -42t-64.5 -9h-90q-39 0 -59.5 10.5t-46.5 45.5l-252 325q-35 47 4 90l74 80q18 20 44.5 23.5t49.5 -13.5l182 -145q57 -45 76.5 -48t69.5 23l247 142q53 31 93 -19l51 -69q37 -47 -8 -93zM1186 1386q387 0 538.5 -179t110.5 -513l-4 -30
q-78 -664 -860 -664h-760q-37 0 -59.5 25.5t-16.5 64.5l195 1237q10 59 69 59h787zM1405 727q23 160 -42 209t-237 49h-395q-20 0 -24 -20l-80 -533q-4 -31 26 -31h359q350 0 387 287z" />
    <glyph glyph-name="dcaron" unicode="&#x10f;" horiz-adv-x="1779" 
d="M1798 991q-39 0 -61.5 28t-14.5 66l86 406q4 25 23.5 40t44.5 15l209 -2q49 0 72.5 -38t3.5 -83l-183 -395q-16 -37 -57 -37h-123zM590 -39q-569 0 -492 524l6 41q76 475 658 475q242 0 375 -90q14 -10 30.5 -5t18.5 26l80 551q2 27 22.5 43t46.5 16h281q37 0 59.5 -25.5
t16.5 -62.5l-211 -1395q-10 -59 -68 -59h-219q-31 0 -52.5 17.5t-21.5 41.5v21q0 18 -19.5 20t-41.5 -12q-193 -127 -469 -127zM717 324q193 0 348 75q49 25 53 68l6 47q0 16 -3 26.5t-6 13.5t-19 17q-74 68 -285 68q-256 0 -279 -139l-4 -25q-24 -151 189 -151z" />
    <glyph glyph-name="Dcroat" unicode="&#x110;" horiz-adv-x="1933" 
d="M1186 1386q387 0 538.5 -179t110.5 -513l-4 -30q-78 -664 -860 -664h-760q-37 0 -59.5 25.5t-16.5 64.5l66 418q-29 6 -46.5 29.5t-13.5 54.5l21 162q4 27 23.5 44t45.5 17h19l80 512q10 59 69 59h787zM1405 727q23 160 -42 209t-237 49h-395q-20 0 -24 -20l-23 -150h498
q35 0 57.5 -25.5t17.5 -60.5l-20 -162q-4 -27 -23.5 -44t-46.5 -17h-530l-10 -74q-4 -31 26 -31h359q350 0 387 287z" />
    <glyph glyph-name="dcroat" unicode="&#x111;" horiz-adv-x="1718" 
d="M1692 1397q35 0 57.5 -25.5t17.5 -60.5l-20 -162q-4 -27 -23.5 -44.5t-46.5 -17.5h-41l-155 -1028q-10 -59 -68 -59h-219q-31 0 -52.5 17.5t-21.5 41.5v21q0 18 -19.5 20t-41.5 -12q-193 -127 -469 -127q-569 0 -492 524l6 41q76 475 658 475q242 0 375 -90
q14 -10 30.5 -5t18.5 26l22 155h-481q-35 0 -57.5 26t-18.5 61l21 161q4 27 23.5 44.5t45.5 17.5h512l13 86q2 27 22.5 43t46.5 16h281q37 0 59.5 -25.5t16.5 -62.5l-9 -57h9zM1118 467l6 47q0 16 -3 26.5t-6 13.5t-19 17q-74 68 -285 68q-256 0 -279 -139l-4 -25
q-25 -152 189 -151q193 0 348 75q49 25 53 68z" />
    <glyph glyph-name="Emacron" unicode="&#x112;" horiz-adv-x="1726" 
d="M1614 1606q-4 -27 -23.5 -44.5t-46.5 -17.5h-913q-35 0 -56.5 25.5t-17.5 60.5l25 197q4 27 23.5 44t45.5 17h914q35 0 57.5 -25.5t17.5 -60.5zM1624 1386q37 0 59.5 -25.5t16.5 -62.5l-39 -243q-10 -59 -68 -60h-860q-20 0 -24 -20l-13 -80q-4 -31 27 -31h594
q37 0 59.5 -25.5t16.5 -64.5l-31 -192q-10 -57 -70 -58h-630q-18 0 -23 -20l-12 -80q-4 -31 26 -31h830q37 0 59.5 -25.5t16.5 -62.5l-39 -246q-10 -59 -68 -59h-1241q-37 0 -59.5 25.5t-16.5 64.5l195 1237q10 59 69 59h1225z" />
    <glyph glyph-name="emacron" unicode="&#x113;" horiz-adv-x="1415" 
d="M1337 1182q-4 -27 -23.5 -44.5t-45.5 -17.5h-914q-35 0 -56.5 25.5t-16.5 60.5l24 197q4 27 23.5 44t46.5 17h913q35 0 57.5 -25.5t18.5 -60.5zM666 -39q-317 0 -465 124t-103 394l11 62q16 113 64 196.5t110.5 133t148.5 80t169 40.5t183 10q137 0 241.5 -22.5
t189.5 -75.5t121 -151.5t18 -239.5l-6 -43q-2 -27 -22.5 -44t-47.5 -17h-715q-27 0 -26 -21v-2q0 -61 178 -61q193 0 319 45q57 23 90 -33l97 -164q35 -59 -50 -109q-173 -102 -505 -102zM604 565h285q27 0 26 23v6q0 45 -139 45q-86 0 -137 -17.5t-51 -39.5v-7
q0 -10 16 -10z" />
    <glyph glyph-name="Edotaccent" unicode="&#x116;" horiz-adv-x="1726" 
d="M1081 1477q-125 0 -184 71.5t-43 198.5q27 209 254 209q125 0 188.5 -66.5t46.5 -187.5q-14 -109 -82.5 -167t-179.5 -58zM1624 1386q37 0 59.5 -25.5t16.5 -62.5l-39 -243q-10 -59 -68 -60h-860q-20 0 -24 -20l-13 -80q-4 -31 27 -31h594q37 0 59.5 -25.5t16.5 -64.5
l-31 -192q-10 -57 -70 -58h-630q-18 0 -23 -20l-12 -80q-4 -31 26 -31h830q37 0 59.5 -25.5t16.5 -62.5l-39 -246q-10 -59 -68 -59h-1241q-37 0 -59.5 25.5t-16.5 64.5l195 1237q10 59 69 59h1225z" />
    <glyph glyph-name="edotaccent" unicode="&#x117;" horiz-adv-x="1415" 
d="M805 1053q-125 0 -184.5 71.5t-42.5 198.5q27 209 253 209q125 0 188.5 -66.5t47.5 -187.5q-14 -109 -82.5 -167t-179.5 -58zM666 -39q-317 0 -465 124t-103 394l11 62q16 113 64 196.5t110.5 133t148.5 80t169 40.5t183 10q137 0 241.5 -22.5t189.5 -75.5t121 -151.5
t18 -239.5l-6 -43q-2 -27 -22.5 -44t-47.5 -17h-715q-27 0 -26 -21v-2q0 -61 178 -61q193 0 319 45q57 23 90 -33l97 -164q35 -59 -50 -109q-173 -102 -505 -102zM604 565h285q27 0 26 23v6q0 45 -139 45q-86 0 -137 -17.5t-51 -39.5v-7q0 -10 16 -10z" />
    <glyph glyph-name="Eogonek" unicode="&#x118;" horiz-adv-x="1726" 
d="M1624 1386q37 0 59.5 -25.5t16.5 -62.5l-39 -243q-10 -59 -68 -60h-860q-20 0 -24 -20l-13 -80q-4 -31 27 -31h594q37 0 59.5 -25.5t16.5 -64.5l-31 -192q-10 -57 -70 -58h-630q-18 0 -23 -20l-12 -80q-4 -31 26 -31h830q37 0 59.5 -25.5t16.5 -62.5l-39 -246
q-6 -35 -33 -51l4 -4q-281 -96 -281 -141q0 -27 47 -27q18 0 80 6q41 4 69 -16.5t26 -61.5l-2 -94q0 -68 -60 -78q-106 -18 -209 -18q-295 0 -295 195q0 143 154 231h-809q-37 0 -59.5 25.5t-16.5 64.5l195 1237q10 59 69 59h1225z" />
    <glyph glyph-name="eogonek" unicode="&#x119;" horiz-adv-x="1415" 
d="M784 1001q137 0 241.5 -22.5t189.5 -75.5t121 -151.5t18 -239.5l-6 -43q-2 -27 -22.5 -44t-47.5 -17h-715q-27 0 -26 -21v-2q0 -61 178 -61q193 0 319 45q57 23 90 -33l97 -164q35 -59 -49.5 -108.5t-210.5 -75.5q-213 -76 -213 -117q0 -27 47 -27q18 0 79 6q41 4 69 -16
t26 -61l-2 -95q0 -68 -60 -77q-106 -18 -209 -19q-295 0 -295 195q0 115 97 194q-477 59 -402 508l11 62q16 113 64 196.5t110.5 133t148.5 80t169 40.5t183 10zM915 588v6q0 45 -139 45q-86 0 -137 -17.5t-51 -39.5v-7q0 -10 16 -10h285q26 0 26 23z" />
    <glyph glyph-name="Ecaron" unicode="&#x11a;" horiz-adv-x="1726" 
d="M1225 1511q-35 -33 -56.5 -42t-64.5 -9h-90q-39 0 -59.5 10.5t-47.5 45.5l-252 325q-35 47 4 90l74 80q18 20 45 23.5t49 -13.5l183 -145q57 -45 76.5 -48t68.5 23l248 142q53 31 92 -19l51 -69q37 -47 -8 -93zM1624 1386q37 0 59.5 -25.5t16.5 -62.5l-39 -243
q-10 -59 -68 -60h-860q-20 0 -24 -20l-13 -80q-4 -31 27 -31h594q37 0 59.5 -25.5t16.5 -64.5l-31 -192q-10 -57 -70 -58h-630q-18 0 -23 -20l-12 -80q-4 -31 26 -31h830q37 0 59.5 -25.5t16.5 -62.5l-39 -246q-10 -59 -68 -59h-1241q-37 0 -59.5 25.5t-16.5 64.5l195 1237
q10 59 69 59h1225z" />
    <glyph glyph-name="ecaron" unicode="&#x11b;" horiz-adv-x="1415" 
d="M948 1087q-35 -33 -56.5 -42t-64.5 -9h-90q-39 0 -59.5 10.5t-46.5 45.5l-252 325q-35 47 4 90l74 80q18 20 44.5 23.5t49.5 -13.5l182 -145q57 -45 76.5 -48t69.5 23l247 142q53 31 93 -19l51 -69q37 -47 -8 -92zM666 -39q-317 0 -465 124t-103 394l11 62
q16 113 64 196.5t110.5 133t148.5 80t169 40.5t183 10q137 0 241.5 -22.5t189.5 -75.5t121 -151.5t18 -239.5l-6 -43q-2 -27 -22.5 -44t-47.5 -17h-715q-27 0 -26 -21v-2q0 -61 178 -61q193 0 319 45q57 23 90 -33l97 -164q35 -59 -50 -109q-173 -102 -505 -102zM604 565
h285q27 0 26 23v6q0 45 -139 45q-86 0 -137 -17.5t-51 -39.5v-7q0 -10 16 -10z" />
    <glyph glyph-name="Gbreve" unicode="&#x11e;" horiz-adv-x="1863" 
d="M1120 1454q-272 0 -393 120t-111 322q2 27 21.5 45.5t48.5 18.5h248q66 0 74 -76q6 -111 118 -110q145 0 193 137q16 49 63 49h246q39 0 62.5 -23.5t15.5 -56.5q-47 -201 -194.5 -313.5t-391.5 -112.5zM901 -39q-438 0 -615 188.5t-124 526.5l10 63q53 336 273.5 511
t644.5 175q227 0 387.5 -50t296.5 -163q27 -20 26.5 -51t-22.5 -55l-205 -211q-49 -53 -107 0q-145 129 -395 129q-182 0 -312 -72.5t-155 -236.5l-10 -72q-27 -164 74.5 -222.5t312.5 -58.5q158 0 311 27q14 0 19 19l2 26q4 29 -25 29h-405q-37 0 -59.5 25.5t-16.5 62.5
l31 194q10 59 67 60h817q37 0 58.5 -25.5t17.5 -62.5l-80 -543q-4 -33 -69 -61q-111 -63 -307.5 -107.5t-440.5 -44.5z" />
    <glyph glyph-name="gbreve" unicode="&#x11f;" horiz-adv-x="1511" 
d="M862 1030q-272 0 -393 120t-111 323q2 27 21.5 45t48.5 18h248q66 0 74 -76q6 -111 118 -110q145 0 193 137q16 49 63 49h246q39 0 62.5 -23.5t15.5 -56.5q-47 -201 -194.5 -313.5t-391.5 -112.5zM578 -438q-348 0 -510 108q-43 31 -17 84l96 187q14 31 46 38t63 -10
q125 -70 295 -69q141 0 224 42t83 97v6q0 27 -94 6q-129 -29 -246 -28q-504 0 -430 477l8 53q74 449 539 448q236 0 360 -86q37 -27 60 7l8 12q23 29 57 29h250q37 0 59.5 -26t16.5 -63l-119 -759q-23 -143 -73 -244.5t-114.5 -161t-159.5 -93.5t-186 -44t-216 -10zM676 365
q164 0 244 67q25 20 30 57l8 52q8 45 -16 59q-57 41 -178 41t-177.5 -26.5t-66.5 -94.5l-4 -24q-10 -68 31 -99.5t129 -31.5z" />
    <glyph glyph-name="Gdotaccent" unicode="&#x120;" horiz-adv-x="1863" 
d="M1116 1477q-125 0 -184.5 71.5t-42.5 198.5q27 209 254 209q125 0 188.5 -66.5t46.5 -187.5q-14 -109 -82.5 -167t-179.5 -58zM901 -39q-438 0 -615 188.5t-124 526.5l10 63q53 336 273.5 511t644.5 175q227 0 387.5 -50t296.5 -163q27 -20 26.5 -51t-22.5 -55l-205 -211
q-49 -53 -107 0q-145 129 -395 129q-182 0 -312 -72.5t-155 -236.5l-10 -72q-27 -164 74.5 -222.5t312.5 -58.5q158 0 311 27q14 0 19 19l2 26q4 29 -25 29h-405q-37 0 -59.5 25.5t-16.5 62.5l31 194q10 59 67 60h817q37 0 58.5 -25.5t17.5 -62.5l-80 -543q-4 -33 -69 -61
q-111 -63 -307.5 -107.5t-440.5 -44.5z" />
    <glyph glyph-name="gdotaccent" unicode="&#x121;" horiz-adv-x="1511" 
d="M858 1053q-125 0 -184.5 71.5t-42.5 198.5q27 209 254 209q125 0 188.5 -66.5t46.5 -187.5q-14 -109 -82.5 -167t-179.5 -58zM578 -438q-348 0 -510 108q-43 31 -17 84l96 187q14 31 46 38t63 -10q125 -70 295 -69q141 0 224 42t83 97v6q0 27 -94 6q-129 -29 -246 -28
q-504 0 -430 477l8 53q74 449 539 448q236 0 360 -86q37 -27 60 7l8 12q23 29 57 29h250q37 0 59.5 -26t16.5 -63l-119 -759q-23 -143 -73 -244.5t-114.5 -161t-159.5 -93.5t-186 -44t-216 -10zM676 365q164 0 244 67q25 20 30 57l8 52q8 45 -16 59q-57 41 -178 41
t-177.5 -26.5t-66.5 -94.5l-4 -24q-10 -68 31 -99.5t129 -31.5z" />
    <glyph glyph-name="uni0122" unicode="&#x122;" horiz-adv-x="1863" 
d="M901 -39q-438 0 -615 188.5t-124 526.5l10 63q53 336 273.5 511t644.5 175q227 0 387.5 -50t296.5 -163q27 -20 26.5 -51t-22.5 -55l-205 -211q-49 -53 -107 0q-145 129 -395 129q-182 0 -312 -72.5t-155 -236.5l-10 -72q-27 -164 74.5 -222.5t312.5 -58.5q158 0 311 27
q14 0 19 19l2 26q4 29 -25 29h-405q-37 0 -59.5 25.5t-16.5 62.5l31 194q10 59 67 60h817q37 0 58.5 -25.5t17.5 -62.5l-80 -543q-4 -33 -69 -61q-111 -63 -307.5 -107.5t-440.5 -44.5zM651 -631q-35 2 -54 29t-13 61l12 66q12 61 84 55q80 -8 154 -2q98 8 139 31
q18 12 8 18q-6 4 -18 -4q-49 -23 -125 -22q-109 0 -155 44t-34 117q23 145 275 146q158 0 240.5 -76t64.5 -215q-25 -152 -183.5 -209t-394.5 -39z" />
    <glyph glyph-name="uni0123" unicode="&#x123;" horiz-adv-x="1511" 
d="M1149 1585q35 -2 54.5 -28.5t13.5 -61.5l-13 -65q-12 -61 -84 -56q-80 8 -153 2q-98 -8 -140 -30q-18 -12 -8 -19q6 -4 19 4q49 23 125 23q109 0 154.5 -44t33.5 -118q-23 -145 -274 -145q-158 0 -241 75.5t-65 214.5q25 152 183.5 209t394.5 39zM578 -438
q-348 0 -510 108q-43 31 -17 84l96 187q14 31 46 38t63 -10q125 -70 295 -69q141 0 224 42t83 97v6q0 27 -94 6q-129 -29 -246 -28q-504 0 -430 477l8 53q74 449 539 448q236 0 360 -86q37 -27 60 7l8 12q23 29 57 29h250q37 0 59.5 -26t16.5 -63l-119 -759
q-23 -143 -73 -244.5t-114.5 -161t-159.5 -93.5t-186 -44t-216 -10zM676 365q164 0 244 67q25 20 30 57l8 52q8 45 -16 59q-57 41 -178 41t-177.5 -26.5t-66.5 -94.5l-4 -24q-10 -68 31 -99.5t129 -31.5z" />
    <glyph glyph-name="Hbar" unicode="&#x126;" horiz-adv-x="1933" 
d="M1937 1315q37 0 58.5 -25.5t17.5 -60.5l-26 -197q-2 -27 -22.5 -44t-47.5 -17h-102l-144 -912q-10 -59 -69 -59h-287q-37 0 -59.5 25.5t-16.5 64.5l61 391q4 31 -26 31h-615q-20 0 -24 -20l-68 -433q-10 -59 -69 -59h-287q-37 0 -59.5 25.5t-16.5 64.5l139 881h-65
q-37 0 -58.5 25.5t-17.5 60.5l27 196q2 27 22.5 44.5t46.5 17.5h99l2 12q10 59 69 59h287q33 0 54.5 -20t23.5 -51h668l2 12q10 59 69 59h287q33 0 54.5 -20t23.5 -51h69zM1370 924l8 47h-667l-6 -37q-4 -31 26 -31h615q20 1 24 21z" />
    <glyph glyph-name="hbar" unicode="&#x127;" horiz-adv-x="1609" 
d="M1049 1001q94 0 168.5 -21.5t137 -70.5t88 -142t5.5 -220l-76 -488q-10 -59 -69 -59h-283q-37 0 -59.5 25.5t-16.5 62.5l57 373q14 92 -16.5 124.5t-112.5 32.5q-106 0 -204 -55q-59 -33 -66 -80l-67 -424q-10 -59 -68 -59h-283q-37 0 -59.5 25.5t-15.5 62.5l151 971h-39
q-35 0 -57.5 25.5t-18.5 60.5l21 162q4 27 23.5 44t46.5 17h73l19 115q10 59 69 59h248q37 0 59.5 -25.5t16.5 -64.5l-12 -84h477q35 0 57.5 -25.5t18.5 -60.5l-21 -162q-4 -27 -23.5 -44t-46.5 -17h-512l-16 -98q-4 -25 9.5 -38.5t31.5 -2.5q146 81 365 81z" />
    <glyph glyph-name="Imacron" unicode="&#x12a;" horiz-adv-x="829" 
d="M1118 1606q-4 -27 -23.5 -44.5t-45.5 -17.5h-914q-35 0 -56.5 25.5t-17.5 60.5l25 197q4 27 23.5 44t46.5 17h913q35 0 57.5 -25.5t18.5 -60.5zM211 0q-37 0 -59.5 25.5t-16.5 64.5l195 1237q10 59 69 59h287q37 0 59.5 -25.5t16.5 -64.5l-195 -1237q-10 -59 -69 -59
h-287z" />
    <glyph glyph-name="imacron" unicode="&#x12b;" horiz-adv-x="808" 
d="M1040 1182q-4 -27 -23.5 -44.5t-45.5 -17.5h-914q-35 0 -56 25.5t-17 60.5l24 197q4 27 23.5 44t46.5 17h913q35 0 57.5 -25.5t18.5 -60.5zM203 0q-37 0 -59.5 25.5t-16.5 62.5l127 815q10 59 70 60h282q37 0 59.5 -26t16.5 -63l-127 -815q-10 -59 -70 -59h-282z" />
    <glyph glyph-name="Iogonek" unicode="&#x12e;" horiz-adv-x="829" 
d="M686 1386q37 0 59.5 -25.5t16.5 -64.5l-195 -1237q-6 -35 -35 -51l5 -4q-281 -96 -281 -141q0 -27 47 -27q18 0 80 6q41 4 68.5 -16.5t25.5 -61.5l-2 -94q0 -68 -59 -78q-106 -18 -209 -18q-295 0 -295 195q0 180 231 268q-14 25 -8 53l195 1237q10 59 69 59h287z" />
    <glyph glyph-name="iogonek" unicode="&#x12f;" horiz-adv-x="808" 
d="M535 1532q125 0 188 -66.5t47 -187.5q-14 -109 -83 -167t-179 -58q-125 0 -184.5 71.5t-42.5 198.5q27 209 254 209zM606 963q37 0 59.5 -26t16.5 -63l-127 -815q-6 -31 -27 -45l17 -14q-281 -96 -281 -141q0 -27 47 -27q18 0 80 6q41 4 68.5 -16.5t25.5 -61.5l-2 -94
q0 -68 -59 -78q-106 -18 -209 -18q-295 0 -295 194q0 178 221 263q-20 27 -14 61l127 815q10 59 70 60h282z" />
    <glyph glyph-name="Idotaccent" unicode="&#x130;" horiz-adv-x="829" 
d="M586 1477q-125 0 -184.5 71.5t-43.5 198.5q27 209 254 209q125 0 188.5 -66.5t47.5 -187.5q-14 -109 -82.5 -167t-179.5 -58zM211 0q-37 0 -59.5 25.5t-16.5 64.5l195 1237q10 59 69 59h287q37 0 59.5 -25.5t16.5 -64.5l-195 -1237q-10 -59 -69 -59h-287z" />
    <glyph glyph-name="dotlessi" unicode="&#x131;" horiz-adv-x="808" 
d="M203 0q-37 0 -59.5 25.5t-16.5 62.5l127 815q10 59 70 60h282q37 0 59.5 -26t16.5 -63l-127 -815q-10 -59 -70 -59h-282z" />
    <glyph glyph-name="uni0136" unicode="&#x136;" horiz-adv-x="1830" 
d="M1640 1384q86 0 112 -73.5t-42 -126.5l-459 -353q-16 -10 -6 -30l377 -668q29 -47 4.5 -90t-80.5 -43h-350q-41 0 -57 33l-258 477q-14 29 -39 8l-224 -172q-8 -4 -8 -12l-43 -275q-10 -59 -69 -59h-287q-37 0 -59.5 25.5t-16.5 64.5l195 1237q10 59 69 59h287
q37 0 59.5 -25.5t16.5 -64.5l-51 -331q-4 -27 15 -38.5t42 5.5l528 414q49 39 119 38h225zM563 -631q-35 2 -54.5 29t-12.5 61l12 66q12 61 84 55q80 -8 153 -2q98 8 140 31q18 12 8 18q-6 4 -19 -4q-49 -23 -124 -22q-109 0 -155 44t-34 117q23 145 275 146
q158 0 240.5 -76t64.5 -215q-25 -152 -183.5 -209t-394.5 -39z" />
    <glyph glyph-name="uni0137" unicode="&#x137;" horiz-adv-x="1505" 
d="M184 0q-37 0 -59.5 25.5t-15.5 62.5l221 1395q10 59 69 59h283q37 0 59.5 -25.5t16.5 -62.5l-105 -657q-4 -27 15.5 -38t42.5 5l190 147q39 31 71 41.5t101 10.5h144q86 0 111.5 -74t-42.5 -127l-196 -156q-18 -14 -9 -31l236 -446q25 -47 0 -88t-78 -41h-340
q-41 0 -57 37l-113 246q-14 31 -41 8l-106 -84q-27 -20 -31 -55l-14 -93q-10 -59 -70 -59h-283zM336 -631q-35 2 -54.5 29t-13.5 61l13 66q12 61 84 55q80 -8 153 -2q98 8 139 31q18 12 9 18q-6 4 -19 -4q-49 -23 -125 -22q-109 0 -154.5 44t-33.5 117q23 145 274 146
q158 0 241 -76t64 -215q-25 -152 -183 -209t-394 -39z" />
    <glyph glyph-name="Lacute" unicode="&#x139;" horiz-adv-x="1519" 
d="M995 1823q16 -29 7 -58.5t-37 -46.5l-420 -223q-55 -29 -90 21l-49 67q-39 53 12 96l370 314q29 25 64 19.5t53 -38.5zM1350 401q37 0 59.5 -25.5t15.5 -64.5l-39 -252q-10 -59 -69 -59h-1106q-37 0 -59.5 25.5t-16.5 64.5l195 1237q10 59 69 59h287q37 0 59.5 -25.5
t16.5 -62.5l-133 -866q-4 -31 26 -31h695z" />
    <glyph glyph-name="lacute" unicode="&#x13a;" horiz-adv-x="772" 
d="M1018 1978q16 -29 7 -58.5t-38 -45.5l-420 -223q-55 -29 -90 20l-49 68q-39 53 12 96l371 313q29 25 63.5 20t53.5 -38zM184 0q-37 0 -59.5 25.5t-15.5 62.5l219 1395q10 59 69 59h283q37 0 59.5 -25.5t16.5 -62.5l-219 -1395q-10 -59 -70 -59h-283z" />
    <glyph glyph-name="uni013B" unicode="&#x13b;" horiz-adv-x="1519" 
d="M1350 401q37 0 59.5 -25.5t15.5 -64.5l-39 -252q-10 -59 -69 -59h-1106q-37 0 -59.5 25.5t-16.5 64.5l195 1237q10 59 69 59h287q37 0 59.5 -25.5t16.5 -62.5l-133 -866q-4 -31 26 -31h695zM432 -631q-35 2 -54.5 29t-12.5 61l12 66q12 61 84 55q80 -8 153 -2
q98 8 140 31q18 12 8 18q-6 4 -19 -4q-49 -23 -125 -22q-109 0 -154.5 44t-33.5 117q23 145 275 146q158 0 240.5 -76t64.5 -215q-25 -152 -183.5 -209t-394.5 -39z" />
    <glyph glyph-name="uni013C" unicode="&#x13c;" horiz-adv-x="772" 
d="M184 0q-37 0 -59.5 25.5t-15.5 62.5l219 1395q10 59 69 59h283q37 0 59.5 -25.5t16.5 -62.5l-219 -1395q-10 -59 -70 -59h-283zM-31 -631q-35 2 -54 29t-13 61l12 66q12 61 84 55q80 -8 154 -2q98 8 139 31q18 12 8 18q-6 4 -18 -4q-49 -23 -125 -22q-109 0 -155 44
t-34 117q23 145 275 146q158 0 240.5 -76t64.5 -215q-25 -152 -183.5 -209t-394.5 -39z" />
    <glyph glyph-name="Lcaron" unicode="&#x13d;" horiz-adv-x="1519" 
d="M1366 1386q49 0 73.5 -36.5t4.5 -81.5l-213 -492q-16 -39 -60 -39h-133q-39 0 -62.5 28t-14.5 66l100 502q10 55 69 56zM1350 401q37 0 59.5 -25.5t15.5 -64.5l-39 -252q-10 -59 -69 -59h-1106q-37 0 -59.5 25.5t-16.5 64.5l195 1237q10 59 69 59h287q37 0 59.5 -25.5
t16.5 -62.5l-133 -866q-4 -31 26 -31h695z" />
    <glyph glyph-name="lcaron" unicode="&#x13e;" horiz-adv-x="874" 
d="M840 991q-39 0 -61.5 28t-14.5 66l86 406q4 25 23.5 40t44.5 15l208 -2q49 0 73 -38t3 -83l-182 -395q-16 -37 -57 -37h-123zM184 0q-37 0 -59.5 25.5t-15.5 62.5l219 1395q10 59 69 59h283q37 0 59.5 -25.5t16.5 -62.5l-219 -1395q-10 -59 -70 -59h-283z" />
    <glyph glyph-name="Lslash" unicode="&#x141;" horiz-adv-x="1519" 
d="M1350 401q37 0 59.5 -25.5t15.5 -64.5l-39 -252q-10 -59 -69 -59h-1106q-37 0 -59.5 25.5t-16.5 64.5l58 373q2 18 -10.5 28.5t-28.5 4.5l-29 -11q-33 -12 -60.5 1.5t-35.5 45.5l-54 177q-8 29 5.5 53t42.5 35l225 82q10 4 14 16l68 432q10 59 69 59h287q37 0 59.5 -25.5
t16.5 -62.5l-31 -196q-2 -20 11.5 -30.5t29.5 -4.5l191 70q31 10 58.5 -3.5t35.5 -46.5l53 -176q8 -27 -4 -52t-41 -36l-385 -139q-10 -4 -14 -16l-37 -236q-4 -31 26 -31h695z" />
    <glyph glyph-name="lslash" unicode="&#x142;" horiz-adv-x="888" 
d="M1073 967q10 -27 -1 -52.5t-38 -37.5l-327 -144q-8 -4 -13 -16l-102 -658q-10 -59 -70 -59h-282q-37 0 -59.5 25.5t-16.5 62.5l61 383q2 20 -11 30.5t-32 2.5l-63 -27q-31 -14 -59.5 -3t-39.5 44l-65 172q-23 61 41 90l287 127q8 4 12 17l88 559q10 59 70 59h282
q37 0 59.5 -25.5t16.5 -62.5l-45 -283q-4 -23 10.5 -33t34.5 -1l100 45q31 14 58.5 1.5t40.5 -44.5z" />
    <glyph glyph-name="Nacute" unicode="&#x143;" horiz-adv-x="1906" 
d="M1546 1823q16 -29 7 -58.5t-37 -46.5l-420 -223q-55 -29 -90 21l-50 67q-39 53 13 96l370 314q29 25 64 19.5t53 -38.5zM1763 1386q37 0 59.5 -25.5t16.5 -64.5l-190 -1210q-8 -47 -31 -66.5t-68 -19.5l-272 -2q-78 0 -123 68l-434 632q-14 27 -36.5 25t-29.5 -41
l-98 -623q-10 -59 -70 -59h-276q-37 0 -59.5 25.5t-16.5 64.5l195 1237q10 59 69 59h340q33 0 52 -26l464 -670q53 -74 66 15l96 622q10 59 70 59h276z" />
    <glyph glyph-name="nacute" unicode="&#x144;" horiz-adv-x="1628" 
d="M1339 1399q16 -29 7 -58.5t-37 -46.5l-420 -223q-55 -29 -90 21l-49 67q-39 53 12 96l371 314q29 25 63.5 19.5t52.5 -38.5zM203 0q-37 0 -59.5 25.5t-16.5 62.5l127 815q10 59 70 60h247q45 0 66 -37l8 -17q12 -23 37 -6q141 98 385 98q94 0 169 -21.5t137.5 -70.5
t88 -142t4.5 -220l-75 -488q-10 -59 -70 -59h-283q-37 0 -59.5 25.5t-15.5 62.5l57 373q14 92 -16.5 124.5t-112.5 32.5q-80 0 -186 -45q-45 -20 -62.5 -38.5t-21.5 -49.5l-68 -426q-10 -59 -68 -59h-282z" />
    <glyph glyph-name="uni0145" unicode="&#x145;" horiz-adv-x="1906" 
d="M1763 1386q37 0 59.5 -25.5t16.5 -64.5l-190 -1210q-8 -47 -31 -66.5t-68 -19.5l-272 -2q-78 0 -123 68l-434 632q-14 27 -36.5 25t-29.5 -41l-98 -623q-10 -59 -70 -59h-276q-37 0 -59.5 25.5t-16.5 64.5l195 1237q10 59 69 59h340q33 0 52 -26l464 -670q53 -74 66 15
l96 622q10 59 70 59h276zM551 -631q-35 2 -54.5 29t-13.5 61l13 66q12 61 84 55q80 -8 153 -2q98 8 139 31q18 12 9 18q-6 4 -19 -4q-49 -23 -125 -22q-109 0 -154.5 44t-33.5 117q23 145 274 146q158 0 241 -76t64 -215q-25 -152 -183 -209t-394 -39z" />
    <glyph glyph-name="uni0146" unicode="&#x146;" horiz-adv-x="1628" 
d="M203 0q-37 0 -59.5 25.5t-16.5 62.5l127 815q10 59 70 60h247q45 0 66 -37l8 -17q12 -23 37 -6q141 98 385 98q94 0 169 -21.5t137.5 -70.5t88 -142t4.5 -220l-75 -488q-10 -59 -70 -59h-283q-37 0 -59.5 25.5t-15.5 62.5l57 373q14 92 -16.5 124.5t-112.5 32.5
q-80 0 -186 -45q-45 -20 -62.5 -38.5t-21.5 -49.5l-68 -426q-10 -59 -68 -59h-282zM397 -631q-35 2 -54 29t-13 61l12 66q12 61 84 55q80 -8 154 -2q98 8 139 31q18 12 8 18q-6 4 -18 -4q-49 -23 -125 -22q-109 0 -155 44t-34 117q23 145 275 146q158 0 240.5 -76t64.5 -215
q-25 -152 -183.5 -209t-394.5 -39z" />
    <glyph glyph-name="Ncaron" unicode="&#x147;" horiz-adv-x="1906" 
d="M1268 1511q-35 -33 -56.5 -42t-64.5 -9h-90q-39 0 -59.5 10.5t-47.5 45.5l-252 325q-35 47 4 90l74 80q18 20 45 23.5t49 -13.5l183 -145q57 -45 76.5 -48t68.5 23l248 142q53 31 92 -19l51 -69q37 -47 -8 -93zM1763 1386q37 0 59.5 -25.5t16.5 -64.5l-190 -1210
q-8 -47 -31 -66.5t-68 -19.5l-272 -2q-78 0 -123 68l-434 632q-14 27 -36.5 25t-29.5 -41l-98 -623q-10 -59 -70 -59h-276q-37 0 -59.5 25.5t-16.5 64.5l195 1237q10 59 69 59h340q33 0 52 -26l464 -670q53 -74 66 15l96 622q10 59 70 59h276z" />
    <glyph glyph-name="ncaron" unicode="&#x148;" horiz-adv-x="1628" 
d="M1061 1087q-35 -33 -56.5 -42t-64.5 -9h-90q-39 0 -59.5 10.5t-47.5 45.5l-251 325q-35 47 4 90l73 80q18 20 45 23.5t50 -13.5l182 -145q57 -45 76.5 -48t68.5 23l248 142q53 31 92 -19l51 -69q37 -47 -8 -92zM203 0q-37 0 -59.5 25.5t-16.5 62.5l127 815q10 59 70 60
h247q45 0 66 -37l8 -17q12 -23 37 -6q141 98 385 98q94 0 169 -21.5t137.5 -70.5t88 -142t4.5 -220l-75 -488q-10 -59 -70 -59h-283q-37 0 -59.5 25.5t-15.5 62.5l57 373q14 92 -16.5 124.5t-112.5 32.5q-80 0 -186 -45q-45 -20 -62.5 -38.5t-21.5 -49.5l-68 -426
q-10 -59 -68 -59h-282z" />
    <glyph glyph-name="Eng" unicode="&#x14a;" horiz-adv-x="1906" 
d="M1763 1386q37 0 59.5 -25.5t16.5 -62.5l-170 -1081q-51 -330 -204.5 -495.5t-450.5 -165.5q-258 0 -449 114q-27 14 -33 43t11 56l135 219q18 31 51 35t64 -19q80 -53 186 -53q123 0 156 41q37 43 -21 125l-393 583q-51 78 -66 -16l-98 -625q-10 -59 -70 -59h-276
q-37 0 -59.5 25.5t-16.5 64.5l195 1237q10 59 69 59h340q33 0 52 -26l464 -674q51 -78 66 14l98 627q10 59 68 59h276z" />
    <glyph glyph-name="eng" unicode="&#x14b;" horiz-adv-x="1628" 
d="M1067 1001q94 0 169 -21.5t136.5 -70.5t87 -141t6.5 -221l-63 -432q-27 -166 -87.5 -280t-154.5 -174t-199.5 -87t-248.5 -31q-33 -2 -53.5 18.5t-20.5 53.5l-2 215q0 29 19.5 50.5t52.5 23.5q229 20 262 235l49 322q14 92 -16.5 124.5t-112.5 32.5q-121 0 -207 -45
q-53 -27 -63 -88l-68 -426q-10 -59 -68 -59h-282q-37 0 -59.5 25.5t-16.5 62.5l127 815q10 59 70 60h247q49 0 62 -29l8 -21q12 -27 51 0q125 88 375 88z" />
    <glyph glyph-name="Omacron" unicode="&#x14c;" horiz-adv-x="1986" 
d="M1696 1606q-4 -27 -23.5 -44.5t-46.5 -17.5h-913q-35 0 -56.5 25.5t-17.5 60.5l25 197q4 27 23.5 44t45.5 17h914q35 0 57 -25.5t18 -60.5zM932 -39q-449 0 -636 189.5t-134 525.5l10 63q109 686 948 686q451 0 638.5 -189t133.5 -525l-10 -64q-108 -686 -950 -686z
M952 362q121 0 220.5 27t179.5 99.5t98 183.5l10 71q14 86 -10.5 143.5t-80.5 86t-119.5 40t-147.5 11.5q-90 0 -168 -15.5t-149.5 -49t-120 -96t-60.5 -148.5l-10 -72q-14 -84 10.5 -142.5t80.5 -87t119.5 -40t147.5 -11.5z" />
    <glyph glyph-name="omacron" unicode="&#x14d;" horiz-adv-x="1529" 
d="M1401 1182q-4 -27 -23.5 -44.5t-46.5 -17.5h-913q-35 0 -56.5 25.5t-17.5 60.5l25 197q4 27 23.5 44t45.5 17h914q35 0 57.5 -25.5t17.5 -60.5zM690 -39q-330 0 -483.5 118t-110.5 388l8 59q76 475 721 475q156 0 274 -26.5t202.5 -85t119.5 -156.5t13 -235l-9 -60
q-76 -477 -735 -477zM717 324q250 0 282 153l5 21q12 82 -38.5 111.5t-154.5 29.5q-250 0 -281 -152l-4 -20q-12 -82 38.5 -112.5t152.5 -30.5z" />
    <glyph glyph-name="Ohungarumlaut" unicode="&#x150;" horiz-adv-x="1986" 
d="M1149 1925q66 0 81 -61.5t-38 -114.5l-168 -168q-47 -49 -115 -49h-73q-43 0 -56.5 31.5t-1.5 58.5l113 229q23 45 45 59.5t65 14.5h148zM1724 1925q57 0 71.5 -52t-19.5 -77l-324 -237q-39 -27 -106 -27h-70q-53 0 -59.5 42t26.5 71l219 229q33 33 53.5 42t61.5 9h147z
M932 -39q-449 0 -636 189.5t-134 525.5l10 63q109 686 948 686q451 0 638.5 -189t133.5 -525l-10 -64q-108 -686 -950 -686zM952 362q121 0 220.5 27t179.5 99.5t98 183.5l10 71q14 86 -10.5 143.5t-80.5 86t-119.5 40t-147.5 11.5q-90 0 -168 -15.5t-149.5 -49t-120 -96
t-60.5 -148.5l-10 -72q-14 -84 10.5 -142.5t80.5 -87t119.5 -40t147.5 -11.5z" />
    <glyph glyph-name="ohungarumlaut" unicode="&#x151;" horiz-adv-x="1529" 
d="M854 1501q66 0 81 -61.5t-38 -114.5l-168 -168q-47 -49 -115 -49h-73q-43 0 -56.5 31.5t-1.5 58.5l113 229q23 45 45.5 59.5t65.5 14.5h147zM1430 1501q57 0 71.5 -52t-20.5 -77l-324 -237q-39 -27 -106 -27h-70q-53 0 -59.5 42t26.5 71l219 229q33 33 53.5 42t61.5 9
h148zM690 -39q-330 0 -483.5 118t-110.5 388l8 59q76 475 721 475q156 0 274 -26.5t202.5 -85t119.5 -156.5t13 -235l-9 -60q-76 -477 -735 -477zM717 324q250 0 282 153l5 21q12 82 -38.5 111.5t-154.5 29.5q-250 0 -281 -152l-4 -20q-12 -82 38.5 -112.5t152.5 -30.5z" />
    <glyph glyph-name="OE" unicode="&#x152;" horiz-adv-x="2908" 
d="M879 -39q-414 0 -592 190.5t-125 524.5l10 63q109 686 948 686q223 0 350 -69q84 -45 97 -29l8 12q2 2 7 9.5t8 10.5t12.5 9t19.5 9t26.5 6t37.5 3h1120q37 0 59.5 -25.5t16.5 -62.5l-39 -243q-10 -59 -68 -60h-817q-20 0 -27 -24l-12 -76q-4 -31 27 -31h553
q37 0 59 -25.5t16 -64.5l-30 -192q-10 -57 -70 -58h-590q-20 0 -24 -20l-13 -78q-4 -31 27 -31l790 -2q37 0 59.5 -25.5t16.5 -62.5l-39 -246q-10 -59 -67 -59h-1145q-70 0 -88 31l-8 14q-10 14 -43 -4q-139 -80 -471 -80zM952 362q449 0 494 289l14 92q6 43 -3 84t-40 89.5
t-112.5 78t-202.5 29.5q-90 0 -168 -15.5t-149.5 -49t-120 -96t-60.5 -148.5l-10 -72q-14 -84 10.5 -142.5t80.5 -87t119.5 -40t147.5 -11.5z" />
    <glyph glyph-name="oe" unicode="&#x153;" horiz-adv-x="2336" 
d="M647 -39q-307 0 -451.5 119t-99.5 387l8 59q76 475 732 475q254 0 387 -88q39 -23 71 -2q152 90 412 90q137 0 241.5 -22.5t189.5 -75.5t121 -151.5t17 -239.5l-6 -43q-2 -27 -22.5 -44t-46.5 -17h-713q-16 0 -25 -13q-6 -10 0 -22q29 -49 174 -49q193 0 320 47
q61 20 88 -35l98 -184q16 -33 6 -63t-43 -42q-227 -86 -544 -86q-258 0 -377 80q-35 25 -74 6q-156 -86 -463 -86zM727 324q240 0 272 153l5 21q12 82 -35 111.5t-148 29.5q-260 0 -291 -152l-4 -20q-12 -82 41.5 -112.5t159.5 -30.5zM1552 565h258q31 0 31 21q0 14 -16 24
q-39 29 -146 29q-92 0 -147 -25q-20 -12 -12 -30q9 -19 32 -19z" />
    <glyph glyph-name="Racute" unicode="&#x154;" horiz-adv-x="1753" 
d="M1468 1823q16 -29 7 -58.5t-37 -46.5l-420 -223q-55 -29 -90 21l-49 67q-39 53 12 96l371 314q29 25 63.5 19.5t52.5 -38.5zM211 0q-37 0 -59.5 25.5t-16.5 64.5l195 1237q10 59 69 59h834q250 0 376 -94t126 -321q0 -401 -338 -516q-35 -10 -17 -41l181 -271
q33 -51 8 -97t-84 -46h-299q-35 0 -53 29l-228 358q-6 10 -18 10h-107h-155q-20 0 -25 -20l-47 -318q-10 -59 -68 -59h-274zM692 770h387q221 0 221 137q0 57 -32.5 72.5t-112.5 15.5h-438q-20 0 -25 -20l-26 -174q-5 -31 26 -31z" />
    <glyph glyph-name="racute" unicode="&#x155;" horiz-adv-x="1218" 
d="M1135 1399q16 -29 7 -58.5t-38 -46.5l-420 -223q-55 -29 -90 21l-49 67q-39 53 12 96l371 314q29 25 63.5 19.5t52.5 -38.5zM1202 948q29 -14 35 -45t-12 -57l-131 -199q-31 -51 -90 -24q-57 23 -127 22q-143 0 -234 -129q-18 -25 -27 -67l-61 -390q-10 -59 -70 -59h-282
q-37 0 -59.5 25.5t-16.5 62.5l127 815q10 59 70 60h217q35 0 49 -12.5t31 -49.5l6 -14q6 -14 17 -14.5t18 8.5q115 121 313 120q131 0 227 -53z" />
    <glyph glyph-name="uni0156" unicode="&#x156;" horiz-adv-x="1753" 
d="M211 0q-37 0 -59.5 25.5t-16.5 64.5l195 1237q10 59 69 59h834q250 0 376 -94t126 -321q0 -401 -338 -516q-35 -10 -17 -41l181 -271q33 -51 8 -97t-84 -46h-299q-35 0 -53 29l-228 358q-6 10 -18 10h-107h-155q-20 0 -25 -20l-47 -318q-10 -59 -68 -59h-274zM692 770
h387q221 0 221 137q0 57 -32.5 72.5t-112.5 15.5h-438q-20 0 -25 -20l-26 -174q-5 -31 26 -31zM473 -631q-35 2 -54.5 29t-12.5 61l12 66q12 61 84 55q80 -8 153 -2q98 8 140 31q18 12 8 18q-6 4 -19 -4q-49 -23 -125 -22q-109 0 -154.5 44t-33.5 117q23 145 274 146
q158 0 241 -76t65 -215q-25 -152 -183.5 -209t-394.5 -39z" />
    <glyph glyph-name="uni0157" unicode="&#x157;" horiz-adv-x="1218" 
d="M1202 948q29 -14 35 -45t-12 -57l-131 -199q-31 -51 -90 -24q-57 23 -127 22q-143 0 -234 -129q-18 -25 -27 -67l-61 -390q-10 -59 -70 -59h-282q-37 0 -59.5 25.5t-16.5 62.5l127 815q10 59 70 60h217q35 0 49 -12.5t31 -49.5l6 -14q6 -14 17 -14.5t18 8.5
q115 121 313 120q131 0 227 -53zM23 -631q-35 2 -54.5 29t-13.5 61l12 66q12 61 84 55q80 -8 154 -2q98 8 139 31q18 12 8 18q-6 4 -18 -4q-49 -23 -125 -22q-109 0 -155 44t-34 117q23 145 275 146q158 0 240.5 -76t64.5 -215q-25 -152 -183 -209t-394 -39z" />
    <glyph glyph-name="Rcaron" unicode="&#x158;" horiz-adv-x="1753" 
d="M1190 1511q-35 -33 -56.5 -42t-64.5 -9h-90q-39 0 -59.5 10.5t-47.5 45.5l-251 325q-35 47 4 90l73 80q18 20 45 23.5t50 -13.5l182 -145q57 -45 76.5 -48t68.5 23l248 142q53 31 92 -19l51 -69q37 -47 -8 -93zM211 0q-37 0 -59.5 25.5t-16.5 64.5l195 1237q10 59 69 59
h834q250 0 376 -94t126 -321q0 -401 -338 -516q-35 -10 -17 -41l181 -271q33 -51 8 -97t-84 -46h-299q-35 0 -53 29l-228 358q-6 10 -18 10h-107h-155q-20 0 -25 -20l-47 -318q-10 -59 -68 -59h-274zM692 770h387q221 0 221 137q0 57 -32.5 72.5t-112.5 15.5h-438
q-20 0 -25 -20l-26 -174q-5 -31 26 -31z" />
    <glyph glyph-name="rcaron" unicode="&#x159;" horiz-adv-x="1218" 
d="M856 1087q-35 -33 -56.5 -42t-64.5 -9h-90q-39 0 -59.5 10.5t-46.5 45.5l-252 325q-35 47 4 90l74 80q18 20 44.5 23.5t49.5 -13.5l182 -145q57 -45 76.5 -48t68.5 23l248 142q53 31 92 -19l52 -69q37 -47 -9 -92zM1202 948q29 -14 35 -45t-12 -57l-131 -199
q-31 -51 -90 -24q-57 23 -127 22q-143 0 -234 -129q-18 -25 -27 -67l-61 -390q-10 -59 -70 -59h-282q-37 0 -59.5 25.5t-16.5 62.5l127 815q10 59 70 60h217q35 0 49 -12.5t31 -49.5l6 -14q6 -14 17 -14.5t18 8.5q115 121 313 120q131 0 227 -53z" />
    <glyph glyph-name="Sacute" unicode="&#x15a;" horiz-adv-x="1679" 
d="M1382 1823q16 -29 7 -58.5t-37 -46.5l-420 -223q-55 -29 -90 21l-49 67q-39 53 12 96l371 314q29 25 63.5 19.5t52.5 -38.5zM778 -39q-473 0 -725 166q-53 37 -16 94l147 240q18 31 50 36t61 -16q180 -129 504 -129q319 0 319 74q0 29 -42 40t-156 19l-234 17
q-487 37 -487 405q0 518 790 518q393 0 672 -112q33 -14 42 -47t-9 -64l-150 -241q-33 -51 -92 -27q-225 104 -565 104q-238 0 -238 -67q0 -55 137 -66l291 -22q96 -6 162 -16.5t138.5 -36t115.5 -64.5t71.5 -104.5t28.5 -155.5q0 -545 -815 -545z" />
    <glyph glyph-name="sacute" unicode="&#x15b;" horiz-adv-x="1261" 
d="M1163 1399q16 -29 7 -58.5t-37 -46.5l-420 -223q-55 -29 -90 21l-50 67q-39 53 13 96l370 314q29 25 64 19.5t53 -38.5zM575 -39q-319 0 -491 59q-59 20 -43 86l47 166q23 78 107 47q156 -55 385 -55q215 0 215 43q0 20 -35 21l-268 8q-399 10 -400 295q0 106 47 181
t136.5 115t197 57t246.5 17q272 0 444 -43q39 -8 53.5 -41.5t-4.5 -68.5l-82 -158q-27 -51 -83 -33q-131 37 -375 37q-170 0 -170 -35q0 -27 67 -28l299 -10q176 -6 259 -67.5t83 -199.5q0 -393 -635 -393z" />
    <glyph glyph-name="Scedilla" unicode="&#x15e;" horiz-adv-x="1679" 
d="M887 1038q-238 0 -238 -67q0 -55 137 -66l291 -22q96 -6 162 -16.5t138.5 -36t115.5 -64.5t71.5 -104.5t28.5 -155.5q0 -545 -815 -545h-4q-4 -16 11.5 -27.5t60.5 -19.5q168 -31 153 -182q-12 -115 -101 -158t-236 -43q-117 0 -207 20q-29 6 -41.5 30t-3.5 54l14 52
q20 66 92 49q49 -8 111 -8q86 0 86 20q0 23 -97 29q-57 4 -80.5 34.5t-13.5 75.5l21 86q-313 37 -490 154q-53 37 -16 94l147 240q18 31 50 36t61 -16q180 -129 504 -129q319 0 319 74q0 29 -42 40t-156 19l-234 17q-487 37 -487 405q0 518 790 518q393 0 672 -112
q33 -14 42 -47t-9 -64l-150 -241q-33 -51 -92 -27q-225 104 -565 104z" />
    <glyph glyph-name="scedilla" unicode="&#x15f;" horiz-adv-x="1261" 
d="M672 694q-170 0 -170 -35q0 -27 67 -28l299 -10q176 -6 259 -67.5t83 -199.5q0 -367 -559 -391q-4 -18 11.5 -29.5t60.5 -19.5q168 -31 154 -182q-12 -115 -101.5 -158t-236.5 -43q-117 0 -207 20q-29 6 -41 30t-4 54l14 52q20 66 92 49q49 -8 111 -8q86 0 86 20
q0 23 -96 29q-57 4 -81 34.5t-14 75.5l19 78q-201 8 -334 55q-59 20 -43 86l47 166q23 78 107 47q156 -55 385 -55q215 0 215 43q0 20 -35 21l-268 8q-399 10 -400 295q0 106 47 181t136.5 115t197 57t246.5 17q272 0 444 -43q39 -8 53.5 -41.5t-4.5 -68.5l-82 -158
q-27 -51 -83 -33q-131 37 -375 37z" />
    <glyph glyph-name="Scaron" unicode="&#x160;" horiz-adv-x="1679" 
d="M1104 1511q-35 -33 -56.5 -42t-64.5 -9h-90q-39 0 -59.5 10.5t-47.5 45.5l-251 325q-35 47 4 90l73 80q18 20 45 23.5t50 -13.5l182 -145q57 -45 76.5 -48t68.5 23l248 142q53 31 92 -19l51 -69q37 -47 -8 -93zM778 -39q-473 0 -725 166q-53 37 -16 94l147 240
q18 31 50 36t61 -16q180 -129 504 -129q319 0 319 74q0 29 -42 40t-156 19l-234 17q-487 37 -487 405q0 518 790 518q393 0 672 -112q33 -14 42 -47t-9 -64l-150 -241q-33 -51 -92 -27q-225 104 -565 104q-238 0 -238 -67q0 -55 137 -66l291 -22q96 -6 162 -16.5t138.5 -36
t115.5 -64.5t71.5 -104.5t28.5 -155.5q0 -545 -815 -545z" />
    <glyph glyph-name="scaron" unicode="&#x161;" horiz-adv-x="1261" 
d="M885 1087q-35 -33 -56.5 -42t-64.5 -9h-90q-39 0 -59.5 10.5t-47.5 45.5l-252 325q-35 47 4 90l74 80q18 20 45 23.5t49 -13.5l183 -145q57 -45 76.5 -48t68.5 23l248 142q53 31 92 -19l51 -69q37 -47 -8 -92zM575 -39q-319 0 -491 59q-59 20 -43 86l47 166q23 78 107 47
q156 -55 385 -55q215 0 215 43q0 20 -35 21l-268 8q-399 10 -400 295q0 106 47 181t136.5 115t197 57t246.5 17q272 0 444 -43q39 -8 53.5 -41.5t-4.5 -68.5l-82 -158q-27 -51 -83 -33q-131 37 -375 37q-170 0 -170 -35q0 -27 67 -28l299 -10q176 -6 259 -67.5t83 -199.5
q0 -393 -635 -393z" />
    <glyph glyph-name="uni0162" unicode="&#x162;" horiz-adv-x="1574" 
d="M1589 1386q37 0 59.5 -25.5t16.5 -62.5l-39 -243q-10 -59 -67 -60h-453q-20 0 -25 -20l-141 -916q-10 -59 -70 -59h-131l-8 -37q-4 -18 11.5 -29.5t60.5 -19.5q168 -31 153 -182q-12 -115 -101 -158t-237 -43q-117 0 -206 20q-29 6 -41.5 30t-3.5 54l14 52q20 66 92 49
q49 -8 111 -8q86 0 86 20q0 23 -97 29q-57 4 -80.5 34.5t-13.5 75.5l27 113h78q-37 0 -59.5 25.5t-16.5 62.5l137 877q4 31 -27 30h-407q-37 0 -59.5 26t-16.5 62l39 244q10 59 68 59h1347z" />
    <glyph glyph-name="uni0163" unicode="&#x163;" horiz-adv-x="1265" 
d="M1182 963q37 0 59.5 -26t15.5 -65l-30 -194q-10 -59 -68 -60h-477q-20 0 -25 -20l-10 -68q-20 -121 13.5 -160.5t115.5 -39.5q129 0 242 41q33 12 62.5 -0.5t39.5 -46.5l66 -207q16 -55 -8 -70q-141 -72 -408 -84q-4 -18 11.5 -29.5t60.5 -19.5q168 -31 153 -182
q-12 -115 -101 -158t-237 -43q-117 0 -206 20q-29 6 -41.5 30t-3.5 54l14 52q20 66 92 49q49 -8 111 -8q86 0 86 20q0 23 -97 29q-57 4 -80.5 34.5t-13.5 75.5l19 82q-403 55 -334 498l20 121q4 31 -26 30h-17q-37 0 -59.5 26t-16.5 63l31 196q10 59 68 60h57q20 0 25 20
l26 178q10 59 70 60h285q37 0 59.5 -26t15.5 -62l-22 -140q-4 -31 26 -30h437z" />
    <glyph glyph-name="Tcaron" unicode="&#x164;" horiz-adv-x="1574" 
d="M1102 1511q-35 -33 -56.5 -42t-64.5 -9h-90q-39 0 -59.5 10.5t-47.5 45.5l-252 325q-35 47 5 90l73 80q18 20 45 23.5t50 -13.5l182 -145q57 -45 76.5 -48t68.5 23l248 142q53 31 92 -19l51 -69q37 -47 -8 -93zM1589 1386q37 0 59.5 -25.5t16.5 -62.5l-39 -243
q-10 -59 -67 -60h-453q-20 0 -25 -20l-141 -916q-10 -59 -70 -59h-286q-37 0 -59.5 25.5t-16.5 62.5l137 877q4 31 -27 30h-407q-37 0 -59.5 26t-16.5 62l39 244q10 59 68 59h1347z" />
    <glyph glyph-name="tcaron" unicode="&#x165;" horiz-adv-x="1265" 
d="M918 1067q-39 0 -61.5 27.5t-14.5 66.5l86 406q4 25 23.5 40t43.5 15l209 -2q49 0 72.5 -38t3.5 -83l-182 -395q-16 -37 -58 -37h-122zM1182 963q37 0 59.5 -26t15.5 -65l-30 -194q-10 -59 -68 -60h-477q-20 0 -25 -20l-10 -68q-20 -121 13.5 -160.5t115.5 -39.5
q129 0 242 41q33 12 62.5 -0.5t39.5 -46.5l66 -207q16 -55 -8 -70q-168 -86 -519 -86q-537 0 -456 506l20 121q4 31 -26 30h-17q-37 0 -59.5 26t-16.5 63l31 196q10 59 68 60h57q20 0 25 20l26 178q10 59 70 60h285q37 0 59.5 -26t15.5 -62l-22 -140q-4 -31 26 -30h437z" />
    <glyph glyph-name="Tbar" unicode="&#x166;" horiz-adv-x="1574" 
d="M1589 1386q37 0 59.5 -25.5t16.5 -62.5l-39 -243q-10 -59 -67 -60h-453q-20 0 -25 -20l-24 -160h260q35 0 57.5 -25.5t18.5 -60.5l-21 -162q-4 -27 -23.5 -44t-45.5 -17h-293l-70 -447q-10 -59 -70 -59h-286q-37 0 -59.5 25.5t-16.5 62.5l65 418h-221q-35 0 -57.5 25.5
t-18.5 60.5l21 162q4 27 23.5 44t46.5 17h256l22 150q4 31 -27 30h-407q-37 0 -59.5 26t-16.5 62l39 244q10 59 68 59h1347z" />
    <glyph glyph-name="tbar" unicode="&#x167;" horiz-adv-x="1265" 
d="M659 -39q-236 0 -359.5 102.5t-106.5 333.5l2 17q4 29 -25 28h-20q-37 0 -58.5 26t-17.5 60l4 37q2 27 21.5 44.5t47.5 17.5h60q20 0 24 20v2q4 29 -26 29h-17q-37 0 -59.5 25.5t-15.5 64.5l20 135q10 59 70 60h57q20 0 25 20l26 178q10 59 70 60h285q37 0 59.5 -26
t15.5 -62l-22 -140q-4 -31 26 -30h437q37 0 59.5 -26t15.5 -63l-20 -137q-10 -59 -70 -59h-477q-20 0 -24 -21v-2q-4 -29 26 -28h406q37 0 58.5 -26t17.5 -60l-5 -37q-4 -27 -23.5 -44.5t-45.5 -17.5h-430q-25 0 -25 -28v-6q0 -35 39 -56.5t92 -21.5q139 0 244 28
q35 10 61.5 -4t34.5 -49l51 -213q14 -59 -12 -69q-144 -62 -496 -62z" />
    <glyph glyph-name="Umacron" unicode="&#x16a;" horiz-adv-x="1857" 
d="M1632 1606q-4 -27 -23.5 -44.5t-45.5 -17.5h-914q-35 0 -56.5 25.5t-17.5 60.5l25 197q4 27 23.5 44t46.5 17h913q35 0 57.5 -25.5t18.5 -60.5zM852 -39q-768 0 -649 760l96 606q10 59 70 59h286q37 0 59.5 -25.5t16.5 -64.5l-96 -608q-31 -193 34.5 -259.5t202.5 -66.5
q98 0 178 28t150 111t90 216l96 610q10 59 70 59h287q37 0 59.5 -25.5t16.5 -64.5l-97 -604q-57 -365 -266 -548t-604 -183z" />
    <glyph glyph-name="umacron" unicode="&#x16b;" horiz-adv-x="1628" 
d="M1450 1182q-4 -27 -23.5 -44.5t-46.5 -17.5h-913q-35 0 -56.5 25.5t-17.5 60.5l25 197q4 27 23.5 44t45.5 17h914q35 0 57.5 -25.5t18.5 -60.5zM1442 961q37 0 59.5 -26t16.5 -63l-127 -815q-10 -59 -70 -59h-248q-57 0 -65 35l-4 20q-4 25 -29 8q-156 -102 -397 -102
q-94 0 -169 21.5t-137.5 70.5t-88 142.5t-5.5 220.5l76 487q10 59 70 60h282q37 0 59.5 -26t16.5 -65l-59 -370q-14 -92 17.5 -125t113.5 -33q123 0 231 70q33 20 37 57l70 432q10 59 67 60h283z" />
    <glyph glyph-name="Uring" unicode="&#x16e;" horiz-adv-x="1857" 
d="M1100 1454q-270 0 -382 88t-91 238l2 12q20 147 139 224t379 77q270 0 376.5 -87t86.5 -239v-12q-20 -147 -135 -224t-375 -77zM1098 1714q190 0 200 64l2 10q2 18 -7 26.5t-41.5 13.5t-100.5 5q-199 0 -209 -59l-2 -11q-2 -16 9.5 -26.5t47 -16.5t101.5 -6zM852 -39
q-768 0 -649 760l96 606q10 59 70 59h286q37 0 59.5 -25.5t16.5 -64.5l-96 -608q-31 -193 34.5 -259.5t202.5 -66.5q98 0 178 28t150 111t90 216l96 610q10 59 70 59h287q37 0 59.5 -25.5t16.5 -64.5l-97 -604q-57 -365 -266 -548t-604 -183z" />
    <glyph glyph-name="uring" unicode="&#x16f;" horiz-adv-x="1628" 
d="M918 1069q-287 0 -391.5 83t-82.5 243l5 30q39 283 561 283q240 0 343 -81t74 -247l-2 -12q-50 -299 -507 -299zM899 1329q217 0 217 74v6q0 23 -28.5 31t-106.5 8q-225 0 -225 -62v-6q0 -27 28.5 -39t114.5 -12zM1442 961q37 0 59.5 -26t16.5 -63l-127 -815
q-10 -59 -70 -59h-248q-57 0 -65 35l-4 20q-4 25 -29 8q-156 -102 -397 -102q-94 0 -169 21.5t-137.5 70.5t-88 142.5t-5.5 220.5l76 487q10 59 70 60h282q37 0 59.5 -26t16.5 -65l-59 -370q-14 -92 17.5 -125t113.5 -33q123 0 231 70q33 20 37 57l70 432q10 59 67 60h283z
" />
    <glyph glyph-name="Uhungarumlaut" unicode="&#x170;" horiz-adv-x="1857" 
d="M1085 1925q66 0 81.5 -61.5t-38.5 -114.5l-167 -168q-47 -49 -115 -49h-74q-43 0 -56.5 31.5t-0.5 58.5l112 229q23 45 45.5 59.5t65.5 14.5h147zM1661 1925q57 0 71.5 -52t-20.5 -77l-323 -237q-41 -27 -107 -27h-70q-53 0 -59 42t27 71l219 229q33 33 53.5 42t60.5 9
h148zM852 -39q-768 0 -649 760l96 606q10 59 70 59h286q37 0 59.5 -25.5t16.5 -64.5l-96 -608q-31 -193 34.5 -259.5t202.5 -66.5q98 0 178 28t150 111t90 216l96 610q10 59 70 59h287q37 0 59.5 -25.5t16.5 -64.5l-97 -604q-57 -365 -266 -548t-604 -183z" />
    <glyph glyph-name="uhungarumlaut" unicode="&#x171;" horiz-adv-x="1628" 
d="M903 1501q66 0 81 -61.5t-38 -114.5l-168 -168q-47 -49 -114 -49h-74q-43 0 -56.5 31.5t-1.5 58.5l113 229q23 45 45.5 59.5t65.5 14.5h147zM1479 1501q57 0 71.5 -52t-20.5 -77l-324 -237q-39 -27 -106 -27h-70q-53 0 -59 42t26 71l220 229q33 33 53 42t61 9h148z
M1442 961q37 0 59.5 -26t16.5 -63l-127 -815q-10 -59 -70 -59h-248q-57 0 -65 35l-4 20q-4 25 -29 8q-156 -102 -397 -102q-94 0 -169 21.5t-137.5 70.5t-88 142.5t-5.5 220.5l76 487q10 59 70 60h282q37 0 59.5 -26t16.5 -65l-59 -370q-14 -92 17.5 -125t113.5 -33
q123 0 231 70q33 20 37 57l70 432q10 59 67 60h283z" />
    <glyph glyph-name="Uogonek" unicode="&#x172;" horiz-adv-x="1857" 
d="M1743 1386q37 0 59.5 -25.5t16.5 -64.5l-97 -604q-47 -299 -194.5 -476t-413.5 -230q-125 -51 -125 -84q0 -27 47 -27q18 0 80 6q41 4 68.5 -16.5t25.5 -61.5l-2 -94q0 -68 -59 -78q-106 -18 -209 -18q-295 0 -295 194q0 94 62 162q-610 68 -504 752l96 606q10 59 70 59
h286q37 0 59.5 -25.5t16.5 -64.5l-96 -608q-31 -193 34.5 -259.5t202.5 -66.5q98 0 178 28t150 111t90 216l96 610q10 59 70 59h287z" />
    <glyph glyph-name="uogonek" unicode="&#x173;" horiz-adv-x="1628" 
d="M1442 961q37 0 59.5 -26t16.5 -63l-127 -815q-6 -31 -27 -45l16 -14q-281 -96 -280 -141q0 -27 47 -27q18 0 80 6q41 4 68.5 -16.5t25.5 -61.5l-2 -94q0 -68 -59 -78q-106 -18 -209 -18q-295 0 -295 194q0 188 252 275l-4 16q-4 25 -29 8q-156 -102 -397 -102
q-94 0 -169 21.5t-137.5 70.5t-88 142.5t-5.5 220.5l76 487q10 59 70 60h282q37 0 59.5 -26t16.5 -65l-59 -370q-14 -92 17.5 -125t113.5 -33q123 0 231 70q33 20 37 57l70 432q10 59 67 60h283z" />
    <glyph glyph-name="Wcircumflex" unicode="&#x174;" horiz-adv-x="2809" 
d="M1466 2001q35 33 56.5 42t64.5 9h90q39 0 59.5 -10t47.5 -45l252 -326q35 -47 -4 -90l-74 -80q-18 -20 -45 -23t-49 13l-183 145q-57 45 -76.5 48.5t-68.5 -23.5l-248 -141q-53 -31 -92 18l-51 70q-37 47 8 92zM2726 1386q53 0 78.5 -40.5t-0.5 -90.5l-664 -1222
q-16 -33 -57 -33h-365q-25 0 -44 15.5t-23 37.5l-158 709q-12 53 -28.5 55t-41.5 -45l-397 -739q-16 -33 -57 -33h-365q-53 0 -67 53l-285 1237q-10 39 13.5 67.5t62.5 28.5h331q59 0 70 -57l111 -667q6 -37 17 -51.5t26.5 -5.5t31.5 44l345 703q16 35 59 34h434
q27 0 45.5 -16t22.5 -41l125 -672q6 -35 17 -49t26.5 -4t31.5 43l334 703q16 37 60 36h311z" />
    <glyph glyph-name="wcircumflex" unicode="&#x175;" horiz-adv-x="2299" 
d="M1145 1577q35 33 56.5 42t64.5 9h90q39 0 59.5 -10t46.5 -45l252 -326q35 -47 -4 -90l-74 -80q-18 -20 -44.5 -23t-49.5 13l-182 145q-57 45 -76.5 48.5t-69.5 -23.5l-247 -141q-53 -31 -93 18l-51 70q-37 47 8 92zM2191 963q57 0 81 -44.5t-5 -93.5l-481 -794
q-18 -31 -53 -31h-443q-59 0 -69 57l-54 318q-4 29 -31.5 34t-41.5 -22l-179 -352q-16 -35 -57 -35h-416q-53 0 -65 49l-238 809q-12 41 11.5 73t66.5 32h356q27 0 46.5 -17.5t23.5 -44.5l41 -309q6 -47 21.5 -56.5t31 6t25.5 38.5l164 346q16 37 59 37h459q59 0 69 -60
l50 -313q6 -39 29.5 -50.5t49.5 40.5l154 344q18 39 59 39h336z" />
    <glyph glyph-name="Ycircumflex" unicode="&#x176;" horiz-adv-x="1970" 
d="M1047 2001q35 33 56 42t64 9h90q39 0 59.5 -10t47.5 -45l252 -326q35 -47 -4 -90l-74 -80q-18 -20 -45 -23t-49 13l-182 145q-57 45 -77 48.5t-69 -23.5l-248 -141q-53 -31 -92 18l-51 70q-37 47 8 92zM1817 1386q72 0 97 -56t-24 -111l-641 -711q-33 -35 -41 -54.5
t-16 -82.5l-49 -312q-10 -59 -68 -59h-287q-37 0 -59 25.5t-16 62.5l43 291q10 66 5 90.5t-38 79.5l-418 700q-29 47 -4 92t82 45h291q39 0 55 -32l287 -516q8 -14 22.5 -15.5t24.5 11.5l457 532q16 20 47 20h250z" />
    <glyph glyph-name="ycircumflex" unicode="&#x177;" horiz-adv-x="1576" 
d="M782 1577q35 33 56.5 42t64.5 9h90q39 0 59.5 -10t47.5 -45l252 -326q35 -47 -4 -90l-74 -80q-18 -20 -45 -23t-49 13l-183 145q-57 45 -76.5 48.5t-68.5 -23.5l-248 -141q-53 -31 -92 18l-51 70q-37 47 8 92zM1450 963q61 0 87 -47.5t-9 -98.5l-821 -1190
q-18 -27 -52 -26h-258q-61 0 -86.5 47t8.5 98l103 162q47 57 24 117l-296 827q-14 45 8 78t69 33h355q51 0 65 -54l94 -401q20 -84 66 -10l262 434q18 31 53 31h328z" />
    <glyph glyph-name="Ydieresis" unicode="&#x178;" horiz-adv-x="1970" 
d="M877 1477q-125 0 -185.5 71.5t-44.5 198.5q27 209 256 209q123 0 186.5 -67.5t47.5 -186.5q-14 -109 -82.5 -167t-177.5 -58zM1444 1477q-125 0 -184.5 71.5t-42.5 198.5q27 209 253 209q125 0 188.5 -66.5t47.5 -187.5q-14 -109 -82.5 -167t-179.5 -58zM1817 1386
q72 0 97 -56t-24 -111l-641 -711q-33 -35 -41 -54.5t-16 -82.5l-49 -312q-10 -59 -68 -59h-287q-37 0 -59 25.5t-16 62.5l43 291q10 66 5 90.5t-38 79.5l-418 700q-29 47 -4 92t82 45h291q39 0 55 -32l287 -516q8 -14 22.5 -15.5t24.5 11.5l457 532q16 20 47 20h250z" />
    <glyph glyph-name="Zacute" unicode="&#x179;" horiz-adv-x="1574" 
d="M1380 1823q16 -29 7 -58.5t-37 -46.5l-420 -223q-55 -29 -90 21l-49 67q-39 53 12 96l371 314q29 25 63.5 19.5t52.5 -38.5zM1571 1386q37 0 58.5 -25.5t17.5 -62.5l-27 -180q-8 -53 -20.5 -73.5t-53.5 -53.5l-682 -530q-55 -45 -47 -58q8 -12 51 -12h564q37 0 59 -25.5
t16 -62.5l-39 -244q-10 -59 -67 -59h-1329q-39 0 -60.5 31.5t-13.5 91.5l22 143q10 63 74 115l703 545q53 41 55 51q0 18 -43 18h-598q-37 0 -59.5 26t-16.5 62l39 244q10 59 68 59h1329z" />
    <glyph glyph-name="zacute" unicode="&#x17a;" horiz-adv-x="1267" 
d="M1159 1399q16 -29 7 -58.5t-38 -46.5l-419 -223q-55 -29 -91 21l-49 67q-39 53 13 96l370 314q29 25 64 19.5t53 -38.5zM1182 963q37 0 60.5 -26t17.5 -63l-27 -167q-8 -55 -22.5 -77t-63.5 -52l-250 -156q-127 -78 23 -78h184q37 0 59.5 -25.5t16.5 -62.5l-31 -197
q-10 -59 -68 -59h-979q-37 0 -60.5 25.5t-16.5 62.5l24 160q8 53 20.5 73.5t53.5 47.5l266 174q25 16 38 31.5t3 29.5t-63 14h-166q-37 0 -59.5 26t-16.5 63l31 196q10 59 67 60h959z" />
    <glyph glyph-name="Zdotaccent" unicode="&#x17b;" horiz-adv-x="1574" 
d="M958 1477q-125 0 -184 71.5t-43 198.5q27 209 254 209q125 0 188.5 -66.5t47.5 -187.5q-14 -109 -83 -167t-180 -58zM1571 1386q37 0 58.5 -25.5t17.5 -62.5l-27 -180q-8 -53 -20.5 -73.5t-53.5 -53.5l-682 -530q-55 -45 -47 -58q8 -12 51 -12h564q37 0 59 -25.5
t16 -62.5l-39 -244q-10 -59 -67 -59h-1329q-39 0 -60.5 31.5t-13.5 91.5l22 143q10 63 74 115l703 545q53 41 55 51q0 18 -43 18h-598q-37 0 -59.5 26t-16.5 62l39 244q10 59 68 59h1329z" />
    <glyph glyph-name="zdotaccent" unicode="&#x17c;" horiz-adv-x="1267" 
d="M737 1053q-125 0 -184 71.5t-43 198.5q27 209 254 209q125 0 188.5 -66.5t46.5 -187.5q-14 -109 -82.5 -167t-179.5 -58zM1182 963q37 0 60.5 -26t17.5 -63l-27 -167q-8 -55 -22.5 -77t-63.5 -52l-250 -156q-127 -78 23 -78h184q37 0 59.5 -25.5t16.5 -62.5l-31 -197
q-10 -59 -68 -59h-979q-37 0 -60.5 25.5t-16.5 62.5l24 160q8 53 20.5 73.5t53.5 47.5l266 174q25 16 38 31.5t3 29.5t-63 14h-166q-37 0 -59.5 26t-16.5 63l31 196q10 59 67 60h959z" />
    <glyph glyph-name="Zcaron" unicode="&#x17d;" horiz-adv-x="1574" 
d="M1102 1511q-35 -33 -56.5 -42t-64.5 -9h-90q-39 0 -59.5 10.5t-47.5 45.5l-252 325q-35 47 5 90l73 80q18 20 45 23.5t50 -13.5l182 -145q57 -45 76.5 -48t68.5 23l248 142q53 31 92 -19l51 -69q37 -47 -8 -93zM1571 1386q37 0 58.5 -25.5t17.5 -62.5l-27 -180
q-8 -53 -20.5 -73.5t-53.5 -53.5l-682 -530q-55 -45 -47 -58q8 -12 51 -12h564q37 0 59 -25.5t16 -62.5l-39 -244q-10 -59 -67 -59h-1329q-39 0 -60.5 31.5t-13.5 91.5l22 143q10 63 74 115l703 545q53 41 55 51q0 18 -43 18h-598q-37 0 -59.5 26t-16.5 62l39 244
q10 59 68 59h1329z" />
    <glyph glyph-name="zcaron" unicode="&#x17e;" horiz-adv-x="1267" 
d="M881 1087q-35 -33 -56.5 -42t-64.5 -9h-90q-39 0 -59.5 10.5t-47.5 45.5l-252 325q-35 47 4 90l74 80q18 20 45 23.5t49 -13.5l183 -145q57 -45 76.5 -48t68.5 23l248 142q53 31 92 -19l51 -69q37 -47 -8 -92zM1182 963q37 0 60.5 -26t17.5 -63l-27 -167
q-8 -55 -22.5 -77t-63.5 -52l-250 -156q-127 -78 23 -78h184q37 0 59.5 -25.5t16.5 -62.5l-31 -197q-10 -59 -68 -59h-979q-37 0 -60.5 25.5t-16.5 62.5l24 160q8 53 20.5 73.5t53.5 47.5l266 174q25 16 38 31.5t3 29.5t-63 14h-166q-37 0 -59.5 26t-16.5 63l31 196
q10 59 67 60h959z" />
    <glyph glyph-name="uni01CD" unicode="&#x1cd;" horiz-adv-x="1751" 
d="M1194 1511q-35 -33 -56.5 -42t-64.5 -9h-90q-39 0 -59.5 10.5t-46.5 45.5l-252 325q-35 47 4 90l73 80q18 20 45 23.5t50 -13.5l182 -145q57 -45 76.5 -48t68.5 23l248 142q53 31 92 -19l52 -69q37 -47 -9 -93zM90 0q-57 0 -81.5 43t3.5 92l715 1221q16 31 55 30h453
q51 0 65 -49l338 -1235q10 -41 -12 -71.5t-63 -30.5h-279q-53 0 -77.5 21.5t-39.5 80.5l-12 56q-4 18 -22 18h-603q-10 0 -18 -12l-51 -94q-23 -41 -55.5 -55.5t-100.5 -14.5h-215zM758 524h278q14 0 22.5 10.5t4.5 22.5l-78 346q-4 20 -8 33.5t-7 24t-8.5 10.5t-6.5 3
t-8 -7.5t-9 -12.5t-10 -19t-13 -24l-184 -342q-10 -16 -0.5 -30.5t27.5 -14.5z" />
    <glyph glyph-name="uni01CE" unicode="&#x1ce;" horiz-adv-x="1478" 
d="M985 1087q-35 -33 -56.5 -42t-64.5 -9h-90q-39 0 -59.5 10.5t-46.5 45.5l-252 325q-35 47 4 90l74 80q18 20 44.5 23.5t49.5 -13.5l182 -145q57 -45 76.5 -48t68.5 23l248 142q53 31 92 -19l52 -69q37 -47 -9 -92zM414 -39q-182 0 -262 68.5t-80 212.5q0 166 127 238.5
t368 72.5h252q59 0 60 25v6q0 55 -197 55q-190 0 -320 -43q-31 -10 -56 1t-36 42l-73 197q-25 68 39 90q205 76 546 75q143 0 247 -22.5t184.5 -75.5t111.5 -151.5t8 -241.5l-71 -451q-10 -59 -70 -59h-242q-37 0 -60.5 25.5t-15.5 62.5l3 10q4 16 -3.5 20.5t-25.5 -9.5
q-160 -148 -434 -148zM600 272q72 0 161 28t89 52v4q0 12 -23 13h-235q-80 0 -80 -50q0 -47 88 -47z" />
    <glyph glyph-name="uni01CF" unicode="&#x1cf;" horiz-adv-x="829" 
d="M729 1511q-35 -33 -56.5 -42t-64.5 -9h-90q-39 0 -59.5 10.5t-46.5 45.5l-252 325q-35 47 4 90l74 80q18 20 44.5 23.5t49.5 -13.5l182 -145q57 -45 76.5 -48t68.5 23l248 142q53 31 92 -19l52 -69q37 -47 -9 -93zM211 0q-37 0 -59.5 25.5t-16.5 64.5l195 1237
q10 59 69 59h287q37 0 59.5 -25.5t16.5 -64.5l-195 -1237q-10 -59 -69 -59h-287z" />
    <glyph glyph-name="uni01D0" unicode="&#x1d0;" horiz-adv-x="808" 
d="M651 1087q-35 -33 -56.5 -42t-64.5 -9h-90q-39 0 -59.5 10.5t-46.5 45.5l-252 325q-35 47 4 90l74 80q18 20 44.5 23.5t49.5 -13.5l182 -145q57 -45 76.5 -48t69.5 23l247 142q53 31 93 -19l51 -69q37 -47 -8 -92zM203 0q-37 0 -59.5 25.5t-16.5 62.5l127 815
q10 59 70 60h282q37 0 59.5 -26t16.5 -63l-127 -815q-10 -59 -70 -59h-282z" />
    <glyph glyph-name="uni01D1" unicode="&#x1d1;" horiz-adv-x="1986" 
d="M1307 1511q-35 -33 -56.5 -42t-64.5 -9h-90q-39 0 -59.5 10.5t-47.5 45.5l-252 325q-35 47 4 90l74 80q18 20 45 23.5t49 -13.5l183 -145q57 -45 76.5 -48t68.5 23l248 142q53 31 92 -19l51 -69q37 -47 -8 -93zM932 -39q-449 0 -636 189.5t-134 525.5l10 63
q109 686 948 686q451 0 638.5 -189t133.5 -525l-10 -64q-108 -686 -950 -686zM952 362q121 0 220.5 27t179.5 99.5t98 183.5l10 71q14 86 -10.5 143.5t-80.5 86t-119.5 40t-147.5 11.5q-90 0 -168 -15.5t-149.5 -49t-120 -96t-60.5 -148.5l-10 -72q-14 -84 10.5 -142.5
t80.5 -87t119.5 -40t147.5 -11.5z" />
    <glyph glyph-name="uni01D2" unicode="&#x1d2;" horiz-adv-x="1529" 
d="M1012 1087q-35 -33 -56.5 -42t-64.5 -9h-90q-39 0 -59.5 10.5t-47.5 45.5l-252 325q-35 47 4 90l74 80q18 20 45 23.5t49 -13.5l183 -145q57 -45 76.5 -48t68.5 23l248 142q53 31 92 -19l51 -69q37 -47 -8 -92zM690 -39q-330 0 -483.5 118t-110.5 388l8 59
q76 475 721 475q156 0 274 -26.5t202.5 -85t119.5 -156.5t13 -235l-9 -60q-76 -477 -735 -477zM717 324q250 0 282 153l5 21q12 82 -38.5 111.5t-154.5 29.5q-250 0 -281 -152l-4 -20q-12 -82 38.5 -112.5t152.5 -30.5z" />
    <glyph glyph-name="uni01D3" unicode="&#x1d3;" horiz-adv-x="1857" 
d="M1243 1511q-35 -33 -56.5 -42t-64.5 -9h-90q-39 0 -59.5 10.5t-46.5 45.5l-252 325q-35 47 4 90l74 80q18 20 44.5 23.5t49.5 -13.5l182 -145q57 -45 76.5 -48t69.5 23l247 142q53 31 92 -19l52 -69q37 -47 -9 -93zM852 -39q-768 0 -649 760l96 606q10 59 70 59h286
q37 0 59.5 -25.5t16.5 -64.5l-96 -608q-31 -193 34.5 -259.5t202.5 -66.5q98 0 178 28t150 111t90 216l96 610q10 59 70 59h287q37 0 59.5 -25.5t16.5 -64.5l-97 -604q-57 -365 -266 -548t-604 -183z" />
    <glyph glyph-name="uni01D4" unicode="&#x1d4;" horiz-adv-x="1628" 
d="M1061 1087q-35 -33 -56.5 -42t-64.5 -9h-90q-39 0 -59.5 10.5t-47.5 45.5l-251 325q-35 47 4 90l73 80q18 20 45 23.5t50 -13.5l182 -145q57 -45 76.5 -48t68.5 23l248 142q53 31 92 -19l51 -69q37 -47 -8 -92zM1442 961q37 0 59.5 -26t16.5 -63l-127 -815
q-10 -59 -70 -59h-248q-57 0 -65 35l-4 20q-4 25 -29 8q-156 -102 -397 -102q-94 0 -169 21.5t-137.5 70.5t-88 142.5t-5.5 220.5l76 487q10 59 70 60h282q37 0 59.5 -26t16.5 -65l-59 -370q-14 -92 17.5 -125t113.5 -33q123 0 231 70q33 20 37 57l70 432q10 59 67 60h283z
" />
    <glyph glyph-name="uni01D5" unicode="&#x1d5;" horiz-adv-x="1857" 
d="M1708 2073q-4 -27 -23.5 -44.5t-46.5 -17.5h-913q-35 0 -56.5 25.5t-17.5 60.5l25 197q4 27 23.5 44t45.5 17h914q35 0 57.5 -25.5t18.5 -60.5zM821 1456q-125 0 -185.5 71.5t-43.5 198.5q27 209 256 209q123 0 186.5 -67.5t46.5 -186.5q-14 -109 -82.5 -167t-177.5 -58z
M1389 1456q-125 0 -184.5 71.5t-43.5 198.5q27 209 254 209q125 0 188.5 -66.5t47.5 -187.5q-14 -109 -82.5 -167t-179.5 -58zM852 -39q-768 0 -649 760l96 606q10 59 70 59h286q37 0 59.5 -25.5t16.5 -64.5l-96 -608q-31 -193 34.5 -259.5t202.5 -66.5q98 0 178 28t150 111
t90 216l96 610q10 59 70 59h287q37 0 59.5 -25.5t16.5 -64.5l-97 -604q-57 -365 -266 -548t-604 -183z" />
    <glyph glyph-name="uni01D6" unicode="&#x1d6;" horiz-adv-x="1628" 
d="M1526 1669q-4 -27 -23.5 -44t-46.5 -17h-913q-35 0 -56.5 25.5t-17.5 60.5l25 196q4 27 23.5 44.5t45.5 17.5h914q35 0 57 -25.5t18 -60.5zM639 1036q-125 0 -185.5 72t-43.5 199q27 209 256 209q123 0 186 -68t47 -186q-14 -109 -82.5 -167.5t-177.5 -58.5zM1206 1036
q-125 0 -184 72t-43 199q27 209 254 209q125 0 188.5 -67t46.5 -187q-14 -109 -82.5 -167.5t-179.5 -58.5zM1442 961q37 0 59.5 -26t16.5 -63l-127 -815q-10 -59 -70 -59h-248q-57 0 -65 35l-4 20q-4 25 -29 8q-156 -102 -397 -102q-94 0 -169 21.5t-137.5 70.5t-88 142.5
t-5.5 220.5l76 487q10 59 70 60h282q37 0 59.5 -26t16.5 -65l-59 -370q-14 -92 17.5 -125t113.5 -33q123 0 231 70q33 20 37 57l70 432q10 59 67 60h283z" />
    <glyph glyph-name="uni01D7" unicode="&#x1d7;" horiz-adv-x="1857" 
d="M1597 2310q16 -29 7 -58.5t-37 -45.5l-420 -224q-55 -29 -90 21l-49 68q-39 53 12 96l371 313q29 25 63.5 19.5t52.5 -37.5zM821 1456q-125 0 -185.5 71.5t-43.5 198.5q27 209 256 209q123 0 186.5 -67.5t46.5 -186.5q-14 -109 -82.5 -167t-177.5 -58zM1389 1456
q-125 0 -184.5 71.5t-43.5 198.5q27 209 254 209q125 0 188.5 -66.5t47.5 -187.5q-14 -109 -82.5 -167t-179.5 -58zM852 -39q-768 0 -649 760l96 606q10 59 70 59h286q37 0 59.5 -25.5t16.5 -64.5l-96 -608q-31 -193 34.5 -259.5t202.5 -66.5q98 0 178 28t150 111t90 216
l96 610q10 59 70 59h287q37 0 59.5 -25.5t16.5 -64.5l-97 -604q-57 -365 -266 -548t-604 -183z" />
    <glyph glyph-name="uni01D8" unicode="&#x1d8;" horiz-adv-x="1628" 
d="M1415 1886q16 -29 7 -58.5t-38 -45.5l-419 -223q-55 -29 -91 20l-49 68q-39 53 13 96l370 313q29 25 64 20t53 -38zM639 1032q-125 0 -185.5 72t-43.5 199q27 209 256 208q123 0 186 -67.5t47 -186.5q-14 -109 -82.5 -167t-177.5 -58zM1206 1032q-125 0 -184 72t-43 199
q27 209 254 208q125 0 188.5 -66.5t46.5 -187.5q-14 -109 -82.5 -167t-179.5 -58zM1442 961q37 0 59.5 -26t16.5 -63l-127 -815q-10 -59 -70 -59h-248q-57 0 -65 35l-4 20q-4 25 -29 8q-156 -102 -397 -102q-94 0 -169 21.5t-137.5 70.5t-88 142.5t-5.5 220.5l76 487
q10 59 70 60h282q37 0 59.5 -26t16.5 -65l-59 -370q-14 -92 17.5 -125t113.5 -33q123 0 231 70q33 20 37 57l70 432q10 59 67 60h283z" />
    <glyph glyph-name="uni01D9" unicode="&#x1d9;" horiz-adv-x="1857" 
d="M1319 1999q-35 -33 -56.5 -42t-64.5 -9h-90q-39 0 -59.5 10t-47.5 45l-251 326q-35 47 4 90l73 80q18 20 45 23t50 -13l182 -146q57 -45 76.5 -48t68.5 24l248 141q53 31 92 -18l51 -70q37 -47 -8 -92zM821 1452q-125 0 -185.5 71.5t-43.5 198.5q27 209 256 209
q123 0 186.5 -67.5t46.5 -186.5q-14 -109 -82.5 -167t-177.5 -58zM1389 1452q-125 0 -184.5 71.5t-43.5 198.5q27 209 254 209q125 0 188.5 -66.5t47.5 -187.5q-14 -109 -82.5 -167t-179.5 -58zM852 -39q-768 0 -649 760l96 606q10 59 70 59h286q37 0 59.5 -25.5t16.5 -64.5
l-96 -608q-31 -193 34.5 -259.5t202.5 -66.5q98 0 178 28t150 111t90 216l96 610q10 59 70 59h287q37 0 59.5 -25.5t16.5 -64.5l-97 -604q-57 -365 -266 -548t-604 -183z" />
    <glyph glyph-name="uni01DA" unicode="&#x1da;" horiz-adv-x="1628" 
d="M1137 1575q-35 -33 -56.5 -42t-64.5 -9h-90q-39 0 -59.5 10t-47.5 45l-252 326q-35 47 4 90l74 80q18 20 45 23t49 -13l183 -146q57 -45 76.5 -48t68.5 24l248 141q53 31 92 -18l51 -70q37 -47 -8 -92zM645 1032q-125 0 -185.5 72t-43.5 199q27 209 256 208
q123 0 186.5 -67.5t46.5 -186.5q-14 -109 -82.5 -167t-177.5 -58zM1212 1032q-125 0 -184 72t-43 199q27 209 254 208q125 0 188.5 -66.5t47.5 -187.5q-14 -109 -83 -167t-180 -58zM1442 961q37 0 59.5 -26t16.5 -63l-127 -815q-10 -59 -70 -59h-248q-57 0 -65 35l-4 20
q-4 25 -29 8q-156 -102 -397 -102q-94 0 -169 21.5t-137.5 70.5t-88 142.5t-5.5 220.5l76 487q10 59 70 60h282q37 0 59.5 -26t16.5 -65l-59 -370q-14 -92 17.5 -125t113.5 -33q123 0 231 70q33 20 37 57l70 432q10 59 67 60h283z" />
    <glyph glyph-name="uni01DB" unicode="&#x1db;" horiz-adv-x="1857" 
d="M823 2198q-33 20 -38 53t18 61l131 162q23 29 56.5 30t58.5 -26l290 -305q47 -51 2 -98l-73 -80q-39 -43 -86 -13zM821 1456q-125 0 -185.5 71.5t-43.5 198.5q27 209 256 209q123 0 186.5 -67.5t46.5 -186.5q-14 -109 -82.5 -167t-177.5 -58zM1389 1456
q-125 0 -184.5 71.5t-43.5 198.5q27 209 254 209q125 0 188.5 -66.5t47.5 -187.5q-14 -109 -82.5 -167t-179.5 -58zM852 -39q-768 0 -649 760l96 606q10 59 70 59h286q37 0 59.5 -25.5t16.5 -64.5l-96 -608q-31 -193 34.5 -259.5t202.5 -66.5q98 0 178 28t150 111t90 216
l96 610q10 59 70 59h287q37 0 59.5 -25.5t16.5 -64.5l-97 -604q-57 -365 -266 -548t-604 -183z" />
    <glyph glyph-name="uni01DC" unicode="&#x1dc;" horiz-adv-x="1628" 
d="M621 1774q-33 20 -38 53t17 61l131 162q23 29 56.5 30t58.5 -26l291 -305q47 -51 2 -98l-74 -80q-39 -43 -86 -12zM639 1032q-125 0 -185.5 72t-43.5 199q27 209 256 208q123 0 186 -67.5t47 -186.5q-14 -109 -82.5 -167t-177.5 -58zM1206 1032q-125 0 -184 72t-43 199
q27 209 254 208q125 0 188.5 -66.5t46.5 -187.5q-14 -109 -82.5 -167t-179.5 -58zM1442 961q37 0 59.5 -26t16.5 -63l-127 -815q-10 -59 -70 -59h-248q-57 0 -65 35l-4 20q-4 25 -29 8q-156 -102 -397 -102q-94 0 -169 21.5t-137.5 70.5t-88 142.5t-5.5 220.5l76 487
q10 59 70 60h282q37 0 59.5 -26t16.5 -65l-59 -370q-14 -92 17.5 -125t113.5 -33q123 0 231 70q33 20 37 57l70 432q10 59 67 60h283z" />
    <glyph glyph-name="uni0218" unicode="&#x218;" horiz-adv-x="1679" 
d="M778 -39q-473 0 -725 166q-53 37 -16 94l147 240q18 31 50 36t61 -16q180 -129 504 -129q319 0 319 74q0 29 -42 40t-156 19l-234 17q-487 37 -487 405q0 518 790 518q393 0 672 -112q33 -14 42 -47t-9 -64l-150 -241q-33 -51 -92 -27q-225 104 -565 104q-238 0 -238 -67
q0 -55 137 -66l291 -22q96 -6 162 -16.5t138.5 -36t115.5 -64.5t71.5 -104.5t28.5 -155.5q0 -545 -815 -545zM428 -631q-35 2 -54.5 29t-13.5 61l13 66q12 61 84 55q80 -8 153 -2q98 8 140 31q18 12 8 18q-6 4 -19 -4q-49 -23 -125 -22q-109 0 -154.5 44t-33.5 117
q23 145 274 146q158 0 241 -76t65 -215q-25 -152 -183.5 -209t-394.5 -39z" />
    <glyph glyph-name="uni0219" unicode="&#x219;" horiz-adv-x="1261" 
d="M575 -39q-319 0 -491 59q-59 20 -43 86l47 166q23 78 107 47q156 -55 385 -55q215 0 215 43q0 20 -35 21l-268 8q-399 10 -400 295q0 106 47 181t136.5 115t197 57t246.5 17q272 0 444 -43q39 -8 53.5 -41.5t-4.5 -68.5l-82 -158q-27 -51 -83 -33q-131 37 -375 37
q-170 0 -170 -35q0 -27 67 -28l299 -10q176 -6 259 -67.5t83 -199.5q0 -393 -635 -393zM221 -631q-35 2 -54.5 29t-12.5 61l12 66q12 61 84 55q80 -8 153 -2q98 8 140 31q18 12 8 18q-6 4 -19 -4q-49 -23 -124 -22q-109 0 -155 44t-34 117q23 145 275 146q158 0 240.5 -76
t64.5 -215q-25 -152 -183.5 -209t-394.5 -39z" />
    <glyph glyph-name="uni021A" unicode="&#x21a;" horiz-adv-x="1574" 
d="M1589 1386q37 0 59.5 -25.5t16.5 -62.5l-39 -243q-10 -59 -67 -60h-453q-20 0 -25 -20l-141 -916q-10 -59 -70 -59h-286q-37 0 -59.5 25.5t-16.5 62.5l137 877q4 31 -27 30h-407q-37 0 -59.5 26t-16.5 62l39 244q10 59 68 59h1347zM385 -631q-35 2 -54.5 29t-13.5 61
l13 66q12 61 84 55q80 -8 153 -2q98 8 140 31q18 12 8 18q-6 4 -19 -4q-49 -23 -125 -22q-109 0 -154.5 44t-33.5 117q23 145 274 146q158 0 241 -76t65 -215q-25 -152 -183.5 -209t-394.5 -39z" />
    <glyph glyph-name="uni021B" unicode="&#x21b;" horiz-adv-x="1265" 
d="M1182 963q37 0 59.5 -26t15.5 -65l-30 -194q-10 -59 -68 -60h-477q-20 0 -25 -20l-10 -68q-20 -121 13.5 -160.5t115.5 -39.5q129 0 242 41q33 12 62.5 -0.5t39.5 -46.5l66 -207q16 -55 -8 -70q-168 -86 -519 -86q-537 0 -456 506l20 121q4 31 -26 30h-17q-37 0 -59.5 26
t-16.5 63l31 196q10 59 68 60h57q20 0 25 20l26 178q10 59 70 60h285q37 0 59.5 -26t15.5 -62l-22 -140q-4 -31 26 -30h437zM340 -631q-35 2 -54.5 29t-13.5 61l13 66q12 61 84 55q80 -8 153 -2q98 8 140 31q18 12 8 18q-6 4 -19 -4q-49 -23 -125 -22q-109 0 -154.5 44
t-33.5 117q23 145 274 146q158 0 241 -76t65 -215q-25 -152 -183.5 -209t-394.5 -39z" />
    <glyph glyph-name="gravecomb" unicode="&#x300;" 
d="M-467 1286q-33 20 -38 53t18 62l131 162q23 29 56.5 29.5t57.5 -25.5l291 -305q47 -51 2 -99l-74 -80q-39 -43 -86 -12z" />
    <glyph glyph-name="acutecomb" unicode="&#x301;" 
d="M51 1399q16 -29 7 -58.5t-38 -46.5l-419 -223q-55 -29 -90 21l-50 67q-39 53 13 96l370 314q29 25 64 19.5t53 -38.5z" />
    <glyph glyph-name="uni0302" unicode="&#x302;" 
d="M-573 1577q35 33 56 42t64 9h91q39 0 59 -10t47 -45l252 -326q35 -47 -4 -90l-74 -80q-18 -20 -45 -23t-49 13l-182 145q-57 45 -77 48.5t-69 -23.5l-248 -141q-53 -31 -92 18l-51 70q-37 47 8 92z" />
    <glyph glyph-name="tildecomb" unicode="&#x303;" 
d="M-858 1077q-35 0 -57.5 24.5t-18.5 61.5q31 193 122 277t212 84q49 0 86 -7.5t56.5 -15.5t60.5 -26q86 -41 108 -41q39 0 56 34q23 47 59 48h203q37 0 59.5 -26t15.5 -63q-33 -190 -135 -276t-233 -86q-86 0 -176 49q-84 45 -105 45q-35 0 -49 -35q-20 -47 -57 -47h-207z
" />
    <glyph glyph-name="uni0304" unicode="&#x304;" 
d="M-16 1182q-4 -27 -23.5 -44.5t-46.5 -17.5h-913q-35 0 -56.5 25.5t-17.5 60.5l24 197q4 27 23.5 44t46.5 17h913q35 0 57.5 -25.5t18.5 -60.5z" />
    <glyph glyph-name="uni0306" unicode="&#x306;" 
d="M-498 1030q-272 0 -393 120t-110 323q2 27 21 45t48 18h248q66 0 74 -76q6 -111 118 -110q145 0 193 137q16 49 63 49h246q39 0 62.5 -23.5t15.5 -56.5q-47 -201 -194.5 -313.5t-391.5 -112.5z" />
    <glyph glyph-name="uni0307" unicode="&#x307;" 
d="M-199 1053q-125 0 -184 71.5t-43 198.5q27 209 254 209q125 0 188.5 -66.5t46.5 -187.5q-14 -109 -82.5 -167t-179.5 -58z" />
    <glyph glyph-name="uni0308" unicode="&#x308;" 
d="M-766 1053q-125 0 -185.5 71.5t-43.5 198.5q27 209 256 209q123 0 186.5 -67.5t46.5 -186.5q-14 -109 -82.5 -167t-177.5 -58zM-199 1053q-125 0 -184 71.5t-43 198.5q27 209 254 209q125 0 188.5 -66.5t46.5 -187.5q-14 -109 -82.5 -167t-179.5 -58z" />
    <glyph glyph-name="uni030A" unicode="&#x30a;" 
d="M-387 1069q-287 0 -391.5 83t-81.5 243l4 30q39 283 561 283q240 0 343.5 -81t74.5 -247l-2 -12q-51 -299 -508 -299zM-406 1329q217 0 218 74v6q0 23 -29 31t-107 8q-225 0 -225 -62v-6q0 -27 28.5 -39t114.5 -12z" />
    <glyph glyph-name="uni030B" unicode="&#x30b;" 
d="M-668 1501q66 0 81.5 -61.5t-38.5 -114.5l-168 -168q-47 -49 -114 -49h-74q-43 0 -56.5 31.5t-0.5 58.5l112 229q23 45 45.5 59.5t65.5 14.5h147zM-92 1501q57 0 71.5 -52t-20.5 -77l-324 -237q-41 -27 -106 -27h-70q-53 0 -59 42t27 71l219 229q33 33 53 42t61 9h148z
" />
    <glyph glyph-name="uni030C" unicode="&#x30c;" 
d="M-322 1087q-35 -33 -56 -42t-64 -9h-90q-39 0 -59.5 10.5t-47.5 45.5l-252 325q-35 47 4 90l74 80q18 20 45 23.5t49 -13.5l182 -145q57 -45 77 -48t69 23l248 142q53 31 92 -19l51 -69q37 -47 -8 -92z" />
    <glyph glyph-name="uni0312" unicode="&#x312;" 
d="M51 1585q35 -2 54.5 -28.5t13.5 -61.5l-13 -65q-12 -61 -83 -56q-80 8 -154 2q-98 -8 -139 -30q-18 -12 -9 -19q6 -4 19 4q49 23 125 23q109 0 155 -44t33 -118q-23 -145 -274 -145q-158 0 -241 75.5t-64 214.5q25 152 183 209t394 39z" />
    <glyph glyph-name="uni0326" unicode="&#x326;" 
d="M-745 -631q-35 2 -54.5 29t-13.5 61l12 66q12 61 84 55q80 -8 154 -2q98 8 139 31q18 12 8 18q-6 4 -18 -4q-49 -23 -125 -22q-109 0 -155 44t-34 117q23 145 275 146q158 0 240.5 -76t64.5 -215q-25 -152 -183 -209t-394 -39z" />
    <glyph glyph-name="uni0327" unicode="&#x327;" 
d="M-457 -469q-117 0 -207 20q-29 6 -41 30t-4 54l15 52q20 66 92 49q49 -8 110 -8q86 0 86 20q0 23 -96 29q-57 4 -80.5 34.5t-13.5 75.5l27 113h233l-8 -37q-4 -18 11.5 -29.5t60.5 -19.5q168 -31 153 -182q-12 -115 -101.5 -158t-236.5 -43z" />
    <glyph glyph-name="uni0328" unicode="&#x328;" 
d="M-426 -428q-295 0 -295 195q0 84 49 146t131 98t167 55.5t179 25.5l99 -90q-281 -96 -281 -141q0 -27 47 -27q18 0 80 6q41 4 68.5 -16.5t25.5 -61.5l-2 -94q0 -68 -59 -78q-107 -18 -209 -18z" />
    <glyph glyph-name="uni0335" unicode="&#x335;" 
d="M-236 420q-4 -27 -23.5 -44.5t-45.5 -17.5h-950q-35 0 -57.5 26t-18.5 60l20 162q4 27 23.5 44.5t46.5 17.5h950q35 0 57.5 -26t18.5 -60z" />
    <glyph glyph-name="uni0336" unicode="&#x336;" 
d="M-109 457q-2 -27 -22.5 -44.5t-46.5 -17.5h-1708q-37 0 -58.5 25.5t-17.5 60.5l27 197q2 27 22.5 44t46.5 17h1708q37 0 58.5 -25.5t17.5 -60.5z" />
    <glyph glyph-name="uni0337" unicode="&#x337;" 
d="M-37 719q12 -27 2 -52.5t-37 -39.5l-893 -451q-29 -16 -57.5 -6t-42.5 43l-74 168q-27 59 35 92l893 451q29 16 57.5 6t42.5 -43z" />
    <glyph glyph-name="uni0338" unicode="&#x338;" 
d="M-1831 -27q-27 -16 -56.5 -8t-43.5 35l-135 236q-35 59 26 98l1823 1079q27 16 56.5 8t43.5 -35l135 -237q16 -27 9 -54.5t-33 -43.5z" />
    <glyph glyph-name="Wgrave" unicode="&#x1e80;" horiz-adv-x="2809" 
d="M1223 1710q-33 20 -38 53t17 62l131 162q23 29 56.5 29.5t58.5 -25.5l291 -305q47 -51 2 -99l-74 -80q-39 -43 -86 -12zM2726 1386q53 0 78.5 -40.5t-0.5 -90.5l-664 -1222q-16 -33 -57 -33h-365q-25 0 -44 15.5t-23 37.5l-158 709q-12 53 -28.5 55t-41.5 -45l-397 -739
q-16 -33 -57 -33h-365q-53 0 -67 53l-285 1237q-10 39 13.5 67.5t62.5 28.5h331q59 0 70 -57l111 -667q6 -37 17 -51.5t26.5 -5.5t31.5 44l345 703q16 35 59 34h434q27 0 45.5 -16t22.5 -41l125 -672q6 -35 17 -49t26.5 -4t31.5 43l334 703q16 37 60 36h311z" />
    <glyph glyph-name="wgrave" unicode="&#x1e81;" horiz-adv-x="2299" 
d="M901 1286q-33 20 -38 53t18 62l131 162q23 29 56.5 29.5t57.5 -25.5l291 -305q47 -51 2 -99l-73 -80q-39 -43 -86 -12zM2191 963q57 0 81 -44.5t-5 -93.5l-481 -794q-18 -31 -53 -31h-443q-59 0 -69 57l-54 318q-4 29 -31.5 34t-41.5 -22l-179 -352q-16 -35 -57 -35h-416
q-53 0 -65 49l-238 809q-12 41 11.5 73t66.5 32h356q27 0 46.5 -17.5t23.5 -44.5l41 -309q6 -47 21.5 -56.5t31 6t25.5 38.5l164 346q16 37 59 37h459q59 0 69 -60l50 -313q6 -39 29.5 -50.5t49.5 40.5l154 344q18 39 59 39h336z" />
    <glyph glyph-name="Wacute" unicode="&#x1e82;" horiz-adv-x="2809" 
d="M1997 1823q16 -29 7 -58.5t-38 -46.5l-420 -223q-55 -29 -90 21l-49 67q-39 53 12 96l371 314q29 25 63.5 19.5t53.5 -38.5zM2726 1386q53 0 78.5 -40.5t-0.5 -90.5l-664 -1222q-16 -33 -57 -33h-365q-25 0 -44 15.5t-23 37.5l-158 709q-12 53 -28.5 55t-41.5 -45
l-397 -739q-16 -33 -57 -33h-365q-53 0 -67 53l-285 1237q-10 39 13.5 67.5t62.5 28.5h331q59 0 70 -57l111 -667q6 -37 17 -51.5t26.5 -5.5t31.5 44l345 703q16 35 59 34h434q27 0 45.5 -16t22.5 -41l125 -672q6 -35 17 -49t26.5 -4t31.5 43l334 703q16 37 60 36h311z" />
    <glyph glyph-name="wacute" unicode="&#x1e83;" horiz-adv-x="2299" 
d="M1675 1399q16 -29 7 -58.5t-37 -46.5l-420 -223q-55 -29 -90 21l-50 67q-39 53 13 96l370 314q29 25 64 19.5t53 -38.5zM2191 963q57 0 81 -44.5t-5 -93.5l-481 -794q-18 -31 -53 -31h-443q-59 0 -69 57l-54 318q-4 29 -31.5 34t-41.5 -22l-179 -352q-16 -35 -57 -35
h-416q-53 0 -65 49l-238 809q-12 41 11.5 73t66.5 32h356q27 0 46.5 -17.5t23.5 -44.5l41 -309q6 -47 21.5 -56.5t31 6t25.5 38.5l164 346q16 37 59 37h459q59 0 69 -60l50 -313q6 -39 29.5 -50.5t49.5 40.5l154 344q18 39 59 39h336z" />
    <glyph glyph-name="Wdieresis" unicode="&#x1e84;" horiz-adv-x="2809" 
d="M1296 1477q-125 0 -185 71.5t-44 198.5q27 209 256 209q123 0 186.5 -67.5t46.5 -186.5q-14 -109 -82.5 -167t-177.5 -58zM1864 1477q-125 0 -184.5 71.5t-43.5 198.5q27 209 254 209q125 0 188.5 -66.5t47.5 -187.5q-14 -109 -82.5 -167t-179.5 -58zM2726 1386
q53 0 78.5 -40.5t-0.5 -90.5l-664 -1222q-16 -33 -57 -33h-365q-25 0 -44 15.5t-23 37.5l-158 709q-12 53 -28.5 55t-41.5 -45l-397 -739q-16 -33 -57 -33h-365q-53 0 -67 53l-285 1237q-10 39 13.5 67.5t62.5 28.5h331q59 0 70 -57l111 -667q6 -37 17 -51.5t26.5 -5.5
t31.5 44l345 703q16 35 59 34h434q27 0 45.5 -16t22.5 -41l125 -672q6 -35 17 -49t26.5 -4t31.5 43l334 703q16 37 60 36h311z" />
    <glyph glyph-name="wdieresis" unicode="&#x1e85;" horiz-adv-x="2299" 
d="M975 1053q-125 0 -185.5 71.5t-44.5 198.5q27 209 256 209q123 0 186.5 -67.5t47.5 -186.5q-14 -109 -82.5 -167t-177.5 -58zM1542 1053q-125 0 -184.5 71.5t-42.5 198.5q27 209 254 209q125 0 188.5 -66.5t46.5 -187.5q-14 -109 -82.5 -167t-179.5 -58zM2191 963
q57 0 81 -44.5t-5 -93.5l-481 -794q-18 -31 -53 -31h-443q-59 0 -69 57l-54 318q-4 29 -31.5 34t-41.5 -22l-179 -352q-16 -35 -57 -35h-416q-53 0 -65 49l-238 809q-12 41 11.5 73t66.5 32h356q27 0 46.5 -17.5t23.5 -44.5l41 -309q6 -47 21.5 -56.5t31 6t25.5 38.5
l164 346q16 37 59 37h459q59 0 69 -60l50 -313q6 -39 29.5 -50.5t49.5 40.5l154 344q18 39 59 39h336z" />
    <glyph glyph-name="Ygrave" unicode="&#x1ef2;" horiz-adv-x="1970" 
d="M803 1710q-33 20 -38 53t17 62l131 162q23 29 57 29.5t58 -25.5l291 -305q47 -51 2 -99l-74 -80q-39 -43 -86 -12zM1817 1386q72 0 97 -56t-24 -111l-641 -711q-33 -35 -41 -54.5t-16 -82.5l-49 -312q-10 -59 -68 -59h-287q-37 0 -59 25.5t-16 62.5l43 291q10 66 5 90.5
t-38 79.5l-418 700q-29 47 -4 92t82 45h291q39 0 55 -32l287 -516q8 -14 22.5 -15.5t24.5 11.5l457 532q16 20 47 20h250z" />
    <glyph glyph-name="ygrave" unicode="&#x1ef3;" horiz-adv-x="1576" 
d="M539 1286q-33 20 -38 53t17 62l131 162q23 29 56.5 29.5t58.5 -25.5l291 -305q47 -51 2 -99l-74 -80q-39 -43 -86 -12zM1450 963q61 0 87 -47.5t-9 -98.5l-821 -1190q-18 -27 -52 -26h-258q-61 0 -86.5 47t8.5 98l103 162q47 57 24 117l-296 827q-14 45 8 78t69 33h355
q51 0 65 -54l94 -401q20 -84 66 -10l262 434q18 31 53 31h328z" />
    <glyph glyph-name="endash" unicode="&#x2013;" horiz-adv-x="1523" 
d="M1415 485q-10 -59 -67 -59h-1158q-37 0 -59 25.5t-16 62.5l30 197q10 59 68 59h1157q37 0 59.5 -25.5t16.5 -64.5z" />
    <glyph glyph-name="emdash" unicode="&#x2014;" horiz-adv-x="2033" 
d="M1925 485q-10 -59 -67 -59h-1668q-37 0 -59 25.5t-16 62.5l30 197q10 59 68 59h1667q37 0 59.5 -25.5t16.5 -64.5z" />
    <glyph glyph-name="quoteleft" unicode="&#x2018;" horiz-adv-x="681" 
d="M457 856q-168 0 -258 93t-58 290q29 195 181.5 295t412.5 86q37 -2 56.5 -29.5t11.5 -62.5l-23 -107q-12 -59 -78 -55q-98 6 -174.5 -24.5t-113.5 -86.5q-10 -10 -5 -19t19 -1q43 18 104 18q104 0 158.5 -53t36.5 -158q-28 -186 -270 -186z" />
    <glyph glyph-name="quoteright" unicode="&#x2019;" horiz-adv-x="681" 
d="M188 858q-37 2 -57 28.5t-12 61.5l22 109q12 59 78 55q106 -8 187 28t120 99q6 14 -6 14q-8 2 -20 -6q-45 -27 -123 -26q-94 0 -146.5 55t-35.5 160q29 186 272 186q166 0 256 -93t59 -290q-31 -195 -183.5 -295t-410.5 -86z" />
    <glyph glyph-name="quotesinglbase" unicode="&#x201a;" horiz-adv-x="661" 
d="M-82 -401q-37 2 -56.5 29.5t-11.5 62.5l23 110q10 55 74 56q147 -4 284 82q59 39 37 53q-8 4 -24 0q-45 -12 -90 -12q-70 0 -115 54t-45 146q0 244 268 244q305 0 305 -305q0 -274 -176 -405t-473 -115z" />
    <glyph glyph-name="quotedblleft" unicode="&#x201c;" horiz-adv-x="1337" 
d="M457 856q-168 0 -258 93t-58 290q29 195 181.5 295t412.5 86q37 -2 56.5 -29.5t11.5 -62.5l-23 -107q-12 -59 -78 -55q-98 6 -174.5 -24.5t-113.5 -86.5q-10 -10 -5 -19t19 -1q43 18 104 18q104 0 158.5 -53t36.5 -158q-28 -186 -270 -186zM1112 856q-168 0 -258 93
t-57 290q29 195 181 295t413 86q37 -2 56 -29.5t11 -62.5l-22 -107q-12 -59 -78 -55q-98 6 -175 -24.5t-114 -86.5q-10 -10 -5 -19t19 -1q43 18 105 18q104 0 158.5 -53t35.5 -158q-28 -186 -270 -186z" />
    <glyph glyph-name="quotedblright" unicode="&#x201d;" horiz-adv-x="1335" 
d="M465 1622q168 0 258 -93t57 -290q-29 -195 -181.5 -295t-412.5 -86q-37 2 -56 29.5t-11 62.5l22 107q12 59 78 55q98 -6 175 24.5t114 86.5q10 10 5 19t-19 1q-43 -18 -105 -18q-104 0 -158.5 53t-35.5 158q28 186 270 186zM1120 1622q168 0 258 -93t58 -290
q-29 -195 -181.5 -295t-412.5 -86q-37 2 -56.5 29.5t-11.5 62.5l23 107q12 59 77 55q98 -6 175 24.5t114 86.5q10 10 5 19t-19 1q-43 -18 -105 -18q-104 0 -158.5 53t-35.5 158q28 186 270 186z" />
    <glyph glyph-name="quotedblbase" unicode="&#x201e;" horiz-adv-x="1323" 
d="M262 424q305 0 305 -305q0 -274 -176 -405.5t-473 -114.5q-37 2 -56.5 29.5t-11.5 62.5l23 110q10 55 74 56q147 -4 284 82q59 39 37 53q-8 4 -24 0q-45 -12 -90 -12q-70 0 -115 54t-45 146q0 244 268 244zM924 424q305 0 305 -305q0 -274 -176 -405.5t-473 -114.5
q-37 2 -56.5 29.5t-11.5 62.5l23 110q10 55 73 56q147 -4 285 82q59 39 37 53q-8 4 -25 0q-45 -12 -90 -12q-70 0 -115 54t-45 146q1 244 269 244z" />
    <glyph glyph-name="bullet" unicode="&#x2022;" horiz-adv-x="823" 
d="M414 397q-164 0 -242 88t-53 242q39 258 344 258q168 0 251 -82t60 -229q-20 -133 -115 -205t-245 -72z" />
    <glyph glyph-name="ellipsis" unicode="&#x2026;" horiz-adv-x="1228" 
 />
    <glyph glyph-name="perthousand" unicode="&#x2030;" horiz-adv-x="3624" 
d="M627 692q-231 0 -362.5 78t-102.5 258l10 64q53 334 569 333q115 0 204 -16t159 -53t101.5 -103.5t19.5 -160.5l-8 -64q-47 -336 -590 -336zM358 0q-63 0 -92.5 38t-15.5 88t61 85l1592 1141q47 35 141 34h113q98 0 126.5 -77.5t-45.5 -130.5l-1511 -1104
q-68 -47 -116 -60.5t-117 -13.5h-136zM670 969q211 0 221 73l4 35q6 41 -43 56.5t-154 15.5q-190 0 -200 -72l-4 -35q-6 -43 38 -58t138 -15zM1823 -39q-231 0 -361.5 78t-101.5 258l10 63q53 334 569 334q115 0 204 -16t160 -53t102.5 -103.5t17.5 -161.5l-10 -63
q-53 -336 -590 -336zM2931 -39q-231 0 -361.5 78t-101.5 258l10 63q53 334 569 334q115 0 204 -16t160 -53t102.5 -103.5t17.5 -161.5l-10 -63q-53 -336 -590 -336zM1866 238q209 0 221 73l6 35q6 41 -44 56.5t-155 15.5q-94 0 -143 -14.5t-55 -57.5l-6 -35q-6 -43 38 -58
t138 -15zM2974 238q209 0 221 73l6 35q6 41 -44 56.5t-155 15.5q-94 0 -143 -14.5t-55 -57.5l-6 -35q-6 -43 38 -58t138 -15z" />
    <glyph glyph-name="guilsinglleft" unicode="&#x2039;" horiz-adv-x="983" 
d="M807 43q-12 -31 -41 -42t-57 1l-662 285q-45 20 -39 71l35 242q6 35 41 49l745 285q41 16 74 -4.5t35 -63.5l18 -200q2 -25 -12 -45.5t-39 -28.5l-356 -103q-49 -14 -49 -25t49 -26l293 -80q33 -8 47 -37.5t2 -62.5z" />
    <glyph glyph-name="guilsinglright" unicode="&#x203a;" horiz-adv-x="983" 
d="M176 901q12 31 41 42t57 -1l662 -285q45 -20 39 -71l-35 -242q-6 -35 -41 -49l-745 -285q-41 -16 -74 4.5t-35 63.5l-18 201q-2 25 12 45t39 28l356 103q49 14 49 25.5t-49 25.5l-293 80q-33 8 -47 37.5t-2 62.5z" />
    <glyph glyph-name="Euro" unicode="&#x20ac;" horiz-adv-x="1812" 
d="M877 -39q-293 0 -462 97.5t-206 279.5q-16 86 -19 96q-2 20 -24 21h-39q-31 0 -48.5 21.5t-12.5 51.5l10 62q4 31 28.5 52.5t55.5 21.5h16q23 0 29 24q0 4 2 10.5t2 8.5q6 25 -21 24h-16q-31 0 -50.5 21.5t-12.5 52.5l8 45q6 31 29.5 52.5t54.5 21.5h39q23 0 30 20
q16 39 37 80q215 401 846 401q231 0 386 -38.5t296 -137.5q25 -18 25 -49t-23 -57l-197 -228q-49 -55 -102 -16q-172 125 -448 125q-207 0 -312 -70q-12 -8 -12 -18q0 -12 18 -12h463q31 0 50.5 -21.5t13.5 -52.5l-8 -45q-6 -31 -30 -52.5t-54 -21.5h-545q-23 0 -29 -24
q-2 -2 -2 -8.5t-2 -10.5q-6 -25 21 -24h544q31 0 49.5 -21.5t14.5 -52.5l-10 -62q-4 -31 -30 -52t-56 -21h-451q-25 0 -25 -17q0 -8 11 -14q94 -61 276 -62q172 0 289 26t231 95q63 39 99 -12l131 -201q14 -23 12 -48t-21 -40q-296 -221 -849 -221z" />
    <glyph glyph-name="trademark" unicode="&#x2122;" horiz-adv-x="3377" 
d="M621 512q-35 0 -57.5 25.5t-18.5 60.5l47 369q2 12 -6 20t-21 8h-284q-37 0 -60.5 27t-17.5 63l41 244q10 57 69 57h1100q37 0 60.5 -26.5t17.5 -63.5l-41 -243q-10 -57 -70 -58h-327q-18 0 -23 -20l-53 -402q-4 -27 -23.5 -44t-46.5 -17h-286zM1663 512
q-39 0 -60.5 26.5t-15.5 65.5l131 725q4 25 22.5 41t45.5 16h389q35 0 53 -30l193 -316q20 -29 43 -4l329 332q18 18 43 18h369q39 0 60.5 -26.5t15.5 -65.5l-131 -725q-4 -25 -22.5 -41t-45.5 -16h-280q-39 0 -61.5 27.5t-14.5 66.5l20 103q6 33 -20.5 46t-48.5 -10
l-131 -133q-18 -18 -43 -18h-256q-35 0 -54 31l-90 149q-8 16 -23.5 20.5t-28.5 -4t-15 -26.5l-39 -197q-10 -55 -68 -55h-266z" />
    <glyph glyph-name="minus" unicode="&#x2212;" horiz-adv-x="1421" 
d="M1364 553q-10 -59 -68 -59h-1136q-37 0 -59.5 25.5t-16.5 62.5l25 155q10 59 67 60h1137q37 0 59.5 -26t16.5 -64z" />
    <glyph glyph-name="notequal" unicode="&#x2260;" horiz-adv-x="1228" 
 />
    <glyph glyph-name="lessequal" unicode="&#x2264;" horiz-adv-x="1228" 
 />
    <glyph glyph-name="greaterequal" unicode="&#x2265;" horiz-adv-x="1228" 
 />
    <glyph glyph-name="lozenge" unicode="&#x25ca;" horiz-adv-x="1228" 
 />
    <glyph glyph-name="i.locl" horiz-adv-x="808" 
d="M508 1053q-125 0 -184.5 71.5t-42.5 198.5q27 209 254 209q125 0 188 -66.5t47 -187.5q-14 -109 -82.5 -167t-179.5 -58zM203 0q-37 0 -59.5 25.5t-16.5 62.5l127 815q10 59 70 60h282q37 0 59.5 -26t16.5 -63l-127 -815q-10 -59 -70 -59h-282z" />
    <glyph glyph-name="A.aalt" horiz-adv-x="1759" 
d="M115 0q-61 0 -86 47t10 100l616 883q18 27 52 27h464q43 0 60 -39l389 -899q20 -45 -4.5 -82t-73.5 -37h-303q-43 0 -61 43l-31 82q-6 14 -23 14h-600q-12 0 -18 -10l-62 -98q-18 -31 -53 -31h-276zM745 430h242q14 0 22.5 12.5t4.5 26.5l-90 248q-8 23 -29 24.5
t-33 -18.5l-143 -246q-8 -16 0 -31.5t26 -15.5z" />
    <glyph glyph-name="Aacute.aalt" horiz-adv-x="1759" 
d="M1425 1501q16 -29 7 -58.5t-37 -45.5l-420 -223q-55 -29 -90 20l-49 68q-39 53 12 96l371 313q29 25 63.5 20t52.5 -38zM115 0q-61 0 -86 47t10 100l616 883q18 27 52 27h464q43 0 60 -39l389 -899q20 -45 -4.5 -82t-73.5 -37h-303q-43 0 -61 43l-31 82q-6 14 -23 14
h-600q-12 0 -18 -10l-62 -98q-18 -31 -53 -31h-276zM745 430h242q14 0 22.5 12.5t4.5 26.5l-90 248q-8 23 -29 24.5t-33 -18.5l-143 -246q-8 -16 0 -31.5t26 -15.5z" />
    <glyph glyph-name="Abreve.aalt" horiz-adv-x="1759" 
d="M1008 1133q-274 0 -394 119.5t-110 322.5q2 27 21.5 45t47.5 18h248q66 0 74 -75q6 -111 119 -111q145 0 192 137q16 49 64 49h246q39 0 62.5 -23.5t14.5 -55.5q-47 -201 -194 -313.5t-391 -112.5zM115 0q-61 0 -86 47t10 100l616 883q18 27 52 27h464q43 0 60 -39
l389 -899q20 -45 -4.5 -82t-73.5 -37h-303q-43 0 -61 43l-31 82q-6 14 -23 14h-600q-12 0 -18 -10l-62 -98q-18 -31 -53 -31h-276zM745 430h242q14 0 22.5 12.5t4.5 26.5l-90 248q-8 23 -29 24.5t-33 -18.5l-143 -246q-8 -16 0 -31.5t26 -15.5z" />
    <glyph glyph-name="Acircumflex.aalt" horiz-adv-x="1759" 
d="M895 1679q35 33 56.5 42.5t64.5 9.5h90q39 0 59.5 -10.5t46.5 -45.5l252 -325q35 -47 -4 -90l-74 -80q-18 -20 -44.5 -23.5t-49.5 12.5l-182 146q-57 45 -76.5 48t-68.5 -24l-248 -141q-53 -31 -92 19l-52 69q-37 47 9 92zM115 0q-61 0 -86 47t10 100l616 883
q18 27 52 27h464q43 0 60 -39l389 -899q20 -45 -4.5 -82t-73.5 -37h-303q-43 0 -61 43l-31 82q-6 14 -23 14h-600q-12 0 -18 -10l-62 -98q-18 -31 -53 -31h-276zM745 430h242q14 0 22.5 12.5t4.5 26.5l-90 248q-8 23 -29 24.5t-33 -18.5l-143 -246q-8 -16 0 -31.5t26 -15.5z
" />
    <glyph glyph-name="Adieresis.aalt" horiz-adv-x="1759" 
d="M725 1155q-125 0 -185.5 71.5t-43.5 198.5q27 209 256 209q123 0 186 -67.5t47 -186.5q-14 -109 -82.5 -167t-177.5 -58zM1292 1155q-125 0 -184 71.5t-43 198.5q27 209 254 209q125 0 188.5 -66.5t46.5 -187.5q-14 -109 -82.5 -167t-179.5 -58zM115 0q-61 0 -86 47
t10 100l616 883q18 27 52 27h464q43 0 60 -39l389 -899q20 -45 -4.5 -82t-73.5 -37h-303q-43 0 -61 43l-31 82q-6 14 -23 14h-600q-12 0 -18 -10l-62 -98q-18 -31 -53 -31h-276zM745 430h242q14 0 22.5 12.5t4.5 26.5l-90 248q-8 23 -29 24.5t-33 -18.5l-143 -246
q-8 -16 0 -31.5t26 -15.5z" />
    <glyph glyph-name="Agrave.aalt" horiz-adv-x="1759" 
d="M651 1389q-33 20 -38 53t18 61l131 162q23 29 56.5 30t58.5 -26l290 -305q47 -51 2 -98l-73 -80q-39 -43 -86 -12zM115 0q-61 0 -86 47t10 100l616 883q18 27 52 27h464q43 0 60 -39l389 -899q20 -45 -4.5 -82t-73.5 -37h-303q-43 0 -61 43l-31 82q-6 14 -23 14h-600
q-12 0 -18 -10l-62 -98q-18 -31 -53 -31h-276zM745 430h242q14 0 22.5 12.5t4.5 26.5l-90 248q-8 23 -29 24.5t-33 -18.5l-143 -246q-8 -16 0 -31.5t26 -15.5z" />
    <glyph glyph-name="Amacron.aalt" horiz-adv-x="1759" 
d="M1536 1284q-4 -27 -23.5 -44t-46.5 -17h-913q-35 0 -56.5 25.5t-17.5 60.5l25 196q4 27 23.5 44.5t45.5 17.5h914q35 0 57.5 -25.5t18.5 -60.5zM115 0q-61 0 -86 47t10 100l616 883q18 27 52 27h464q43 0 60 -39l389 -899q20 -45 -4.5 -82t-73.5 -37h-303q-43 0 -61 43
l-31 82q-6 14 -23 14h-600q-12 0 -18 -10l-62 -98q-18 -31 -53 -31h-276zM745 430h242q14 0 22.5 12.5t4.5 26.5l-90 248q-8 23 -29 24.5t-33 -18.5l-143 -246q-8 -16 0 -31.5t26 -15.5z" />
    <glyph glyph-name="Aogonek.aalt" horiz-adv-x="1759" 
d="M1518 -162q41 4 68.5 -16.5t25.5 -61.5l-2 -94q0 -68 -60 -78q-106 -18 -209 -18q-295 0 -294 194q0 154 170 240q-25 10 -39 39l-31 82q-6 14 -23 14h-600q-12 0 -18 -10l-62 -98q-18 -31 -53 -31h-276q-61 0 -86 47t10 100l616 883q18 27 52 27h464q43 0 60 -39
l389 -899q16 -37 0 -72l51 -47q-281 -96 -280 -141q0 -27 47 -27q19 0 80 6zM987 430q14 0 22.5 12.5t4.5 26.5l-90 248q-8 23 -29 24.5t-33 -18.5l-143 -246q-8 -16 0 -31.5t26 -15.5h242z" />
    <glyph glyph-name="Aring.aalt" horiz-adv-x="1759" 
d="M1004 1171q-287 0 -391.5 83t-82.5 243l5 31q39 283 561 282q240 0 343 -80.5t74 -246.5l-2 -13q-50 -299 -507 -299zM985 1432q217 0 217 73v6q0 23 -28.5 31t-106.5 8q-225 0 -225 -61v-6q0 -27 28.5 -39t114.5 -12zM115 0q-61 0 -86 47t10 100l616 883q18 27 52 27
h464q43 0 60 -39l389 -899q20 -45 -4.5 -82t-73.5 -37h-303q-43 0 -61 43l-31 82q-6 14 -23 14h-600q-12 0 -18 -10l-62 -98q-18 -31 -53 -31h-276zM745 430h242q14 0 22.5 12.5t4.5 26.5l-90 248q-8 23 -29 24.5t-33 -18.5l-143 -246q-8 -16 0 -31.5t26 -15.5z" />
    <glyph glyph-name="Atilde.aalt" horiz-adv-x="1759" 
d="M551 1180q-35 0 -57.5 24.5t-18.5 61.5q31 193 122 276.5t212 83.5q49 0 86 -7t56.5 -15.5t60.5 -26.5q86 -41 108 -41q39 0 56 35q23 47 59 47h203q37 0 59.5 -25.5t15.5 -62.5q-33 -190 -135 -276.5t-233 -86.5q-86 0 -176 50q-84 45 -105 45q-35 0 -49 -35
q-20 -47 -57 -47h-207zM115 0q-61 0 -86 47t10 100l616 883q18 27 52 27h464q43 0 60 -39l389 -899q20 -45 -4.5 -82t-73.5 -37h-303q-43 0 -61 43l-31 82q-6 14 -23 14h-600q-12 0 -18 -10l-62 -98q-18 -31 -53 -31h-276zM745 430h242q14 0 22.5 12.5t4.5 26.5l-90 248
q-8 23 -29 24.5t-33 -18.5l-143 -246q-8 -16 0 -31.5t26 -15.5z" />
    <glyph glyph-name="AE.aalt" horiz-adv-x="2609" 
d="M227 0q-66 0 -91 51t16 105l684 876q18 25 49 25h1554q37 0 59.5 -25.5t16.5 -64.5l-33 -199q-10 -57 -69 -57h-709q-47 0 -51 -29l-2 -12q-4 -18 7 -28.5t46 -10.5h471q37 0 58.5 -25.5t17.5 -60.5l-4 -37q-2 -27 -21.5 -44.5t-48.5 -17.5h-510q-57 0 -61 -28l-2 -8
q-4 -29 12 -41.5t65 -12.5h650q37 0 59.5 -25.5t15.5 -64.5l-32 -207q-10 -59 -70 -59h-1106q-39 0 -62.5 26.5t-13.5 63.5l15 55q10 41 -13.5 71t-64.5 30h-318q-35 0 -57 -35l-121 -184q-20 -27 -51 -27h-285zM967 446h151q59 0 70 60l22 158q4 18 -8 33.5t-35 15.5h-82
q-31 0 -49 -25l-78 -108q-23 -31 -33 -61t-0.5 -51.5t42.5 -21.5z" />
    <glyph glyph-name="B.aalt" horiz-adv-x="1912" 
d="M231 0q-37 0 -59 25.5t-16 64.5l143 907q10 59 70 60h993q190 0 282.5 -58.5t92.5 -183.5q0 -160 -129 -231q-33 -16 2 -31q154 -55 153 -205q0 -186 -137 -267t-393 -81h-1002zM694 631h484q63 0 89.5 11t26.5 40q0 35 -65 35h-531q-20 0 -24 -21l-6 -34q-5 -31 26 -31z
M645 344h580q117 0 116 55q0 25 -18 31t-59 6h-613q-20 0 -24 -20l-6 -41q-5 -31 24 -31z" />
    <glyph glyph-name="C.aalt" horiz-adv-x="1875" 
d="M1647 207q18 -27 12 -57.5t-35 -45.5q-256 -143 -747 -143q-164 0 -292 24.5t-207 66.5t-132 101.5t-70.5 128t-23 145.5t13.5 155l6 34q41 238 256 359t655 121q369 0 603 -95q39 -14 46 -51t-20 -69l-172 -207q-31 -33 -72 -21q-197 66 -409 66q-215 0 -326.5 -33
t-132.5 -131l-4 -18q-16 -104 64.5 -148.5t279.5 -44.5q297 0 479 90q57 29 90 -24z" />
    <glyph glyph-name="Cacute.aalt" horiz-adv-x="1875" 
d="M1491 1501q16 -29 7 -58.5t-38 -45.5l-420 -223q-55 -29 -90 20l-49 68q-39 53 12 96l371 313q29 25 63.5 20t53.5 -38zM1647 207q18 -27 12 -57.5t-35 -45.5q-256 -143 -747 -143q-164 0 -292 24.5t-207 66.5t-132 101.5t-70.5 128t-23 145.5t13.5 155l6 34
q41 238 256 359t655 121q369 0 603 -95q39 -14 46 -51t-20 -69l-172 -207q-31 -33 -72 -21q-197 66 -409 66q-215 0 -326.5 -33t-132.5 -131l-4 -18q-16 -104 64.5 -148.5t279.5 -44.5q297 0 479 90q57 29 90 -24z" />
    <glyph glyph-name="Ccaron.aalt" horiz-adv-x="1875" 
d="M1212 1190q-35 -33 -56 -42t-64 -9h-91q-39 0 -59 10t-47 45l-252 326q-35 47 4 90l74 80q18 20 45 23t49 -13l182 -146q57 -45 77 -48t69 24l248 141q53 31 92 -18l51 -70q37 -47 -8 -92zM1647 207q18 -27 12 -57.5t-35 -45.5q-256 -143 -747 -143q-164 0 -292 24.5
t-207 66.5t-132 101.5t-70.5 128t-23 145.5t13.5 155l6 34q41 238 256 359t655 121q369 0 603 -95q39 -14 46 -51t-20 -69l-172 -207q-31 -33 -72 -21q-197 66 -409 66q-215 0 -326.5 -33t-132.5 -131l-4 -18q-16 -104 64.5 -148.5t279.5 -44.5q297 0 479 90q57 29 90 -24z
" />
    <glyph glyph-name="Ccedilla.aalt" horiz-adv-x="1875" 
d="M600 555l-4 -18q-16 -104 64.5 -148.5t279.5 -44.5q297 0 479 90q57 29 90 -24l138 -203q18 -27 12 -57.5t-35 -45.5q-209 -119 -559 -137v-4q-4 -18 11.5 -29.5t60.5 -19.5q168 -31 153 -182q-12 -115 -101 -158t-237 -43q-117 0 -207 20q-29 6 -41 30t-4 54l15 52
q20 66 92 49q49 -8 111 -8q86 0 86 20q0 23 -97 29q-57 4 -80.5 34.5t-13.5 75.5l18 74q-156 4 -274.5 29.5t-192 69.5t-124 102.5t-66.5 126t-21.5 142.5t13.5 151l6 34q41 238 256 359t655 121q369 0 603 -95q39 -14 46 -51t-20 -69l-172 -207q-31 -33 -72 -21
q-197 66 -409 66q-215 0 -327 -33t-132 -131z" />
    <glyph glyph-name="Cdotaccent.aalt" horiz-adv-x="1875" 
d="M1069 1155q-125 0 -184.5 71.5t-42.5 198.5q27 209 254 209q125 0 188.5 -66.5t46.5 -187.5q-14 -109 -82.5 -167t-179.5 -58zM1647 207q18 -27 12 -57.5t-35 -45.5q-256 -143 -747 -143q-164 0 -292 24.5t-207 66.5t-132 101.5t-70.5 128t-23 145.5t13.5 155l6 34
q41 238 256 359t655 121q369 0 603 -95q39 -14 46 -51t-20 -69l-172 -207q-31 -33 -72 -21q-197 66 -409 66q-215 0 -326.5 -33t-132.5 -131l-4 -18q-16 -104 64.5 -148.5t279.5 -44.5q297 0 479 90q57 29 90 -24z" />
    <glyph glyph-name="D.aalt" horiz-adv-x="1974" 
d="M1303 1057q172 0 287.5 -43t167.5 -120t67.5 -161t5.5 -188l-4 -39q-29 -264 -225.5 -385t-610.5 -121h-760q-37 0 -59 25.5t-16 64.5l143 907q10 59 70 60h934zM1384 549q12 92 -28.5 125t-126.5 33h-481q-59 0 -70 -58l-33 -203q-6 -39 16.5 -64.5t59.5 -25.5h330
q309 0 331 181z" />
    <glyph glyph-name="Eth.aalt" horiz-adv-x="1935" 
d="M1303 1057q172 0 287.5 -43t167.5 -120t67.5 -161t5.5 -188l-4 -39q-29 -264 -225.5 -385t-610.5 -121h-760q-37 0 -59 25.5t-16 64.5l51 320q4 31 -27 30h-20q-37 0 -59.5 26t-16.5 64l6 43q10 59 70 60h61q20 0 25 20l53 344q10 59 70 60h934zM1384 549
q12 92 -28.5 125t-126.5 33h-481q-59 0 -66 -37v-6q-4 -31 25 -31h403q37 0 59.5 -25.5t16.5 -62.5l-6 -45q-10 -59 -70 -60h-442q-23 0 -23 -18l-2 -21q0 -45 78 -45h330q309 0 331 181z" />
    <glyph glyph-name="Dcaron.aalt" horiz-adv-x="1974" 
d="M1217 1190q-35 -33 -56.5 -42t-64.5 -9h-90q-39 0 -59.5 10t-47.5 45l-252 326q-35 47 4 90l74 80q18 20 45 23t49 -13l182 -146q57 -45 77 -48t69 24l248 141q53 31 92 -18l51 -70q37 -47 -8 -92zM1303 1057q172 0 287.5 -43t167.5 -120t67.5 -161t5.5 -188l-4 -39
q-29 -264 -225.5 -385t-610.5 -121h-760q-37 0 -59 25.5t-16 64.5l143 907q10 59 70 60h934zM1384 549q12 92 -28.5 125t-126.5 33h-481q-59 0 -70 -58l-33 -203q-6 -39 16.5 -64.5t59.5 -25.5h330q309 0 331 181z" />
    <glyph glyph-name="Dcroat.aalt" horiz-adv-x="1935" 
d="M1303 1057q172 0 287.5 -43t167.5 -120t67.5 -161t5.5 -188l-4 -39q-29 -264 -225.5 -385t-610.5 -121h-760q-37 0 -59 25.5t-16 64.5l51 320q4 31 -27 30h-20q-37 0 -59.5 26t-16.5 64l6 43q10 59 70 60h61q20 0 25 20l53 344q10 59 70 60h934zM1384 549
q12 92 -28.5 125t-126.5 33h-481q-59 0 -66 -37v-6q-4 -31 25 -31h403q37 0 59.5 -25.5t16.5 -62.5l-6 -45q-10 -59 -70 -60h-442q-23 0 -23 -18l-2 -21q0 -45 78 -45h330q309 0 331 181z" />
    <glyph glyph-name="E.aalt" horiz-adv-x="1767" 
d="M1595 1057q37 0 58.5 -25.5t17.5 -62.5l-31 -203q-10 -59 -67 -59h-825q-57 0 -62 -23l-4 -18q-4 -23 9.5 -32t41.5 -9h580q39 0 60.5 -28t15.5 -65l-7 -34q-4 -25 -22.5 -41.5t-44.5 -16.5h-613q-61 0 -63 -34l-2 -13q-2 -20 9 -28.5t40 -8.5h801q37 0 58.5 -25.5
t17.5 -62.5l-31 -209q-2 -27 -22.5 -43t-47.5 -16h-1231q-37 0 -59 25.5t-16 64.5l143 907q10 59 70 60h1226z" />
    <glyph glyph-name="Eacute.aalt" horiz-adv-x="1767" 
d="M1473 1501q16 -29 6.5 -58.5t-37.5 -45.5l-420 -223q-55 -29 -90 20l-49 68q-39 53 12 96l371 313q29 25 63.5 20t52.5 -38zM1595 1057q37 0 58.5 -25.5t17.5 -62.5l-31 -203q-10 -59 -67 -59h-825q-57 0 -62 -23l-4 -18q-4 -23 9.5 -32t41.5 -9h580q39 0 60.5 -28
t15.5 -65l-7 -34q-4 -25 -22.5 -41.5t-44.5 -16.5h-613q-61 0 -63 -34l-2 -13q-2 -20 9 -28.5t40 -8.5h801q37 0 58.5 -25.5t17.5 -62.5l-31 -209q-2 -27 -22.5 -43t-47.5 -16h-1231q-37 0 -59 25.5t-16 64.5l143 907q10 59 70 60h1226z" />
    <glyph glyph-name="Ecaron.aalt" horiz-adv-x="1767" 
d="M1194 1190q-35 -33 -56.5 -42t-64.5 -9h-90q-39 0 -59.5 10t-46.5 45l-252 326q-35 47 4 90l73 80q18 20 45 23t50 -13l182 -146q57 -45 76.5 -48t68.5 24l248 141q53 31 92 -18l52 -70q37 -47 -9 -92zM1595 1057q37 0 58.5 -25.5t17.5 -62.5l-31 -203q-10 -59 -67 -59
h-825q-57 0 -62 -23l-4 -18q-4 -23 9.5 -32t41.5 -9h580q39 0 60.5 -28t15.5 -65l-7 -34q-4 -25 -22.5 -41.5t-44.5 -16.5h-613q-61 0 -63 -34l-2 -13q-2 -20 9 -28.5t40 -8.5h801q37 0 58.5 -25.5t17.5 -62.5l-31 -209q-2 -27 -22.5 -43t-47.5 -16h-1231q-37 0 -59 25.5
t-16 64.5l143 907q10 59 70 60h1226z" />
    <glyph glyph-name="Ecircumflex.aalt" horiz-adv-x="1767" 
d="M942 1679q35 33 56.5 42.5t64.5 9.5h90q39 0 59.5 -10.5t47.5 -45.5l251 -325q35 -47 -4 -90l-73 -80q-18 -20 -45 -23.5t-50 12.5l-182 146q-57 45 -76.5 48t-68.5 -24l-248 -141q-53 -31 -92 19l-51 69q-37 47 8 92zM1595 1057q37 0 58.5 -25.5t17.5 -62.5l-31 -203
q-10 -59 -67 -59h-825q-57 0 -62 -23l-4 -18q-4 -23 9.5 -32t41.5 -9h580q39 0 60.5 -28t15.5 -65l-7 -34q-4 -25 -22.5 -41.5t-44.5 -16.5h-613q-61 0 -63 -34l-2 -13q-2 -20 9 -28.5t40 -8.5h801q37 0 58.5 -25.5t17.5 -62.5l-31 -209q-2 -27 -22.5 -43t-47.5 -16h-1231
q-37 0 -59 25.5t-16 64.5l143 907q10 59 70 60h1226z" />
    <glyph glyph-name="Edieresis.aalt" horiz-adv-x="1767" 
d="M772 1155q-125 0 -185.5 71.5t-43.5 198.5q27 209 256 209q123 0 186.5 -67.5t46.5 -186.5q-14 -109 -82.5 -167t-177.5 -58zM1339 1155q-125 0 -184 71.5t-43 198.5q27 209 254 209q125 0 188.5 -66.5t47.5 -187.5q-14 -109 -83 -167t-180 -58zM1595 1057
q37 0 58.5 -25.5t17.5 -62.5l-31 -203q-10 -59 -67 -59h-825q-57 0 -62 -23l-4 -18q-4 -23 9.5 -32t41.5 -9h580q39 0 60.5 -28t15.5 -65l-7 -34q-4 -25 -22.5 -41.5t-44.5 -16.5h-613q-61 0 -63 -34l-2 -13q-2 -20 9 -28.5t40 -8.5h801q37 0 58.5 -25.5t17.5 -62.5
l-31 -209q-2 -27 -22.5 -43t-47.5 -16h-1231q-37 0 -59 25.5t-16 64.5l143 907q10 59 70 60h1226z" />
    <glyph glyph-name="Edotaccent.aalt" horiz-adv-x="1767" 
d="M1051 1155q-125 0 -184.5 71.5t-43.5 198.5q27 209 254 209q125 0 188.5 -66.5t47.5 -187.5q-14 -109 -82.5 -167t-179.5 -58zM1595 1057q37 0 58.5 -25.5t17.5 -62.5l-31 -203q-10 -59 -67 -59h-825q-57 0 -62 -23l-4 -18q-4 -23 9.5 -32t41.5 -9h580q39 0 60.5 -28
t15.5 -65l-7 -34q-4 -25 -22.5 -41.5t-44.5 -16.5h-613q-61 0 -63 -34l-2 -13q-2 -20 9 -28.5t40 -8.5h801q37 0 58.5 -25.5t17.5 -62.5l-31 -209q-2 -27 -22.5 -43t-47.5 -16h-1231q-37 0 -59 25.5t-16 64.5l143 907q10 59 70 60h1226z" />
    <glyph glyph-name="Egrave.aalt" horiz-adv-x="1767" 
d="M698 1389q-33 20 -38 53t18 61l131 162q23 29 56.5 30t58.5 -26l290 -305q47 -51 3 -98l-74 -80q-39 -43 -86 -12zM1595 1057q37 0 58.5 -25.5t17.5 -62.5l-31 -203q-10 -59 -67 -59h-825q-57 0 -62 -23l-4 -18q-4 -23 9.5 -32t41.5 -9h580q39 0 60.5 -28t15.5 -65
l-7 -34q-4 -25 -22.5 -41.5t-44.5 -16.5h-613q-61 0 -63 -34l-2 -13q-2 -20 9 -28.5t40 -8.5h801q37 0 58.5 -25.5t17.5 -62.5l-31 -209q-2 -27 -22.5 -43t-47.5 -16h-1231q-37 0 -59 25.5t-16 64.5l143 907q10 59 70 60h1226z" />
    <glyph glyph-name="Emacron.aalt" horiz-adv-x="1767" 
d="M1583 1284q-4 -27 -23.5 -44t-46.5 -17h-913q-35 0 -56.5 25.5t-17.5 60.5l25 196q4 27 23.5 44.5t46.5 17.5h913q35 0 57.5 -25.5t18.5 -60.5zM1595 1057q37 0 58.5 -25.5t17.5 -62.5l-31 -203q-10 -59 -67 -59h-825q-57 0 -62 -23l-4 -18q-4 -23 9.5 -32t41.5 -9h580
q39 0 60.5 -28t15.5 -65l-7 -34q-4 -25 -22.5 -41.5t-44.5 -16.5h-613q-61 0 -63 -34l-2 -13q-2 -20 9 -28.5t40 -8.5h801q37 0 58.5 -25.5t17.5 -62.5l-31 -209q-2 -27 -22.5 -43t-47.5 -16h-1231q-37 0 -59 25.5t-16 64.5l143 907q10 59 70 60h1226z" />
    <glyph glyph-name="Eogonek.aalt" horiz-adv-x="1767" 
d="M1595 1057q37 0 58.5 -25.5t17.5 -62.5l-31 -203q-10 -59 -67 -59h-825q-57 0 -62 -23l-4 -18q-4 -23 9.5 -32t41.5 -9h580q39 0 60.5 -28t15.5 -65l-7 -34q-4 -25 -22.5 -41.5t-44.5 -16.5h-613q-61 0 -63 -34l-2 -13q-2 -20 9 -28.5t40 -8.5h801q37 0 58.5 -25.5
t17.5 -62.5l-31 -209q-2 -23 -25 -45l17 -14q-281 -96 -281 -141q0 -27 47 -27q18 0 80 6q41 4 68.5 -16.5t25.5 -61.5l-2 -94q0 -68 -59 -78q-106 -18 -209 -18q-295 0 -295 194q0 147 162 236h-830q-37 0 -59 25.5t-16 64.5l143 907q10 59 70 60h1226z" />
    <glyph glyph-name="F.aalt" horiz-adv-x="1609" 
d="M1489 1057q37 0 60.5 -26.5t17.5 -63.5l-35 -203q-10 -57 -70 -57h-706q-37 0 -53.5 -12.5t-20.5 -45.5l-6 -31q-14 -90 78 -90h432q39 0 61.5 -27.5t16.5 -64.5l-31 -164q-4 -25 -22.5 -41t-45.5 -16h-493q-59 0 -70 -59l-14 -97q-10 -59 -70 -59h-287q-37 0 -59 25.5
t-16 64.5l143 907q10 59 70 60h1120z" />
    <glyph glyph-name="G.aalt" horiz-adv-x="1929" 
d="M928 -33q-205 0 -353.5 30t-231.5 84t-132 128t-53 163t4 187l4 31q39 258 259 382t671 124q393 0 620 -49q39 -8 54.5 -41t-3.5 -70l-112 -221q-23 -47 -76 -37q-164 39 -498 39q-446 0 -479 -174l-4 -27q-6 -49 9.5 -83t44 -53.5t85 -29.5t108.5 -12t138 -2
q147 0 295 22q49 8 55 56l15 100q10 59 67 59h318q37 0 58 -25.5t17 -62.5l-53 -366q-6 -41 -45 -53q-342 -99 -782 -99z" />
    <glyph glyph-name="Gbreve.aalt" horiz-adv-x="1929" 
d="M1094 1133q-274 0 -394 119.5t-110 322.5q2 27 21.5 45t47.5 18h248q66 0 74 -75q6 -111 119 -111q145 0 192 137q16 49 64 49h246q39 0 62.5 -23.5t14.5 -55.5q-47 -201 -194 -313.5t-391 -112.5zM928 -33q-205 0 -353.5 30t-231.5 84t-132 128t-53 163t4 187l4 31
q39 258 259 382t671 124q393 0 620 -49q39 -8 54.5 -41t-3.5 -70l-112 -221q-23 -47 -76 -37q-164 39 -498 39q-446 0 -479 -174l-4 -27q-6 -49 9.5 -83t44 -53.5t85 -29.5t108.5 -12t138 -2q147 0 295 22q49 8 55 56l15 100q10 59 67 59h318q37 0 58 -25.5t17 -62.5
l-53 -366q-6 -41 -45 -53q-342 -99 -782 -99z" />
    <glyph glyph-name="uni0122.aalt" horiz-adv-x="1929" 
d="M928 -33q-205 0 -353.5 30t-231.5 84t-132 128t-53 163t4 187l4 31q39 258 259 382t671 124q393 0 620 -49q39 -8 54.5 -41t-3.5 -70l-112 -221q-23 -47 -76 -37q-164 39 -498 39q-446 0 -479 -174l-4 -27q-6 -49 9.5 -83t44 -53.5t85 -29.5t108.5 -12t138 -2
q147 0 295 22q49 8 55 56l15 100q10 59 67 59h318q37 0 58 -25.5t17 -62.5l-53 -366q-6 -41 -45 -53q-342 -99 -782 -99zM662 -631q-35 2 -54.5 29t-13.5 61l12 66q12 61 84 55q80 -8 154 -2q98 8 139 31q18 12 8 18q-6 4 -18 -4q-49 -23 -125 -22q-109 0 -155 44t-34 117
q23 145 275 146q158 0 240.5 -76t64.5 -215q-25 -152 -183 -209t-394 -39z" />
    <glyph glyph-name="Gdotaccent.aalt" horiz-adv-x="1929" 
d="M1090 1155q-125 0 -184.5 71.5t-43.5 198.5q27 209 254 209q125 0 188.5 -66.5t47.5 -187.5q-14 -109 -82.5 -167t-179.5 -58zM928 -33q-205 0 -353.5 30t-231.5 84t-132 128t-53 163t4 187l4 31q39 258 259 382t671 124q393 0 620 -49q39 -8 54.5 -41t-3.5 -70
l-112 -221q-23 -47 -76 -37q-164 39 -498 39q-446 0 -479 -174l-4 -27q-6 -49 9.5 -83t44 -53.5t85 -29.5t108.5 -12t138 -2q147 0 295 22q49 8 55 56l15 100q10 59 67 59h318q37 0 58 -25.5t17 -62.5l-53 -366q-6 -41 -45 -53q-342 -99 -782 -99z" />
    <glyph glyph-name="H.aalt" horiz-adv-x="1976" 
d="M1759 1057q37 0 59.5 -25.5t16.5 -62.5l-141 -910q-10 -59 -70 -59h-287q-37 0 -59.5 25.5t-15.5 62.5l38 244q4 31 -26 30h-617q-20 0 -24 -20l-43 -283q-10 -59 -70 -59h-287q-37 0 -59 25.5t-16 62.5l141 909q10 59 70 60h286q37 0 59.5 -25.5t16.5 -62.5l-37 -236
q-4 -31 27 -31h616q20 0 25 21l41 274q10 59 70 60h286z" />
    <glyph glyph-name="Hbar.aalt" horiz-adv-x="1902" 
d="M197 0q-37 0 -59.5 25.5t-16.5 62.5l78 502q4 31 -27 31h-55q-37 0 -59.5 25.5t-16.5 62.5l25 155q10 59 67 60h96q20 0 25 20l8 53q10 59 70 60h286q33 0 54.5 -16.5t19.5 -51.5l-4 -37q-2 -10 7.5 -19t19.5 -9h618q20 0 25 20l8 53q10 59 70 60h286q39 0 60.5 -18.5
t15.5 -55.5l-4 -29q-4 -31 27 -30h53q37 0 59.5 -26t16.5 -64l-25 -154q-10 -59 -67 -59h-95q-20 0 -24 -21l-82 -541q-10 -59 -70 -59h-287q-37 0 -59 25.5t-16 62.5l12 80q4 31 -27 31h-614q-20 0 -25 -21l-18 -119q-10 -59 -70 -59h-286zM651 496h617q18 0 22 20l13 74
q4 31 -27 31h-617q-20 0 -24 -21l-10 -74q-5 -30 26 -30z" />
    <glyph glyph-name="I.aalt" horiz-adv-x="870" 
d="M231 0q-37 0 -59 25.5t-16 64.5l143 907q10 59 70 60h286q37 0 59.5 -25.5t16.5 -64.5l-143 -908q-10 -59 -70 -59h-287z" />
    <glyph glyph-name="Iacute.aalt" horiz-adv-x="870" 
d="M977 1501q16 -29 7 -58.5t-38 -45.5l-420 -223q-55 -29 -90 20l-49 68q-39 53 12 96l371 313q29 25 63.5 20t53.5 -38zM231 0q-37 0 -59 25.5t-16 64.5l143 907q10 59 70 60h286q37 0 59.5 -25.5t16.5 -64.5l-143 -908q-10 -59 -70 -59h-287z" />
    <glyph glyph-name="Icircumflex.aalt" horiz-adv-x="870" 
d="M446 1679q35 33 56.5 42.5t64.5 9.5h90q39 0 59.5 -10.5t47.5 -45.5l252 -325q35 -47 -4 -90l-74 -80q-18 -20 -45 -23.5t-49 12.5l-182 146q-57 45 -77 48t-69 -24l-248 -141q-53 -31 -92 19l-51 69q-37 47 8 92zM231 0q-37 0 -59 25.5t-16 64.5l143 907q10 59 70 60
h286q37 0 59.5 -25.5t16.5 -64.5l-143 -908q-10 -59 -70 -59h-287z" />
    <glyph glyph-name="Idieresis.aalt" horiz-adv-x="870" 
d="M276 1155q-125 0 -185 71.5t-44 198.5q27 209 256 209q123 0 186.5 -67.5t47.5 -186.5q-14 -109 -83 -167t-178 -58zM844 1155q-125 0 -184.5 71.5t-43.5 198.5q27 209 254 209q125 0 188.5 -66.5t47.5 -187.5q-14 -109 -82.5 -167t-179.5 -58zM231 0q-37 0 -59 25.5
t-16 64.5l143 907q10 59 70 60h286q37 0 59.5 -25.5t16.5 -64.5l-143 -908q-10 -59 -70 -59h-287z" />
    <glyph glyph-name="Idotaccent.aalt" horiz-adv-x="870" 
d="M555 1155q-125 0 -184.5 71.5t-42.5 198.5q27 209 254 209q125 0 188.5 -66.5t46.5 -187.5q-14 -109 -82.5 -167t-179.5 -58zM231 0q-37 0 -59 25.5t-16 64.5l143 907q10 59 70 60h286q37 0 59.5 -25.5t16.5 -64.5l-143 -908q-10 -59 -70 -59h-287z" />
    <glyph glyph-name="Igrave.aalt" horiz-adv-x="870" 
d="M203 1389q-33 20 -38 53t17 61l131 162q23 29 56.5 30t58.5 -26l291 -305q47 -51 2 -98l-74 -80q-39 -43 -86 -12zM231 0q-37 0 -59 25.5t-16 64.5l143 907q10 59 70 60h286q37 0 59.5 -25.5t16.5 -64.5l-143 -908q-10 -59 -70 -59h-287z" />
    <glyph glyph-name="Imacron.aalt" horiz-adv-x="870" 
d="M1087 1284q-4 -27 -23.5 -44t-45.5 -17h-914q-35 0 -56 25.5t-17 60.5l24 196q4 27 23.5 44.5t46.5 17.5h913q35 0 57.5 -25.5t18.5 -60.5zM231 0q-37 0 -59 25.5t-16 64.5l143 907q10 59 70 60h286q37 0 59.5 -25.5t16.5 -64.5l-143 -908q-10 -59 -70 -59h-287z" />
    <glyph glyph-name="Iogonek.aalt" horiz-adv-x="870" 
d="M655 1057q37 0 59.5 -25.5t16.5 -64.5l-143 -908q-10 -59 -70 -59q-281 -96 -280 -141q0 -27 47 -27q18 0 80 6q41 4 68.5 -16.5t25.5 -61.5l-2 -94q0 -68 -60 -78q-106 -18 -209 -18q-295 0 -294 194q0 197 268 279q-10 23 -6 47l143 907q10 59 70 60h286z" />
    <glyph glyph-name="J.aalt" horiz-adv-x="1466" 
d="M61 115q-27 16 -30.5 45.5t12.5 54.5l137 209q18 29 50 34t59 -16q135 -98 344 -98q152 0 232.5 67.5t107.5 227.5l61 360q10 57 70 58h287q37 0 59.5 -25.5t15.5 -64.5l-65 -400q-51 -324 -230.5 -465t-537.5 -141q-334 0 -572 154z" />
    <glyph glyph-name="K.aalt" horiz-adv-x="1835" 
d="M231 0q-37 0 -59 25.5t-16 64.5l143 907q10 59 70 60h286q37 0 59.5 -25.5t16.5 -64.5l-37 -234q-4 -25 14.5 -37t39.5 2l438 299q84 57 164 58h151q92 0 118 -83t-52 -136l-262 -174q-20 -14 -7 -35l324 -484q33 -51 7.5 -97t-85.5 -46h-332q-35 0 -53 31l-217 356
q-14 25 -37 8l-284 -192q-10 -10 -11 -13l-22 -131q-10 -59 -70 -59h-287z" />
    <glyph glyph-name="uni0136.aalt" horiz-adv-x="1835" 
d="M231 0q-37 0 -59 25.5t-16 64.5l143 907q10 59 70 60h286q37 0 59.5 -25.5t16.5 -64.5l-37 -234q-4 -25 14.5 -37t39.5 2l438 299q84 57 164 58h151q92 0 118 -83t-52 -136l-262 -174q-20 -14 -7 -35l324 -484q33 -51 7.5 -97t-85.5 -46h-332q-35 0 -53 31l-217 356
q-14 25 -37 8l-284 -192q-10 -10 -11 -13l-22 -131q-10 -59 -70 -59h-287zM569 -631q-35 2 -54 29t-13 61l12 66q12 61 84 55q80 -8 154 -2q98 8 139 31q18 12 8 18q-6 4 -18 -4q-49 -23 -125 -22q-109 0 -155 44t-34 117q23 145 275 146q158 0 240.5 -76t64.5 -215
q-25 -152 -183.5 -209t-394.5 -39z" />
    <glyph glyph-name="L.aalt" horiz-adv-x="1556" 
d="M1354 356q35 0 57.5 -24.5t18.5 -61.5l-25 -209q-2 -27 -21.5 -44t-48.5 -17h-1104q-37 0 -59 25.5t-16 64.5l143 907q10 59 70 60h284q37 0 60.5 -26.5t17.5 -63.5l-86 -516q-6 -35 9.5 -65t58.5 -30h641z" />
    <glyph glyph-name="Lacute.aalt" horiz-adv-x="1556" 
d="M985 1501q16 -29 7 -58.5t-38 -45.5l-419 -223q-55 -29 -91 20l-49 68q-39 53 13 96l370 313q29 25 64 20t53 -38zM1354 356q35 0 57.5 -24.5t18.5 -61.5l-25 -209q-2 -27 -21.5 -44t-48.5 -17h-1104q-37 0 -59 25.5t-16 64.5l143 907q10 59 70 60h284q37 0 60.5 -26.5
t17.5 -63.5l-86 -516q-6 -35 9.5 -65t58.5 -30h641z" />
    <glyph glyph-name="Lcaron.aalt" horiz-adv-x="1556" 
d="M1354 356q35 0 57.5 -24.5t18.5 -61.5l-25 -209q-2 -27 -21.5 -44t-48.5 -17h-1104q-37 0 -59 25.5t-16 64.5l143 907q10 59 70 60h284q37 0 60.5 -26.5t17.5 -63.5l-86 -516q-6 -35 9.5 -65t58.5 -30h641zM936 494q-39 0 -61.5 27.5t-14.5 66.5l86 405q4 25 23.5 40.5
t44.5 15.5l209 -2q49 0 72.5 -38t2.5 -83l-182 -396q-16 -37 -57 -36h-123z" />
    <glyph glyph-name="uni013B.aalt" horiz-adv-x="1556" 
d="M1354 356q35 0 57.5 -24.5t18.5 -61.5l-25 -209q-2 -27 -21.5 -44t-48.5 -17h-1104q-37 0 -59 25.5t-16 64.5l143 907q10 59 70 60h284q37 0 60.5 -26.5t17.5 -63.5l-86 -516q-6 -35 9.5 -65t58.5 -30h641zM432 -590q-35 2 -54.5 28.5t-12.5 61.5l12 66q12 61 84 55
q80 -8 153 -2q98 8 140 31q18 12 8 18q-6 4 -19 -4q-49 -23 -125 -22q-109 0 -154.5 44t-33.5 117q23 145 275 146q158 0 240.5 -76t64.5 -215q-25 -152 -183.5 -209t-394.5 -39z" />
    <glyph glyph-name="Lslash.aalt" horiz-adv-x="1556" 
d="M1354 356q35 0 57.5 -24.5t18.5 -61.5l-25 -209q-2 -27 -21.5 -44t-48.5 -17h-1104q-37 0 -59 25.5t-16 64.5l30 199l-12 -6q-29 -16 -57.5 -6t-42.5 42l-74 168q-27 59 35 93l215 108l49 309q10 59 70 60h284q37 0 60.5 -26.5t17.5 -63.5l-6 -39l203 102q29 16 57.5 6
t42.5 -43l74 -168q12 -27 2 -52t-37 -40l-410 -207l-12 -75q-6 -35 9.5 -65t58.5 -30h641z" />
    <glyph glyph-name="M.aalt" horiz-adv-x="2334" 
d="M2120 1057q37 0 59.5 -25.5t15.5 -64.5l-143 -908q-10 -59 -70 -59h-274q-39 0 -60.5 26.5t-15.5 63.5l49 281q10 59 -13 61t-48 -24l-283 -246q-43 -39 -63.5 -48.5t-52.5 -9.5h-215q-43 0 -88 58l-218 276q-16 18 -35.5 13t-23.5 -27l-63 -367q-10 -57 -70 -57h-277
q-37 0 -59 25.5t-16 64.5l143 907q10 59 70 60h368q31 0 49 -25l334 -428q47 -59 111 -4l495 442q14 14 39 15h355z" />
    <glyph glyph-name="N.aalt" horiz-adv-x="1947" 
d="M1733 1057q37 0 59.5 -25.5t15.5 -64.5l-143 -908q-10 -59 -70 -59h-348q-25 0 -41 16l-501 492q-14 14 -33 9t-21 -25l-73 -435q-10 -57 -70 -57h-277q-37 0 -59 25.5t-16 64.5l143 907q10 59 70 60h348q25 0 41 -17l506 -493q14 -14 32.5 -8t22.5 26l67 432
q10 59 70 60h277z" />
    <glyph glyph-name="Nacute.aalt" horiz-adv-x="1947" 
d="M1516 1501q16 -29 6.5 -58.5t-37.5 -45.5l-420 -223q-55 -29 -90 20l-49 68q-39 53 12 96l371 313q29 25 63.5 20t52.5 -38zM1733 1057q37 0 59.5 -25.5t15.5 -64.5l-143 -908q-10 -59 -70 -59h-348q-25 0 -41 16l-501 492q-14 14 -33 9t-21 -25l-73 -435
q-10 -57 -70 -57h-277q-37 0 -59 25.5t-16 64.5l143 907q10 59 70 60h348q25 0 41 -17l506 -493q14 -14 32.5 -8t22.5 26l67 432q10 59 70 60h277z" />
    <glyph glyph-name="Ncaron.aalt" horiz-adv-x="1947" 
d="M1237 1190q-35 -33 -56.5 -42t-64.5 -9h-90q-39 0 -59.5 10t-46.5 45l-252 326q-35 47 4 90l73 80q18 20 45 23t50 -13l182 -146q57 -45 76.5 -48t68.5 24l248 141q53 31 92 -18l52 -70q37 -47 -9 -92zM1733 1057q37 0 59.5 -25.5t15.5 -64.5l-143 -908q-10 -59 -70 -59
h-348q-25 0 -41 16l-501 492q-14 14 -33 9t-21 -25l-73 -435q-10 -57 -70 -57h-277q-37 0 -59 25.5t-16 64.5l143 907q10 59 70 60h348q25 0 41 -17l506 -493q14 -14 32.5 -8t22.5 26l67 432q10 59 70 60h277z" />
    <glyph glyph-name="uni0145.aalt" horiz-adv-x="1947" 
d="M1733 1057q37 0 59.5 -25.5t15.5 -64.5l-143 -908q-10 -59 -70 -59h-348q-25 0 -41 16l-501 492q-14 14 -33 9t-21 -25l-73 -435q-10 -57 -70 -57h-277q-37 0 -59 25.5t-16 64.5l143 907q10 59 70 60h348q25 0 41 -17l506 -493q14 -14 32.5 -8t22.5 26l67 432
q10 59 70 60h277zM557 -631q-35 2 -54.5 29t-13.5 61l13 66q12 61 84 55q80 -8 153 -2q98 8 140 31q18 12 8 18q-6 4 -19 -4q-49 -23 -125 -22q-109 0 -154.5 44t-33.5 117q23 145 274 146q158 0 241 -76t65 -215q-25 -152 -183.5 -209t-394.5 -39z" />
    <glyph glyph-name="Eng.aalt" horiz-adv-x="1988" 
d="M1067 -369q-233 0 -410 82q-29 14 -37 43t9 58l108 196q16 31 48 38t63 -11q84 -51 192 -51q78 0 107 42t-10 76l-412 404q-14 14 -32.5 9t-20.5 -25l-74 -435q-10 -57 -70 -57h-276q-37 0 -59.5 25.5t-16.5 64.5l143 907q10 59 70 60h348q25 0 41 -17l508 -495
q16 -14 34.5 -8t20.5 26l68 434q10 59 68 60h276q37 0 59.5 -25.5t16.5 -64.5l-127 -793q-88 -543 -635 -543z" />
    <glyph glyph-name="Ntilde.aalt" horiz-adv-x="1947" 
d="M641 1180q-35 0 -57.5 24.5t-18.5 61.5q31 193 122 276.5t212 83.5q49 0 86 -7t56.5 -15.5t60.5 -26.5q86 -41 108 -41q39 0 56 35q23 47 59 47h203q37 0 59.5 -25.5t16.5 -62.5q-33 -190 -135.5 -276.5t-233.5 -86.5q-86 0 -176 50q-84 45 -105 45q-35 0 -49 -35
q-20 -47 -57 -47h-207zM1733 1057q37 0 59.5 -25.5t15.5 -64.5l-143 -908q-10 -59 -70 -59h-348q-25 0 -41 16l-501 492q-14 14 -33 9t-21 -25l-73 -435q-10 -57 -70 -57h-277q-37 0 -59 25.5t-16 64.5l143 907q10 59 70 60h348q25 0 41 -17l506 -493q14 -14 32.5 -8
t22.5 26l67 432q10 59 70 60h277z" />
    <glyph glyph-name="O.aalt" horiz-adv-x="2027" 
d="M924 -39q-211 0 -363.5 32t-233.5 86t-128 128t-48 159t9 175l4 30q86 526 962 527q211 0 354.5 -25.5t248 -87t142.5 -173.5t15 -277l-4 -29q-41 -291 -277.5 -418t-680.5 -127zM954 348q217 0 346.5 40t141.5 147l2 16q12 106 -68 136t-289 30q-207 0 -335.5 -35
t-147.5 -139l-2 -13q-8 -51 8.5 -85.5t45 -53t83 -29t99 -12.5t116.5 -2z" />
    <glyph glyph-name="Oacute.aalt" horiz-adv-x="2027" 
d="M1554 1501q16 -29 7 -58.5t-37 -45.5l-420 -223q-55 -29 -90 20l-49 68q-39 53 12 96l371 313q29 25 63.5 20t52.5 -38zM924 -39q-211 0 -363.5 32t-233.5 86t-128 128t-48 159t9 175l4 30q86 526 962 527q211 0 354.5 -25.5t248 -87t142.5 -173.5t15 -277l-4 -29
q-41 -291 -277.5 -418t-680.5 -127zM954 348q217 0 346.5 40t141.5 147l2 16q12 106 -68 136t-289 30q-207 0 -335.5 -35t-147.5 -139l-2 -13q-8 -51 8.5 -85.5t45 -53t83 -29t99 -12.5t116.5 -2z" />
    <glyph glyph-name="Ocircumflex.aalt" horiz-adv-x="2027" 
d="M1024 1679q35 33 56.5 42.5t64.5 9.5h90q39 0 59.5 -10.5t46.5 -45.5l252 -325q35 -47 -4 -90l-73 -80q-18 -20 -45 -23.5t-50 12.5l-182 146q-57 45 -76.5 48t-68.5 -24l-248 -141q-53 -31 -92 19l-52 69q-37 47 9 92zM924 -39q-211 0 -363.5 32t-233.5 86t-128 128
t-48 159t9 175l4 30q86 526 962 527q211 0 354.5 -25.5t248 -87t142.5 -173.5t15 -277l-4 -29q-41 -291 -277.5 -418t-680.5 -127zM954 348q217 0 346.5 40t141.5 147l2 16q12 106 -68 136t-289 30q-207 0 -335.5 -35t-147.5 -139l-2 -13q-8 -51 8.5 -85.5t45 -53t83 -29
t99 -12.5t116.5 -2z" />
    <glyph glyph-name="Odieresis.aalt" horiz-adv-x="2027" 
d="M854 1155q-125 0 -185.5 71.5t-43.5 198.5q27 209 256 209q123 0 186 -67.5t47 -186.5q-14 -109 -82.5 -167t-177.5 -58zM1421 1155q-125 0 -184 71.5t-43 198.5q27 209 254 209q125 0 188.5 -66.5t46.5 -187.5q-14 -109 -82.5 -167t-179.5 -58zM924 -39
q-211 0 -363.5 32t-233.5 86t-128 128t-48 159t9 175l4 30q86 526 962 527q211 0 354.5 -25.5t248 -87t142.5 -173.5t15 -277l-4 -29q-41 -291 -277.5 -418t-680.5 -127zM954 348q217 0 346.5 40t141.5 147l2 16q12 106 -68 136t-289 30q-207 0 -335.5 -35t-147.5 -139
l-2 -13q-8 -51 8.5 -85.5t45 -53t83 -29t99 -12.5t116.5 -2z" />
    <glyph glyph-name="Ograve.aalt" horiz-adv-x="2027" 
d="M780 1389q-33 20 -38 53t18 61l131 162q23 29 56.5 30t58.5 -26l290 -305q47 -51 2 -98l-73 -80q-39 -43 -86 -12zM924 -39q-211 0 -363.5 32t-233.5 86t-128 128t-48 159t9 175l4 30q86 526 962 527q211 0 354.5 -25.5t248 -87t142.5 -173.5t15 -277l-4 -29
q-41 -291 -277.5 -418t-680.5 -127zM954 348q217 0 346.5 40t141.5 147l2 16q12 106 -68 136t-289 30q-207 0 -335.5 -35t-147.5 -139l-2 -13q-8 -51 8.5 -85.5t45 -53t83 -29t99 -12.5t116.5 -2z" />
    <glyph glyph-name="Ohungarumlaut.aalt" horiz-adv-x="2027" 
d="M1118 1604q66 0 81 -61.5t-38 -115.5l-168 -167q-47 -49 -114 -50h-74q-43 0 -56.5 32t-0.5 58l112 230q23 45 45.5 59.5t65.5 14.5h147zM1694 1604q57 0 71.5 -52.5t-20.5 -76.5l-324 -238q-41 -27 -106 -27h-70q-53 0 -59 42t26 71l220 229q33 33 53 42.5t61 9.5h148z
M924 -39q-211 0 -363.5 32t-233.5 86t-128 128t-48 159t9 175l4 30q86 526 962 527q211 0 354.5 -25.5t248 -87t142.5 -173.5t15 -277l-4 -29q-41 -291 -277.5 -418t-680.5 -127zM954 348q217 0 346.5 40t141.5 147l2 16q12 106 -68 136t-289 30q-207 0 -335.5 -35
t-147.5 -139l-2 -13q-8 -51 8.5 -85.5t45 -53t83 -29t99 -12.5t116.5 -2z" />
    <glyph glyph-name="Omacron.aalt" horiz-adv-x="2027" 
d="M1665 1284q-4 -27 -23.5 -44t-46.5 -17h-913q-35 0 -56.5 25.5t-17.5 60.5l25 196q4 27 23.5 44.5t45.5 17.5h914q35 0 57.5 -25.5t18.5 -60.5zM924 -39q-211 0 -363.5 32t-233.5 86t-128 128t-48 159t9 175l4 30q86 526 962 527q211 0 354.5 -25.5t248 -87t142.5 -173.5
t15 -277l-4 -29q-41 -291 -277.5 -418t-680.5 -127zM954 348q217 0 346.5 40t141.5 147l2 16q12 106 -68 136t-289 30q-207 0 -335.5 -35t-147.5 -139l-2 -13q-8 -51 8.5 -85.5t45 -53t83 -29t99 -12.5t116.5 -2z" />
    <glyph glyph-name="Oslash.aalt" horiz-adv-x="2027" 
d="M291 -154q-27 -16 -56.5 -8t-44.5 35l-135 233q-16 27 -8 55.5t35 45.5l76 43q18 10 10 29q-33 102 -8 262l4 30q86 526 962 527q236 0 394 -33q6 -2 14 2l207 121q29 16 56.5 9t43.5 -36l135 -235q16 -27 9 -54.5t-33 -44.5l-60 -34q-12 -10 -10 -25q23 -100 4 -233
l-4 -29q-41 -291 -277.5 -418t-680.5 -127q-213 0 -373 33q-8 2 -14 -2zM954 348q217 0 346.5 40t141.5 147l2 16q12 106 -68 136t-289 30q-207 0 -335.5 -35t-147.5 -139l-2 -13q-8 -51 8.5 -85.5t45 -53t83 -29t99 -12.5t116.5 -2z" />
    <glyph glyph-name="Otilde.aalt" horiz-adv-x="2027" 
d="M680 1180q-35 0 -57.5 24.5t-18.5 61.5q31 193 122 276.5t212 83.5q49 0 86 -7t56.5 -15.5t60.5 -26.5q86 -41 108 -41q39 0 56 35q23 47 59 47h203q37 0 59.5 -25.5t15.5 -62.5q-33 -190 -135 -276.5t-233 -86.5q-86 0 -176 50q-84 45 -105 45q-35 0 -49 -35
q-20 -47 -57 -47h-207zM924 -39q-211 0 -363.5 32t-233.5 86t-128 128t-48 159t9 175l4 30q86 526 962 527q211 0 354.5 -25.5t248 -87t142.5 -173.5t15 -277l-4 -29q-41 -291 -277.5 -418t-680.5 -127zM954 348q217 0 346.5 40t141.5 147l2 16q12 106 -68 136t-289 30
q-207 0 -335.5 -35t-147.5 -139l-2 -13q-8 -51 8.5 -85.5t45 -53t83 -29t99 -12.5t116.5 -2z" />
    <glyph glyph-name="OE.aalt" horiz-adv-x="2949" 
d="M829 -39q-383 0 -544.5 151.5t-122.5 436.5l2 18q35 268 255 399.5t650 131.5q270 0 401 -56q27 -10 46 0l10 7q14 8 71 8h1180q37 0 58.5 -25.5t17.5 -62.5l-31 -203q-10 -59 -67 -59h-826q-37 0 -49 -9.5t-16 -31.5l-2 -11q-4 -31 26 -30h606q41 0 61.5 -17.5
t16.5 -52.5l-8 -57q-4 -25 -22.5 -41.5t-44.5 -16.5h-652q-20 0 -24 -20l-6 -33q-4 -31 26 -31h828q37 0 58 -25.5t17 -62.5l-30 -209q-2 -27 -22.5 -43t-47.5 -16h-1200q-35 0 -51 12l-15 11q-12 8 -96 -13q-201 -49 -453 -49zM954 344q276 0 406 55q27 12 33 39l30 189
q4 25 -1 35t-27 20q-90 39 -308 39q-463 0 -489 -164l-4 -22q-18 -109 82 -150t278 -41z" />
    <glyph glyph-name="P.aalt" horiz-adv-x="1777" 
d="M231 0q-37 0 -59 25.5t-16 64.5l143 907q10 59 70 60h837q242 0 368 -74t126 -258q0 -252 -155.5 -372t-497.5 -120h-422q-20 0 -25 -20l-25 -154q-10 -59 -69 -59h-275zM688 571h451q66 0 97.5 17.5t31.5 62.5q0 53 -76 54h-467q-47 0 -53 -46l-10 -57q-5 -31 26 -31z
" />
    <glyph glyph-name="Thorn.aalt" horiz-adv-x="1779" 
d="M252 0q-37 0 -59.5 25.5t-16.5 64.5l143 907q10 59 70 60h270q35 0 60.5 -21.5t17.5 -50.5l-2 -8q-2 -10 4 -17.5t23 -7.5h467q248 0 356.5 -69.5t108.5 -268.5q0 -213 -167 -329.5t-480 -116.5h-416q-20 0 -25 -21l-12 -88q-10 -59 -68 -59h-274zM690 487h397
q174 0 175 78q0 57 -113 58h-447q-20 0 -24 -21l-14 -84q-5 -31 26 -31z" />
    <glyph glyph-name="Q.aalt" horiz-adv-x="2027" 
d="M1503 -295q-14 -23 -40.5 -29t-51.5 9l-459 260q-29 16 -75 16q-16 0 -49 1t-48 1q-176 8 -301 44t-191.5 90.5t-103.5 126t-35.5 151.5t11.5 166l4 30q86 526 962 527q211 0 354.5 -25.5t248 -87t142.5 -173.5t15 -277l-4 -29q-41 -305 -313 -436q-23 -10 -23 -31
t21 -31l30 -16q33 -16 42.5 -50t-13.5 -65zM954 348q217 0 346.5 40t141.5 147l2 16q12 106 -68 136t-289 30q-207 0 -335.5 -35t-147.5 -139l-2 -13q-8 -51 8.5 -85.5t45 -53t83 -29t99 -12.5t116.5 -2z" />
    <glyph glyph-name="R.aalt" horiz-adv-x="1855" 
d="M231 0q-37 0 -59 25.5t-16 64.5l143 907q10 59 70 60h893q264 0 381.5 -72t117.5 -260q0 -303 -291 -406q-16 -6 -20 -20t8 -29l92 -96q51 -53 25.5 -113.5t-98.5 -60.5h-287q-31 0 -47 23l-150 188q-41 51 -80 51h-284q-20 0 -25 -20l-29 -183q-4 -27 -23.5 -43
t-45.5 -16h-275zM692 586h498q141 0 141 71q0 49 -92 50h-502q-37 0 -48 -9.5t-15 -33.5l-8 -48q-5 -30 26 -30z" />
    <glyph glyph-name="Racute.aalt" horiz-adv-x="1855" 
d="M1438 1501q16 -29 7 -58.5t-38 -45.5l-420 -223q-55 -29 -90 20l-49 68q-39 53 12 96l371 313q29 25 63.5 20t53.5 -38zM231 0q-37 0 -59 25.5t-16 64.5l143 907q10 59 70 60h893q264 0 381.5 -72t117.5 -260q0 -303 -291 -406q-16 -6 -20 -20t8 -29l92 -96
q51 -53 25.5 -113.5t-98.5 -60.5h-287q-31 0 -47 23l-150 188q-41 51 -80 51h-284q-20 0 -25 -20l-29 -183q-4 -27 -23.5 -43t-45.5 -16h-275zM692 586h498q141 0 141 71q0 49 -92 50h-502q-37 0 -48 -9.5t-15 -33.5l-8 -48q-5 -30 26 -30z" />
    <glyph glyph-name="Rcaron.aalt" horiz-adv-x="1855" 
d="M1159 1190q-35 -33 -56.5 -42t-64.5 -9h-90q-39 0 -59.5 10t-46.5 45l-252 326q-35 47 4 90l74 80q18 20 44.5 23t49.5 -13l182 -146q57 -45 76.5 -48t69.5 24l247 141q53 31 93 -18l51 -70q37 -47 -8 -92zM231 0q-37 0 -59 25.5t-16 64.5l143 907q10 59 70 60h893
q264 0 381.5 -72t117.5 -260q0 -303 -291 -406q-16 -6 -20 -20t8 -29l92 -96q51 -53 25.5 -113.5t-98.5 -60.5h-287q-31 0 -47 23l-150 188q-41 51 -80 51h-284q-20 0 -25 -20l-29 -183q-4 -27 -23.5 -43t-45.5 -16h-275zM692 586h498q141 0 141 71q0 49 -92 50h-502
q-37 0 -48 -9.5t-15 -33.5l-8 -48q-5 -30 26 -30z" />
    <glyph glyph-name="uni0156.aalt" horiz-adv-x="1855" 
d="M231 0q-37 0 -59 25.5t-16 64.5l143 907q10 59 70 60h893q264 0 381.5 -72t117.5 -260q0 -303 -291 -406q-16 -6 -20 -20t8 -29l92 -96q51 -53 25.5 -113.5t-98.5 -60.5h-287q-31 0 -47 23l-150 188q-41 51 -80 51h-284q-20 0 -25 -20l-29 -183q-4 -27 -23.5 -43
t-45.5 -16h-275zM692 586h498q141 0 141 71q0 49 -92 50h-502q-37 0 -48 -9.5t-15 -33.5l-8 -48q-5 -30 26 -30zM479 -631q-35 2 -54 29t-13 61l12 66q12 61 84 55q80 -8 154 -2q98 8 139 31q18 12 8 18q-6 4 -18 -4q-49 -23 -125 -22q-109 0 -155 44t-34 117
q23 145 275 146q158 0 240.5 -76t64.5 -215q-25 -152 -183.5 -209t-394.5 -39z" />
    <glyph glyph-name="S.aalt" horiz-adv-x="1708" 
d="M838 -39q-459 0 -707 92q-59 20 -39 88l72 207q12 35 43 47.5t63 -4.5q207 -94 637 -94q223 0 223 39q0 23 -65 24l-406 25q-285 18 -395 101t-110 229q0 113 55 189.5t159.5 117.5t231.5 58.5t295 17.5q328 0 631 -64q39 -10 54 -43t-1 -69l-88 -179q-23 -49 -80 -36
q-193 49 -571 59q-106 0 -165 -5t-77 -12.5t-18 -21.5q0 -27 147 -35l371 -20q242 -14 352.5 -79t110.5 -224q0 -213 -182.5 -310.5t-540.5 -97.5z" />
    <glyph glyph-name="Sacute.aalt" horiz-adv-x="1708" 
d="M1368 1501q16 -29 7 -58.5t-38 -45.5l-419 -223q-55 -29 -91 20l-49 68q-39 53 13 96l370 313q29 25 64 20t53 -38zM838 -39q-459 0 -707 92q-59 20 -39 88l72 207q12 35 43 47.5t63 -4.5q207 -94 637 -94q223 0 223 39q0 23 -65 24l-406 25q-285 18 -395 101t-110 229
q0 113 55 189.5t159.5 117.5t231.5 58.5t295 17.5q328 0 631 -64q39 -10 54 -43t-1 -69l-88 -179q-23 -49 -80 -36q-193 49 -571 59q-106 0 -165 -5t-77 -12.5t-18 -21.5q0 -27 147 -35l371 -20q242 -14 352.5 -79t110.5 -224q0 -213 -182.5 -310.5t-540.5 -97.5z" />
    <glyph glyph-name="Scaron.aalt" horiz-adv-x="1708" 
d="M1090 1190q-35 -33 -56.5 -42t-64.5 -9h-90q-39 0 -59.5 10t-47.5 45l-252 326q-35 47 4 90l74 80q18 20 45 23t49 -13l182 -146q57 -45 77 -48t69 24l248 141q53 31 92 -18l51 -70q37 -47 -8 -92zM838 -39q-459 0 -707 92q-59 20 -39 88l72 207q12 35 43 47.5t63 -4.5
q207 -94 637 -94q223 0 223 39q0 23 -65 24l-406 25q-285 18 -395 101t-110 229q0 113 55 189.5t159.5 117.5t231.5 58.5t295 17.5q328 0 631 -64q39 -10 54 -43t-1 -69l-88 -179q-23 -49 -80 -36q-193 49 -571 59q-106 0 -165 -5t-77 -12.5t-18 -21.5q0 -27 147 -35
l371 -20q242 -14 352.5 -79t110.5 -224q0 -213 -182.5 -310.5t-540.5 -97.5z" />
    <glyph glyph-name="Scedilla.c2sc" horiz-adv-x="1708" 
d="M840 766q-106 0 -165 -5t-77 -12.5t-18 -21.5q0 -27 147 -35l371 -20q242 -14 352.5 -79t110.5 -224q0 -213 -182.5 -310.5t-540.5 -97.5h-47q-4 -16 11 -27.5t60 -19.5q168 -31 154 -182q-12 -115 -101.5 -158t-236.5 -43q-117 0 -207 20q-29 6 -41 30t-4 54l14 52
q20 66 92 49q49 -8 111 -8q86 0 86 20q0 23 -96 29q-57 4 -81 34.5t-13 75.5l20 84q-264 20 -428 82q-59 20 -39 88l72 207q12 35 43 47.5t63 -4.5q207 -94 637 -94q223 0 223 39q0 23 -65 24l-406 25q-285 18 -395 101t-110 229q0 113 55 189.5t159.5 117.5t231.5 58.5
t295 17.5q328 0 631 -64q39 -10 54 -43t-1 -69l-88 -179q-23 -49 -80 -36q-192 49 -571 59z" />
    <glyph glyph-name="uni0218.aalt" horiz-adv-x="1708" 
d="M838 -39q-459 0 -707 92q-59 20 -39 88l72 207q12 35 43 47.5t63 -4.5q207 -94 637 -94q223 0 223 39q0 23 -65 24l-406 25q-285 18 -395 101t-110 229q0 113 55 189.5t159.5 117.5t231.5 58.5t295 17.5q328 0 631 -64q39 -10 54 -43t-1 -69l-88 -179q-23 -49 -80 -36
q-193 49 -571 59q-106 0 -165 -5t-77 -12.5t-18 -21.5q0 -27 147 -35l371 -20q242 -14 352.5 -79t110.5 -224q0 -213 -182.5 -310.5t-540.5 -97.5zM360 -631q-35 2 -54 29t-13 61l12 66q12 61 84 55q80 -8 154 -2q98 8 139 31q18 12 8 18q-6 4 -18 -4q-49 -23 -125 -22
q-109 0 -155 44t-34 117q23 145 275 146q158 0 240.5 -76t64.5 -215q-25 -152 -183.5 -209t-394.5 -39z" />
    <glyph glyph-name="T.aalt" horiz-adv-x="1495" 
d="M543 0q-37 0 -59.5 25.5t-16.5 62.5l92 590q4 31 -27 31h-354q-37 0 -59.5 25.5t-16.5 64.5l31 198q10 59 70 60h1245q37 0 59.5 -25.5t16.5 -64.5l-31 -199q-10 -59 -70 -59h-403q-20 0 -25 -21l-98 -629q-10 -59 -68 -59h-286z" />
    <glyph glyph-name="Tbar.aalt" horiz-adv-x="1495" 
d="M1448 1057q37 0 59.5 -25.5t16.5 -64.5l-31 -199q-10 -59 -70 -59h-403q-20 0 -25 -21l-8 -55q-4 -31 25 -31h215q35 0 57.5 -25.5t18.5 -60.5l-21 -162q-4 -27 -23.5 -44t-46.5 -17h-258q-20 0 -24 -21l-33 -213q-10 -59 -68 -59h-286q-37 0 -59.5 25.5t-16.5 62.5
l29 174q4 31 -27 31h-207q-35 0 -57.5 25.5t-18.5 60.5l21 162q4 27 23.5 44t45.5 17h250q20 0 25 21l8 55q4 31 -27 31h-354q-37 0 -59.5 25.5t-16.5 64.5l31 198q10 59 70 60h1245z" />
    </font>
</defs>
</svg>
