<?xml version="1.0" standalone="no"?>
<!DOCTYPE svg PUBLIC "-//W3C//DTD SVG 20010904//EN"
 "http://www.w3.org/TR/2001/REC-SVG-20010904/DTD/svg10.dtd">
<svg version="1.0" xmlns="http://www.w3.org/2000/svg"
 width="480.000000pt" height="480.000000pt" viewBox="0 0 480.000000 480.000000"
 preserveAspectRatio="xMidYMid meet">
<metadata>
Created by potrace 1.11, written by Peter Selinger 2001-2013
</metadata>
<g transform="translate(0.000000,480.000000) scale(0.100000,-0.100000)"
fill="#000000" stroke="none">
<path d="M2219 4786 c-2 -2 -33 -7 -69 -10 -219 -23 -432 -76 -670 -167 -77
-30 -301 -150 -397 -212 -458 -300 -809 -764 -972 -1283 -27 -88 -65 -241 -77
-314 -2 -14 -6 -39 -9 -56 -20 -119 -26 -396 -13 -549 27 -310 127 -634 283
-918 96 -176 135 -234 254 -382 58 -72 240 -259 302 -310 214 -177 421 -304
652 -399 174 -72 378 -131 532 -152 17 -3 40 -7 51 -9 58 -13 164 -19 319 -20
214 0 313 10 505 51 237 52 510 160 717 285 46 27 88 49 93 47 5 -2 71 -65
147 -140 144 -142 221 -198 310 -224 244 -71 505 60 588 296 48 137 30 297
-47 415 -18 28 -148 166 -290 309 -312 312 -324 331 -129 195 64 -45 123 -84
131 -86 23 -6 131 195 197 367 83 215 139 452 159 670 7 84 8 359 0 405 -2 17
-8 59 -11 95 -7 65 -10 84 -20 130 -3 14 -7 36 -10 50 -12 65 -19 92 -46 187
-106 371 -306 718 -568 988 -218 226 -403 360 -676 495 -255 126 -456 186
-785 236 -40 6 -446 15 -451 10z m331 -960 c210 -29 339 -69 509 -156 170 -87
351 -235 454 -370 23 -30 45 -57 48 -60 15 -12 80 -121 121 -205 145 -287 188
-617 122 -929 -21 -100 -50 -196 -82 -267 l-28 -61 -84 82 c-140 136 -222 179
-360 187 -148 9 -272 -34 -368 -129 -156 -153 -187 -365 -84 -573 18 -36 97
-123 289 -316 155 -156 260 -269 254 -273 -9 -6 -155 85 -206 127 -5 5 -61 44
-124 87 l-113 79 -34 -14 c-47 -19 -245 -62 -324 -70 -110 -11 -274 -7 -370
10 -14 3 -39 7 -56 10 -45 7 -203 54 -244 72 -157 69 -236 114 -340 191 -317
235 -527 608 -567 1007 -42 423 108 845 407 1145 108 109 184 169 298 235 191
111 384 173 597 191 39 4 71 7 72 8 4 4 178 -3 213 -8z"/>
<path d="M4480 4777 c-19 -6 -55 -32 -81 -57 -107 -102 -97 -270 20 -355 55
-40 105 -55 169 -48 126 12 221 128 208 255 -15 155 -165 253 -316 205z m166
-53 c38 -18 81 -64 96 -103 30 -78 -3 -178 -75 -228 -34 -24 -50 -28 -106 -28
-76 1 -121 24 -162 84 -19 28 -24 47 -24 101 0 56 4 73 28 109 51 77 158 105
243 65z"/>
<path d="M4488 4672 c-16 -3 -18 -17 -18 -123 l0 -119 26 0 c20 0 25 5 24 23
-6 71 21 77 73 17 20 -24 43 -40 55 -40 30 0 28 18 -5 53 -25 25 -26 30 -12
40 23 17 38 50 34 73 -2 10 -4 25 -4 31 -2 32 -106 59 -173 45z m120 -55 c13
-15 5 -57 -12 -58 -76 -6 -74 -6 -78 21 -2 15 -2 32 0 38 5 16 77 15 90 -1z"/>
</g>
</svg>
